<svg width="90" height="91" viewBox="0 0 90 91" fill="none" xmlns="http://www.w3.org/2000/svg">
<path d="M61.875 36.0557H39.375C38.5983 36.0557 37.9688 36.6853 37.9688 37.4619V88.0869C37.9688 88.8636 38.5983 89.4932 39.375 89.4932H61.875C62.6517 89.4932 63.2812 88.8636 63.2812 88.0869V37.4619C63.2812 36.6853 62.6517 36.0557 61.875 36.0557Z" fill="#1967D2"/>
<path d="M46.7373 28.0737L45.6657 31.4051C45.5742 31.6881 45.5748 31.9927 45.6673 32.2753C45.7598 32.5579 45.9395 32.8039 46.1806 32.978C46.4217 33.1521 46.7118 33.2452 47.0091 33.2441C47.3065 33.243 47.5958 33.1476 47.8356 32.9717L50.6256 30.9256L53.4156 32.9717C53.6553 33.1476 53.9447 33.243 54.242 33.2441C54.5394 33.2452 54.8295 33.1521 55.0706 32.978C55.3117 32.8039 55.4914 32.5579 55.5839 32.2753C55.6764 31.9927 55.6769 31.6881 55.5854 31.4051L54.5139 28.0737L57.3179 26.0178C57.5568 25.8424 57.7341 25.596 57.8246 25.3137C57.9151 25.0315 57.9142 24.7279 57.8218 24.4463C57.7295 24.1647 57.5506 23.9194 57.3106 23.7456C57.0706 23.5717 56.7818 23.4781 56.4854 23.4781H53.0331L51.9643 20.1551C51.8719 19.8738 51.6929 19.6288 51.453 19.4552C51.2131 19.2815 50.9245 19.188 50.6284 19.188C50.3322 19.188 50.0437 19.2815 49.8038 19.4552C49.5639 19.6288 49.3849 19.8738 49.2925 20.1551L48.2237 23.4781H44.7657C44.4694 23.4781 44.1806 23.5717 43.9406 23.7456C43.7006 23.9194 43.5217 24.1647 43.4293 24.4463C43.337 24.7279 43.336 25.0315 43.4265 25.3137C43.517 25.596 43.6944 25.8424 43.9332 26.0178L46.7373 28.0737Z" fill="#1967D2"/>
<path d="M33.75 64.1807H16.875C16.0983 64.1807 15.4688 64.8103 15.4688 65.5869V88.0869C15.4688 88.8636 16.0983 89.4932 16.875 89.4932H33.75C34.5267 89.4932 35.1562 88.8636 35.1562 88.0869V65.5869C35.1562 64.8103 34.5267 64.1807 33.75 64.1807Z" fill="#1967D2"/>
<path d="M84.3749 52.9307H67.4999C66.7232 52.9307 66.0938 53.5603 66.0938 54.3369V88.0869C66.0938 88.8636 66.7232 89.4932 67.4999 89.4932H84.3749C85.1516 89.4932 85.7811 88.8636 85.7811 88.0869V54.3369C85.7811 53.5603 85.1516 52.9307 84.3749 52.9307Z" fill="#1967D2"/>
<path d="M43.5938 20.5869C42.5807 20.5919 41.5883 20.8734 40.7236 21.4011C40.6261 20.4361 40.2795 19.513 39.718 18.7222C39.1564 17.9314 38.399 17.3 37.5201 16.8898C36.6412 16.4797 35.6707 16.3049 34.7039 16.3826C33.7371 16.4602 32.8071 16.7877 32.0048 17.3329C31.7396 16.5489 31.3025 15.8341 30.7255 15.2407C30.1486 14.6474 29.4463 14.1905 28.67 13.9034C27.8938 13.6163 27.0632 13.5063 26.239 13.5814C25.4148 13.6565 24.6178 13.9148 23.9063 14.3375V7.93066C23.9063 6.43882 23.3136 5.00808 22.2587 3.95319C21.2038 2.8983 19.7731 2.30566 18.2813 2.30566C16.7894 2.30566 15.3587 2.8983 14.3038 3.95319C13.2489 5.00808 12.6563 6.43882 12.6563 7.93066V25.5088H9.84375C8.47306 25.5229 7.15263 26.0268 6.12103 26.9295C5.08942 27.8321 4.41469 29.074 4.21875 30.4307V39.4166C4.21745 41.6528 4.7006 43.8628 5.63497 45.8944C6.56935 47.926 7.93276 49.7311 9.63141 51.1855C11.0219 52.3761 12.138 53.8538 12.903 55.5169C13.6679 57.18 14.0635 58.9891 14.0625 60.8197V61.5678C12.7383 61.9087 11.5841 62.721 10.8164 63.8525C10.0487 64.984 9.72031 66.3567 9.89292 67.7131C10.0655 69.0695 10.7273 70.3162 11.7539 71.2194C12.7805 72.1225 14.1014 72.6199 15.4688 72.6182H39.375C40.7423 72.6199 42.0633 72.1225 43.0899 71.2194C44.1165 70.3162 44.7782 69.0695 44.9508 67.7131C45.1234 66.3567 44.7951 64.984 44.0274 63.8525C43.2597 62.721 42.1054 61.9087 40.7813 61.5678V60.3022C40.792 56.8583 42.1598 53.5574 44.588 51.1152C46.0567 49.6478 47.2217 47.9052 48.0163 45.9871C48.8109 44.069 49.2195 42.0131 49.2188 39.9369V26.2119C49.2188 24.7201 48.6261 23.2893 47.5712 22.2344C46.5163 21.1795 45.0856 20.5869 43.5938 20.5869ZM32.3438 21.9932C32.3438 21.2472 32.6401 20.5319 33.1675 20.0044C33.695 19.477 34.4103 19.1807 35.1563 19.1807C35.9022 19.1807 36.6175 19.477 37.145 20.0044C37.6724 20.5319 37.9688 21.2472 37.9688 21.9932V29.0244C37.9688 29.7703 37.6724 30.4857 37.145 31.0132C36.6175 31.5406 35.9022 31.8369 35.1563 31.8369C34.4103 31.8369 33.695 31.5406 33.1675 31.0132C32.6401 30.4857 32.3438 29.7703 32.3438 29.0244V21.9932ZM23.9063 19.1807C23.9063 18.4347 24.2026 17.7194 24.73 17.1919C25.2575 16.6645 25.9728 16.3682 26.7188 16.3682C27.4647 16.3682 28.18 16.6645 28.7075 17.1919C29.2349 17.7194 29.5313 18.4347 29.5313 19.1807V26.7449C28.5346 25.9441 27.2942 25.5079 26.0156 25.5088H23.9063V19.1807ZM15.4688 7.93066C15.4688 7.18474 15.7651 6.46937 16.2925 5.94193C16.82 5.41448 17.5353 5.11816 18.2813 5.11816C19.0272 5.11816 19.7425 5.41448 20.27 5.94193C20.7974 6.46937 21.0938 7.18474 21.0938 7.93066V25.5088H15.4688V7.93066ZM42.1875 66.9932C42.1875 67.7391 41.8912 68.4545 41.3637 68.9819C40.8363 69.5094 40.1209 69.8057 39.375 69.8057H15.4688C14.7228 69.8057 14.0075 69.5094 13.48 68.9819C12.9526 68.4545 12.6563 67.7391 12.6563 66.9932C12.6563 66.2472 12.9526 65.5319 13.48 65.0044C14.0075 64.477 14.7228 64.1807 15.4688 64.1807H39.375C40.1209 64.1807 40.8363 64.477 41.3637 65.0044C41.8912 65.5319 42.1875 66.2472 42.1875 66.9932ZM46.4063 39.9369C46.4065 41.6433 46.0705 43.3329 45.4173 44.9093C44.7641 46.4857 43.8066 47.9179 42.5995 49.1239C39.645 52.0943 37.9811 56.1099 37.9688 60.2994V61.3682H16.875V60.8197C16.8763 58.5835 16.3932 56.3736 15.4588 54.3419C14.5244 52.3103 13.161 50.5052 11.4623 49.0508C10.0718 47.8602 8.95572 46.3825 8.1908 44.7194C7.42587 43.0563 7.03029 41.2472 7.03125 39.4166V31.1338C7.03125 30.3879 7.32757 29.6725 7.85501 29.1451C8.38246 28.6176 9.09783 28.3213 9.84375 28.3213H26.0156C26.7615 28.3213 27.4769 28.6176 28.0044 29.1451C28.5318 29.6725 28.8281 30.3879 28.8281 31.1338C28.8281 31.8797 28.5318 32.5951 28.0044 33.1225C27.4769 33.65 26.7615 33.9463 26.0156 33.9463H16.875C16.502 33.9463 16.1444 34.0944 15.8806 34.3582C15.6169 34.6219 15.4688 34.9796 15.4688 35.3525C15.4688 35.7255 15.6169 36.0832 15.8806 36.3469C16.1444 36.6106 16.502 36.7588 16.875 36.7588H26.0156C27.1631 36.7557 28.2819 36.4005 29.221 35.7411C30.1601 35.0817 30.8741 34.1499 31.2666 33.0716C31.8115 33.6022 32.4595 34.0154 33.1704 34.2858C33.8813 34.5562 34.6401 34.6781 35.3999 34.6438C36.1597 34.6095 36.9045 34.4199 37.5882 34.0866C38.2719 33.7533 38.88 33.2834 39.375 32.706C40.2199 33.7005 41.3902 34.3631 42.6777 34.5758C43.9652 34.7884 45.2864 34.5375 46.4063 33.8675V39.9369ZM46.4063 29.0244C46.4063 29.7703 46.1099 30.4857 45.5825 31.0132C45.055 31.5406 44.3397 31.8369 43.5938 31.8369C42.8478 31.8369 42.1325 31.5406 41.605 31.0132C41.0776 30.4857 40.7813 29.7703 40.7813 29.0244V26.2119C40.7813 25.466 41.0776 24.7506 41.605 24.2232C42.1325 23.6957 42.8478 23.3994 43.5938 23.3994C44.3397 23.3994 45.055 23.6957 45.5825 24.2232C46.1099 24.7506 46.4063 25.466 46.4063 26.2119V29.0244Z" fill="#151A6A"/>
</svg>
