<svg width="90" height="91" viewBox="0 0 90 91" fill="none" xmlns="http://www.w3.org/2000/svg">
<path d="M56.25 27.6182C53.1906 27.6182 50.1999 28.5254 47.656 30.2251C45.1122 31.9248 43.1295 34.3407 41.9587 37.1673C40.788 39.9938 40.4816 43.1041 41.0785 46.1047C41.6753 49.1054 43.1486 51.8616 45.3119 54.025C47.4753 56.1883 50.2316 57.6616 53.2322 58.2584C56.2328 58.8553 59.3431 58.549 62.1696 57.3782C64.9962 56.2074 67.4121 54.2247 69.1118 51.6809C70.8115 49.1371 71.7188 46.1463 71.7188 43.0869C71.7139 38.9858 70.0826 35.0541 67.1827 32.1542C64.2828 29.2543 60.3511 27.623 56.25 27.6182ZM65.7324 41.4121L61.2099 44.6985L62.9367 50.0169C63.0281 50.2993 63.0278 50.6033 62.9358 50.8855C62.8438 51.1677 62.665 51.4135 62.4248 51.5879C62.1846 51.7622 61.8954 51.856 61.5986 51.856C61.3018 51.856 61.0127 51.7621 60.7725 51.5877L56.25 48.2985L51.7275 51.5849C51.4874 51.7592 51.1982 51.8532 50.9014 51.8532C50.6046 51.8532 50.3154 51.7594 50.0752 51.585C49.8351 51.4107 49.6562 51.1649 49.5642 50.8827C49.4723 50.6005 49.4719 50.2965 49.5633 50.0141L51.2902 44.6957L46.7677 41.4093C46.5286 41.2343 46.3509 40.9883 46.2599 40.7064C46.1689 40.4245 46.1692 40.121 46.2609 39.8393C46.3526 39.5576 46.5309 39.312 46.7703 39.1376C47.0098 38.9632 47.2983 38.8689 47.5945 38.8682H53.1844L54.9127 33.5525C55.0051 33.2712 55.1841 33.0262 55.424 32.8526C55.6639 32.6789 55.9524 32.5854 56.2486 32.5854C56.5448 32.5854 56.8333 32.6789 57.0732 32.8526C57.3131 33.0262 57.4921 33.2712 57.5845 33.5525L59.3156 38.8682H64.9055C65.2017 38.8689 65.4902 38.9632 65.7297 39.1376C65.9692 39.312 66.1475 39.5576 66.2391 39.8393C66.3308 40.121 66.3312 40.4245 66.2402 40.7064C66.1491 40.9883 65.9714 41.2343 65.7324 41.4093V41.4121Z" fill="#1967D2"/>
<path d="M56.2498 19.1807C51.6964 19.1784 47.2372 20.4773 43.3973 22.9245C39.5574 25.3717 36.4968 28.8652 34.5759 32.9935C32.6549 37.1219 31.9537 41.7132 32.5548 46.2268C33.1559 50.7403 35.0342 54.9881 37.9686 58.4699V82.4619C37.9686 82.74 38.0512 83.0118 38.2057 83.243C38.3602 83.4742 38.5798 83.6544 38.8367 83.7608C39.0937 83.8673 39.3764 83.8951 39.6491 83.8409C39.9218 83.7866 40.1724 83.6527 40.3691 83.4561L43.5936 80.2302V88.0869C43.5936 88.365 43.6762 88.6368 43.8307 88.868C43.9852 89.0992 44.2048 89.2794 44.4617 89.3858C44.7187 89.4923 45.0014 89.5201 45.2741 89.4659C45.5468 89.4116 45.7974 89.2777 45.9941 89.0811L56.2498 78.8239L66.5056 89.0783C66.7021 89.2748 66.9524 89.4086 67.2249 89.4629C67.4974 89.5172 67.7798 89.4896 68.0367 89.3836C68.2935 89.2775 68.5131 89.0977 68.6678 88.867C68.8226 88.6362 68.9055 88.3648 68.9061 88.0869V80.2302L72.1306 83.4533C72.3271 83.6498 72.5774 83.7836 72.8499 83.8379C73.1224 83.8922 73.4048 83.8646 73.6617 83.7586C73.9185 83.6525 74.1381 83.4727 74.2928 83.242C74.4476 83.0112 74.5305 82.7398 74.5311 82.4619V58.4699C77.4655 54.9881 79.3438 50.7403 79.9449 46.2268C80.546 41.7132 79.8447 37.1219 77.9238 32.9935C76.0029 28.8652 72.9422 25.3717 69.1024 22.9245C65.2625 20.4773 60.8032 19.1784 56.2498 19.1807ZM43.5936 76.2519L40.7811 79.0644V61.3189C41.6821 62.0519 42.6209 62.7372 43.5936 63.3721V76.2519ZM71.7186 79.0644L68.9061 76.2519V63.3721C69.8816 62.7414 70.8206 62.0559 71.7186 61.3189V79.0644ZM56.2498 61.3682C52.6341 61.3682 49.0997 60.296 46.0933 58.2872C43.087 56.2785 40.7438 53.4233 39.3602 50.0828C37.9765 46.7424 37.6145 43.0666 38.3199 39.5204C39.0252 35.9742 40.7664 32.7168 43.323 30.1601C45.8797 27.6034 49.1371 25.8623 52.6833 25.1569C56.2296 24.4516 59.9053 24.8136 63.2458 26.1972C66.5862 27.5809 69.4414 29.9241 71.4501 32.9304C73.4589 35.9367 74.5311 39.4712 74.5311 43.0869C74.5255 47.9337 72.5977 52.5804 69.1705 56.0075C65.7433 59.4347 61.0966 61.3626 56.2498 61.3682Z" fill="#1967D2"/>
<path d="M28.125 16.3682H39.375C39.748 16.3682 40.1056 16.22 40.3694 15.9563C40.6331 15.6926 40.7812 15.3349 40.7812 14.9619C40.7812 14.589 40.6331 14.2313 40.3694 13.9675C40.1056 13.7038 39.748 13.5557 39.375 13.5557H28.125C27.752 13.5557 27.3944 13.7038 27.1306 13.9675C26.8669 14.2313 26.7188 14.589 26.7188 14.9619C26.7188 15.3349 26.8669 15.6926 27.1306 15.9563C27.3944 16.22 27.752 16.3682 28.125 16.3682Z" fill="#151A6A"/>
<path d="M57.6562 40.401V6.52441C57.6562 5.40553 57.2118 4.33248 56.4206 3.54131C55.6294 2.75014 54.5564 2.30566 53.4375 2.30566H14.0625C12.9436 2.30566 11.8706 2.75014 11.0794 3.54131C10.2882 4.33248 9.84375 5.40553 9.84375 6.52441V68.3994C9.84375 69.5183 10.2882 70.5913 11.0794 71.3825C11.8706 72.1737 12.9436 72.6182 14.0625 72.6182H52.0312C52.3978 72.6052 52.7473 72.4604 53.0156 72.2104L56.25 68.9816L59.4745 72.2061C59.6712 72.4027 59.9217 72.5366 60.1945 72.5909C60.4672 72.6451 60.7499 72.6172 61.0069 72.5108C61.2638 72.4044 61.4834 72.2242 61.6379 71.993C61.7924 71.7618 61.8749 71.49 61.875 71.2119V54.9838C63.0589 53.927 63.92 52.5571 64.359 51.0321C64.7979 49.507 64.7968 47.8889 64.3558 46.3645C63.9148 44.84 63.0518 43.4713 61.8664 42.4161C60.681 41.361 59.2215 40.6624 57.6562 40.401ZM50.625 69.8057H14.0625C13.6895 69.8057 13.3319 69.6575 13.0681 69.3938C12.8044 69.1301 12.6562 68.7724 12.6562 68.3994V6.52441C12.6562 6.15145 12.8044 5.79377 13.0681 5.53005C13.3319 5.26632 13.6895 5.11816 14.0625 5.11816H53.4375C53.8105 5.11816 54.1681 5.26632 54.4319 5.53005C54.6956 5.79377 54.8438 6.15145 54.8438 6.52441V40.3911C53.2775 40.6559 51.8178 41.3575 50.6326 42.4151C49.4474 43.4727 48.5848 44.8434 48.1441 46.3695C47.7033 47.8956 47.7023 49.5152 48.1412 51.0418C48.5801 52.5685 49.4411 53.9402 50.625 54.9993V69.8057ZM59.0625 67.8172L57.2442 65.9989C56.9805 65.7353 56.6229 65.5872 56.25 65.5872C55.8771 65.5872 55.5195 65.7353 55.2558 65.9989L53.4375 67.8172V56.6741C55.2589 57.3079 57.2411 57.3079 59.0625 56.6741V67.8172ZM59.625 53.2119C58.647 53.9266 57.467 54.3118 56.2556 54.3118C55.0443 54.3118 53.8643 53.9266 52.8863 53.2119C51.9418 52.5036 51.2441 51.516 50.8921 50.3891C50.5401 49.2622 50.5516 48.0531 50.9249 46.9331C51.2982 45.8131 52.0145 44.839 52.9723 44.1487C53.93 43.4584 55.0807 43.0869 56.2612 43.0869C57.4418 43.0869 58.5925 43.4584 59.5502 44.1487C60.508 44.839 61.2243 45.8131 61.5976 46.9331C61.9709 48.0531 61.9824 49.2622 61.6304 50.3891C61.2784 51.516 60.5807 52.5036 59.6362 53.2119H59.625Z" fill="#151A6A"/>
<path d="M45 24.8057H22.5C22.127 24.8057 21.7694 24.9538 21.5056 25.2175C21.2419 25.4813 21.0938 25.839 21.0938 26.2119C21.0938 26.5849 21.2419 26.9426 21.5056 27.2063C21.7694 27.47 22.127 27.6182 22.5 27.6182H45C45.373 27.6182 45.7306 27.47 45.9944 27.2063C46.2581 26.9426 46.4062 26.5849 46.4062 26.2119C46.4062 25.839 46.2581 25.4813 45.9944 25.2175C45.7306 24.9538 45.373 24.8057 45 24.8057Z" fill="#151A6A"/>
<path d="M45 34.6494H22.5C22.127 34.6494 21.7694 34.7976 21.5056 35.0613C21.2419 35.325 21.0938 35.6827 21.0938 36.0557C21.0938 36.4286 21.2419 36.7863 21.5056 37.05C21.7694 37.3138 22.127 37.4619 22.5 37.4619H45C45.373 37.4619 45.7306 37.3138 45.9944 37.05C46.2581 36.7863 46.4062 36.4286 46.4062 36.0557C46.4062 35.6827 46.2581 35.325 45.9944 35.0613C45.7306 34.7976 45.373 34.6494 45 34.6494Z" fill="#151A6A"/>
<path d="M45 44.4932H22.5C22.127 44.4932 21.7694 44.6413 21.5056 44.905C21.2419 45.1688 21.0938 45.5265 21.0938 45.8994C21.0938 46.2724 21.2419 46.6301 21.5056 46.8938C21.7694 47.1575 22.127 47.3057 22.5 47.3057H45C45.373 47.3057 45.7306 47.1575 45.9944 46.8938C46.2581 46.6301 46.4062 46.2724 46.4062 45.8994C46.4062 45.5265 46.2581 45.1688 45.9944 44.905C45.7306 44.6413 45.373 44.4932 45 44.4932Z" fill="#151A6A"/>
</svg>
