<svg width="90" height="91" viewBox="0 0 90 91" fill="none" xmlns="http://www.w3.org/2000/svg">
<path d="M79.4531 19.1807H26.0156C25.6427 19.1807 25.285 19.3288 25.0213 19.5925C24.7575 19.8563 24.6094 20.214 24.6094 20.5869C24.6094 20.9599 24.7575 21.3176 25.0213 21.5813C25.285 21.845 25.6427 21.9932 26.0156 21.9932H28.8281V69.8057C28.8292 70.4604 28.9822 71.106 29.275 71.6916C29.5678 72.2772 29.9925 72.7869 30.5156 73.1807L51.8906 89.2119C52.134 89.3945 52.4301 89.4932 52.7344 89.4932C53.0386 89.4932 53.3347 89.3945 53.5781 89.2119L74.9531 73.1807C75.4759 72.7866 75.9004 72.2769 76.1932 71.6913C76.486 71.1058 76.6391 70.4603 76.6406 69.8057V21.9932H79.4531C79.8261 21.9932 80.1838 21.845 80.4475 21.5813C80.7112 21.3176 80.8594 20.9599 80.8594 20.5869C80.8594 20.214 80.7112 19.8563 80.4475 19.5925C80.1838 19.3288 79.8261 19.1807 79.4531 19.1807ZM73.8281 69.8057C73.8281 70.024 73.7773 70.2393 73.6797 70.4346C73.582 70.6298 73.4403 70.7997 73.2656 70.9307L52.7344 86.3291L32.2031 70.9307C32.0285 70.7997 31.8867 70.6298 31.7891 70.4346C31.6915 70.2393 31.6406 70.024 31.6406 69.8057V21.9932H34.4531V66.9932C34.4542 67.6479 34.6072 68.2935 34.9 68.8791C35.1928 69.4647 35.6175 69.9744 36.1406 70.3682L51.8906 82.1807C52.134 82.3632 52.4301 82.4619 52.7344 82.4619C53.0386 82.4619 53.3347 82.3632 53.5781 82.1807L69.3281 70.3682C69.8509 69.9741 70.2754 69.4644 70.5682 68.8788C70.861 68.2933 71.0141 67.6478 71.0156 66.9932V21.9932H73.8281V69.8057Z" fill="#1967D2"/>
<path d="M49.9228 20.5248V13.5217C49.9228 12.4028 49.4783 11.3298 48.6871 10.5386C47.896 9.74745 46.8229 9.30297 45.704 9.30297H38.9203L34.1812 2.84688C34.0445 2.67801 33.8718 2.54181 33.6757 2.44826C33.4796 2.3547 33.2651 2.30615 33.0478 2.30615C32.8305 2.30615 32.616 2.3547 32.4199 2.44826C32.2238 2.54181 32.051 2.67801 31.9143 2.84688L27.1753 9.30297H20.3915C19.2726 9.30297 18.1996 9.74745 17.4084 10.5386C16.6172 11.3298 16.1728 12.4028 16.1728 13.5217V20.5248C13.9436 22.7399 12.1746 25.3739 10.9674 28.2753C9.76015 31.1767 9.13867 34.2883 9.13867 37.4308C9.13867 40.5733 9.76015 43.6848 10.9674 46.5862C12.1746 49.4876 13.9436 52.1217 16.1728 54.3367V61.3398C16.1728 62.4587 16.6172 63.5318 17.4084 64.323C18.1996 65.1141 19.2726 65.5586 20.3915 65.5586H27.1753L31.9143 72.0161C32.045 72.194 32.2157 72.3386 32.4126 72.4383C32.6095 72.538 32.8271 72.59 33.0478 72.59C33.2685 72.59 33.4861 72.538 33.683 72.4383C33.8799 72.3386 34.0506 72.194 34.1812 72.0161L38.9203 65.5586H45.704C46.8229 65.5586 47.896 65.1141 48.6871 64.323C49.4783 63.5318 49.9228 62.4587 49.9228 61.3398V54.3367C52.1511 52.1218 53.9194 49.4881 55.1261 46.5872C56.3328 43.6863 56.954 40.5755 56.954 37.4336C56.954 34.2917 56.3328 31.1809 55.1261 28.28C53.9194 25.3791 52.1511 22.7454 49.9228 20.5305V20.5248ZM18.9853 13.5217C18.9853 13.1488 19.1334 12.7911 19.3972 12.5274C19.6609 12.2636 20.0186 12.1155 20.3915 12.1155H27.8868C28.1075 12.1155 28.3251 12.0636 28.522 11.9639C28.7189 11.8642 28.8896 11.7196 29.0203 11.5417L33.0478 6.05735L37.0753 11.5417C37.2059 11.7196 37.3766 11.8642 37.5735 11.9639C37.7704 12.0636 37.988 12.1155 38.2087 12.1155H45.704C46.077 12.1155 46.4347 12.2636 46.6984 12.5274C46.9621 12.7911 47.1103 13.1488 47.1103 13.5217V18.0906C43.0227 15.1211 38.1001 13.5218 33.0478 13.5218C27.9955 13.5218 23.0728 15.1211 18.9853 18.0906V13.5217ZM47.1103 61.3342C47.1103 61.7072 46.9621 62.0649 46.6984 62.3286C46.4347 62.5923 46.077 62.7405 45.704 62.7405H38.2087C37.9879 62.7406 37.7702 62.7928 37.5733 62.8927C37.3764 62.9926 37.2058 63.1375 37.0753 63.3156L33.0478 68.8L29.0203 63.3156C28.8898 63.1375 28.7192 62.9926 28.5222 62.8927C28.3253 62.7928 28.1077 62.7406 27.8868 62.7405H20.3915C20.0186 62.7405 19.6609 62.5923 19.3972 62.3286C19.1334 62.0649 18.9853 61.7072 18.9853 61.3342V56.7667C23.0731 59.7354 27.9957 61.3343 33.0478 61.3343C38.0999 61.3343 43.0224 59.7354 47.1103 56.7667V61.3342ZM47.549 52.7561C44.0233 56.0937 39.4542 58.1129 34.6126 58.4731C29.7711 58.8333 24.9535 57.5123 20.9727 54.7331C16.9919 51.9539 14.0917 47.8866 12.7614 43.2175C11.4311 38.5484 11.7521 33.5633 13.6702 29.1034C15.5884 24.6434 18.9863 20.9817 23.2907 18.736C27.595 16.4903 32.5422 15.7981 37.2976 16.7763C42.053 17.7544 46.3254 20.343 49.394 24.1052C52.4625 27.8675 54.1393 32.573 54.1415 37.428C54.1475 40.2966 53.5656 43.1361 52.4318 45.7712C51.2979 48.4062 49.6362 50.781 47.549 52.7491V52.7561Z" fill="#151A6A"/>
</svg>
