<svg width="125" height="56" viewBox="0 0 125 56" fill="none" xmlns="http://www.w3.org/2000/svg">
<path fill-rule="evenodd" clip-rule="evenodd" d="M36.1665 20.3878C35.1104 19.0043 33.7197 17.9173 31.9941 17.1269C29.9905 16.1765 27.6717 15.7015 25.0377 15.7015H13.3873V38.9057H25.0377C27.6717 38.9057 29.9905 38.4416 31.9941 37.5134C33.7193 36.7044 35.1099 35.6069 36.1659 34.221C33.4134 41.1481 26.6496 46.0455 18.7419 46.0455C8.39103 46.0455 0 37.6545 0 27.3035C0 16.9527 8.39103 8.56165 18.7419 8.56165C26.6503 8.56165 33.4146 13.4598 36.1665 20.3878ZM28.786 31.3809C27.7729 32.3312 26.411 32.8063 24.7 32.8063H21.3568V21.8009H24.7C26.411 21.8009 27.7729 22.2871 28.786 23.2594C29.8217 24.2097 30.3394 25.5577 30.3394 27.3036C30.3394 29.0494 29.8217 30.4086 28.786 31.3809Z" fill="#B4B4B4"/>
<path d="M56.1907 31.5696C56.1907 31.6588 56.1639 32.1319 56.1103 32.9886H45.9362C46.1504 33.542 46.5074 33.9704 47.0072 34.2738C47.5069 34.5594 48.1317 34.7022 48.8813 34.7022C49.524 34.7022 50.0594 34.6218 50.4878 34.4612C50.9341 34.3006 51.416 34.0239 51.9336 33.6313L55.093 36.8174C53.665 38.3881 51.532 39.1735 48.6939 39.1735C46.9269 39.1735 45.374 38.8521 44.0353 38.2096C42.6966 37.5491 41.6613 36.6389 40.9294 35.4786C40.1976 34.3184 39.8317 33.0154 39.8317 31.5696C39.8317 30.106 40.1887 28.8029 40.9026 27.6606C41.6345 26.5003 42.6252 25.599 43.8746 24.9564C45.1419 24.3138 46.5609 23.9926 48.1317 23.9926C49.6132 23.9926 50.9609 24.2871 52.1746 24.8761C53.4062 25.4651 54.379 26.3308 55.093 27.4732C55.8248 28.6155 56.1907 29.981 56.1907 31.5696ZM48.1853 28.1158C47.5605 28.1158 47.0429 28.2853 46.6323 28.6245C46.2218 28.9636 45.954 29.4456 45.8291 30.0703H50.5413C50.4164 29.4634 50.1487 28.9904 49.7382 28.6512C49.3276 28.2943 48.81 28.1158 48.1853 28.1158Z" fill="#B4B4B4"/>
<path d="M63.7323 23.9926C66.3026 23.9926 68.266 24.5726 69.6225 25.7329C70.9791 26.8752 71.6573 28.6423 71.6573 31.0342V38.9057H66.0348V36.978C65.3387 38.4416 63.9554 39.1735 61.8848 39.1735C60.7246 39.1735 59.734 38.9771 58.9129 38.5844C58.1097 38.1739 57.4938 37.6295 57.0655 36.9512C56.655 36.2551 56.4496 35.4786 56.4496 34.6218C56.4496 33.176 57.003 32.0783 58.1097 31.3287C59.2163 30.5789 60.8942 30.2041 63.1432 30.2041H65.5796C65.3833 29.0617 64.464 28.4906 62.8219 28.4906C62.1615 28.4906 61.4921 28.5977 60.8139 28.8119C60.1356 29.0082 59.5555 29.2848 59.0735 29.6419L57.1458 25.6525C57.9848 25.1349 58.9932 24.7333 60.1713 24.4477C61.3672 24.1443 62.5542 23.9926 63.7323 23.9926ZM63.7055 35.5322C64.1338 35.5322 64.5176 35.4162 64.8568 35.1842C65.1959 34.9521 65.4458 34.604 65.6064 34.1399V33.1225H64.1071C62.8754 33.1225 62.2597 33.533 62.2597 34.3541C62.2597 34.6932 62.3846 34.9789 62.6345 35.2109C62.9022 35.4251 63.2592 35.5322 63.7055 35.5322Z" fill="#B4B4B4"/>
<path d="M73.737 19.0393H79.7879V38.9057H73.737V19.0393Z" fill="#B4B4B4"/>
<path d="M89.6721 39.1735C88.048 39.1735 86.5839 38.8521 85.2813 38.2096C83.9961 37.5491 82.9876 36.6478 82.2558 35.5054C81.524 34.3452 81.1581 33.0333 81.1581 31.5696C81.1581 30.106 81.524 28.8029 82.2558 27.6606C82.9876 26.5003 83.9961 25.599 85.2813 24.9564C86.5839 24.3138 88.048 23.9926 89.6721 23.9926C91.3142 23.9926 92.7783 24.3138 94.0634 24.9564C95.3665 25.599 96.375 26.5003 97.0891 27.6606C97.8202 28.8029 98.1867 30.106 98.1867 31.5696C98.1867 33.0333 97.8202 34.3452 97.0891 35.5054C96.375 36.6478 95.3665 37.5491 94.0634 38.2096C92.7783 38.8521 91.3142 39.1735 89.6721 39.1735ZM89.6721 34.4612C90.3682 34.4612 90.9392 34.2113 91.3862 33.7116C91.8322 33.1939 92.0548 32.48 92.0548 31.5696C92.0548 30.6592 91.8322 29.9542 91.3862 29.4545C90.9392 28.9547 90.3682 28.7048 89.6721 28.7048C88.9761 28.7048 88.405 28.9547 87.9589 29.4545C87.5129 29.9542 87.2894 30.6592 87.2894 31.5696C87.2894 32.48 87.5129 33.1939 87.9589 33.7116C88.405 34.2113 88.9761 34.4612 89.6721 34.4612Z" fill="#B4B4B4"/>
<path d="M118.929 23.9926C120.696 23.9926 122.106 24.5369 123.159 25.6258C124.23 26.7146 124.766 28.3567 124.766 30.5522V38.9057H118.715V31.5964C118.715 29.9186 118.17 29.0796 117.082 29.0796C116.51 29.0796 116.046 29.2938 115.689 29.7222C115.35 30.1506 115.181 30.8289 115.181 31.757V38.9057H109.13V31.5964C109.13 29.9186 108.586 29.0796 107.497 29.0796C106.925 29.0796 106.461 29.2938 106.104 29.7222C105.765 30.1506 105.596 30.8289 105.596 31.757V38.9057H99.5445V24.2603H105.301V25.6258C106.39 24.5369 107.773 23.9926 109.451 23.9926C110.433 23.9926 111.317 24.18 112.102 24.5548C112.887 24.9118 113.53 25.4651 114.03 26.2148C114.619 25.5008 115.332 24.9564 116.171 24.5816C117.01 24.1889 117.93 23.9926 118.929 23.9926Z" fill="#B4B4B4"/>
</svg>
