<svg width="125" height="51" viewBox="0 0 125 51" fill="none" xmlns="http://www.w3.org/2000/svg">
<path d="M49.0951 23.5102C49.0951 25.0691 48.6339 26.2747 47.7113 27.1273C46.7951 27.9735 45.4909 28.3966 43.7985 28.3966H42.7392V33.0252H38.9695V19.0725H43.7985C45.5608 19.0725 46.8842 19.4574 47.7685 20.2273C48.6529 20.9971 49.0951 22.0915 49.0951 23.5102ZM42.7392 25.3235H43.4263C43.9925 25.3235 44.441 25.1645 44.7719 24.8463C45.1091 24.5283 45.2777 24.0892 45.2777 23.5294C45.2777 22.5877 44.756 22.117 43.7126 22.117H42.7392V25.3235Z" fill="#B4B4B4"/>
<path d="M49.2054 22.2123H53.1373L54.9697 28.4156C55.0587 28.7402 55.1192 29.1314 55.151 29.5895H55.2273C55.2783 29.1505 55.3546 28.7655 55.4564 28.4347L57.3365 22.2123H61.1444L56.8688 33.7123C56.3217 35.1756 55.6473 36.2095 54.8456 36.8139C54.0503 37.4184 53.0101 37.7205 51.7249 37.7205C51.2287 37.7205 50.7197 37.6665 50.198 37.5584V34.6284C50.5352 34.7048 50.9201 34.743 51.3527 34.743C51.6835 34.743 51.973 34.6794 52.2212 34.5521C52.4693 34.4248 52.6856 34.2435 52.8701 34.0081C53.0546 33.7791 53.2519 33.4005 53.4618 32.8724L49.2054 22.2123Z" fill="#B4B4B4"/>
<path d="M68.3837 22.0215C68.7082 22.0215 69.0167 22.047 69.3094 22.0978L69.5194 22.136L69.1853 25.6576C68.8799 25.5813 68.4569 25.543 67.9161 25.543C67.1017 25.543 66.51 25.7307 66.141 26.1061C65.772 26.4752 65.5874 27.0095 65.5874 27.7095V33.0252H61.856V22.2123H64.6331L65.2153 23.9398H65.3966C65.7084 23.3671 66.141 22.9059 66.6945 22.5559C67.2544 22.1996 67.8174 22.0215 68.3837 22.0215Z" fill="#B4B4B4"/>
<path d="M77.5031 33.0252L76.7874 31.5936H76.711C76.2084 32.2171 75.6962 32.6434 75.1745 32.8724C74.6527 33.1015 73.9784 33.216 73.1513 33.216C72.1333 33.216 71.3316 32.9106 70.7463 32.2998C70.1609 31.6891 69.8683 30.8302 69.8683 29.7231C69.8683 28.5715 70.2691 27.7158 71.0708 27.1559C71.8724 26.5896 73.0335 26.2716 74.5542 26.2016L76.3579 26.1443V25.9916C76.3579 25.1009 75.9189 24.6555 75.0409 24.6555C74.252 24.6555 73.2499 24.9227 72.0347 25.4571L70.9563 22.9949C72.216 22.3459 73.8066 22.0215 75.728 22.0215C77.115 22.0215 78.1867 22.3651 78.9446 23.0522C79.7078 23.7393 80.0891 24.7 80.0891 25.9343V33.0252H77.5031ZM74.7355 30.582C75.1872 30.582 75.5721 30.4388 75.8903 30.1526C76.2147 29.8662 76.377 29.4941 76.377 29.0359V28.1962L75.5181 28.2343C74.2901 28.2788 73.6762 28.7305 73.6762 29.5895C73.6762 30.2512 74.0293 30.582 74.7355 30.582Z" fill="#B4B4B4"/>
<path d="M95.3164 33.0252V27.1463C95.3164 26.4147 95.2148 25.8675 95.0109 25.5048C94.814 25.1359 94.4992 24.9513 94.0664 24.9513C93.4937 24.9513 93.0742 25.1963 92.807 25.6862C92.5398 26.1761 92.4062 26.9427 92.4062 27.9862V33.0252H88.6648V27.1463C88.6648 26.4147 88.5695 25.8675 88.3781 25.5048C88.1875 25.1359 87.8789 24.9513 87.4531 24.9513C86.8672 24.9513 86.4414 25.2122 86.1742 25.7339C85.907 26.2556 85.7734 27.1082 85.7734 28.2916V33.0252H82.0414V22.2123H84.857L85.3242 23.5484H85.5437C85.8304 23.0522 86.2437 22.6736 86.7844 22.4127C87.332 22.1519 87.9523 22.0215 88.6461 22.0215C90.2047 22.0215 91.2984 22.4955 91.9289 23.4434H92.2242C92.5297 22.9981 92.9531 22.6513 93.4937 22.4032C94.0406 22.1487 94.6422 22.0215 95.2976 22.0215C96.5765 22.0215 97.5211 22.3491 98.132 23.0045C98.7429 23.6598 99.0484 24.6555 99.0484 25.9916V33.0252H95.3164Z" fill="#B4B4B4"/>
<path d="M108.053 33.0252L107.337 31.5936H107.261C106.759 32.2171 106.246 32.6434 105.724 32.8724C105.202 33.1015 104.528 33.216 103.702 33.216C102.684 33.216 101.881 32.9106 101.296 32.2998C100.711 31.6891 100.418 30.8302 100.418 29.7231C100.418 28.5715 100.819 27.7158 101.621 27.1559C102.423 26.5896 103.584 26.2716 105.104 26.2016L106.908 26.1443V25.9916C106.908 25.1009 106.469 24.6555 105.591 24.6555C104.802 24.6555 103.8 24.9227 102.584 25.4571L101.506 22.9949C102.766 22.3459 104.356 22.0215 106.278 22.0215C107.665 22.0215 108.737 22.3651 109.494 23.0522C110.258 23.7393 110.639 24.7 110.639 25.9343V33.0252H108.053ZM105.285 30.582C105.737 30.582 106.122 30.4388 106.44 30.1526C106.765 29.8662 106.927 29.4941 106.927 29.0359V28.1962L106.068 28.2343C104.84 28.2788 104.226 28.7305 104.226 29.5895C104.226 30.2512 104.579 30.582 105.285 30.582Z" fill="#B4B4B4"/>
<path d="M114.882 27.509L111.58 22.2123H115.817L117.459 25.2472L119.138 22.2123H123.385L119.998 27.509L123.519 33.0252H119.281L117.459 29.7422L115.645 33.0252H111.398L114.882 27.509Z" fill="#B4B4B4"/>
<path d="M16.2876 41.1689C25.283 41.1689 32.5752 33.8767 32.5752 24.8813C32.5752 15.8859 25.283 8.59375 16.2876 8.59375C7.2922 8.59375 0 15.8859 0 24.8813C0 33.8767 7.2922 41.1689 16.2876 41.1689Z" fill="#B4B4B4"/>
<path d="M16.6409 26.2976C19.9653 26.2976 22.6603 23.7612 22.6603 20.6323C22.6603 17.5035 19.9653 14.9671 16.6409 14.9671C13.3165 14.9671 10.6216 17.5035 10.6216 20.6323C10.6216 23.7612 13.3165 26.2976 16.6409 26.2976Z" fill="#B4B4B4"/>
<mask id="mask0_2_2" style="mask-type:alpha" maskUnits="userSpaceOnUse" x="0" y="8" width="33" height="34">
<path d="M16.2876 41.1689C25.283 41.1689 32.5752 33.8767 32.5752 24.8813C32.5752 15.8859 25.283 8.59375 16.2876 8.59375C7.2922 8.59375 0 15.8859 0 24.8813C0 33.8767 7.2922 41.1689 16.2876 41.1689Z" fill="#A8AABC"/>
</mask>
<g mask="url(#mask0_2_2)">
<path d="M28.8714 15.808C29.854 19.4749 29.5212 22.6039 27.8734 25.1949C26.2366 27.767 23.4137 29.5902 19.4048 30.6643L16.8955 31.3367L19.813 42.225L10.8836 44.6176L2.08893 11.7956L13.5277 8.73062C17.7023 7.612 21.0798 7.67753 23.6598 8.92718C26.2399 10.1769 27.9771 12.4705 28.8714 15.808ZM14.9586 24.1077L16.5862 23.6716C17.9275 23.3123 18.8898 22.6534 19.473 21.6951C20.0712 20.7326 20.1938 19.593 19.8409 18.2759C19.2474 16.0609 17.7148 15.2844 15.2432 15.9467L12.9373 16.5645L14.9586 24.1077Z" fill="white"/>
</g>
</svg>
