<svg width="154" height="50" viewBox="0 0 154 50" fill="none" xmlns="http://www.w3.org/2000/svg">
<path d="M67.25 27C67.25 28.425 67.825 29.675 68.975 30.7C70.125 31.725 71.575 32.25 73.325 32.25C74.95 32.25 76.3 31.825 77.375 30.975C78.45 30.1 79.075 29 79.2 27.625C79.475 25.1 77.95 23.175 74.55 22.275L72.35 21.7C70.825 21.3 70.05 20.55 70.05 19.45C70.05 18.05 71.4 17.075 73.025 17.075C74.825 17.075 76.025 18.1 76.025 19.675H78.675C78.675 18.125 78.15 16.9 77.075 15.975C76.025 15.05 74.7 14.575 73.075 14.575C71.525 14.575 70.2 15.05 69.075 15.975C67.95 16.9 67.4 18.075 67.4 19.5C67.4 21.825 68.825 23.35 71.675 24.125L73.85 24.675C75.75 25.125 76.65 26.05 76.575 27.475C76.375 28.8 75.25 29.825 73.325 29.825C72.35 29.825 71.525 29.55 70.9 28.975C70.275 28.4 69.925 27.725 69.9 27H67.25ZM89.9334 26.6C89.9334 28.775 88.6334 29.75 86.9334 29.75C85.5084 29.75 84.5084 28.7 84.5084 26.825V20.325H81.9334V27.125C81.9084 30.4 83.5834 32.25 86.4584 32.25C87.7834 32.25 89.3084 31.525 89.9334 30.3V32H92.5084V20.325H89.9334V26.6ZM96.0715 20.325V37.675H98.6465V30.325C99.3465 31.55 100.871 32.25 102.546 32.25C104.171 32.25 105.521 31.7 106.646 30.575C107.771 29.45 108.346 28 108.346 26.175C108.346 24.375 107.771 22.9 106.646 21.775C105.521 20.65 104.171 20.075 102.546 20.075C100.946 20.075 99.3465 20.825 98.6465 22.05V20.325H96.0715ZM98.6715 26.225C98.6715 25.125 99.0215 24.25 99.6965 23.575C100.396 22.9 101.246 22.575 102.221 22.575C103.196 22.575 104.021 22.925 104.696 23.6C105.371 24.275 105.721 25.15 105.721 26.225C105.721 28.325 104.221 29.775 102.221 29.775C101.271 29.775 100.446 29.45 99.7215 28.825C99.0215 28.175 98.6715 27.3 98.6715 26.225ZM122.333 26.125C122.333 24.3 121.783 22.85 120.683 21.75C119.583 20.625 118.183 20.075 116.483 20.075C114.783 20.075 113.358 20.625 112.208 21.75C111.058 22.85 110.483 24.3 110.483 26.125C110.483 27.95 111.058 29.425 112.208 30.55C113.358 31.675 114.783 32.25 116.483 32.25C118.808 32.25 120.883 31.225 121.883 29.25L119.783 28.325C119.183 29.4 117.933 30 116.608 30C114.708 30 113.258 28.875 113.033 27.075H122.308C122.333 26.9 122.333 26.6 122.333 26.125ZM113.033 25.2C113.258 23.425 114.658 22.325 116.483 22.325C118.258 22.325 119.583 23.4 119.808 25.2H113.033ZM127.626 27.8C127.626 24.525 128.651 22.5 130.751 22.5C131.376 22.5 131.951 22.625 132.476 22.9L132.901 20.525C132.451 20.225 131.751 20.075 130.826 20.075C129.251 20.075 128.201 21.05 127.626 23V20.325H125.051V32H127.626V27.8ZM137.586 32V20.325H135.036V32H137.586ZM136.311 13.975C135.386 13.975 134.586 14.7 134.586 15.6C134.586 16.5 135.386 17.225 136.311 17.225C137.286 17.225 138.011 16.525 138.011 15.6C138.011 14.675 137.286 13.975 136.311 13.975ZM146.514 29.75C145.539 29.75 144.689 29.425 144.014 28.75C143.339 28.075 142.989 27.2 142.989 26.125C142.989 25.075 143.339 24.225 144.014 23.575C144.689 22.925 145.539 22.6 146.514 22.6C148.514 22.6 150.064 24.025 150.064 26.125C150.064 27.2 149.714 28.075 149.039 28.75C148.364 29.425 147.514 29.75 146.514 29.75ZM146.514 20.075C144.814 20.075 143.364 20.625 142.189 21.75C141.014 22.875 140.439 24.325 140.439 26.125C140.439 27.925 141.014 29.4 142.189 30.55C143.364 31.675 144.814 32.25 146.514 32.25C148.214 32.25 149.664 31.675 150.839 30.55C152.039 29.4 152.639 27.925 152.639 26.125C152.639 24.325 152.039 22.875 150.864 21.75C149.689 20.625 148.239 20.075 146.514 20.075Z" fill="#21286A"/>
<path fill-rule="evenodd" clip-rule="evenodd" d="M20 1.90735e-06C8.95431 1.90735e-06 0 8.95431 0 20V30C0 41.0457 8.9543 50 20 50H30C41.0457 50 50 41.0457 50 30V20C50 8.95431 41.0457 1.90735e-06 30 1.90735e-06H20ZM33 12.4698L19.8375 25.2607C17.824 23.3025 17.824 20.1385 19.8375 18.1804L25.7195 12.4602C27.733 10.5117 30.9865 10.5117 33 12.4698ZM19.5102 38.881L29.0225 29.6304C31.0361 27.6722 31.0361 24.5083 29.0225 22.5501L19.5102 31.8008C17.4966 33.7589 17.4966 36.9229 19.5102 38.881ZM31.3336 26.0902C31.3336 25.8008 31.3039 25.5115 31.2642 25.2317C32.0676 27.0645 31.7006 29.2542 30.1731 30.7493L20.6608 40C20.4624 39.8071 20.2839 39.5949 20.1252 39.3826L29.5978 30.1706C30.7186 29.0805 31.3336 27.6336 31.3336 26.0902ZM28.1595 22.2993L23.944 26.4086L20.7104 25.5018L24.9755 21.3636L28.1595 22.2993Z" fill="#21286A"/>
</svg>
