<svg width="25" height="25" viewBox="0 0 25 25" fill="none" xmlns="http://www.w3.org/2000/svg">
<g clip-path="url(#clip0)">
<path d="M22.9492 8.78906H16.0818C16.1036 8.54816 16.1154 8.30421 16.1154 8.05759C16.1154 3.61462 12.5006 0 8.05759 0C6.64234 0 5.25017 0.372314 4.03156 1.07651C3.7981 1.21136 3.71819 1.51005 3.85303 1.74351C3.98808 1.97716 4.28677 2.05688 4.52023 1.92204C5.59044 1.30348 6.81362 0.976562 8.05759 0.976562C11.9621 0.976562 15.1388 4.15306 15.1388 8.05759C15.1388 11.9621 11.9621 15.1388 8.05759 15.1388C6.42319 15.1388 4.88777 14.5973 3.61729 13.5731C3.48988 13.4705 3.32108 13.4398 3.16734 13.4869L1.8713 13.8258L2.37904 12.71C2.45209 12.5498 2.43301 12.3629 2.32944 12.2204C1.44444 11.0048 0.976562 9.56535 0.976562 8.05759C0.976562 6.81038 1.3052 5.58414 1.92699 4.51164C2.06223 4.27818 1.98269 3.97949 1.74942 3.84426C1.51615 3.70903 1.21746 3.78838 1.08204 4.02184C0.374222 5.24292 0 6.63853 0 8.05759C0 9.67674 0.474358 11.2272 1.37463 12.5595L0.557137 14.3557C0.478935 14.5271 0.506592 14.7282 0.627899 14.8724C0.749207 15.0166 0.942612 15.078 1.12495 15.0303L3.20148 14.4875C4.59347 15.539 6.30798 16.1154 8.05759 16.1154C8.43849 16.1154 8.8129 16.0881 9.17969 16.0368V20.3125C9.17969 21.4432 10.0996 22.3633 11.2303 22.3633H18.1362L21.224 24.8896C21.3129 24.9624 21.4226 24.9998 21.5332 24.9998C21.6043 24.9998 21.6757 24.9844 21.7422 24.9529C21.9128 24.872 22.0215 24.7004 22.0215 24.5115V22.3633H22.9492C24.0801 22.3633 25 21.4432 25 20.3125V10.8398C25 9.70898 24.0801 8.78906 22.9492 8.78906ZM24.0234 20.3125C24.0234 20.9047 23.5416 21.3867 22.9492 21.3867H21.5332C21.2635 21.3867 21.0449 21.6053 21.0449 21.875V23.4812L18.6333 21.508C18.5003 21.3867 18.384 21.3867 18.1225 21.3867H11.2303C10.638 21.3867 10.1562 20.9047 10.1562 20.3125V15.8375C13.0445 15.0576 15.2948 12.7089 15.9325 9.76562H22.9492C23.5416 9.76562 24.0234 10.2474 24.0234 10.8398V20.3125Z" fill="#1967D2"/>
<path d="M19.5194 17.0218C19.6849 16.9438 19.7998 16.7757 19.7998 16.5804C19.7998 16.3109 19.5812 16.0921 19.3115 16.0921H19.1116L17.5369 12.5033C17.4589 12.3257 17.2834 12.2111 17.0896 12.2111C16.8958 12.2111 16.7203 12.3257 16.6425 12.5033L15.0678 16.0921H14.8679C14.5982 16.0921 14.3796 16.3109 14.3796 16.5804C14.3796 16.7757 14.4944 16.9438 14.66 17.0218L14.0735 18.3584C13.9652 18.6054 14.0775 18.8935 14.3243 19.0018C14.5713 19.1101 14.8593 18.9978 14.9677 18.7508L15.7058 17.0687H18.4736L19.2117 18.7508C19.292 18.9339 19.4711 19.043 19.6592 19.043C19.7246 19.043 19.7912 19.0298 19.8551 19.0018C20.1019 18.8935 20.2144 18.6054 20.1059 18.3584L19.5194 17.0218ZM16.1342 16.0921L17.0896 13.9147L18.045 16.0921H16.1342Z" fill="#1967D2"/>
<path d="M2.70508 3.1933C2.83344 3.1933 2.95933 3.14104 3.05031 3.05025C3.1411 2.95946 3.19336 2.83357 3.19336 2.70502C3.19336 2.57665 3.1411 2.45077 3.05031 2.35979C2.95933 2.269 2.83344 2.21674 2.70508 2.21674C2.57614 2.21674 2.45064 2.269 2.35985 2.35979C2.26906 2.45077 2.2168 2.57665 2.2168 2.70502C2.2168 2.83357 2.26906 2.95946 2.35985 3.05025C2.45064 3.14123 2.57652 3.1933 2.70508 3.1933Z" fill="#1967D2"/>
<path d="M5.14331 11.0293C4.9068 11.159 4.8202 11.4557 4.9499 11.6923C5.03879 11.8542 5.20606 11.9459 5.37849 11.9459C5.45783 11.9459 5.53832 11.9265 5.6129 11.8857C6.7018 11.2885 7.53951 10.3596 8.02951 9.26421C8.5197 10.3596 9.35721 11.2885 10.4461 11.8857C10.5207 11.9265 10.6012 11.9459 10.6805 11.9459C10.853 11.9459 11.0202 11.8542 11.1091 11.6923C11.2388 11.4557 11.1522 11.159 10.9157 11.0293C9.64103 10.3302 8.7831 9.08091 8.57005 7.66928H10.7379C11.0076 7.66928 11.2262 7.4507 11.2262 7.181C11.2262 6.9113 11.0076 6.69272 10.7379 6.69272H8.51779V4.65796C8.51779 4.38826 8.29921 4.16968 8.02951 4.16968C7.75981 4.16968 7.54123 4.38826 7.54123 4.65796V6.69272H5.77731C5.50761 6.69272 5.28903 6.9113 5.28903 7.181C5.28903 7.4507 5.50761 7.66928 5.77731 7.66928H7.48897C7.27592 9.08091 6.41799 10.3304 5.14331 11.0293Z" fill="#1967D2"/>
</g>
<defs>
<clipPath id="clip0">
<rect width="25" height="25" fill="white"/>
</clipPath>
</defs>
</svg>
