<svg width="25" height="25" viewBox="0 0 25 25" fill="none" xmlns="http://www.w3.org/2000/svg">
<g clip-path="url(#clip0)">
<path d="M24.5962 5.986L12.8287 0.0777954C12.6219 -0.0260132 12.3781 -0.0260132 12.1714 0.0777954L0.40381 5.986C0.155909 6.11046 -0.000438529 6.36437 9.23975e-07 6.64176C0.000440377 6.91915 0.157667 7.17252 0.405958 7.2962L1.46484 7.82345V19.2177C0.612354 19.52 9.23975e-07 20.3341 9.23975e-07 21.289V24.2675C9.23975e-07 24.672 0.327882 24.9999 0.732423 24.9999H3.66211C4.0666 24.9999 4.39453 24.672 4.39453 24.2675V21.289C4.39453 20.3341 3.78218 19.52 2.92969 19.2177V8.5528L4.44336 9.30651V12.5C4.44336 13.9412 5.33149 15.2678 6.94419 16.2354C8.4397 17.1327 10.4128 17.6269 12.5 17.6269C16.8593 17.6269 20.5566 15.4504 20.5566 12.5V9.30655L24.594 7.29625C25.1329 7.02789 25.1351 6.25656 24.5962 5.986ZM2.92969 23.5351H1.46484V21.289C1.46484 20.8867 1.79097 20.5593 2.19277 20.5568C2.19429 20.5568 2.19575 20.5571 2.19727 20.5571C2.19878 20.5571 2.20025 20.5569 2.20176 20.5568C2.60357 20.5593 2.92969 20.8867 2.92969 21.289V23.5351ZM19.0918 12.5C19.0918 14.485 16.0731 16.1621 12.5 16.1621C8.92686 16.1621 5.9082 14.485 5.9082 12.5V10.0359L12.1735 13.1556C12.2763 13.2067 12.3882 13.2324 12.5 13.2324C12.6118 13.2324 12.7236 13.2068 12.8265 13.1556L19.0918 10.0359V12.5ZM12.5 11.6818C11.9547 11.4103 2.79878 6.85133 2.37017 6.6379L12.5 1.55197L22.6298 6.6379C22.1813 6.86119 13.0264 11.4197 12.5 11.6818Z" fill="#1967D2"/>
</g>
<defs>
<clipPath id="clip0">
<rect width="25" height="25" fill="white"/>
</clipPath>
</defs>
</svg>
