<svg width="20" height="20" viewBox="0 0 20 20" fill="none" xmlns="http://www.w3.org/2000/svg">
<g clip-path="url(#clip0)">
<path d="M17.7083 20H2.29172C1.02753 20 0 18.9725 0 17.7083V3.95828C0 2.69409 1.02753 1.66672 2.29172 1.66672H17.7083C18.9725 1.66672 20 2.69409 20 3.95828V17.7083C20 18.9725 18.9725 20 17.7083 20ZM2.29172 2.91672C1.71753 2.91672 1.25 3.38409 1.25 3.95828V17.7083C1.25 18.2825 1.71753 18.75 2.29172 18.75H17.7083C18.2825 18.75 18.75 18.2825 18.75 17.7083V3.95828C18.75 3.38409 18.2825 2.91672 17.7083 2.91672H2.29172Z" fill="#1967D2"/>
<path d="M19.375 7.91672H0.625C0.279999 7.91672 0 7.63672 0 7.29172C0 6.94672 0.279999 6.66672 0.625 6.66672H19.375C19.72 6.66672 20 6.94672 20 7.29172C20 7.63672 19.72 7.91672 19.375 7.91672Z" fill="#1967D2"/>
<path d="M4.79102 5C4.44601 5 4.16602 4.72 4.16602 4.375V0.625C4.16602 0.279999 4.44601 0 4.79102 0C5.13602 0 5.41602 0.279999 5.41602 0.625V4.375C5.41602 4.72 5.13602 5 4.79102 5Z" fill="#1967D2"/>
<path d="M15.209 5C14.864 5 14.584 4.72 14.584 4.375V0.625C14.584 0.279999 14.864 0 15.209 0C15.554 0 15.834 0.279999 15.834 0.625V4.375C15.834 4.72 15.554 5 15.209 5Z" fill="#1967D2"/>
</g>
<defs>
<clipPath id="clip0">
<rect width="20" height="20" fill="white"/>
</clipPath>
</defs>
</svg>
