<svg width="17" height="23" viewBox="0 0 17 23" fill="none" xmlns="http://www.w3.org/2000/svg">
<path d="M8.49965 0C3.81286 0 0 3.81337 0 8.50066C0 11.8499 1.40222 15.2378 4.05506 18.2982C6.03647 20.584 8.0001 21.879 8.0828 21.9331C8.20939 22.0159 8.35457 22.0572 8.49975 22.0572C8.64482 22.0572 8.79 22.0159 8.91669 21.9331C8.99929 21.879 10.9632 20.584 12.9446 18.2983C15.5977 15.2378 17 11.8499 17 8.50066C16.9999 3.81337 13.1866 0 8.49965 0ZM8.49965 20.3596C6.9364 19.1948 1.52393 14.7116 1.52393 8.50066C1.52393 4.65366 4.65315 1.52393 8.49965 1.52393C12.3464 1.52393 15.476 4.65366 15.476 8.50066C15.476 14.7116 10.063 19.1948 8.49965 20.3596Z" fill="#1967D2"/>
<path d="M8.50052 5.12543C6.64031 5.12543 5.12695 6.63889 5.12695 8.4993C5.12695 10.3592 6.64031 11.8724 8.50052 11.8724C10.3607 11.8724 11.874 10.3592 11.874 8.4993C11.874 6.63899 10.3606 5.12543 8.50052 5.12543ZM8.50052 10.3484C7.48061 10.3484 6.65088 9.51891 6.65088 8.4993C6.65088 7.47918 7.48061 6.64935 8.50052 6.64935C9.52033 6.64935 10.3501 7.47918 10.3501 8.4993C10.3501 9.51891 9.52033 10.3484 8.50052 10.3484Z" fill="#1967D2"/>
</svg>
