<svg width="25" height="25" viewBox="0 0 25 25" fill="none" xmlns="http://www.w3.org/2000/svg">
<path d="M24.9649 13.9153C24.9649 13.9151 24.9649 13.9151 24.9648 13.915L20.2447 2.06319C20.1445 1.81137 19.8591 1.68843 19.6073 1.78861C19.6071 1.78867 19.6069 1.78873 19.6067 1.78885L0.457876 9.41374C0.379784 9.44748 0.31206 9.50134 0.261573 9.5698C0.102323 9.65255 0.00171765 9.81634 0 9.99577V22.7554C0 23.0265 0.219736 23.2462 0.490757 23.2462H21.1025C21.3736 23.2462 21.5933 23.0265 21.5933 22.7554V15.7867L24.6909 14.5529C24.9427 14.4525 25.0653 14.167 24.9649 13.9153ZM20.6118 22.2647H0.981513V10.4865H20.6118V22.2647ZM8.18827 9.50747L16.4055 6.23314C17.1389 7.004 18.1551 7.44212 19.219 7.44629L20.0386 9.50747H8.18827ZM21.5933 14.7326V9.99577C21.5933 9.72475 21.3736 9.50502 21.1025 9.50502H21.0947L20.0548 6.89321C20.0432 6.87143 20.0298 6.8507 20.0145 6.83138C19.9619 6.59502 19.743 6.43374 19.5017 6.45349C18.5117 6.54373 17.5433 6.12671 16.9286 5.34537C16.7757 5.15661 16.5069 5.10968 16.299 5.23544C16.2757 5.2382 16.2526 5.24249 16.2298 5.2482L6.19777 9.24295C6.07636 9.29056 5.97926 9.38497 5.92834 9.50502H2.88172L19.5144 2.88226L23.8719 13.8237L21.5933 14.7326Z" fill="#1967D2"/>
<path d="M2.31329 18.9516C3.26609 19.2332 4.01168 19.9778 4.29448 20.9303C4.35649 21.1382 4.54771 21.2806 4.76462 21.2807C4.79008 21.2791 4.81535 21.2753 4.8402 21.2694C4.86222 21.2756 4.88473 21.2802 4.90743 21.2831H16.6856C16.7058 21.2805 16.7258 21.2764 16.7455 21.2709C16.9907 21.3305 17.2378 21.1801 17.2974 20.9349C17.2976 20.934 17.2979 20.9332 17.2981 20.9322C17.5801 19.9788 18.3258 19.2331 19.2792 18.9511C19.5104 18.8804 19.6541 18.65 19.6159 18.4112C19.6225 18.3874 19.6272 18.3631 19.6301 18.3386V14.4126C19.6272 14.388 19.6223 14.3637 19.6154 14.3399C19.6539 14.1011 19.5101 13.8706 19.2787 13.8001C18.3253 13.5181 17.5798 12.7721 17.2985 11.8184C17.2275 11.5856 16.9948 11.4416 16.7548 11.4818C16.7321 11.4754 16.709 11.4708 16.6856 11.468H4.90743C4.88271 11.471 4.85823 11.4759 4.83431 11.4827C4.59562 11.4447 4.36533 11.5883 4.29448 11.8194C4.01223 12.7726 3.26659 13.5181 2.31329 13.8001C2.08208 13.8708 1.93841 14.1012 1.97663 14.3399C1.97025 14.3638 1.96565 14.388 1.96289 14.4126V18.3386C1.96571 18.3617 1.97031 18.3845 1.97663 18.4068C1.93639 18.6471 2.08037 18.8801 2.31329 18.9516ZM2.9444 14.6118C3.92984 14.216 4.71088 13.435 5.10668 12.4495H16.4859C16.8818 13.435 17.6631 14.216 18.6486 14.6118V18.1393C17.6635 18.5356 16.8826 19.3165 16.4863 20.3016H5.10668C4.71045 19.3165 3.92954 18.5356 2.9444 18.1393V14.6118Z" fill="#1967D2"/>
<path d="M10.7961 19.3201C12.4223 19.3201 13.7406 18.0018 13.7406 16.3756C13.7406 14.7493 12.4223 13.431 10.7961 13.431C9.16986 13.431 7.85156 14.7493 7.85156 16.3756C7.85316 18.0011 9.17053 19.3185 10.7961 19.3201ZM10.7961 14.4125C11.8802 14.4125 12.7591 15.2914 12.7591 16.3756C12.7591 17.4597 11.8802 18.3386 10.7961 18.3386C9.71196 18.3386 8.83308 17.4597 8.83308 16.3756C8.83308 15.2914 9.71196 14.4125 10.7961 14.4125Z" fill="#1967D2"/>
<path d="M5.39824 17.1117C5.80477 17.1117 6.13438 16.7821 6.13438 16.3756C6.13438 15.9691 5.80477 15.6395 5.39824 15.6395C4.99171 15.6395 4.66211 15.9691 4.66211 16.3756C4.66211 16.7822 4.99171 17.1117 5.39824 17.1117ZM5.39824 16.1302C5.53375 16.1302 5.64362 16.2401 5.64362 16.3756C5.64362 16.5111 5.53375 16.621 5.39824 16.621C5.26273 16.621 5.15287 16.5111 5.15287 16.3756C5.15287 16.2401 5.26273 16.1302 5.39824 16.1302Z" fill="#1967D2"/>
<path d="M16.1951 17.1117C16.6016 17.1117 16.9313 16.7821 16.9313 16.3756C16.9313 15.9691 16.6016 15.6395 16.1951 15.6395C15.7886 15.6395 15.459 15.9691 15.459 16.3756C15.459 16.7822 15.7886 17.1117 16.1951 17.1117ZM16.1951 16.1302C16.3306 16.1302 16.4405 16.2401 16.4405 16.3756C16.4405 16.5111 16.3306 16.621 16.1951 16.621C16.0596 16.621 15.9497 16.5111 15.9497 16.3756C15.9497 16.2401 16.0596 16.1302 16.1951 16.1302Z" fill="#1967D2"/>
</svg>
