<svg width="20" height="20" viewBox="0 0 20 20" fill="none" xmlns="http://www.w3.org/2000/svg">
<path d="M17.0711 2.92891C15.1823 1.0402 12.6711 0 10 0C7.32891 0 4.8177 1.0402 2.92891 2.92891C1.0402 4.8177 0 7.32891 0 10C0 12.6711 1.0402 15.1823 2.92891 17.0711C4.8177 18.9598 7.32891 20 10 20C11.8286 20 13.6179 19.5017 15.1743 18.5589C15.5433 18.3353 15.6613 17.8549 15.4377 17.4859C15.2142 17.1168 14.7338 16.9989 14.3648 17.2224C13.0525 18.0173 11.5432 18.4375 10 18.4375C5.34754 18.4375 1.5625 14.6525 1.5625 10C1.5625 5.34754 5.34754 1.5625 10 1.5625C14.6525 1.5625 18.4375 5.34754 18.4375 10C18.4375 11.6636 17.9428 13.283 17.0068 14.683C16.767 15.0417 16.8633 15.5269 17.222 15.7667C17.5807 16.0065 18.0659 15.9101 18.3057 15.5514C19.4141 13.8935 20 11.9739 20 10C20 7.32891 18.9598 4.8177 17.0711 2.92891Z" fill="#1967D2"/>
<path d="M9.99985 2.96875C9.56836 2.96875 9.2186 3.31852 9.2186 3.75V9.67641L6.35384 12.5412C6.04872 12.8462 6.04872 13.3409 6.35384 13.646C6.50638 13.7986 6.7063 13.8748 6.90626 13.8748C7.10622 13.8748 7.30614 13.7986 7.45868 13.646L10.5523 10.5524C10.6988 10.4059 10.7811 10.2072 10.7811 10V3.75C10.7811 3.31852 10.4313 2.96875 9.99985 2.96875Z" fill="#1967D2"/>
</svg>
