<svg width="23" height="23" viewBox="0 0 23 23" fill="none" xmlns="http://www.w3.org/2000/svg">
<g clip-path="url(#clip0)">
<path d="M19.4379 21.4523H18.0685L18.0683 19.0085C18.0683 16.5583 16.7241 14.3058 14.2833 12.666C13.9745 12.4583 13.7826 12.0116 13.7826 11.5001C13.7826 10.9886 13.9745 10.5419 14.2832 10.3344C16.7241 8.69431 18.0683 6.44186 18.0685 3.99162V1.54766H19.4379C19.8652 1.54766 20.2117 1.20111 20.2117 0.773791C20.2117 0.346471 19.8651 0 19.4379 0H3.5609C3.13358 0 2.78711 0.346549 2.78711 0.773791C2.78711 1.20119 3.13366 1.54766 3.5609 1.54766H4.93029V3.99155C4.93029 6.44194 6.27444 8.69439 8.71523 10.3342C9.02414 10.5418 9.21604 10.9884 9.21604 11.5C9.21604 12.0116 9.02414 12.4582 8.71531 12.6657C6.27444 14.3057 4.93029 16.5581 4.93029 19.0084V21.4523H3.5609C3.13358 21.4523 2.78711 21.7988 2.78711 22.2261C2.78711 22.6535 3.13366 22.9999 3.5609 22.9999H19.4379C19.8652 22.9999 20.2117 22.6535 20.2117 22.2261C20.2117 21.7988 19.8651 21.4523 19.4379 21.4523ZM6.47788 19.0084C6.47788 16.4199 8.42049 14.7283 9.57847 13.9504C10.3206 13.4516 10.7636 12.5356 10.7636 11.5C10.7636 10.4644 10.3206 9.54848 9.57839 9.04961C8.42049 8.27164 6.47788 6.58001 6.47788 3.99155V1.54766H16.5209L16.5208 3.99155C16.5208 6.57994 14.5781 8.27164 13.4199 9.04976C12.678 9.54856 12.235 10.4645 12.235 11.5C12.235 12.5355 12.678 13.4514 13.4201 13.9504C14.5781 14.7284 16.5208 16.4201 16.5209 19.0084V21.4523H16.2644C15.6282 19.061 12.3817 16.4619 11.976 16.1447C11.6959 15.9257 11.3027 15.9258 11.0227 16.1447C10.617 16.4618 7.37039 19.061 6.73421 21.4523H6.4778V19.0084H6.47788ZM14.6383 21.4523H8.36039C8.87027 20.2604 10.3261 18.7517 11.4994 17.7538C12.6728 18.7517 14.1285 20.2604 14.6383 21.4523Z" fill="#1967D2"/>
<path d="M11.4984 14.7923C11.7019 14.7923 11.9016 14.7095 12.0454 14.5655C12.1901 14.4217 12.2722 14.2219 12.2722 14.0185C12.2722 13.8151 12.1901 13.6153 12.0454 13.4714C11.9016 13.3276 11.7019 13.2447 11.4984 13.2447C11.2949 13.2447 11.0952 13.3275 10.9514 13.4714C10.8074 13.6153 10.7246 13.8151 10.7246 14.0185C10.7246 14.2219 10.8073 14.4217 10.9514 14.5655C11.0952 14.7094 11.2949 14.7923 11.4984 14.7923Z" fill="#1967D2"/>
<path d="M11.5004 10.6883C11.9277 10.6883 12.2741 10.3419 12.2741 9.91455V8.54663C12.2741 8.11931 11.9277 7.77277 11.5004 7.77277C11.073 7.77277 10.7266 8.11931 10.7266 8.54663V9.91455C10.7266 10.3419 11.073 10.6883 11.5004 10.6883Z" fill="#1967D2"/>
</g>
<defs>
<clipPath id="clip0">
<rect width="23" height="23" fill="white"/>
</clipPath>
</defs>
</svg>
