<svg width="28" height="28" viewBox="0 0 28 28" fill="none" xmlns="http://www.w3.org/2000/svg">
<path d="M27.9944 15.0683C27.9609 14.2928 27.2022 13.6736 25.735 13.2273C24.5969 12.887 23.152 12.6806 21.59 12.6471V6.6945C21.5844 6.59409 21.5565 6.49925 21.5063 6.41556C21.3501 5.74053 20.5969 5.19381 19.2636 4.79213C18.0084 4.41278 16.3682 4.20636 14.6444 4.20636C12.9261 4.20636 11.3027 4.41278 10.0697 4.79213C9.05997 5.10455 7.84937 5.68474 7.84937 6.68335C7.84937 6.74471 7.85495 6.80608 7.86611 6.86745L7.92748 9.41138C4.30126 8.71961 0.803347 11.1018 0.117155 14.7224C0.0390516 15.1352 0 15.5481 0 15.9665C0 19.6485 2.99582 22.6443 6.67782 22.6443C8.21199 22.6443 9.69596 22.1199 10.8842 21.1492C11.9275 21.3946 13.1548 21.5285 14.4547 21.5397C14.7392 23.085 18.0865 23.7935 21.205 23.7935C22.9233 23.7935 24.5467 23.5815 25.7796 23.1966C26.7894 22.8842 28 22.2984 28 21.2998V15.1743C28 15.1408 28 15.1018 27.9944 15.0683ZM20.424 9.77958C20.424 9.85211 20.1562 10.237 18.9456 10.6052C17.8131 10.9456 16.2455 11.1464 14.6499 11.1464C13.272 11.1464 11.9219 11.0013 10.8508 10.728C10.834 10.7224 10.8229 10.7224 10.8061 10.7168C10.2762 10.2984 9.69038 9.96368 9.05997 9.72937L9.02092 8.15615C9.40586 8.35141 9.80753 8.50761 10.2259 8.61919C11.4365 8.97066 13.0042 9.16033 14.6499 9.16033C16.3682 9.16033 18.0139 8.95392 19.2692 8.57456C19.6876 8.45183 20.0948 8.29004 20.4798 8.0892V9.55085C20.4184 9.62895 20.424 9.70148 20.424 9.77958ZM10.4045 5.86884C11.5314 5.52296 13.0377 5.3277 14.6444 5.3277C16.2399 5.3277 17.8075 5.52296 18.94 5.86884C20.1506 6.23704 20.4184 6.6164 20.4184 6.68893C20.4184 6.76703 20.145 7.15197 18.9344 7.51459C17.802 7.85489 16.2399 8.05015 14.6444 8.05015C13.1046 8.05015 11.643 7.87163 10.5328 7.54806C9.33333 7.20218 8.99861 6.82282 8.97071 6.70008C8.97071 6.68893 8.96513 6.68893 8.96513 6.68893C8.97071 6.58293 9.22734 6.22589 10.4045 5.86884ZM10.4212 20.0836C8.15063 22.1478 4.6304 21.986 2.56625 19.7154C0.502092 17.4449 0.663877 13.9246 2.93445 11.8605C3.95537 10.9288 5.29428 10.4156 6.67782 10.4156C7.2357 10.4156 7.78801 10.4992 8.32357 10.661C10.2594 11.2635 11.7155 12.8702 12.1283 14.8507C12.2008 15.2189 12.2399 15.5983 12.2399 15.972C12.2455 17.5397 11.5816 19.0292 10.4212 20.0836ZM11.8382 20.2064C12.2901 19.6541 12.6527 19.0348 12.9093 18.3709C13.3835 18.41 13.8745 18.4379 14.3877 18.4435V18.5439L14.4212 20.4351C13.5565 20.4239 12.6918 20.3458 11.8382 20.2064ZM13.3278 15.3082C13.6513 15.3305 13.9916 15.3416 14.3375 15.3472L14.371 17.3221C13.9805 17.3165 13.5955 17.2998 13.2273 17.2719C13.311 16.8423 13.3556 16.4016 13.3556 15.9665C13.3556 15.7489 13.3445 15.5313 13.3278 15.3082ZM14.7001 14.237C14.6834 14.237 14.6611 14.237 14.6444 14.237C14.1088 14.237 13.59 14.2147 13.1102 14.1813C12.8982 13.4337 12.5635 12.7308 12.1116 12.1059C12.9484 12.2119 13.7908 12.2677 14.6388 12.2677C16.3626 12.2677 18.0084 12.0613 19.2636 11.682C19.682 11.5592 20.0837 11.3974 20.4686 11.2022V12.6638C18.0753 12.7308 15.6151 13.2329 14.7001 14.237ZM15.4365 15.1241C15.4365 15.1185 15.4365 15.1129 15.4421 15.1018C15.4923 14.9511 15.8884 14.5829 17.0432 14.2594C18.1255 13.9525 19.537 13.7852 21.0209 13.7852H21.1158C22.7113 13.7852 24.2734 13.9693 25.4114 14.3151C26.5997 14.6722 26.8787 15.0404 26.8842 15.1241V15.1297C26.8787 15.2133 26.5997 15.5983 25.3612 15.9665C24.2176 16.3068 22.7113 16.4909 21.1213 16.4909C19.5816 16.4909 18.1199 16.3124 17.0098 15.9944C15.8103 15.6485 15.4812 15.2635 15.4477 15.1464C15.4365 15.1241 15.4365 15.1241 15.4365 15.1241ZM25.4561 22.1366C24.3291 22.4881 22.6276 22.6443 21.0209 22.6443C19.4086 22.6443 18.092 22.4937 16.9763 22.1534C15.7992 21.7907 15.5537 21.417 15.5537 21.3333C15.5537 21.3277 15.5537 21.3277 15.5537 21.3221L15.5258 19.7043C15.9721 19.9218 16.4351 20.0892 16.9149 20.2119C18.0865 20.5188 19.576 20.6917 21.1046 20.6917C22.8285 20.6917 24.463 20.4853 25.7127 20.1059C26.1199 19.9832 26.5105 19.8214 26.8842 19.6317V21.3054H26.8898C26.8898 21.3835 26.6332 21.7684 25.4561 22.1366ZM26.8954 18.0306H26.8898C26.8898 18.0864 26.8563 18.1534 26.8563 18.2147C26.8563 18.2928 26.5941 18.6722 25.3891 19.0404C24.2455 19.3863 22.7225 19.576 21.1102 19.576C18.0195 19.576 15.9386 18.8786 15.5035 18.3375L15.4979 17.8688L15.4756 16.5857C15.8661 16.781 16.2734 16.9372 16.6918 17.0543C17.9024 17.4058 19.47 17.5955 21.1158 17.5955C22.8117 17.5955 24.4296 17.3946 25.6736 17.0264C26.0976 16.9093 26.5049 16.7475 26.8954 16.5467V18.0306Z" fill="#1967D2"/>
<path d="M8.70812 16.7586C8.45149 15.8493 7.62025 15.2245 6.67743 15.2245C6.13071 15.2245 5.6844 14.7837 5.6844 14.237C5.68998 13.6847 6.13071 13.244 6.67743 13.244C7.22416 13.244 7.67046 13.6903 7.67046 14.237C7.67046 14.5439 7.92151 14.7949 8.22834 14.7949C8.53518 14.7949 8.78622 14.5439 8.78622 14.237C8.78622 13.2942 8.1614 12.463 7.25205 12.2063V11.9553C7.25205 11.6484 7.001 11.3974 6.69417 11.3974C6.38733 11.3974 6.13629 11.6484 6.13629 11.9553V12.1952C5.01495 12.4964 4.34549 13.6512 4.64674 14.7726C4.89221 15.6931 5.72345 16.3347 6.67743 16.3347C7.22416 16.3347 7.67046 16.7754 7.67046 17.3221C7.67046 17.8688 7.22973 18.3151 6.68301 18.3151C6.13629 18.3151 5.68998 17.8744 5.68998 17.3277C5.68998 17.0208 5.43893 16.7698 5.1321 16.7698C4.82527 16.7698 4.57422 17.0208 4.57422 17.3277C4.5798 18.2817 5.21578 19.1129 6.13629 19.3639V19.8493C6.13629 20.1561 6.38733 20.4072 6.69417 20.4072C7.001 20.4072 7.25205 20.1561 7.25205 19.8493V19.3584C8.37339 19.0404 9.02611 17.88 8.70812 16.7586Z" fill="#1967D2"/>
</svg>
