<svg width="51" height="51" viewBox="0 0 51 51" fill="none" xmlns="http://www.w3.org/2000/svg">
<g clip-path="url(#clip0)">
<path d="M10.9248 14.2201H49.7684C49.7693 11.5382 47.5948 9.36368 44.9129 9.36462H6.06932C3.38744 9.36368 1.21292 11.5382 1.21387 14.2201V36.8828C1.21292 39.5647 3.38744 41.7387 6.06932 41.7383V19.0755C6.06837 16.3937 8.24289 14.2191 10.9248 14.2201Z" fill="#D4E1F4"/>
<path d="M49.1738 13.1518L25.4912 26.3587L1.80851 13.1518C1.22196 12.8265 0.483213 13.0384 0.157935 13.625C-0.167342 14.2115 0.04461 14.9508 0.631153 15.276L24.9084 28.8106C25.091 28.9107 25.2953 28.9647 25.5035 28.9685C25.7121 28.9709 25.9179 28.9163 26.0981 28.8106L50.3754 15.276C50.9605 14.9498 51.1724 14.212 50.8486 13.625C50.5105 13.0399 49.768 12.8303 49.1738 13.1518Z" fill="#1AE5BE"/>
<path d="M44.913 8.15076H6.06932C2.71792 8.15171 0.0014225 10.8687 0 14.2201V36.8828C0.0014225 40.2342 2.71792 42.9507 6.06932 42.9521H44.913C48.2644 42.9507 50.9809 40.2342 50.9823 36.8828V14.2201C50.9809 10.8687 48.2644 8.15171 44.913 8.15076V8.15076ZM48.5545 36.8705C48.5489 38.8795 46.9215 40.5064 44.913 40.5121H6.06932C4.06075 40.5064 2.43342 38.8795 2.42773 36.8705V14.2201C2.43342 12.211 4.06075 10.5842 6.06932 10.5785H44.913C46.9215 10.5842 48.5489 12.211 48.5545 14.2201V36.8705Z" fill="#0635C9"/>
</g>
<defs>
<clipPath id="clip0">
<rect width="51" height="51" fill="white"/>
</clipPath>
</defs>
</svg>
