<svg width="25" height="26" viewBox="0 0 25 26" fill="none" xmlns="http://www.w3.org/2000/svg">
<g clip-path="url(#clip0_1013_4767)">
<path d="M3.64649 4.3855C2.78355 4.3855 2.08398 5.08506 2.08398 5.948V10.1147H3.12564V5.948C3.12564 5.66036 3.35884 5.42715 3.64649 5.42715H16.1465V4.3855H3.64649Z" fill="#FF0071"/>
<path d="M3.64649 20.0102C3.35884 20.0102 3.12564 19.777 3.12564 19.4894V14.281H2.08398V19.4894C2.08398 20.3523 2.78355 21.0519 3.64649 21.0519H8.85486V20.0102H3.64649Z" fill="#FF0071"/>
<path d="M16.514 21.3535L3.86501 8.70449C3.66164 8.50117 3.33195 8.50117 3.12853 8.70449L0.152491 11.6806C-0.0508303 11.8839 -0.0508303 12.2136 0.152491 12.4171L12.8015 25.066C12.8992 25.1637 13.0316 25.2186 13.1697 25.2186C13.3079 25.2186 13.4403 25.1637 13.5379 25.066L16.514 22.09C16.7174 21.8866 16.7174 21.5569 16.514 21.3535ZM13.1697 23.9613L1.25718 12.0488L3.49679 9.80918L15.4093 21.7218L13.1697 23.9613Z" fill="#FF0071"/>
<path d="M22.916 20.0103H15.1035V21.0519H20.8327V23.6561C20.8327 23.9437 21.0659 24.1769 21.3535 24.1769H22.916C24.0666 24.1769 24.9994 23.2442 24.9994 22.0936C24.9994 20.943 24.0666 20.0103 22.916 20.0103ZM22.916 23.1353H21.8744V21.0519H22.916C23.4913 21.0519 23.9577 21.5183 23.9577 22.0936C23.9577 22.6689 23.4913 23.1353 22.916 23.1353Z" fill="#FF0071"/>
<path d="M22.9167 4.3855H20.3125V5.42715H22.9167C23.492 5.42715 23.9583 5.89351 23.9583 6.46881V22.0939H25V6.46881C25 5.31822 24.0672 4.3855 22.9167 4.3855Z" fill="#FF0071"/>
<path d="M9.52747 14.9547L7.96484 16.5173L8.7014 17.2539L10.264 15.6912L9.52747 14.9547Z" fill="#FF0071"/>
<path d="M7.44544 12.8715L5.88281 14.4341L6.61936 15.1706L8.18199 13.608L7.44544 12.8715Z" fill="#FF0071"/>
<path d="M11.6095 17.038L10.0469 18.6006L10.7834 19.3371L12.3461 17.7745L11.6095 17.038Z" fill="#FF0071"/>
<path d="M13.6935 19.1227L12.1309 20.6853L12.8674 21.4219L14.4301 19.8592L13.6935 19.1227Z" fill="#FF0071"/>
<path d="M5.35951 10.7882L3.79688 12.3508L4.53343 13.0874L6.09606 11.5247L5.35951 10.7882Z" fill="#FF0071"/>
<path d="M22.4648 1.38947L21.7449 0.669692C21.1359 0.0882929 20.1774 0.0882929 19.5684 0.669692L11.6486 8.5895C11.4453 8.79287 11.4453 9.12256 11.6486 9.32598L13.8085 11.4859C13.9059 11.5839 14.0385 11.6389 14.1767 11.6385C14.3149 11.6384 14.4473 11.5836 14.5449 11.4859L22.4648 3.56604C22.465 3.5658 22.4653 3.56555 22.4655 3.56531C23.0661 2.96428 23.0658 1.99011 22.4648 1.38947ZM21.7288 2.82908L14.1767 10.3812L12.7533 8.95771L20.3054 1.40612C20.5021 1.21818 20.8118 1.21818 21.0085 1.40612L21.7288 2.12541C21.7289 2.12551 21.729 2.12556 21.7291 2.12565C21.9232 2.31994 21.9231 2.63488 21.7288 2.82908Z" fill="#FF0071"/>
<path d="M14.0099 10.6239L11.762 11.3745L12.5126 9.1229L11.523 8.79321L10.4427 12.0333C10.425 12.0864 10.416 12.1421 10.416 12.198C10.4161 12.4857 10.6493 12.7188 10.937 12.7187C10.9921 12.7189 11.0469 12.7105 11.0995 12.6937L14.3396 11.6135L14.0099 10.6239Z" fill="#FF0071"/>
<path d="M18.8655 2.10939L18.1289 2.84595L20.2889 5.00592L21.0254 4.26937L18.8655 2.10939Z" fill="#FF0071"/>
<path d="M18.75 11.6768H10.9375V12.7184H18.75V11.6768Z" fill="#FF0071"/>
<path d="M20.8327 11.6768H19.791V12.7184H20.8327V11.6768Z" fill="#FF0071"/>
<path d="M22.9167 11.6768H21.875V12.7184H22.9167V11.6768Z" fill="#FF0071"/>
</g>
<defs>
<clipPath id="clip0_1013_4767">
<rect width="25" height="25" fill="white" transform="translate(0 0.226318)"/>
</clipPath>
</defs>
</svg>
