<svg width="25" height="26" viewBox="0 0 25 26" fill="none" xmlns="http://www.w3.org/2000/svg">
<g clip-path="url(#clip0_1013_4820)">
<path d="M7.67513 15.3827V4.02856C7.67513 3.33929 7.1144 2.77856 6.42513 2.77856H3.7168C3.02753 2.77856 2.4668 3.33929 2.4668 4.02856V4.90221C2.4668 5.13231 2.65336 5.31888 2.88346 5.31888C3.11357 5.31888 3.30013 5.13231 3.30013 4.90221V4.02856C3.30013 3.79883 3.48706 3.6119 3.7168 3.6119H6.42513C6.65487 3.6119 6.8418 3.79883 6.8418 4.02856V11.8411H4.68284C4.45273 11.8411 4.26617 12.0276 4.26617 12.2577C4.26617 12.4878 4.45273 12.6744 4.68284 12.6744H6.8418V15.3827C6.8418 15.6125 6.65487 15.7994 6.42513 15.7994H3.7168C3.48706 15.7994 3.30013 15.6125 3.30013 15.3827V7.57023H5.3868C5.6169 7.57023 5.80346 7.38367 5.80346 7.15356C5.80346 6.92346 5.6169 6.7369 5.3868 6.7369H2.88346C2.65336 6.7369 2.4668 6.92346 2.4668 7.15356V15.3827C2.4668 16.072 3.02753 16.6327 3.7168 16.6327H6.42513C7.11435 16.6327 7.67513 16.072 7.67513 15.3827Z" fill="#008181"/>
<path d="M24.6065 14.4918L21.8472 8.76798C21.4482 7.94017 20.4499 7.59137 19.6222 7.99043L18.6016 8.48246L19.2199 7.53309C19.7227 6.76127 19.505 5.7297 18.733 5.22694L13.4086 1.75892C12.6388 1.25746 11.6041 1.4758 11.1024 2.2459L10.8489 2.63522C10.7233 2.82804 10.7778 3.08616 10.9707 3.21179C11.1635 3.33736 11.4216 3.28288 11.5472 3.09002L11.8007 2.70069C12.0515 2.31569 12.5687 2.20642 12.9539 2.4572L18.2783 5.92507C18.6643 6.17647 18.7731 6.69215 18.5218 7.07814L17.152 9.18116C8.78255 13.2158 9.30286 12.9609 9.25479 12.9954C9.16781 13.0577 9.10625 13.1531 9.08734 13.2619C9.07708 13.3202 9.08073 12.8488 9.08073 20.3825C9.08073 22.5939 7.28167 24.3929 5.07031 24.3929C2.85896 24.3929 1.0599 22.5939 1.0599 20.3825V1.89298C1.0599 1.43345 1.43375 1.05965 1.89323 1.05965H8.2474C8.70687 1.05965 9.08073 1.43345 9.08073 1.89298V10.5741C9.08073 10.8042 9.26729 10.9907 9.4974 10.9907C9.7275 10.9907 9.91406 10.8042 9.91406 10.5741V9.70106L10.5791 8.68002L12.063 9.64647C12.1332 9.6922 12.212 9.71403 12.29 9.71403C12.7037 9.71403 12.8642 9.17382 12.5178 8.94814L11.034 7.98168L12.5121 5.71226C12.6375 5.51965 12.8953 5.46455 13.0886 5.59054L15.358 7.06866C15.551 7.19434 15.6054 7.45215 15.4797 7.64522L14.9617 8.44059C14.8361 8.6334 14.8906 8.89153 15.0834 9.01715C15.2762 9.14278 15.5344 9.08825 15.6599 8.89538L16.178 8.10002C16.5551 7.52111 16.3918 6.74741 15.8128 6.37038L13.5434 4.89231C12.9646 4.51528 12.1909 4.67856 11.8137 5.25752L9.91406 8.17413V1.89298C9.91406 0.973975 9.16641 0.226318 8.2474 0.226318H1.89323C0.974219 0.226318 0.226562 0.973975 0.226562 1.89298V20.3826C0.226562 23.0534 2.39948 25.2263 5.07031 25.2263C7.65026 25.2263 9.76531 23.1988 9.90635 20.6535C10.1832 20.7114 10.461 20.6749 10.7052 20.5571L20.9329 15.6267C21.5552 15.3267 21.8162 14.5803 21.5161 13.9579L20.3401 11.5182C20.0407 10.8973 19.292 10.6358 18.6712 10.935L11.2584 14.5085C11.0511 14.6083 10.9641 14.8574 11.0641 15.0647L12.2018 17.4248C12.3017 17.6321 12.5507 17.7191 12.7581 17.6192C12.9653 17.5193 13.0523 17.2702 12.9524 17.0629L11.9957 15.0781L19.0331 11.6856C19.2402 11.5859 19.4896 11.6731 19.5894 11.88L20.7655 14.3197C20.8655 14.5272 20.7785 14.776 20.5711 14.876L18.1314 16.052L17.3018 14.3312C17.2019 14.1239 16.9528 14.0368 16.7456 14.1368C16.5383 14.2367 16.4512 14.4857 16.5512 14.693L17.3807 16.4139L10.3432 19.8065C10.2011 19.875 10.0356 19.8557 9.91401 19.7657V13.5955L19.9841 8.74106C20.3981 8.54147 20.8971 8.71595 21.0967 9.12986L23.8559 14.8537C24.0555 15.2676 23.881 15.7667 23.4671 15.9662L12.2083 21.3937C12.001 21.4936 11.914 21.7427 12.0139 21.95C12.0857 22.0989 12.2345 22.1858 12.3895 22.1858C12.5368 22.1858 11.7976 22.5169 23.829 16.7169C24.6568 16.3178 25.0056 15.3196 24.6065 14.4918Z" fill="#008181"/>
<path d="M5.07096 21.5283C4.43914 21.5283 3.92513 21.0143 3.92513 20.3825C3.92513 20.1524 3.73857 19.9658 3.50846 19.9658C3.27836 19.9658 3.0918 20.1524 3.0918 20.3825C3.0918 21.4738 3.97966 22.3616 5.07096 22.3616C6.16226 22.3616 7.05013 21.4738 7.05013 20.3825C7.05013 19.2912 6.16226 18.4033 5.07096 18.4033C4.84086 18.4033 4.65429 18.5899 4.65429 18.82C4.65429 19.0501 4.84086 19.2367 5.07096 19.2367C5.70278 19.2367 6.21679 19.7507 6.21679 20.3825C6.21679 21.0143 5.70273 21.5283 5.07096 21.5283Z" fill="#008181"/>
</g>
<defs>
<clipPath id="clip0_1013_4820">
<rect width="25" height="25" fill="white" transform="translate(0 0.226318)"/>
</clipPath>
</defs>
</svg>
