<?xml version="1.0" standalone="no"?>
<!DOCTYPE svg PUBLIC "-//W3C//DTD SVG 1.1//EN" "http://www.w3.org/Graphics/SVG/1.1/DTD/svg11.dtd" >
<svg xmlns="http://www.w3.org/2000/svg" xmlns:xlink="http://www.w3.org/1999/xlink" version="1.1">
<metadata>
Created by FontForge 20170731 at Sun Dec 27 12:32:42 2020
 By Aleksey,,,
Copyright (c) Olivier Gourvat - Mostardesign Studio, 2012. All rights reserved.
</metadata>
<defs>
<font id="SofiaPro-Medium" horiz-adv-x="1187" >
  <font-face 
    font-family="Sofia Pro"
    font-weight="500"
    font-stretch="normal"
    units-per-em="2048"
    panose-1="2 11 0 0 0 0 0 0 0 0"
    ascent="1536"
    descent="-512"
    x-height="956"
    cap-height="1411"
    bbox="-356 -530 2294 2245"
    underline-thickness="102"
    underline-position="-307"
    unicode-range="U+0020-FB04"
  />
<missing-glyph horiz-adv-x="1300" 
d="M164 0v1362h973v-1362h-973zM379 883h127q0 76 43 123t108 47t114.5 -42t49.5 -108q0 -60 -49 -102q-30 -34 -67 -43q-92 -28 -141.5 -79t-49.5 -147v-77h127v77q0 46 25.5 67.5t76.5 35.5q89 28 146 98t57 170q0 124 -84.5 200.5t-204.5 76.5q-117 0 -197.5 -82
t-80.5 -215zM485 268q0 -38 28 -63t67 -25q38 0 65 25t27 63t-27 63t-65 25q-39 0 -67 -25t-28 -63z" />
    <glyph glyph-name="f_f" unicode="ff" horiz-adv-x="1470" 
d="M1481 1477v-203h-105q-50 0 -85 -18t-52.5 -51.5t-25 -72t-7.5 -88.5v-88h215v-174h-215v-782h-213v782h-547v-782h-213v782h-182v174h182v88q0 203 96 318t287 115h105v-203h-105q-50 0 -85 -18t-52.5 -51.5t-25 -72t-7.5 -88.5v-88h547v88q0 203 96 318t287 115h105z
" />
    <glyph glyph-name="fi" unicode="fi" horiz-adv-x="1310" 
d="M956 0v782h-510v-782h-213v782h-182v174h182v88q0 203 96 318t287 115h105v-203h-105q-50 0 -85 -18t-52.5 -51.5t-25 -72t-7.5 -88.5v-88h510h209v-956h-209zM920 1343q0 56 41.5 95t99.5 39q60 0 99.5 -38.5t39.5 -95.5t-39.5 -95t-99.5 -38q-58 0 -99.5 38.5
t-41.5 94.5z" />
    <glyph glyph-name="fl" unicode="fl" horiz-adv-x="1288" 
d="M930 1274h-314q-50 0 -85 -18t-52.5 -51.5t-25 -72t-7.5 -88.5v-88h216v-174h-216v-782h-213v782h-182v174h182v88q0 203 96 318t287 115h525v-1477h-211v1274z" />
    <glyph glyph-name="f_f_i" unicode="ffi" horiz-adv-x="2070" 
d="M1716 782h-510v-782h-213v782h-547v-782h-213v782h-182v174h182v88q0 203 96 318t287 115h105v-203h-105q-50 0 -85 -18t-52.5 -51.5t-25 -72t-7.5 -88.5v-88h547v88q0 203 96 318t287 115h105v-203h-105q-50 0 -85 -18t-52.5 -51.5t-25 -72t-7.5 -88.5v-88h719v-956
h-209v782zM1679 1343q0 56 42 95t100 39q60 0 99.5 -38.5t39.5 -95.5t-39.5 -95t-99.5 -38q-58 0 -100 38.5t-42 94.5z" />
    <glyph glyph-name="f_f_l" unicode="ffl" horiz-adv-x="2048" 
d="M1690 1274h-314q-50 0 -85 -18t-52.5 -51.5t-25 -72t-7.5 -88.5v-88h215v-174h-215v-782h-213v782h-547v-782h-213v782h-182v174h182v88q0 203 96 318t287 115h105v-203h-105q-50 0 -85 -18t-52.5 -51.5t-25 -72t-7.5 -88.5v-88h547v88q0 203 96 318t287 115h525v-1477
h-211v1274z" />
    <glyph glyph-name="f_f_j" unicode="ffj" horiz-adv-x="2056" 
d="M1423 -473v197h115q50 0 84 19t49.5 53t21 67t5.5 76v843h-492v-782h-213v782h-547v-782h-213v782h-182v174h182v88q0 203 96 318t287 115h105v-203h-105q-50 0 -85 -18t-52.5 -51.5t-25 -72t-7.5 -88.5v-88h547v88q0 203 96 318t287 115h105v-203h-105q-50 0 -85 -18
t-52.5 -51.5t-25 -72t-7.5 -88.5v-88h705v-1017q0 -412 -348 -412h-140zM1663 1343q0 56 41.5 95t99.5 39q60 0 101 -38.5t41 -95.5t-41 -95t-101 -38q-58 0 -99.5 38.5t-41.5 94.5z" />
    <glyph glyph-name="f_j" unicode="fj" horiz-adv-x="1296" 
d="M664 -473v197h114q50 0 84 19t49.5 53t21 67t5.5 76v843h-492v-782h-213v782h-182v174h182v88q0 203 96 318t287 115h105v-203h-105q-50 0 -85 -18t-52.5 -51.5t-25 -72t-7.5 -88.5v-88h705v-1017q0 -412 -348 -412h-139zM903 1343q0 56 41.5 95t99.5 39q60 0 101 -38.5
t41 -95.5t-41 -95t-101 -38q-58 0 -99.5 38.5t-41.5 94.5z" />
    <glyph glyph-name=".notdef" horiz-adv-x="1300" 
d="M164 0v1362h973v-1362h-973zM379 883h127q0 76 43 123t108 47t114.5 -42t49.5 -108q0 -60 -49 -102q-30 -34 -67 -43q-92 -28 -141.5 -79t-49.5 -147v-77h127v77q0 46 25.5 67.5t76.5 35.5q89 28 146 98t57 170q0 124 -84.5 200.5t-204.5 76.5q-117 0 -197.5 -82
t-80.5 -215zM485 268q0 -38 28 -63t67 -25q38 0 65 25t27 63t-27 63t-65 25q-39 0 -67 -25t-28 -63z" />
    <glyph glyph-name=".null" horiz-adv-x="0" 
 />
    <glyph glyph-name="nonmarkingreturn" horiz-adv-x="682" 
 />
    <glyph glyph-name="space" unicode=" " horiz-adv-x="520" 
 />
    <glyph glyph-name="space" unicode="&#xa0;" horiz-adv-x="520" 
 />
    <glyph glyph-name="exclam" unicode="!" horiz-adv-x="548" 
d="M385 1411l-29 -1032h-168l-30 1032h227zM129 119q0 59 42 99t103 40t103.5 -40t42.5 -99t-42.5 -98t-103.5 -39t-103 39t-42 98z" />
    <glyph glyph-name="quotedbl" unicode="&#x22;" horiz-adv-x="729" 
d="M158 817l-13 594h160l-12 -594h-135zM436 817l-12 594h160l-13 -594h-135z" />
    <glyph glyph-name="numbersign" unicode="#" horiz-adv-x="1380" 
d="M1087 1055h220l-50 -178h-221l-100 -355h221l-49 -178h-221l-103 -344h-186l98 344h-215l-102 -344h-186l100 344h-217l47 178h219l98 355h-215l47 178h217l101 356h190l-100 -356h217l100 356h191zM629 877l-99 -355h215l101 355h-217z" />
    <glyph glyph-name="dollar" unicode="$" horiz-adv-x="1155" 
d="M516 1632h133v-211q168 -21 273.5 -132t105.5 -279h-217q0 98 -67.5 155.5t-178.5 57.5q-100 0 -171.5 -55t-71.5 -140q0 -136 188 -184l180 -47q211 -56 305 -168.5t76 -270.5q-12 -154 -129 -259t-293 -117v-228h-133v230q-187 20 -305.5 143t-118.5 283h217
q5 -92 82.5 -162t198.5 -70q118 0 186.5 54.5t79.5 138.5q6 91 -55 147.5t-168 81.5l-178 45q-351 95 -351 379q0 162 119 271.5t293 127.5v209z" />
    <glyph glyph-name="percent" unicode="%" horiz-adv-x="1400" 
d="M954 1368h138l-672 -1368h-135zM76 1098q0 116 78 195t194 79t195.5 -79.5t79.5 -194.5q0 -116 -79.5 -194.5t-195.5 -78.5q-117 0 -194.5 78t-77.5 195zM225 1098q0 -54 34.5 -88.5t88.5 -34.5q52 0 88.5 35t36.5 88t-36.5 89t-88.5 36q-54 0 -88.5 -35.5t-34.5 -89.5z
M778 252q0 116 78 195t195 79q115 0 194.5 -79t79.5 -195t-79 -194t-195 -78q-117 0 -195 77.5t-78 194.5zM928 252q0 -54 34.5 -88.5t88.5 -34.5t90.5 34.5t36.5 88.5q0 52 -37 88.5t-90 36.5t-88 -36.5t-35 -88.5z" />
    <glyph glyph-name="ampersand" unicode="&#x26;" horiz-adv-x="1363" 
d="M860 688h-272q-121 0 -193.5 -80.5t-72.5 -181.5q5 -108 77 -176t189 -68q136 0 204 89t68 243v174zM575 -20q-201 0 -332.5 125.5t-131.5 314.5q0 121 56 216.5t159 151.5q-56 41 -88.5 114t-32.5 157q0 149 109 253.5t270 108.5q113 1 205.5 -51t150.5 -145l-174 -107
q-67 101 -170 101q-80 0 -129 -48t-49 -118q0 -30 10.5 -62.5t31 -63t55.5 -50t79 -19.5h266v178h197v-178h176v-170h-176v-262q0 -64 7.5 -106.5t29 -79t64 -53.5t108.5 -17v-190q-266 0 -342 157q-49 -75 -144.5 -116t-204.5 -41z" />
    <glyph glyph-name="quotesingle" unicode="'" horiz-adv-x="450" 
d="M158 817l-13 594h160l-12 -594h-135z" />
    <glyph glyph-name="parenleft" unicode="(" horiz-adv-x="751" 
d="M94 473q0 288 73 504.5t205 333t306 116.5v-192q-112 0 -202 -96t-140.5 -270.5t-50.5 -395.5t50.5 -394.5t140 -268.5t202.5 -95v-192q-174 0 -306 115.5t-205 331.5t-73 503z" />
    <glyph glyph-name="parenright" unicode=")" horiz-adv-x="751" 
d="M657 473q0 -433 -161.5 -691.5t-421.5 -258.5v192q112 0 201.5 95t140.5 268.5t51 394.5t-51 395.5t-140.5 270.5t-201.5 96v192q171 0 303 -116t206 -333.5t74 -504.5z" />
    <glyph glyph-name="asterisk" unicode="*" horiz-adv-x="966" 
d="M199 809l172 213l-267 76l56 159l254 -100l-17 275h172l-18 -273l258 98l51 -159l-264 -72l176 -219l-135 -94l-150 227l-157 -231z" />
    <glyph glyph-name="plus" unicode="+" horiz-adv-x="1054" 
d="M621 442v-329h-187v329h-328v187h328v327h187v-327h327v-187h-327z" />
    <glyph glyph-name="comma" unicode="," horiz-adv-x="530" 
d="M166 -262l-143 49q151 212 143 471h221q-11 -188 -75.5 -323t-145.5 -197z" />
    <glyph glyph-name="hyphen" unicode="-" horiz-adv-x="985" 
d="M135 389v191h715v-191h-715z" />
    <glyph glyph-name="period" unicode="." horiz-adv-x="544" 
d="M129 117q0 60 41.5 99.5t101.5 39.5q61 0 103.5 -40t42.5 -99t-42.5 -98t-103.5 -39t-102 39t-41 98z" />
    <glyph glyph-name="slash" unicode="/" horiz-adv-x="1028" 
d="M756 1411h209l-693 -1411h-209z" />
    <glyph glyph-name="zero" unicode="0" horiz-adv-x="1236" 
d="M129 666q0 120 13.5 218.5t48 188.5t89 150.5t140.5 96.5t198 36q113 0 199 -36t140 -96.5t88 -150.5t47.5 -188t13.5 -219q0 -119 -13.5 -216.5t-47.5 -187t-88 -150t-140 -96.5t-199 -36q-112 0 -198 36t-140.5 96.5t-89 150t-48 187t-13.5 216.5zM338 666
q0 -84 7.5 -152t27 -131t50.5 -105.5t80.5 -68t114.5 -25.5t114 25t80 68t50.5 106t27 131t7.5 152t-7.5 152t-27 131t-50.5 105.5t-80 67.5t-114 25q-81 0 -137.5 -37t-86.5 -106t-43 -150.5t-13 -187.5z" />
    <glyph glyph-name="one" unicode="1" horiz-adv-x="704" 
d="M84 1182l430 170v-1352h-209v1067l-221 -80v195z" />
    <glyph glyph-name="two" unicode="2" horiz-adv-x="1089" 
d="M956 0h-837v100l545 656q92 110 92 202q0 85 -63 139t-158 54q-88 0 -152 -56.5t-76 -148.5l-201 43q27 168 147 268.5t286 100.5q180 0 303 -112t123 -288q0 -185 -146 -344q-279 -326 -348 -409h485v-205z" />
    <glyph glyph-name="three" unicode="3" horiz-adv-x="1101" 
d="M526 614h-149v195h149q73 0 118 47t54 105q17 125 -98 174q-31 14 -92 14q-114 3 -189 -105l-159 117q56 98 161.5 151t231.5 46q163 -7 270 -116.5t107 -254.5q0 -78 -44.5 -149.5t-117.5 -114.5q98 -35 156.5 -136.5t58.5 -213.5q0 -182 -131 -287.5t-336 -105.5
q-151 0 -265.5 74.5t-170.5 195.5l184 98q29 -65 105.5 -114.5t146.5 -49.5h-2q124 0 188 57t64 148q0 87 -64.5 156t-175.5 69z" />
    <glyph glyph-name="four" unicode="4" horiz-adv-x="1210" 
d="M377 471h350v522zM1122 281h-186v-281h-209v281h-684l713 1056h180v-866h186v-190z" />
    <glyph glyph-name="five" unicode="5" horiz-adv-x="1165" 
d="M854 440q0 119 -76.5 183.5t-191.5 64.5q-85 0 -159.5 -27t-164.5 -94l-125 92l115 678h731v-198h-561l-64 -338q43 34 114.5 55t135.5 21q127 0 228 -48.5t163 -149t62 -239.5q0 -209 -141 -334.5t-373 -125.5q-140 0 -263.5 80.5t-189.5 215.5q84 52 178 103
q41 -91 114 -143t161 -52q148 0 227.5 72.5t79.5 183.5z" />
    <glyph glyph-name="six" unicode="6" horiz-adv-x="1148" 
d="M821 416q0 100 -62.5 169.5t-158.5 73.5q-98 4 -173 -65t-75 -162q0 -101 69 -172.5t163 -71.5q98 -5 167.5 61.5t69.5 166.5zM621 862q173 0 292 -130t119 -326q-8 -185 -136.5 -305.5t-320.5 -120.5q-181 0 -302 125t-138 335q-6 72 -7 141.5t3 143.5t14.5 141
t30 132.5t47 119.5t67 100t88.5 77t113.5 47.5t139.5 13.5q63 -2 114.5 -14.5t103.5 -40t96 -79t77 -124.5l-191 -82q-67 143 -208 143q-139 0 -221.5 -129.5t-65.5 -318.5q83 151 285 151z" />
    <glyph glyph-name="seven" unicode="7" horiz-adv-x="1089" 
d="M113 1337h946l-699 -1337h-243l596 1135h-600v202z" />
    <glyph glyph-name="eight" unicode="8" horiz-adv-x="1167" 
d="M418 1006q0 -68 47.5 -112t122.5 -44q71 1 116.5 46.5t45.5 109.5q0 62 -47.5 105.5t-118.5 43.5t-118.5 -43.5t-47.5 -105.5zM319 426q0 -101 77.5 -172.5t187.5 -71.5t186 71t76 173q0 98 -74.5 170t-181.5 72h-23q-104 0 -176 -73t-72 -169zM213 1008q0 144 107 247
t264 103t265.5 -103t108.5 -247q0 -140 -104 -234q95 -58 149 -149.5t54 -200.5q0 -186 -137.5 -315t-335.5 -129q-199 0 -336 129t-137 315q0 111 53 202.5t147 147.5q-98 95 -98 234z" />
    <glyph glyph-name="nine" unicode="9" horiz-adv-x="1148" 
d="M326 920q0 -100 62.5 -170t158.5 -74q98 -4 173 65t75 162q0 101 -69 172.5t-163 71.5q-99 5 -168 -61.5t-69 -165.5zM526 473q-173 0 -292 130.5t-119 326.5q3 121 63.5 218.5t164 152.5t228.5 55q181 0 302.5 -125.5t138.5 -335.5q7 -82 7.5 -159.5t-5.5 -161
t-22.5 -156.5t-41.5 -142t-65 -123.5t-91.5 -94.5t-122 -60.5t-155.5 -17.5q-63 2 -114.5 14.5t-103.5 40t-96 79t-77 124.5l190 81q67 -143 209 -143q139 0 221.5 130t65.5 319q-37 -72 -112 -112t-173 -40z" />
    <glyph glyph-name="colon" unicode=":" horiz-adv-x="559" 
d="M135 117q0 59 42.5 99t103.5 40q60 0 101.5 -39.5t41.5 -99.5q0 -59 -41 -98t-102 -39t-103.5 39t-42.5 98zM135 838q0 60 42.5 99.5t103.5 39.5t102 -39t41 -100q0 -60 -41.5 -100t-101.5 -40q-61 0 -103.5 40.5t-42.5 99.5z" />
    <glyph glyph-name="semicolon" unicode=";" horiz-adv-x="585" 
d="M197 -262l-154 49q153 209 145 471h228q-7 -185 -72.5 -319.5t-146.5 -200.5zM160 838q0 61 42 100t103 39t103.5 -39.5t42.5 -99.5q0 -59 -42.5 -99.5t-103.5 -40.5t-103 40t-42 100z" />
    <glyph glyph-name="less" unicode="&#x3c;" horiz-adv-x="1257" 
d="M1122 74l-1034 397v191l1034 395v-205l-768 -285l768 -288v-205z" />
    <glyph glyph-name="equal" unicode="=" horiz-adv-x="1241" 
d="M1092 645h-942v182h942v-182zM150 428h942v-182h-942v182z" />
    <glyph glyph-name="greater" unicode="&#x3e;" horiz-adv-x="1257" 
d="M1169 471l-1034 -397v205l768 288l-768 285v205l1034 -395v-191z" />
    <glyph glyph-name="question" unicode="?" horiz-adv-x="997" 
d="M494 485l-5 -104h-204v104q0 81 15.5 134t51 87.5t70.5 54t98 51.5t109 62q40 28 61 69.5t21 84.5q0 84 -63 137.5t-152 53.5q-88 0 -147.5 -60t-59.5 -160h-203q0 193 117 310.5t293 117.5q116 0 212 -47.5t154 -139.5t58 -212q0 -143 -82.5 -245.5t-208.5 -141.5
q-69 -21 -102 -54.5t-33 -101.5zM244 119q0 59 42 99t103 40t103.5 -40t42.5 -99t-42.5 -98t-103.5 -39t-103 39t-42 98z" />
    <glyph glyph-name="at" unicode="@" horiz-adv-x="1984" 
d="M1221 266v262q0 109 -75.5 183.5t-182.5 74.5t-182.5 -74.5t-75.5 -183.5q0 -104 76 -180t182 -76q98 0 192 88v-180q-96 -61 -192 -61q-171 0 -291.5 119t-120.5 290t120.5 291.5t291.5 120.5q168 0 284 -113q118 -112 127 -280v-295q0 -131 142 -131q55 0 98 30
t67.5 75t40.5 105.5t21.5 114t5.5 107.5q0 151 -61.5 284.5t-165.5 226.5t-244.5 146.5t-294.5 53.5q-202 0 -370.5 -100t-264.5 -271.5t-96 -374.5q0 -152 56.5 -288.5t154 -235t233 -156t287.5 -57.5h51v-156h-51q-183 0 -347.5 70t-282 189.5t-186.5 284.5t-69 349
t69 350t186.5 286.5t282 191.5t347.5 71q247 0 458.5 -111t338.5 -310.5t127 -442.5q0 -76 -12.5 -153.5t-42.5 -156.5t-73.5 -139.5t-111.5 -98.5t-151 -38q-60 0 -110 15t-93 48t-67.5 93t-24.5 143z" />
    <glyph glyph-name="A" unicode="A" horiz-adv-x="1325" 
d="M1083 0l-135 352h-569l-135 -352h-232l533 1411h235l533 -1411h-230zM664 1139l-211 -592h421z" />
    <glyph glyph-name="B" unicode="B" horiz-adv-x="1288" 
d="M1116 1038q0 -60 -16 -112t-58.5 -100t-107.5 -74q117 -28 187.5 -128.5t70.5 -209.5q0 -174 -115 -294t-309 -120h-584v1411h541q180 0 285.5 -100t105.5 -273zM403 831h314q82 0 128 57.5t46 141.5q0 86 -50.5 134t-138.5 48h-299v-381zM752 645h-349v-446h355
q94 0 150.5 65t56.5 152q0 86 -59 157.5t-154 71.5z" />
    <glyph glyph-name="C" unicode="C" horiz-adv-x="1400" 
d="M1190 373l168 -133q-93 -123 -235.5 -191.5t-313.5 -68.5q-147 0 -279.5 57t-227.5 153.5t-150.5 230t-55.5 281.5q0 147 56 281t150.5 231.5t227 155t279.5 57.5q167 0 308 -67t237 -186l-168 -132q-157 177 -377 177q-209 0 -352.5 -151t-143.5 -366q0 -142 65 -260
t179 -186t252 -68q116 0 215 49t166 136z" />
    <glyph glyph-name="D" unicode="D" horiz-adv-x="1472" 
d="M401 1208v-1007h332q134 0 230 67.5t142 179t46 254.5q0 142 -46 255t-142 182t-230 69h-332zM733 0h-549v1411h549q147 0 268 -54.5t200.5 -150t123 -225t43.5 -279.5t-43.5 -278.5t-123.5 -222.5t-200.5 -147.5t-267.5 -53.5z" />
    <glyph glyph-name="E" unicode="E" horiz-adv-x="1161" 
d="M184 0v1411h850v-201h-633v-417h553v-199h-553v-395h654v-199h-871z" />
    <glyph glyph-name="F" unicode="F" horiz-adv-x="1079" 
d="M184 0v1411h838v-201h-621v-417h492v-199h-492v-594h-217z" />
    <glyph glyph-name="G" unicode="G" horiz-adv-x="1546" 
d="M1303 1229l-160 -142q-144 134 -332 134q-138 0 -252.5 -70t-180 -189t-65.5 -260t65.5 -260t180 -188.5t252.5 -69.5q175 0 296 95.5t128 250.5h-395v187h645q0 -186 -48.5 -327.5t-138 -230.5t-212 -134t-275.5 -45q-148 0 -280.5 57t-227.5 153.5t-151 230t-56 281.5
q0 197 94.5 363.5t259 264t361.5 97.5q145 0 271.5 -52t220.5 -146z" />
    <glyph glyph-name="H" unicode="H" horiz-adv-x="1443" 
d="M1038 1411h222v-1411h-222v602h-637v-602h-217v1411h217v-610h637v610z" />
    <glyph glyph-name="I" unicode="I" horiz-adv-x="585" 
d="M184 0v1411h217v-1411h-217z" />
    <glyph glyph-name="J" unicode="J" horiz-adv-x="587" 
d="M-205 -481l21 202q25 -8 75 -13t70 -5q59 0 103.5 20t70 56t37.5 80.5t12 97.5v1454h219v-1454q0 -98 -24 -179t-74.5 -146t-138 -101.5t-205.5 -36.5q-68 0 -166 25z" />
    <glyph glyph-name="K" unicode="K" horiz-adv-x="1193" 
d="M551 709l666 -709h-287l-527 571v-571h-219v1411h219v-573l433 573h256z" />
    <glyph glyph-name="L" unicode="L" horiz-adv-x="1021" 
d="M184 0v1411h217v-1212h566v-199h-783z" />
    <glyph glyph-name="M" unicode="M" horiz-adv-x="1898" 
d="M948 406l479 1005h195l172 -1411h-217l-121 1008l-414 -850h-184l-416 850l-120 -1008h-218l172 1411h193z" />
    <glyph glyph-name="N" unicode="N" horiz-adv-x="1394" 
d="M1210 1411v-1411h-202l-607 1010v-1010h-217v1411h209l600 -1001v1001h217z" />
    <glyph glyph-name="O" unicode="O" horiz-adv-x="1622" 
d="M313 702q0 -214 143.5 -361.5t352.5 -147.5q210 0 354 147.5t144 361.5t-144 363t-354 149q-137 0 -251 -68t-179.5 -185.5t-65.5 -258.5zM96 702q0 197 94 363.5t258 264t361 97.5q198 0 363 -97.5t259.5 -264t94.5 -363.5q0 -198 -94.5 -363.5t-259.5 -262t-363 -96.5
q-197 0 -361 96.5t-258 262t-94 363.5z" />
    <glyph glyph-name="P" unicode="P" horiz-adv-x="1243" 
d="M748 1210h-345v-493h336q74 0 127 37t76 91t23 118q0 100 -55 173.5t-162 73.5zM184 0v1411h568q109 0 194 -38t135 -102.5t75.5 -142.5t25.5 -165t-25.5 -164.5t-75.5 -141.5t-135 -101.5t-194 -37.5h-349v-518h-219z" />
    <glyph glyph-name="Q" unicode="Q" horiz-adv-x="1626" 
d="M1202 94l144 -231l-164 -101l-156 250q-92 -32 -215 -32q-148 0 -280.5 57t-227.5 153.5t-151 230t-56 281.5q0 197 94.5 363.5t259 264t361.5 97.5q198 0 363.5 -97.5t260.5 -264t95 -363.5q0 -189 -88 -348.5t-240 -259.5zM934 524l153 -248q105 68 164.5 180t59.5 246
q0 141 -65 259.5t-180 188t-255 69.5q-138 0 -252.5 -69.5t-180 -188t-65.5 -259.5q0 -201 127.5 -343.5t321.5 -159.5q68 -9 145 4l-135 221z" />
    <glyph glyph-name="R" unicode="R" horiz-adv-x="1273" 
d="M727 1210h-324v-493h316q110 0 165.5 72.5t55.5 173.5q0 63 -20.5 117t-70.5 92t-122 38zM801 526l370 -526h-264l-352 518h-152v-518h-219v1411h551q109 0 194 -38t135 -102.5t75.5 -142.5t25.5 -165q0 -80 -21 -151.5t-63 -133t-114 -102t-166 -50.5z" />
    <glyph glyph-name="S" unicode="S" horiz-adv-x="1175" 
d="M102 410h217q5 -92 82.5 -162t198.5 -70q118 0 186.5 54.5t79.5 138.5q11 174 -223 229l-178 45q-350 95 -350 379q0 118 64.5 211t170.5 142.5t230 49.5q200 0 329 -113.5t129 -303.5h-217q0 98 -67.5 155.5t-178.5 57.5q-100 0 -171.5 -55t-71.5 -140q0 -136 188 -184
l180 -47q211 -56 305 -168.5t76 -270.5q-17 -167 -149.5 -272.5t-331.5 -105.5q-142 0 -257.5 60t-178 158t-62.5 212z" />
    <glyph glyph-name="T" unicode="T" horiz-adv-x="1167" 
d="M57 1208v203h1053v-203h-416v-1208h-221v1208h-416z" />
    <glyph glyph-name="U" unicode="U" horiz-adv-x="1386" 
d="M694 188q125 0 214 84t89 217v922h220v-922q0 -151 -72.5 -268.5t-191 -179t-259.5 -61.5q-143 0 -261.5 61.5t-190.5 179t-72 268.5v922h221v-922q0 -133 89 -217t214 -84z" />
    <glyph glyph-name="V" unicode="V" horiz-adv-x="1159" 
d="M51 1411h228l301 -1049l303 1049h225l-426 -1411h-203z" />
    <glyph glyph-name="W" unicode="W" horiz-adv-x="1837" 
d="M1245 360l336 1051h234l-478 -1411h-182l-237 846l-236 -846h-182l-477 1411h233l336 -1051l242 859h170z" />
    <glyph glyph-name="X" unicode="X" horiz-adv-x="1277" 
d="M1210 1411l-440 -655l492 -756h-261l-362 578l-363 -578h-258l490 756l-438 655h262l307 -479l311 479h260z" />
    <glyph glyph-name="Y" unicode="Y" horiz-adv-x="1298" 
d="M760 0h-223v647l-537 764h260l389 -561l393 561h261l-543 -766v-645z" />
    <glyph glyph-name="Z" unicode="Z" horiz-adv-x="1181" 
d="M84 180l721 1030h-692v201h970v-182l-725 -1028h725v-201h-999v180z" />
    <glyph glyph-name="bracketleft" unicode="[" horiz-adv-x="671" 
d="M166 -465v1876h426v-180h-227v-1516h227v-180h-426z" />
    <glyph glyph-name="backslash" unicode="\" horiz-adv-x="1028" 
d="M63 1411h209l693 -1411h-209z" />
    <glyph glyph-name="bracketright" unicode="]" horiz-adv-x="671" 
d="M506 1411v-1876h-426v180h227v1516h-227v180h426z" />
    <glyph glyph-name="underscore" unicode="_" horiz-adv-x="1452" 
d="M135 -236v177h1182v-177h-1182z" />
    <glyph glyph-name="grave" unicode="`" horiz-adv-x="1069" 
d="M264 1430h238l205 -324h-185z" />
    <glyph glyph-name="a" unicode="a" horiz-adv-x="1249" 
d="M893 0v137q-48 -75 -136.5 -116t-185.5 -41q-96 0 -184 35.5t-154.5 99t-106.5 158.5t-40 206t40 206t106.5 158t154.5 98.5t184 35.5q95 0 185.5 -39.5t136.5 -116.5v135h209v-956h-209zM303 481q0 -129 86 -213t207 -84q123 0 209 80.5t86 216.5q0 89 -44.5 157
t-110.5 101t-140 33q-122 0 -207.5 -81t-85.5 -210z" />
    <glyph glyph-name="b" unicode="b" horiz-adv-x="1245" 
d="M360 481q0 -135 85.5 -216t207.5 -81t205.5 83.5t83.5 213.5q0 129 -83 210t-206 81q-115 0 -204 -79.5t-89 -211.5zM358 0h-211v1477h211v-658q43 76 129.5 117t192.5 41q97 0 184 -35.5t152 -99t103 -158.5t38 -207q0 -146 -66.5 -261t-175 -175.5t-237.5 -60.5
q-102 0 -189.5 41.5t-130.5 117.5v-139z" />
    <glyph glyph-name="c" unicode="c" horiz-adv-x="1052" 
d="M86 481q0 147 70.5 261.5t186 174.5t253.5 60q115 0 213 -43t166 -123l-164 -131q-80 92 -215 92q-124 0 -212.5 -80.5t-88.5 -210.5t89 -214.5t212 -84.5q63 0 120 25t95 69l166 -129q-68 -80 -166.5 -123.5t-214.5 -43.5q-137 0 -253 61t-186.5 177t-70.5 263z" />
    <glyph glyph-name="d" unicode="d" horiz-adv-x="1245" 
d="M889 0v139q-43 -75 -132.5 -117t-191.5 -42q-96 0 -183 36t-152 99.5t-103.5 157.5t-38.5 204q0 112 38.5 207t103.5 158.5t151.5 99t183.5 35.5q106 0 193.5 -41t130.5 -117v658h209v-1477h-209zM885 481q0 132 -89.5 211.5t-203.5 79.5q-121 0 -204 -81t-83 -210
q0 -130 83 -213.5t204 -83.5q122 0 207.5 81t85.5 216z" />
    <glyph glyph-name="e" unicode="e" horiz-adv-x="1132" 
d="M1057 481q0 -55 -2 -78h-760q17 -110 96.5 -174.5t196.5 -64.5q82 0 153 36.5t107 100.5l172 -76q-59 -121 -179.5 -183t-262.5 -62q-207 0 -349.5 139.5t-142.5 361.5q0 148 67 262t178.5 174t246.5 60q207 0 343 -136.5t136 -359.5zM295 557h555q-17 112 -89.5 174
t-182.5 62q-111 0 -188.5 -63.5t-94.5 -172.5z" />
    <glyph glyph-name="f" unicode="f" horiz-adv-x="710" 
d="M721 1477v-203h-105q-50 0 -85 -18t-52.5 -51.5t-25 -72t-7.5 -88.5v-88h216v-174h-216v-782h-213v782h-182v174h182v88q0 203 96 318t287 115h105z" />
    <glyph glyph-name="g" unicode="g" horiz-adv-x="1249" 
d="M891 477q0 137 -85.5 216t-209.5 79q-122 0 -206.5 -83.5t-84.5 -211.5q0 -132 84 -213.5t207 -81.5q74 0 140 33.5t110.5 102.5t44.5 159zM307 -121q37 -73 112.5 -116.5t155.5 -43.5q153 0 236.5 91.5t83.5 285.5v49q-38 -78 -129.5 -121.5t-194.5 -43.5
q-97 0 -184.5 35t-154 98t-105.5 157t-39 205q0 147 67 263t177 177.5t239 61.5q102 0 191.5 -43t132.5 -119v141h207v-815q0 -319 -137.5 -468.5t-389.5 -149.5q-141 0 -258 70t-184 198q20 8 87 44t87 44z" />
    <glyph glyph-name="h" unicode="h" horiz-adv-x="1183" 
d="M358 514v-514h-211v1477h211v-666q38 81 128 123.5t176 42.5q184 0 285.5 -114t101.5 -318v-545h-211v532q0 110 -60 174t-153 64q-48 0 -93 -14t-85 -43t-64.5 -80.5t-24.5 -118.5z" />
    <glyph glyph-name="i" unicode="i" horiz-adv-x="503" 
d="M356 956v-956h-209v956h209zM111 1343q0 56 41.5 95t99.5 39q60 0 99.5 -38.5t39.5 -95.5t-39.5 -95t-99.5 -38q-58 0 -99.5 38.5t-41.5 94.5z" />
    <glyph glyph-name="j" unicode="j" horiz-adv-x="507" 
d="M-127 -473v197h115q50 0 84 19t49 53t20.5 67t5.5 76v1017h213v-1017q0 -412 -348 -412h-139zM113 1343q0 56 41.5 95t99.5 39q60 0 100.5 -38.5t40.5 -95.5t-40.5 -95t-100.5 -38q-58 0 -99.5 38.5t-41.5 94.5z" />
    <glyph glyph-name="k" unicode="k" horiz-adv-x="1036" 
d="M764 0l-408 444v-444h-209v1477h209v-836l303 315h283l-407 -415l499 -541h-270z" />
    <glyph glyph-name="l" unicode="l" horiz-adv-x="505" 
d="M147 0v1477h211v-1477h-211z" />
    <glyph glyph-name="m" unicode="m" horiz-adv-x="1787" 
d="M1237 770q-105 0 -168 -69.5t-63 -186.5v-514h-211v537q-1 109 -54.5 171t-140.5 62q-103 0 -172.5 -62.5t-69.5 -193.5v-514h-211v956h211v-143q23 46 63 80.5t84 51.5t82.5 24.5t71.5 7.5q217 0 302 -191q31 59 74 99.5t88.5 59t83 25.5t75.5 7q178 0 273.5 -110.5
t95.5 -315.5v-551h-211v532q0 111 -55 174.5t-148 63.5z" />
    <glyph glyph-name="n" unicode="n" horiz-adv-x="1153" 
d="M358 514v-514h-211v956h211v-143q39 77 123.5 120.5t169.5 43.5q174 0 269.5 -108.5t95.5 -311.5v-557h-211v532q0 114 -53.5 176t-147.5 62q-105 0 -175.5 -62.5t-70.5 -193.5z" />
    <glyph glyph-name="o" unicode="o" horiz-adv-x="1171" 
d="M584 184q123 0 206.5 82.5t83.5 214.5q0 128 -83.5 208.5t-206.5 80.5q-121 0 -205 -80.5t-84 -208.5q0 -132 83.5 -214.5t205.5 -82.5zM584 -20q-135 0 -248 61t-181.5 177t-68.5 263t68.5 261.5t181 174.5t248.5 60q137 0 250.5 -60t182 -174.5t68.5 -261.5t-68.5 -263
t-182.5 -177t-250 -61z" />
    <glyph glyph-name="p" unicode="p" horiz-adv-x="1241" 
d="M358 956v-141q43 76 131 119t189 43q129 0 237 -61.5t173 -176.5t65 -262q0 -112 -38 -206t-103 -157.5t-151 -98.5t-183 -35q-103 0 -190 40.5t-130 116.5v-602h-211v1421h211zM360 473q0 -135 86.5 -213t204.5 -78q121 0 204 81t83 210q0 131 -83 215t-204 84
q-122 0 -206.5 -82t-84.5 -217z" />
    <glyph glyph-name="q" unicode="q" horiz-adv-x="1241" 
d="M881 473q0 135 -84.5 217t-206.5 82t-203.5 -83.5t-81.5 -215.5q0 -130 81.5 -210.5t203.5 -80.5q115 0 203 78.5t88 212.5zM883 815v141h211v-1421h-211v602q-41 -76 -128.5 -116.5t-191.5 -40.5q-97 0 -183 35t-151 98.5t-103 157.5t-38 206q0 147 65 262t173 176.5
t237 61.5q101 0 189.5 -43t130.5 -119z" />
    <glyph glyph-name="r" unicode="r" horiz-adv-x="817" 
d="M358 344v-344h-211v956h211v-219q68 240 263 240q120 0 170 -37l-35 -195q-67 33 -142 33q-130 0 -193 -117t-63 -317z" />
    <glyph glyph-name="s" unicode="s" horiz-adv-x="909" 
d="M500 383l-129 31q-151 41 -213.5 116.5t-51.5 194.5q5 69 54 127.5t126 91.5t163 33q66 0 124.5 -16t108.5 -48.5t80.5 -88.5t34.5 -130h-201q-6 51 -45.5 77t-93.5 26q-42 0 -80 -15t-55 -39q-24 -40 -9 -86q16 -45 117 -73l148 -37q59 -14 104.5 -39t72 -53t43.5 -62.5
t23 -64t6 -60.5q0 -135 -106 -211.5t-275 -76.5q-93 0 -173.5 35t-135 108t-57.5 170h194q8 -63 57 -100t132 -37q74 0 122 30.5t48 83.5q0 83 -133 113z" />
    <glyph glyph-name="t" unicode="t" horiz-adv-x="688" 
d="M434 1319v-363h203v-174h-203v-782h-211v782h-172v174h172v363h211z" />
    <glyph glyph-name="u" unicode="u" horiz-adv-x="1150" 
d="M793 442v514h211v-956h-211v139q-39 -77 -120.5 -118t-164.5 -41q-178 0 -275 108t-96 311v557h211v-532q0 -115 55 -177.5t144 -62.5q104 0 175 63t71 195z" />
    <glyph glyph-name="v" unicode="v" horiz-adv-x="1046" 
d="M426 0l-399 956h223l274 -688l271 688h225l-399 -956h-195z" />
    <glyph glyph-name="w" unicode="w" horiz-adv-x="1601" 
d="M1565 956l-351 -956h-174l-243 678l-234 -678h-172l-360 956h225l221 -645l221 645h197l221 -645l223 645h226z" />
    <glyph glyph-name="x" unicode="x" horiz-adv-x="1036" 
d="M397 522l-313 434h250l184 -264l184 264h250l-313 -434l377 -522h-248l-250 350l-254 -350h-246z" />
    <glyph glyph-name="y" unicode="y" horiz-adv-x="1038" 
d="M1012 956l-592 -1423h-221l207 512l-379 911h225l266 -655l268 655h226z" />
    <glyph glyph-name="z" unicode="z" horiz-adv-x="1032" 
d="M117 956h815v-168l-549 -589h549v-199h-848v168l541 590h-508v198z" />
    <glyph glyph-name="braceleft" unicode="{" horiz-adv-x="817" 
d="M74 401v152q49 0 87 36t38 81v356q0 179 117 290t288 111h141v-157h-147q-86 0 -146.5 -64.5t-60.5 -156.5v-322q0 -87 -33 -154.5t-104 -95.5q37 -12 64.5 -38.5t42.5 -61.5t22.5 -72.5t7.5 -77.5v-305q0 -92 61 -159.5t146 -67.5h147v-160h-141q-171 0 -288 112
t-117 292v348q0 43 -38 78.5t-87 35.5z" />
    <glyph glyph-name="bar" unicode="|" horiz-adv-x="464" 
d="M166 1632h133v-1878h-133v1878z" />
    <glyph glyph-name="braceright" unicode="}" horiz-adv-x="817" 
d="M743 553v-152q-49 0 -87 -35.5t-38 -78.5v-348q0 -180 -117 -292t-288 -112h-141v160h147q85 0 146 67.5t61 159.5v305q0 40 7.5 77.5t22.5 72.5t42.5 61.5t64.5 38.5q-71 28 -104 95.5t-33 154.5v322q0 92 -60.5 156.5t-146.5 64.5h-147v157h141q171 0 288 -111
t117 -290v-356q0 -45 38 -81t87 -36z" />
    <glyph glyph-name="exclamdown" unicode="&#xa1;" horiz-adv-x="509" 
d="M338 580l29 -1045h-228l31 1045h168zM111 840q0 59 42 98t103 39t103 -39t42 -98q0 -60 -42.5 -100t-102.5 -40t-102.5 40t-42.5 100z" />
    <glyph glyph-name="cent" unicode="&#xa2;" horiz-adv-x="1091" 
d="M645 1186v-211q103 -6 191.5 -48.5t150.5 -115.5l-164 -131q-80 92 -215 92q-124 0 -212.5 -80.5t-88.5 -210.5t89 -214.5t212 -84.5q63 0 120 25t95 69l166 -129q-128 -149 -344 -165v-226h-133v232q-179 30 -296.5 164t-117.5 329q0 194 117.5 326t296.5 162v217h133z
" />
    <glyph glyph-name="sterling" unicode="&#xa3;" horiz-adv-x="1316" 
d="M793 584h-293v-383h405q64 0 84 12q20 14 21 41v102h209v-104q0 -110 -56.5 -181t-156.5 -71h-912v201h197v383h-160v125h160v245q0 217 112.5 345t311.5 128q177 0 297.5 -119t120.5 -319h-211q0 112 -65 170.5t-157 50.5q-83 -5 -141.5 -58.5t-58.5 -137.5v-305h293
v-125z" />
    <glyph glyph-name="currency" unicode="&#xa4;" horiz-adv-x="1257" 
d="M408 356l-144 -147l-121 121l146 145q-66 97 -66 219q0 118 68 221l-148 146l121 119l146 -146q101 66 219 66q117 0 221 -66l143 146l119 -119l-143 -148q65 -100 65 -219q0 -124 -65 -219l143 -145l-119 -121l-143 147q-101 -67 -221 -67q-123 0 -221 67zM418 694
q0 -88 61.5 -149.5t149.5 -61.5t150.5 61.5t62.5 149.5t-62.5 150.5t-150.5 62.5t-149.5 -62.5t-61.5 -150.5z" />
    <glyph glyph-name="yen" unicode="&#xa5;" horiz-adv-x="1437" 
d="M834 653h356v-133h-363v-168h363v-133h-363v-219h-223v219h-356v133h356v168h-356v133h352l-532 758h260l389 -561l393 561h260z" />
    <glyph glyph-name="brokenbar" unicode="&#xa6;" horiz-adv-x="468" 
d="M168 547h133v-793h-133v793zM301 1632v-794h-133v794h133z" />
    <glyph glyph-name="section" unicode="&#xa7;" horiz-adv-x="1067" 
d="M651 451v-199q-52 -14 -110 -14q-173 0 -292.5 111.5t-119.5 293.5v379q0 181 119.5 293t292.5 112q137 0 244.5 -77t152.5 -215l-186 -56q-28 75 -85 114.5t-126 39.5q-91 0 -154 -58t-63 -153v-379q0 -97 62.5 -154t156.5 -57q55 0 108 19zM416 657v199q52 14 110 14
q173 0 292.5 -111.5t119.5 -293.5v-379q0 -181 -119.5 -293t-292.5 -112q-135 0 -247 77.5t-150 214.5l186 56q28 -75 85 -114.5t126 -39.5q91 0 154 58t63 153v379q0 97 -62.5 154t-156.5 57q-55 0 -108 -19z" />
    <glyph glyph-name="dieresis" unicode="&#xa8;" horiz-adv-x="1105" 
d="M246 1274q0 54 38.5 89.5t94.5 35.5q54 0 91.5 -35.5t37.5 -89.5t-37.5 -90.5t-91.5 -36.5q-56 0 -94.5 36.5t-38.5 90.5zM596 1274q0 54 38.5 89.5t94.5 35.5q55 0 93 -36t38 -89q0 -54 -38.5 -90.5t-92.5 -36.5q-56 0 -94.5 36.5t-38.5 90.5z" />
    <glyph glyph-name="copyright" unicode="&#xa9;" horiz-adv-x="1652" 
d="M1022 557l92 -102q-60 -63 -134 -98t-149 -35q-155 0 -261.5 108t-106.5 262t106.5 261.5t261.5 107.5q152 0 281 -135l-94 -97q-95 95 -187 95q-97 0 -163 -68.5t-66 -163.5q0 -98 65.5 -165.5t163.5 -67.5q93 0 191 98zM111 702q0 197 94.5 363.5t259 264t360.5 97.5
q147 0 280 -57.5t228.5 -155t152 -231.5t56.5 -281q0 -148 -56.5 -281.5t-152 -230t-228.5 -153.5t-280 -57t-279.5 57t-227.5 153.5t-151 230t-56 281.5zM236 702q0 -121 46.5 -231t125 -190t187.5 -127.5t230 -47.5q161 0 297 80t214.5 217t78.5 299q0 163 -78.5 300.5
t-214.5 217.5t-297 80q-121 0 -230 -47.5t-187.5 -127.5t-125 -190.5t-46.5 -232.5z" />
    <glyph glyph-name="ordfeminine" unicode="&#xaa;" horiz-adv-x="987" 
d="M684 664v100q-31 -54 -94.5 -84.5t-132.5 -30.5q-142 0 -242 97.5t-100 254.5q0 156 100 253.5t242 97.5q69 0 131 -29t96 -84v98h135v-673h-135zM684 1004q0 98 -66 155.5t-151 57.5q-92 0 -151.5 -58t-59.5 -155t59.5 -158.5t151.5 -61.5q90 0 153.5 60t63.5 160z
M168 438v105h645v-105h-645z" />
    <glyph glyph-name="guillemotleft" unicode="&#xab;" horiz-adv-x="1011" 
d="M455 477l282 424h176l-282 -424l282 -424h-176zM92 477l283 424h178l-283 -424l283 -424h-178z" />
    <glyph glyph-name="logicalnot" unicode="&#xac;" horiz-adv-x="1308" 
d="M150 741h1001v-508h-197v314h-804v194z" />
    <glyph glyph-name="registered" unicode="&#xae;" horiz-adv-x="1652" 
d="M936 598l184 -260h-172l-180 250h-47v-250h-141v723h280q112 0 173 -70.5t61 -167.5q0 -80 -39 -141.5t-119 -83.5zM860 922h-139v-195h135q45 0 71.5 28.5t26.5 67.5q0 40 -26 69.5t-68 29.5zM111 702q0 197 94.5 363.5t259 264t360.5 97.5q147 0 280 -57.5t228.5 -155
t152 -231.5t56.5 -281q0 -148 -56.5 -281.5t-152 -230t-228.5 -153.5t-280 -57t-279.5 57t-227.5 153.5t-151 230t-56 281.5zM236 702q0 -121 46.5 -231t125 -190t187.5 -127.5t230 -47.5q161 0 297 80t214.5 217t78.5 299q0 163 -78.5 300.5t-214.5 217.5t-297 80
q-121 0 -230 -47.5t-187.5 -127.5t-125 -190.5t-46.5 -232.5z" />
    <glyph glyph-name="macron" unicode="&#xaf;" horiz-adv-x="1019" 
d="M246 1171v166h528v-166h-528z" />
    <glyph glyph-name="degree" unicode="&#xb0;" horiz-adv-x="755" 
d="M102 1137q0 112 81 193t194 81q115 0 195.5 -80.5t80.5 -193.5q0 -116 -80.5 -196.5t-195.5 -80.5q-113 0 -194 81t-81 196zM246 1137q0 -55 38.5 -94t92.5 -39q55 0 94 39t39 94q0 54 -39 92.5t-94 38.5q-54 0 -92.5 -38.5t-38.5 -92.5z" />
    <glyph glyph-name="plusminus" unicode="&#xb1;" horiz-adv-x="1105" 
d="M645 575v-296h-186v296h-322v185h322v293h186v-293h324v-185h-324zM969 0h-832v178h832v-178z" />
    <glyph glyph-name="twosuperior" unicode="&#xb2;" horiz-adv-x="649" 
d="M70 948l321 387q53 67 53 117q0 49 -36.5 81t-90.5 32q-52 0 -89.5 -34t-47.5 -93l-119 28q17 103 88 164.5t170 61.5q107 0 180.5 -68t73.5 -172q0 -108 -86 -207l-200 -233h284v-129h-501v65z" />
    <glyph glyph-name="threesuperior" unicode="&#xb3;" horiz-adv-x="653" 
d="M186 1505q-41 29 -94 70q36 57 98 88t136 27q100 -4 164 -69t59 -151q0 -48 -26 -91t-70 -66q63 -26 98.5 -86.5t30.5 -128.5q-7 -102 -94.5 -168t-200.5 -58q-80 6 -144.5 51.5t-97.5 114.5l109 60q19 -42 57 -70.5t84 -32.5h-2q62 -5 109 30t51 89q0 53 -39 93t-103 40
h-90v117h90q52 0 81 38t22 83q-5 36 -33 60t-68 24q-75 8 -127 -64z" />
    <glyph glyph-name="acute" unicode="&#xb4;" horiz-adv-x="1069" 
d="M469 1430h238l-258 -324h-185z" />
    <glyph glyph-name="mu" unicode="&#xb5;" horiz-adv-x="1144" 
d="M164 -334v1290h211v-542q0 -108 50 -168t134 -60q102 0 174 62.5t72 191.5v516h211v-956h-211v121q-40 -68 -115 -103.5t-151 -35.5q-120 0 -179 59l9 -246v-129h-205z" />
    <glyph glyph-name="paragraph" unicode="&#xb6;" horiz-adv-x="1366" 
d="M676 1411v-1391q0 -13 1.5 -34t1.5 -31t-3 -24t-11.5 -20.5t-25 -11.5t-41.5 -5h-102v628q-177 12 -300.5 139.5t-123.5 305.5q0 185 129 314.5t315 129.5h160zM1024 1231h-49v-1331q0 -105 -84.5 -191t-196.5 -90h-22h-178v164h196q42 0 74.5 28t32.5 66v1534h213
q115 0 197.5 -83.5t82.5 -197.5v-174h-174v170q0 43 -26 74t-66 31z" />
    <glyph glyph-name="periodcentered" unicode="&#xb7;" horiz-adv-x="561" 
d="M135 563q0 60 41.5 99.5t102.5 39.5t104 -40t43 -99t-43 -99t-104 -40t-102.5 39.5t-41.5 99.5z" />
    <glyph glyph-name="cedilla" unicode="&#xb8;" horiz-adv-x="1073" 
d="M471 -227q12 -29 39 -41t57 -4q30 13 40 42.5t-1 59.5l-90 250h109l104 -193q16 -35 16 -90q0 -81 -60 -144t-150 -63q-82 0 -144.5 67.5t-62.5 170.5l137 -8v-17q0 -18 6 -30z" />
    <glyph glyph-name="onesuperior" unicode="&#xb9;" horiz-adv-x="428" 
d="M186 883v608l-137 -68v123l270 144v-807h-133z" />
    <glyph glyph-name="ordmasculine" unicode="&#xba;" horiz-adv-x="970" 
d="M481 649q-145 0 -248.5 99.5t-103.5 255.5q0 154 103 251t249 97t249.5 -97t103.5 -251q0 -156 -104 -255.5t-249 -99.5zM481 784q90 0 152.5 61.5t62.5 158.5q0 96 -62.5 154.5t-152.5 58.5q-93 0 -154 -58.5t-61 -154.5q0 -98 61.5 -159t153.5 -61zM154 438v105h669
v-105h-669z" />
    <glyph glyph-name="guillemotright" unicode="&#xbb;" horiz-adv-x="1011" 
d="M274 901l283 -424l-283 -424h-176l283 424l-283 424h176zM637 901l283 -424l-283 -424h-178l282 424l-282 424h178z" />
    <glyph glyph-name="onequarter" unicode="&#xbc;" horiz-adv-x="1538" 
d="M1266 1368l-924 -1388h-145l923 1388h146zM225 541v608l-137 -68v123l270 144v-807h-133zM1346 164v-164h-134v164h-403l426 635h111v-514h110v-121h-110zM1022 285h190v293z" />
    <glyph glyph-name="onehalf" unicode="&#xbd;" horiz-adv-x="1638" 
d="M1266 1368l-924 -1388h-145l923 1388h146zM225 541v608l-137 -68v123l270 144v-807h-133zM1034 66l322 387q53 67 53 116t-36.5 81t-90.5 32q-52 0 -89.5 -34t-47.5 -93l-119 29q17 103 88 164t170 61q107 0 180.5 -68t73.5 -172q0 -108 -86 -207l-201 -233h285v-129
h-502v66z" />
    <glyph glyph-name="threequarters" unicode="&#xbe;" horiz-adv-x="1658" 
d="M1393 1368l-924 -1388h-145l923 1388h146zM1466 164v-164h-133v164h-403l426 635h110v-514h111v-121h-111zM1143 285h190v293zM227 1155q-11 9 -50 38t-50 38q36 58 100 90.5t138 28.5q100 -4 163.5 -70t63.5 -154q0 -93 -88 -155q56 -26 88 -77.5t31 -123.5
q-4 -113 -85.5 -176.5t-199.5 -63.5q-77 2 -149.5 47t-104.5 115l113 62q18 -38 62 -64t87 -28q57 -1 95.5 30t43.5 82q2 50 -30 89.5t-93 39.5h-106v123h94q40 0 64.5 26t31.5 58q5 45 -23.5 78t-82.5 33q-65 0 -113 -66z" />
    <glyph glyph-name="questiondown" unicode="&#xbf;" horiz-adv-x="974" 
d="M494 473l4 105h204v-105q0 -81 -15.5 -134t-51 -87.5t-70.5 -54t-98 -51.5t-109 -62q-40 -28 -61 -69.5t-21 -84.5q0 -84 63.5 -137t152.5 -53q88 0 147 59.5t59 159.5h203q0 -193 -116.5 -310.5t-292.5 -117.5q-116 0 -212 47.5t-154 139.5t-58 212q0 143 82 245.5
t208 141.5q69 21 102.5 54.5t33.5 101.5zM743 840q0 -60 -42.5 -100t-102.5 -40t-102.5 40t-42.5 100q0 59 42 98t103 39t103 -39t42 -98z" />
    <glyph glyph-name="Agrave" unicode="&#xc0;" horiz-adv-x="1325" 
d="M1083 0l-135 352h-569l-135 -352h-232l533 1411h235l533 -1411h-230zM664 1139l-211 -592h421zM319 1884h238l205 -323h-184z" />
    <glyph glyph-name="Aacute" unicode="&#xc1;" horiz-adv-x="1325" 
d="M1083 0l-135 352h-569l-135 -352h-232l533 1411h235l533 -1411h-230zM664 1139l-211 -592h421zM772 1884h238l-258 -323h-185z" />
    <glyph glyph-name="Acircumflex" unicode="&#xc2;" horiz-adv-x="1325" 
d="M1083 0l-135 352h-569l-135 -352h-232l533 1411h235l533 -1411h-230zM664 1139l-211 -592h421zM555 1886h213l225 -323h-178l-156 180l-153 -180h-176z" />
    <glyph glyph-name="Atilde" unicode="&#xc3;" horiz-adv-x="1325" 
d="M1083 0l-135 352h-569l-135 -352h-232l533 1411h235l533 -1411h-230zM664 1139l-211 -592h421zM571 1681q-21 0 -37.5 -22t-17.5 -68h-133q7 128 61.5 187t126.5 59q40 0 74.5 -21t61 -42t45.5 -21q21 0 38.5 19.5t18.5 64.5h131q-7 -127 -61.5 -183.5t-126.5 -56.5
q-39 0 -73.5 21t-61.5 42t-46 21z" />
    <glyph glyph-name="Adieresis" unicode="&#xc4;" horiz-adv-x="1325" 
d="M1083 0l-135 352h-569l-135 -352h-232l533 1411h235l533 -1411h-230zM664 1139l-211 -592h421zM354 1729q0 53 38.5 88.5t94.5 35.5q55 0 92 -35t37 -89t-37.5 -90.5t-91.5 -36.5q-56 0 -94.5 36.5t-38.5 90.5zM705 1729q0 53 38.5 88.5t94.5 35.5q55 0 93 -35.5
t38 -88.5q0 -54 -38.5 -90.5t-92.5 -36.5q-56 0 -94.5 36.5t-38.5 90.5z" />
    <glyph glyph-name="Aring" unicode="&#xc5;" horiz-adv-x="1325" 
d="M1083 0l-135 352h-569l-135 -352h-232l533 1411h235l533 -1411h-230zM664 1139l-211 -592h421zM438 1761q0 96 64 162t157 66q96 0 162 -66t66 -162q0 -92 -66.5 -156.5t-161.5 -64.5q-92 0 -156.5 64.5t-64.5 156.5zM553 1761q0 -43 31 -74.5t75 -31.5q47 0 80 31.5
t33 74.5q0 47 -33 80t-80 33q-44 0 -75 -33t-31 -80z" />
    <glyph glyph-name="AE" unicode="&#xc6;" horiz-adv-x="1906" 
d="M877 1411h903v-207h-629v-407h551v-207h-551v-383h651v-207h-868v346h-471l-221 -346h-256zM934 1112l-344 -557h344v557z" />
    <glyph glyph-name="Ccedilla" unicode="&#xc7;" horiz-adv-x="1402" 
d="M657 -227q12 -29 39.5 -41t57.5 -4q30 13 40 42.5t-1 59.5l-56 154q-135 12 -254 73.5t-203.5 157t-133 222t-48.5 265.5q0 147 56 281t150.5 231.5t227 155t279.5 57.5q167 0 308 -67t237 -186l-168 -132q-157 177 -377 177q-209 0 -352.5 -151t-143.5 -366
q0 -142 65 -260t179 -186t252 -68q116 0 215 49t166 136l168 -133q-88 -112 -215.5 -180t-280.5 -78l51 -95q17 -38 17 -90q0 -81 -60 -144t-151 -63q-82 0 -144.5 67.5t-62.5 170.5l137 -8v-17q0 -18 6 -30z" />
    <glyph glyph-name="Egrave" unicode="&#xc8;" horiz-adv-x="1161" 
d="M184 0v1411h850v-201h-633v-417h553v-199h-553v-395h654v-199h-871zM326 1884h237l205 -323h-184z" />
    <glyph glyph-name="Eacute" unicode="&#xc9;" horiz-adv-x="1161" 
d="M184 0v1411h850v-201h-633v-417h553v-199h-553v-395h654v-199h-871zM647 1884h238l-258 -323h-185z" />
    <glyph glyph-name="Ecircumflex" unicode="&#xca;" horiz-adv-x="1161" 
d="M184 0v1411h850v-201h-633v-417h553v-199h-553v-395h654v-199h-871zM471 1886h213l225 -323h-178l-156 180l-153 -180h-176z" />
    <glyph glyph-name="Edieresis" unicode="&#xcb;" horiz-adv-x="1161" 
d="M184 0v1411h850v-201h-633v-417h553v-199h-553v-395h654v-199h-871zM291 1729q0 53 38.5 88.5t94.5 35.5q55 0 92 -35t37 -89t-37.5 -90.5t-91.5 -36.5q-56 0 -94.5 36.5t-38.5 90.5zM641 1729q0 53 38.5 88.5t94.5 35.5q55 0 93 -35.5t38 -88.5q0 -54 -38.5 -90.5
t-92.5 -36.5q-56 0 -94.5 36.5t-38.5 90.5z" />
    <glyph glyph-name="Igrave" unicode="&#xcc;" horiz-adv-x="585" 
d="M184 0v1411h217v-1411h-217zM-53 1884h237l205 -323h-184z" />
    <glyph glyph-name="Iacute" unicode="&#xcd;" horiz-adv-x="585" 
d="M184 0v1411h217v-1411h-217zM395 1884h238l-258 -323h-185z" />
    <glyph glyph-name="Icircumflex" unicode="&#xce;" horiz-adv-x="585" 
d="M184 0v1411h217v-1411h-217zM186 1886h213l226 -323h-179l-155 180l-154 -180h-176z" />
    <glyph glyph-name="Idieresis" unicode="&#xcf;" horiz-adv-x="585" 
d="M184 0v1411h217v-1411h-217zM-14 1729q0 53 38.5 88.5t94.5 35.5q55 0 92 -35t37 -89t-37.5 -90.5t-91.5 -36.5q-56 0 -94.5 36.5t-38.5 90.5zM336 1729q0 53 38.5 88.5t94.5 35.5q55 0 93 -35.5t38 -88.5q0 -54 -38.5 -90.5t-92.5 -36.5q-56 0 -94.5 36.5t-38.5 90.5z
" />
    <glyph glyph-name="Eth" unicode="&#xd0;" horiz-adv-x="1480" 
d="M12 623v155h191v633h542q148 0 268 -54.5t199 -150t121.5 -224.5t42.5 -280q0 -202 -72.5 -359.5t-217 -250t-341.5 -92.5h-542v623h-191zM422 623v-414h323q133 0 228 65.5t140.5 175.5t45.5 252t-45.5 253.5t-140.5 179t-228 67.5h-323v-424h315v-155h-315z" />
    <glyph glyph-name="Ntilde" unicode="&#xd1;" horiz-adv-x="1394" 
d="M1210 1411v-1411h-202l-607 1010v-1010h-217v1411h209l600 -1001v1001h217zM606 1681q-21 0 -37.5 -22t-17.5 -68h-133q7 128 61.5 187t126.5 59q31 0 60 -13t46.5 -29t37.5 -29t36 -13q21 0 39 19.5t19 64.5h131q-7 -127 -61.5 -183.5t-127.5 -56.5q-30 0 -59 13
t-46.5 29t-38 29t-36.5 13z" />
    <glyph glyph-name="Ograve" unicode="&#xd2;" horiz-adv-x="1622" 
d="M313 702q0 -214 143.5 -361.5t352.5 -147.5q210 0 354 147.5t144 361.5t-144 363t-354 149q-137 0 -251 -68t-179.5 -185.5t-65.5 -258.5zM96 702q0 197 94 363.5t258 264t361 97.5q198 0 363 -97.5t259.5 -264t94.5 -363.5q0 -198 -94.5 -363.5t-259.5 -262t-363 -96.5
q-197 0 -361 96.5t-258 262t-94 363.5zM457 1884h237l205 -323h-184z" />
    <glyph glyph-name="Oacute" unicode="&#xd3;" horiz-adv-x="1622" 
d="M313 702q0 -214 143.5 -361.5t352.5 -147.5q210 0 354 147.5t144 361.5t-144 363t-354 149q-137 0 -251 -68t-179.5 -185.5t-65.5 -258.5zM96 702q0 197 94 363.5t258 264t361 97.5q198 0 363 -97.5t259.5 -264t94.5 -363.5q0 -198 -94.5 -363.5t-259.5 -262t-363 -96.5
q-197 0 -361 96.5t-258 262t-94 363.5zM918 1884h237l-258 -323h-184z" />
    <glyph glyph-name="Ocircumflex" unicode="&#xd4;" horiz-adv-x="1622" 
d="M313 702q0 -214 143.5 -361.5t352.5 -147.5q210 0 354 147.5t144 361.5t-144 363t-354 149q-137 0 -251 -68t-179.5 -185.5t-65.5 -258.5zM96 702q0 197 94 363.5t258 264t361 97.5q198 0 363 -97.5t259.5 -264t94.5 -363.5q0 -198 -94.5 -363.5t-259.5 -262t-363 -96.5
q-197 0 -361 96.5t-258 262t-94 363.5zM705 1886h213l225 -323h-178l-156 180l-154 -180h-176z" />
    <glyph glyph-name="Otilde" unicode="&#xd5;" horiz-adv-x="1622" 
d="M313 702q0 -214 143.5 -361.5t352.5 -147.5q210 0 354 147.5t144 361.5t-144 363t-354 149q-137 0 -251 -68t-179.5 -185.5t-65.5 -258.5zM96 702q0 197 94 363.5t258 264t361 97.5q198 0 363 -97.5t259.5 -264t94.5 -363.5q0 -198 -94.5 -363.5t-259.5 -262t-363 -96.5
q-197 0 -361 96.5t-258 262t-94 363.5zM721 1681q-21 0 -37.5 -22t-17.5 -68h-134q7 128 62 187t127 59q31 0 60 -13t46.5 -29t37.5 -29t36 -13q21 0 38.5 19.5t18.5 64.5h132q-7 -127 -61.5 -183.5t-127.5 -56.5q-30 0 -59 13t-46.5 29t-38 29t-36.5 13z" />
    <glyph glyph-name="Odieresis" unicode="&#xd6;" horiz-adv-x="1622" 
d="M313 702q0 -214 143.5 -361.5t352.5 -147.5q210 0 354 147.5t144 361.5t-144 363t-354 149q-137 0 -251 -68t-179.5 -185.5t-65.5 -258.5zM96 702q0 197 94 363.5t258 264t361 97.5q198 0 363 -97.5t259.5 -264t94.5 -363.5q0 -198 -94.5 -363.5t-259.5 -262t-363 -96.5
q-197 0 -361 96.5t-258 262t-94 363.5zM504 1729q0 53 38.5 88.5t94.5 35.5q55 0 92 -35t37 -89t-37.5 -90.5t-91.5 -36.5q-56 0 -94.5 36.5t-38.5 90.5zM854 1729q0 53 38.5 88.5t94.5 35.5q55 0 93 -35.5t38 -88.5q0 -54 -38.5 -90.5t-92.5 -36.5q-56 0 -94.5 36.5
t-38.5 90.5z" />
    <glyph glyph-name="multiply" unicode="&#xd7;" horiz-adv-x="1013" 
d="M639 551l250 -250l-129 -133l-252 252l-248 -248l-133 129l252 250l-252 250l131 129l250 -248l252 252l129 -133z" />
    <glyph glyph-name="Oslash" unicode="&#xd8;" horiz-adv-x="1617" 
d="M360 135l-163 -168l-97 96l164 168q-170 207 -170 471q0 197 94 363.5t258 264t361 97.5q264 0 459 -165l161 165l97 -94l-164 -168q164 -203 164 -463q0 -198 -94.5 -363.5t-259.5 -262t-363 -96.5q-205 0 -375 106q-41 25 -72 49zM311 702q0 -171 103 -315l700 719
q-130 108 -307 108q-137 0 -251 -68t-179.5 -185.5t-65.5 -258.5zM807 193q210 0 354 147.5t144 361.5q0 174 -99 306l-696 -717q125 -98 297 -98z" />
    <glyph glyph-name="Ugrave" unicode="&#xd9;" horiz-adv-x="1386" 
d="M694 188q125 0 214 84t89 217v922h220v-922q0 -151 -72.5 -268.5t-191 -179t-259.5 -61.5q-143 0 -261.5 61.5t-190.5 179t-72 268.5v922h221v-922q0 -133 89 -217t214 -84zM373 1884h237l205 -323h-184z" />
    <glyph glyph-name="Uacute" unicode="&#xda;" horiz-adv-x="1386" 
d="M694 188q125 0 214 84t89 217v922h220v-922q0 -151 -72.5 -268.5t-191 -179t-259.5 -61.5q-143 0 -261.5 61.5t-190.5 179t-72 268.5v922h221v-922q0 -133 89 -217t214 -84zM760 1884h237l-258 -323h-184z" />
    <glyph glyph-name="Ucircumflex" unicode="&#xdb;" horiz-adv-x="1386" 
d="M694 188q125 0 214 84t89 217v922h220v-922q0 -151 -72.5 -268.5t-191 -179t-259.5 -61.5q-143 0 -261.5 61.5t-190.5 179t-72 268.5v922h221v-922q0 -133 89 -217t214 -84zM586 1886h213l225 -323h-178l-156 180l-153 -180h-177z" />
    <glyph glyph-name="Udieresis" unicode="&#xdc;" horiz-adv-x="1386" 
d="M694 188q125 0 214 84t89 217v922h220v-922q0 -151 -72.5 -268.5t-191 -179t-259.5 -61.5q-143 0 -261.5 61.5t-190.5 179t-72 268.5v922h221v-922q0 -133 89 -217t214 -84zM385 1729q0 53 38.5 88.5t94.5 35.5q55 0 92 -35t37 -89t-37.5 -90.5t-91.5 -36.5
q-56 0 -94.5 36.5t-38.5 90.5zM735 1729q0 53 38.5 88.5t94.5 35.5q55 0 93 -35.5t38 -88.5q0 -54 -38.5 -90.5t-92.5 -36.5q-56 0 -94.5 36.5t-38.5 90.5z" />
    <glyph glyph-name="Yacute" unicode="&#xdd;" horiz-adv-x="1298" 
d="M760 0h-223v647l-537 764h260l389 -561l393 561h261l-543 -766v-645zM717 1884h237l-258 -323h-184z" />
    <glyph glyph-name="Thorn" unicode="&#xde;" horiz-adv-x="1171" 
d="M889 723q0 109 -69.5 174t-168.5 70h-250v-490h263q93 0 159 69t66 177zM668 276h-267v-276h-217v1411h217v-246h267q123 0 222 -53t157.5 -154t58.5 -233q0 -201 -125 -325t-313 -124z" />
    <glyph glyph-name="germandbls" unicode="&#xdf;" horiz-adv-x="1622" 
d="M104 801h1194q-18 101 -70 184t-122.5 136t-158.5 78.5t-176 18.5t-176.5 -51.5t-158.5 -124.5l-166 132q90 112 215 175.5t255 75t262.5 -25.5t239.5 -114t182.5 -203t95.5 -281q16 -123 -7.5 -244.5t-84.5 -224.5t-149.5 -182.5t-209.5 -124.5t-256 -45
q-109 0 -210.5 30.5t-184 85t-148.5 131.5t-107.5 167t-57.5 195t-1 212zM1298 600h-972q18 -98 65.5 -177t114 -128.5t144.5 -75.5t161 -26t161 26t145 75t115 128t66 178z" />
    <glyph glyph-name="germandbls" unicode="&#x42f;" horiz-adv-x="1622" 
d="M104 801h1194q-18 101 -70 184t-122.5 136t-158.5 78.5t-176 18.5t-176.5 -51.5t-158.5 -124.5l-166 132q90 112 215 175.5t255 75t262.5 -25.5t239.5 -114t182.5 -203t95.5 -281q16 -123 -7.5 -244.5t-84.5 -224.5t-149.5 -182.5t-209.5 -124.5t-256 -45
q-109 0 -210.5 30.5t-184 85t-148.5 131.5t-107.5 167t-57.5 195t-1 212zM1298 600h-972q18 -98 65.5 -177t114 -128.5t144.5 -75.5t161 -26t161 26t145 75t115 128t66 178z" />
    <glyph glyph-name="germandbls" unicode="&#x18f;" horiz-adv-x="1622" 
d="M104 801h1194q-18 101 -70 184t-122.5 136t-158.5 78.5t-176 18.5t-176.5 -51.5t-158.5 -124.5l-166 132q90 112 215 175.5t255 75t262.5 -25.5t239.5 -114t182.5 -203t95.5 -281q16 -123 -7.5 -244.5t-84.5 -224.5t-149.5 -182.5t-209.5 -124.5t-256 -45
q-109 0 -210.5 30.5t-184 85t-148.5 131.5t-107.5 167t-57.5 195t-1 212zM1298 600h-972q18 -98 65.5 -177t114 -128.5t144.5 -75.5t161 -26t161 26t145 75t115 128t66 178z" />
    <glyph glyph-name="agrave" unicode="&#xe0;" horiz-adv-x="1249" 
d="M893 0v137q-48 -75 -136.5 -116t-185.5 -41q-96 0 -184 35.5t-154.5 99t-106.5 158.5t-40 206t40 206t106.5 158t154.5 98.5t184 35.5q95 0 185.5 -39.5t136.5 -116.5v135h209v-956h-209zM303 481q0 -129 86 -213t207 -84q123 0 209 80.5t86 216.5q0 89 -44.5 157
t-110.5 101t-140 33q-122 0 -207.5 -81t-85.5 -210zM326 1430h237l205 -324h-184z" />
    <glyph glyph-name="aacute" unicode="&#xe1;" horiz-adv-x="1249" 
d="M893 0v137q-48 -75 -136.5 -116t-185.5 -41q-96 0 -184 35.5t-154.5 99t-106.5 158.5t-40 206t40 206t106.5 158t154.5 98.5t184 35.5q95 0 185.5 -39.5t136.5 -116.5v135h209v-956h-209zM303 481q0 -129 86 -213t207 -84q123 0 209 80.5t86 216.5q0 89 -44.5 157
t-110.5 101t-140 33q-122 0 -207.5 -81t-85.5 -210zM682 1430h238l-258 -324h-185z" />
    <glyph glyph-name="acircumflex" unicode="&#xe2;" horiz-adv-x="1249" 
d="M893 0v137q-48 -75 -136.5 -116t-185.5 -41q-96 0 -184 35.5t-154.5 99t-106.5 158.5t-40 206t40 206t106.5 158t154.5 98.5t184 35.5q95 0 185.5 -39.5t136.5 -116.5v135h209v-956h-209zM303 481q0 -129 86 -213t207 -84q123 0 209 80.5t86 216.5q0 89 -44.5 157
t-110.5 101t-140 33q-122 0 -207.5 -81t-85.5 -210zM518 1432h213l225 -324h-178l-155 180l-154 -180h-176z" />
    <glyph glyph-name="atilde" unicode="&#xe3;" horiz-adv-x="1249" 
d="M893 0v137q-48 -75 -136.5 -116t-185.5 -41q-96 0 -184 35.5t-154.5 99t-106.5 158.5t-40 206t40 206t106.5 158t154.5 98.5t184 35.5q95 0 185.5 -39.5t136.5 -116.5v135h209v-956h-209zM303 481q0 -129 86 -213t207 -84q123 0 209 80.5t86 216.5q0 89 -44.5 157
t-110.5 101t-140 33q-122 0 -207.5 -81t-85.5 -210zM535 1227q-21 0 -38 -22t-18 -68h-133q7 128 62 186.5t127 58.5q31 0 60 -13t46.5 -29t37.5 -29t36 -13q21 0 38.5 19.5t18.5 64.5h131q-7 -127 -61 -183t-127 -56q-30 0 -59 13t-46.5 29t-38 29t-36.5 13z" />
    <glyph glyph-name="adieresis" unicode="&#xe4;" horiz-adv-x="1249" 
d="M893 0v137q-48 -75 -136.5 -116t-185.5 -41q-96 0 -184 35.5t-154.5 99t-106.5 158.5t-40 206t40 206t106.5 158t154.5 98.5t184 35.5q95 0 185.5 -39.5t136.5 -116.5v135h209v-956h-209zM303 481q0 -129 86 -213t207 -84q123 0 209 80.5t86 216.5q0 89 -44.5 157
t-110.5 101t-140 33q-122 0 -207.5 -81t-85.5 -210zM317 1274q0 53 39 89t95 36q54 0 91.5 -35.5t37.5 -89.5t-37.5 -90.5t-91.5 -36.5q-56 0 -95 36.5t-39 90.5zM668 1274q0 54 38.5 89.5t94.5 35.5q55 0 93 -36t38 -89q0 -54 -38.5 -90.5t-92.5 -36.5q-56 0 -94.5 36.5
t-38.5 90.5z" />
    <glyph glyph-name="aring" unicode="&#xe5;" horiz-adv-x="1249" 
d="M893 0v137q-48 -75 -136.5 -116t-185.5 -41q-96 0 -184 35.5t-154.5 99t-106.5 158.5t-40 206t40 206t106.5 158t154.5 98.5t184 35.5q95 0 185.5 -39.5t136.5 -116.5v135h209v-956h-209zM303 481q0 -129 86 -213t207 -84q123 0 209 80.5t86 216.5q0 89 -44.5 157
t-110.5 101t-140 33q-122 0 -207.5 -81t-85.5 -210zM399 1307q0 96 64.5 161.5t157.5 65.5q96 0 161.5 -65.5t65.5 -161.5q0 -92 -66 -157t-161 -65q-92 0 -157 65t-65 157zM514 1307q0 -43 31.5 -75t75.5 -32q47 0 79.5 32t32.5 75q0 47 -32.5 79.5t-79.5 32.5
q-44 0 -75.5 -32.5t-31.5 -79.5z" />
    <glyph glyph-name="ae" unicode="&#xe6;" horiz-adv-x="1984" 
d="M1147 557h553q-13 109 -86.5 172.5t-183.5 63.5q-111 0 -188.5 -63.5t-94.5 -172.5zM303 481q0 -129 86 -213t207 -84q123 0 209 80.5t86 216.5q0 89 -44.5 157t-110.5 101t-140 33q-122 0 -207.5 -81t-85.5 -210zM1909 481q0 -32 -4 -78h-758q17 -110 96.5 -174.5
t196.5 -64.5q82 0 153 36.5t107 100.5l172 -76q-59 -121 -179.5 -183t-262.5 -62q-202 0 -334 129v-109h-203v137q-48 -75 -136.5 -116t-185.5 -41q-96 0 -184 35.5t-154.5 99t-106.5 158.5t-40 206t40 206t106.5 158t154.5 98.5t184 35.5q95 0 185.5 -39.5t136.5 -116.5
v135h203v-106q64 61 150.5 94t183.5 33q207 0 343 -136.5t136 -359.5z" />
    <glyph glyph-name="ccedilla" unicode="&#xe7;" horiz-adv-x="1054" 
d="M657 -16l54 -97q16 -31 16 -90q0 -81 -60 -144t-151 -63q-82 0 -144.5 67.5t-62.5 170.5l137 -8v-17q0 -16 7 -30q12 -29 39 -41t57 -4q30 13 40 42.5t-1 59.5l-56 154q-190 21 -317 157t-127 340q0 147 70.5 261.5t186 174.5t253.5 60q115 0 213 -43t166 -123l-164 -131
q-80 92 -215 92q-124 0 -212.5 -80.5t-88.5 -210.5t89 -214.5t212 -84.5q63 0 120 25t95 69l166 -129q-123 -142 -322 -163z" />
    <glyph glyph-name="egrave" unicode="&#xe8;" horiz-adv-x="1132" 
d="M1057 481q0 -55 -2 -78h-760q17 -110 96.5 -174.5t196.5 -64.5q82 0 153 36.5t107 100.5l172 -76q-59 -121 -179.5 -183t-262.5 -62q-207 0 -349.5 139.5t-142.5 361.5q0 148 67 262t178.5 174t246.5 60q207 0 343 -136.5t136 -359.5zM295 557h555q-17 112 -89.5 174
t-182.5 62q-111 0 -188.5 -63.5t-94.5 -172.5zM248 1430h237l205 -324h-184z" />
    <glyph glyph-name="eacute" unicode="&#xe9;" horiz-adv-x="1132" 
d="M1057 481q0 -55 -2 -78h-760q17 -110 96.5 -174.5t196.5 -64.5q82 0 153 36.5t107 100.5l172 -76q-59 -121 -179.5 -183t-262.5 -62q-207 0 -349.5 139.5t-142.5 361.5q0 148 67 262t178.5 174t246.5 60q207 0 343 -136.5t136 -359.5zM295 557h555q-17 112 -89.5 174
t-182.5 62q-111 0 -188.5 -63.5t-94.5 -172.5zM649 1430h238l-258 -324h-185z" />
    <glyph glyph-name="ecircumflex" unicode="&#xea;" horiz-adv-x="1132" 
d="M1057 481q0 -55 -2 -78h-760q17 -110 96.5 -174.5t196.5 -64.5q82 0 153 36.5t107 100.5l172 -76q-59 -121 -179.5 -183t-262.5 -62q-207 0 -349.5 139.5t-142.5 361.5q0 148 67 262t178.5 174t246.5 60q207 0 343 -136.5t136 -359.5zM295 557h555q-17 112 -89.5 174
t-182.5 62q-111 0 -188.5 -63.5t-94.5 -172.5zM465 1432h213l225 -324h-178l-156 180l-153 -180h-176z" />
    <glyph glyph-name="edieresis" unicode="&#xeb;" horiz-adv-x="1132" 
d="M1057 481q0 -55 -2 -78h-760q17 -110 96.5 -174.5t196.5 -64.5q82 0 153 36.5t107 100.5l172 -76q-59 -121 -179.5 -183t-262.5 -62q-207 0 -349.5 139.5t-142.5 361.5q0 148 67 262t178.5 174t246.5 60q207 0 343 -136.5t136 -359.5zM295 557h555q-17 112 -89.5 174
t-182.5 62q-111 0 -188.5 -63.5t-94.5 -172.5zM264 1274q0 54 38.5 89.5t94.5 35.5q54 0 91.5 -35.5t37.5 -89.5t-37.5 -90.5t-91.5 -36.5q-56 0 -94.5 36.5t-38.5 90.5zM614 1274q0 53 39 89t95 36q55 0 93 -36t38 -89q0 -54 -38.5 -90.5t-92.5 -36.5q-56 0 -95 36.5
t-39 90.5z" />
    <glyph glyph-name="igrave" unicode="&#xec;" horiz-adv-x="503" 
d="M147 956h209v-956h-209v956zM-92 1430h237l205 -324h-184z" />
    <glyph glyph-name="iacute" unicode="&#xed;" horiz-adv-x="503" 
d="M147 956h209v-956h-209v956zM358 1430h238l-258 -324h-184z" />
    <glyph glyph-name="icircumflex" unicode="&#xee;" horiz-adv-x="503" 
d="M147 956h209v-956h-209v956zM125 1432h213l225 -324h-178l-156 180l-153 -180h-176z" />
    <glyph glyph-name="idieresis" unicode="&#xef;" horiz-adv-x="503" 
d="M147 956h209v-956h-209v956zM-76 1274q0 54 38.5 89.5t94.5 35.5q54 0 91.5 -35.5t37.5 -89.5t-37.5 -90.5t-91.5 -36.5q-56 0 -94.5 36.5t-38.5 90.5zM274 1274q0 53 39 89t95 36q55 0 93 -36t38 -89q0 -54 -38.5 -90.5t-92.5 -36.5q-56 0 -95 36.5t-39 90.5z" />
    <glyph glyph-name="eth" unicode="&#xf0;" horiz-adv-x="1171" 
d="M649 1214l340 -434q94 -131 94 -299q0 -147 -68 -262.5t-181 -177t-248 -61.5q-136 0 -249.5 61.5t-182 177t-68.5 262.5q0 141 64.5 254t170.5 174.5t230 61.5q43 0 80 -15l-144 164l-174 -100l-63 96l164 96l-154 199h229l84 -104l144 79l74 -86zM586 182
q123 0 210 83.5t87 215.5q0 131 -86.5 212t-210.5 81q-125 0 -211 -80.5t-86 -212.5t86 -215.5t211 -83.5z" />
    <glyph glyph-name="ntilde" unicode="&#xf1;" horiz-adv-x="1153" 
d="M358 514v-514h-211v956h211v-143q39 77 123.5 120.5t169.5 43.5q174 0 269.5 -108.5t95.5 -311.5v-557h-211v532q0 114 -53.5 176t-147.5 62q-105 0 -175.5 -62.5t-70.5 -193.5zM492 1227q-21 0 -38 -22t-18 -68h-133q7 128 62 186.5t127 58.5q31 0 60 -13t46.5 -29
t37.5 -29t36 -13q21 0 38.5 19.5t18.5 64.5h131q-7 -127 -61 -183t-127 -56q-30 0 -59 13t-46.5 29t-38 29t-36.5 13z" />
    <glyph glyph-name="ograve" unicode="&#xf2;" horiz-adv-x="1171" 
d="M584 184q123 0 206.5 82.5t83.5 214.5q0 128 -83.5 208.5t-206.5 80.5q-121 0 -205 -80.5t-84 -208.5q0 -132 83.5 -214.5t205.5 -82.5zM584 -20q-135 0 -248 61t-181.5 177t-68.5 263t68.5 261.5t181 174.5t248.5 60q137 0 250.5 -60t182 -174.5t68.5 -261.5t-68.5 -263
t-182.5 -177t-250 -61zM223 1430h238l205 -324h-185z" />
    <glyph glyph-name="oacute" unicode="&#xf3;" horiz-adv-x="1171" 
d="M584 184q123 0 206.5 82.5t83.5 214.5q0 128 -83.5 208.5t-206.5 80.5q-121 0 -205 -80.5t-84 -208.5q0 -132 83.5 -214.5t205.5 -82.5zM584 -20q-135 0 -248 61t-181.5 177t-68.5 263t68.5 261.5t181 174.5t248.5 60q137 0 250.5 -60t182 -174.5t68.5 -261.5t-68.5 -263
t-182.5 -177t-250 -61zM690 1430h238l-258 -324h-185z" />
    <glyph glyph-name="ocircumflex" unicode="&#xf4;" horiz-adv-x="1171" 
d="M584 184q123 0 206.5 82.5t83.5 214.5q0 128 -83.5 208.5t-206.5 80.5q-121 0 -205 -80.5t-84 -208.5q0 -132 83.5 -214.5t205.5 -82.5zM584 -20q-135 0 -248 61t-181.5 177t-68.5 263t68.5 261.5t181 174.5t248.5 60q137 0 250.5 -60t182 -174.5t68.5 -261.5t-68.5 -263
t-182.5 -177t-250 -61zM479 1432h213l226 -324h-179l-155 180l-154 -180h-176z" />
    <glyph glyph-name="otilde" unicode="&#xf5;" horiz-adv-x="1171" 
d="M584 184q123 0 206.5 82.5t83.5 214.5q0 128 -83.5 208.5t-206.5 80.5q-121 0 -205 -80.5t-84 -208.5q0 -132 83.5 -214.5t205.5 -82.5zM584 -20q-135 0 -248 61t-181.5 177t-68.5 263t68.5 261.5t181 174.5t248.5 60q137 0 250.5 -60t182 -174.5t68.5 -261.5t-68.5 -263
t-182.5 -177t-250 -61zM496 1227q-21 0 -38 -22t-18 -68h-133q7 128 62 186.5t127 58.5q31 0 60 -13t46.5 -29t37.5 -29t36 -13q21 0 38.5 19.5t18.5 64.5h131q-7 -127 -61 -183t-127 -56q-30 0 -59 13t-46.5 29t-38 29t-36.5 13z" />
    <glyph glyph-name="odieresis" unicode="&#xf6;" horiz-adv-x="1171" 
d="M584 184q123 0 206.5 82.5t83.5 214.5q0 128 -83.5 208.5t-206.5 80.5q-121 0 -205 -80.5t-84 -208.5q0 -132 83.5 -214.5t205.5 -82.5zM584 -20q-135 0 -248 61t-181.5 177t-68.5 263t68.5 261.5t181 174.5t248.5 60q137 0 250.5 -60t182 -174.5t68.5 -261.5t-68.5 -263
t-182.5 -177t-250 -61zM279 1274q0 54 38.5 89.5t94.5 35.5q54 0 91.5 -35.5t37.5 -89.5t-37.5 -90.5t-91.5 -36.5q-56 0 -94.5 36.5t-38.5 90.5zM629 1274q0 54 38.5 89.5t94.5 35.5q55 0 93 -36t38 -89q0 -54 -38.5 -90.5t-92.5 -36.5q-56 0 -94.5 36.5t-38.5 90.5z" />
    <glyph glyph-name="divide" unicode="&#xf7;" horiz-adv-x="1122" 
d="M420 172q0 59 41.5 97t99.5 38t99.5 -38t41.5 -97t-41.5 -97t-99.5 -38t-99.5 38t-41.5 97zM420 868q0 59 41 96t100 37t100 -37t41 -96t-41.5 -97t-99.5 -38t-99.5 38t-41.5 97zM999 428h-876v176h876v-176z" />
    <glyph glyph-name="oslash" unicode="&#xf8;" horiz-adv-x="1171" 
d="M584 -20q-168 0 -293 88l-117 -119l-96 96l115 117q-107 132 -107 319q0 147 68.5 261.5t181 174.5t248.5 60q170 0 307 -98l104 106l97 -94l-105 -107q98 -128 98 -303q0 -147 -68.5 -263t-182.5 -177t-250 -61zM584 770q-121 0 -205 -80.5t-84 -208.5q0 -104 45 -166
l403 412q-70 43 -159 43zM584 184q123 0 206.5 82.5t83.5 214.5q0 84 -36 148l-398 -408q61 -37 144 -37z" />
    <glyph glyph-name="ugrave" unicode="&#xf9;" horiz-adv-x="1150" 
d="M793 442v514h211v-956h-211v139q-39 -77 -120.5 -118t-164.5 -41q-178 0 -275 108t-96 311v557h211v-532q0 -115 55 -177.5t144 -62.5q104 0 175 63t71 195zM250 1430h237l205 -324h-184z" />
    <glyph glyph-name="uacute" unicode="&#xfa;" horiz-adv-x="1150" 
d="M793 442v514h211v-956h-211v139q-39 -77 -120.5 -118t-164.5 -41q-178 0 -275 108t-96 311v557h211v-532q0 -115 55 -177.5t144 -62.5q104 0 175 63t71 195zM641 1430h238l-258 -324h-185z" />
    <glyph glyph-name="ucircumflex" unicode="&#xfb;" horiz-adv-x="1150" 
d="M793 442v514h211v-956h-211v139q-39 -77 -120.5 -118t-164.5 -41q-178 0 -275 108t-96 311v557h211v-532q0 -115 55 -177.5t144 -62.5q104 0 175 63t71 195zM463 1432h213l225 -324h-178l-156 180l-153 -180h-176z" />
    <glyph glyph-name="udieresis" unicode="&#xfc;" horiz-adv-x="1150" 
d="M793 442v514h211v-956h-211v139q-39 -77 -120.5 -118t-164.5 -41q-178 0 -275 108t-96 311v557h211v-532q0 -115 55 -177.5t144 -62.5q104 0 175 63t71 195zM262 1274q0 54 38.5 89.5t94.5 35.5q54 0 91.5 -35.5t37.5 -89.5t-37.5 -90.5t-91.5 -36.5q-56 0 -94.5 36.5
t-38.5 90.5zM612 1274q0 54 38.5 89.5t94.5 35.5q55 0 93.5 -36t38.5 -89q0 -54 -39 -90.5t-93 -36.5q-56 0 -94.5 36.5t-38.5 90.5z" />
    <glyph glyph-name="yacute" unicode="&#xfd;" horiz-adv-x="1038" 
d="M1012 956l-592 -1423h-221l207 512l-379 911h225l266 -655l268 655h226zM563 1430h238l-258 -324h-185z" />
    <glyph glyph-name="thorn" unicode="&#xfe;" horiz-adv-x="1230" 
d="M360 479q0 -136 83.5 -215.5t205.5 -79.5q120 0 201.5 83t81.5 212q0 130 -81 210.5t-202 80.5q-72 0 -136.5 -33t-108.5 -101t-44 -157zM358 -444h-211v1919h211v-637q46 67 128 103t176 36q204 0 342.5 -138t138.5 -362q0 -221 -138.5 -359t-342.5 -138
q-93 0 -175.5 37t-128.5 104v-565z" />
    <glyph glyph-name="ydieresis" unicode="&#xff;" horiz-adv-x="1132" 
d="M86 473q0 55 2 78h760q-17 110 -96.5 175t-196.5 65q-81 0 -152.5 -36.5t-107.5 -101.5l-172 76q59 122 179.5 184t262.5 62q135 0 246.5 -61.5t178.5 -177t67 -263.5t-67 -262t-178.5 -174t-246.5 -60q-207 0 -343 136.5t-136 359.5zM848 397h-555q17 -111 89.5 -173
t182.5 -62q112 0 189 63t94 172z" />
    <glyph glyph-name="ydieresis" unicode="&#x44f;" horiz-adv-x="1132" 
d="M86 473q0 55 2 78h760q-17 110 -96.5 175t-196.5 65q-81 0 -152.5 -36.5t-107.5 -101.5l-172 76q59 122 179.5 184t262.5 62q135 0 246.5 -61.5t178.5 -177t67 -263.5t-67 -262t-178.5 -174t-246.5 -60q-207 0 -343 136.5t-136 359.5zM848 397h-555q17 -111 89.5 -173
t182.5 -62q112 0 189 63t94 172z" />
    <glyph glyph-name="ydieresis" unicode="&#x259;" horiz-adv-x="1132" 
d="M86 473q0 55 2 78h760q-17 110 -96.5 175t-196.5 65q-81 0 -152.5 -36.5t-107.5 -101.5l-172 76q59 122 179.5 184t262.5 62q135 0 246.5 -61.5t178.5 -177t67 -263.5t-67 -262t-178.5 -174t-246.5 -60q-207 0 -343 136.5t-136 359.5zM848 397h-555q17 -111 89.5 -173
t182.5 -62q112 0 189 63t94 172z" />
    <glyph glyph-name="Amacron" unicode="&#x100;" horiz-adv-x="1325" 
d="M1083 0l-135 352h-569l-135 -352h-232l533 1411h235l533 -1411h-230zM664 1139l-211 -592h421zM397 1626v166h529v-166h-529z" />
    <glyph glyph-name="amacron" unicode="&#x101;" horiz-adv-x="1249" 
d="M893 0v137q-48 -75 -136.5 -116t-185.5 -41q-96 0 -184 35.5t-154.5 99t-106.5 158.5t-40 206t40 206t106.5 158t154.5 98.5t184 35.5q95 0 185.5 -39.5t136.5 -116.5v135h209v-956h-209zM303 481q0 -129 86 -213t207 -84q123 0 209 80.5t86 216.5q0 89 -44.5 157
t-110.5 101t-140 33q-122 0 -207.5 -81t-85.5 -210zM360 1171v166h529v-166h-529z" />
    <glyph glyph-name="Abreve" unicode="&#x102;" horiz-adv-x="1325" 
d="M1083 0l-135 352h-569l-135 -352h-232l533 1411h235l533 -1411h-230zM664 1139l-211 -592h421zM393 1835h158q0 -55 29 -86t82 -31q51 0 80.5 35.5t29.5 81.5h160q0 -122 -73 -192t-197 -70q-133 0 -201 75t-68 187z" />
    <glyph glyph-name="abreve" unicode="&#x103;" horiz-adv-x="1249" 
d="M893 0v137q-48 -75 -136.5 -116t-185.5 -41q-96 0 -184 35.5t-154.5 99t-106.5 158.5t-40 206t40 206t106.5 158t154.5 98.5t184 35.5q95 0 185.5 -39.5t136.5 -116.5v135h209v-956h-209zM303 481q0 -129 86 -213t207 -84q123 0 209 80.5t86 216.5q0 89 -44.5 157
t-110.5 101t-140 33q-122 0 -207.5 -81t-85.5 -210zM354 1380h158q0 -55 29 -85.5t82 -30.5q51 0 80.5 35t29.5 81h160q0 -122 -73 -192t-197 -70q-133 0 -201 75t-68 187z" />
    <glyph glyph-name="Aogonek" unicode="&#x104;" horiz-adv-x="1325" 
d="M1206 0l-61 -170q-11 -30 -1 -59.5t40 -42.5q30 -8 57 4t39 41q6 12 6 30v17l137 8q0 -103 -62 -170.5t-144 -67.5q-91 0 -151 63t-60 144q0 55 16 90l61 113l-135 352h-569l-135 -352h-232l533 1411h235l533 -1411h-107zM664 1139l-211 -592h421z" />
    <glyph glyph-name="aogonek" unicode="&#x105;" horiz-adv-x="1249" 
d="M1090 -227q6 12 6 30v17l137 8q0 -103 -62.5 -170.5t-144.5 -67.5q-91 0 -151 63t-60 144q0 55 16 90l62 113v137q-48 -75 -136.5 -116t-185.5 -41q-96 0 -184 35.5t-154.5 99t-106.5 158.5t-40 206t40 206t106.5 158t154.5 98.5t184 35.5q95 0 185.5 -39.5t136.5 -116.5
v135h209v-956h-86l-62 -170q-11 -30 -1 -59.5t40 -42.5q30 -8 57.5 4t39.5 41zM303 481q0 -129 86 -213t207 -84q123 0 209 80.5t86 216.5q0 89 -44.5 157t-110.5 101t-140 33q-122 0 -207.5 -81t-85.5 -210z" />
    <glyph glyph-name="Cacute" unicode="&#x106;" horiz-adv-x="1400" 
d="M1190 373l168 -133q-93 -123 -235.5 -191.5t-313.5 -68.5q-147 0 -279.5 57t-227.5 153.5t-150.5 230t-55.5 281.5q0 147 56 281t150.5 231.5t227 155t279.5 57.5q167 0 308 -67t237 -186l-168 -132q-157 177 -377 177q-209 0 -352.5 -151t-143.5 -366q0 -142 65 -260
t179 -186t252 -68q116 0 215 49t166 136zM874 1884h238l-258 -323h-184z" />
    <glyph glyph-name="cacute" unicode="&#x107;" horiz-adv-x="1052" 
d="M86 481q0 147 70.5 261.5t186 174.5t253.5 60q115 0 213 -43t166 -123l-164 -131q-80 92 -215 92q-124 0 -212.5 -80.5t-88.5 -210.5t89 -214.5t212 -84.5q63 0 120 25t95 69l166 -129q-68 -80 -166.5 -123.5t-214.5 -43.5q-137 0 -253 61t-186.5 177t-70.5 263z
M649 1430h238l-258 -324h-185z" />
    <glyph glyph-name="Ccircumflex" unicode="&#x108;" horiz-adv-x="1400" 
d="M1190 373l168 -133q-93 -123 -235.5 -191.5t-313.5 -68.5q-147 0 -279.5 57t-227.5 153.5t-150.5 230t-55.5 281.5q0 147 56 281t150.5 231.5t227 155t279.5 57.5q167 0 308 -67t237 -186l-168 -132q-157 177 -377 177q-209 0 -352.5 -151t-143.5 -366q0 -142 65 -260
t179 -186t252 -68q116 0 215 49t166 136zM688 1886h213l225 -323h-178l-155 180l-154 -180h-176z" />
    <glyph glyph-name="ccircumflex" unicode="&#x109;" horiz-adv-x="1052" 
d="M86 481q0 147 70.5 261.5t186 174.5t253.5 60q115 0 213 -43t166 -123l-164 -131q-80 92 -215 92q-124 0 -212.5 -80.5t-88.5 -210.5t89 -214.5t212 -84.5q63 0 120 25t95 69l166 -129q-68 -80 -166.5 -123.5t-214.5 -43.5q-137 0 -253 61t-186.5 177t-70.5 263z
M463 1432h213l225 -324h-178l-156 180l-153 -180h-176z" />
    <glyph glyph-name="Cdotaccent" unicode="&#x10a;" horiz-adv-x="1400" 
d="M1190 373l168 -133q-93 -123 -235.5 -191.5t-313.5 -68.5q-147 0 -279.5 57t-227.5 153.5t-150.5 230t-55.5 281.5q0 147 56 281t150.5 231.5t227 155t279.5 57.5q167 0 308 -67t237 -186l-168 -132q-157 177 -377 177q-209 0 -352.5 -151t-143.5 -366q0 -142 65 -260
t179 -186t252 -68q116 0 215 49t166 136zM586 1745q0 55 39.5 92t95.5 37q57 0 97 -37t40 -92t-40 -92t-97 -37q-56 0 -95.5 37t-39.5 92z" />
    <glyph glyph-name="cdotaccent" unicode="&#x10b;" horiz-adv-x="1052" 
d="M86 481q0 147 70.5 261.5t186 174.5t253.5 60q115 0 213 -43t166 -123l-164 -131q-80 92 -215 92q-124 0 -212.5 -80.5t-88.5 -210.5t89 -214.5t212 -84.5q63 0 120 25t95 69l166 -129q-68 -80 -166.5 -123.5t-214.5 -43.5q-137 0 -253 61t-186.5 177t-70.5 263z
M381 1290q0 55 39.5 92t95.5 37q57 0 97 -37t40 -92t-40 -92t-97 -37q-56 0 -95.5 37t-39.5 92z" />
    <glyph glyph-name="Ccaron" unicode="&#x10c;" horiz-adv-x="1400" 
d="M1190 373l168 -133q-93 -123 -235.5 -191.5t-313.5 -68.5q-147 0 -279.5 57t-227.5 153.5t-150.5 230t-55.5 281.5q0 147 56 281t150.5 231.5t227 155t279.5 57.5q167 0 308 -67t237 -186l-168 -132q-157 177 -377 177q-209 0 -352.5 -151t-143.5 -366q0 -142 65 -260
t179 -186t252 -68q116 0 215 49t166 136zM674 1561l-225 321h176l153 -178l156 178h178l-225 -321h-213z" />
    <glyph glyph-name="ccaron" unicode="&#x10d;" horiz-adv-x="1052" 
d="M86 481q0 147 70.5 261.5t186 174.5t253.5 60q115 0 213 -43t166 -123l-164 -131q-80 92 -215 92q-124 0 -212.5 -80.5t-88.5 -210.5t89 -214.5t212 -84.5q63 0 120 25t95 69l166 -129q-68 -80 -166.5 -123.5t-214.5 -43.5q-137 0 -253 61t-186.5 177t-70.5 263z
M461 1106l-225 321h176l153 -178l156 178h178l-225 -321h-213z" />
    <glyph glyph-name="Dcaron" unicode="&#x10e;" horiz-adv-x="1472" 
d="M401 1208v-1007h332q134 0 230 67.5t142 179t46 254.5q0 142 -46 255t-142 182t-230 69h-332zM733 0h-549v1411h549q147 0 268 -54.5t200.5 -150t123 -225t43.5 -279.5t-43.5 -278.5t-123.5 -222.5t-200.5 -147.5t-267.5 -53.5zM625 1561l-226 321h176l154 -178l156 178
h178l-225 -321h-213z" />
    <glyph glyph-name="dcaron" unicode="&#x10f;" horiz-adv-x="1320" 
d="M889 0v139q-43 -75 -132.5 -117t-191.5 -42q-96 0 -183 36t-152 99.5t-103.5 157.5t-38.5 204q0 112 38.5 207t103.5 158.5t151.5 99t183.5 35.5q106 0 193.5 -41t130.5 -117v658h209v-1477h-209zM885 481q0 132 -89.5 211.5t-203.5 79.5q-121 0 -204 -81t-83 -210
q0 -130 83 -213.5t204 -83.5q122 0 207.5 81t85.5 216zM1286 909l-108 45q147 211 145 457h186q-11 -164 -79 -302t-144 -200z" />
    <glyph glyph-name="Dcroat" unicode="&#x110;" horiz-adv-x="1480" 
d="M12 623v155h191v633h542q148 0 268 -54.5t199 -150t121.5 -224.5t42.5 -280q0 -202 -72.5 -359.5t-217 -250t-341.5 -92.5h-542v623h-191zM422 623v-414h323q133 0 228 65.5t140.5 175.5t45.5 252t-45.5 253.5t-140.5 179t-228 67.5h-323v-424h315v-155h-315z" />
    <glyph glyph-name="dcroat" unicode="&#x111;" horiz-adv-x="1245" 
d="M582 1143v139h307v195h209v-195h155v-139h-155v-1143h-209v139q-43 -75 -132.5 -117t-191.5 -42q-96 0 -183 36t-152 99.5t-103.5 157.5t-38.5 204q0 112 38.5 207t103.5 158.5t151.5 99t183.5 35.5q106 0 193.5 -41t130.5 -117v324h-307zM885 481q0 132 -89.5 211.5
t-203.5 79.5q-121 0 -204 -81t-83 -210q0 -130 83 -213.5t204 -83.5q122 0 207.5 81t85.5 216z" />
    <glyph glyph-name="Emacron" unicode="&#x112;" horiz-adv-x="1161" 
d="M184 0v1411h850v-201h-633v-417h553v-199h-553v-395h654v-199h-871zM340 1626v166h528v-166h-528z" />
    <glyph glyph-name="emacron" unicode="&#x113;" horiz-adv-x="1132" 
d="M1057 481q0 -55 -2 -78h-760q17 -110 96.5 -174.5t196.5 -64.5q82 0 153 36.5t107 100.5l172 -76q-59 -121 -179.5 -183t-262.5 -62q-207 0 -349.5 139.5t-142.5 361.5q0 148 67 262t178.5 174t246.5 60q207 0 343 -136.5t136 -359.5zM295 557h555q-17 112 -89.5 174
t-182.5 62q-111 0 -188.5 -63.5t-94.5 -172.5zM307 1171v166h529v-166h-529z" />
    <glyph glyph-name="Ebreve" unicode="&#x114;" horiz-adv-x="1161" 
d="M184 0v1411h850v-201h-633v-417h553v-199h-553v-395h654v-199h-871zM309 1835h158q0 -55 29 -86t82 -31q51 0 80.5 35.5t29.5 81.5h160q0 -122 -73 -192t-197 -70q-133 0 -201 75t-68 187z" />
    <glyph glyph-name="ebreve" unicode="&#x115;" horiz-adv-x="1132" 
d="M1057 481q0 -55 -2 -78h-760q17 -110 96.5 -174.5t196.5 -64.5q82 0 153 36.5t107 100.5l172 -76q-59 -121 -179.5 -183t-262.5 -62q-207 0 -349.5 139.5t-142.5 361.5q0 148 67 262t178.5 174t246.5 60q207 0 343 -136.5t136 -359.5zM295 557h555q-17 112 -89.5 174
t-182.5 62q-111 0 -188.5 -63.5t-94.5 -172.5zM301 1380h158q0 -55 28.5 -85.5t81.5 -30.5q51 0 81 35t30 81h160q0 -122 -73.5 -192t-197.5 -70q-133 0 -200.5 75t-67.5 187z" />
    <glyph glyph-name="Edotaccent" unicode="&#x116;" horiz-adv-x="1161" 
d="M184 0v1411h850v-201h-633v-417h553v-199h-553v-395h654v-199h-871zM481 1745q0 55 39.5 92t95.5 37q58 0 98 -37t40 -92t-40 -92t-98 -37q-56 0 -95.5 37t-39.5 92z" />
    <glyph glyph-name="edotaccent" unicode="&#x117;" horiz-adv-x="1132" 
d="M1057 481q0 -55 -2 -78h-760q17 -110 96.5 -174.5t196.5 -64.5q82 0 153 36.5t107 100.5l172 -76q-59 -121 -179.5 -183t-262.5 -62q-207 0 -349.5 139.5t-142.5 361.5q0 148 67 262t178.5 174t246.5 60q207 0 343 -136.5t136 -359.5zM295 557h555q-17 112 -89.5 174
t-182.5 62q-111 0 -188.5 -63.5t-94.5 -172.5zM434 1290q0 55 39.5 92t95.5 37q58 0 98 -37t40 -92t-40 -92t-98 -37q-56 0 -95.5 37t-39.5 92z" />
    <glyph glyph-name="Eogonek" unicode="&#x118;" horiz-adv-x="1161" 
d="M930 0h-746v1411h850v-201h-633v-417h553v-199h-553v-395h654v-193l-64 -176q-11 -30 -1 -59.5t40 -42.5q30 -8 57 4t39 41q7 14 7 30v17l137 8q0 -103 -62.5 -170.5t-144.5 -67.5q-91 0 -151 63t-60 144q0 55 16 90z" />
    <glyph glyph-name="eogonek" unicode="&#x119;" horiz-adv-x="1134" 
d="M793 -170q-12 -30 -2 -59.5t40 -42.5q30 -8 57.5 4t39.5 41q6 12 6 30v17l137 8q0 -103 -62.5 -170.5t-144.5 -67.5q-91 0 -151 63t-60 144q0 57 17 90l59 113q-67 -20 -151 -20q-207 0 -349.5 139.5t-142.5 361.5q0 148 67 262t178.5 174t246.5 60q207 0 343 -136.5
t136 -359.5q0 -55 -2 -78h-760q17 -110 96.5 -174.5t196.5 -64.5q82 0 153 36.5t107 100.5l172 -76q-9 -20 -39 -54t-60 -69t-66.5 -107.5t-61.5 -164.5zM295 557h555q-17 112 -89.5 174t-182.5 62q-111 0 -188.5 -63.5t-94.5 -172.5z" />
    <glyph glyph-name="Ecaron" unicode="&#x11a;" horiz-adv-x="1161" 
d="M184 0v1411h850v-201h-633v-417h553v-199h-553v-395h654v-199h-871zM500 1561l-226 321h177l153 -178l156 178h178l-225 -321h-213z" />
    <glyph glyph-name="ecaron" unicode="&#x11b;" horiz-adv-x="1132" 
d="M1057 481q0 -55 -2 -78h-760q17 -110 96.5 -174.5t196.5 -64.5q82 0 153 36.5t107 100.5l172 -76q-59 -121 -179.5 -183t-262.5 -62q-207 0 -349.5 139.5t-142.5 361.5q0 148 67 262t178.5 174t246.5 60q207 0 343 -136.5t136 -359.5zM295 557h555q-17 112 -89.5 174
t-182.5 62q-111 0 -188.5 -63.5t-94.5 -172.5zM465 1106l-225 321h176l153 -178l156 178h178l-225 -321h-213z" />
    <glyph glyph-name="Gcircumflex" unicode="&#x11c;" horiz-adv-x="1546" 
d="M1303 1229l-160 -142q-144 134 -332 134q-138 0 -252.5 -70t-180 -189t-65.5 -260t65.5 -260t180 -188.5t252.5 -69.5q175 0 296 95.5t128 250.5h-395v187h645q0 -186 -48.5 -327.5t-138 -230.5t-212 -134t-275.5 -45q-148 0 -280.5 57t-227.5 153.5t-151 230t-56 281.5
q0 197 94.5 363.5t259 264t361.5 97.5q145 0 271.5 -52t220.5 -146zM676 1886h213l225 -323h-178l-156 180l-153 -180h-176z" />
    <glyph glyph-name="gcircumflex" unicode="&#x11d;" horiz-adv-x="1249" 
d="M891 477q0 137 -85.5 216t-209.5 79q-122 0 -206.5 -83.5t-84.5 -211.5q0 -132 84 -213.5t207 -81.5q74 0 140 33.5t110.5 102.5t44.5 159zM307 -121q37 -73 112.5 -116.5t155.5 -43.5q153 0 236.5 91.5t83.5 285.5v49q-38 -78 -129.5 -121.5t-194.5 -43.5
q-97 0 -184.5 35t-154 98t-105.5 157t-39 205q0 147 67 263t177 177.5t239 61.5q102 0 191.5 -43t132.5 -119v141h207v-815q0 -319 -137.5 -468.5t-389.5 -149.5q-141 0 -258 70t-184 198q20 8 87 44t87 44zM487 1432h213l226 -324h-178l-156 180l-154 -180h-176z" />
    <glyph glyph-name="Gbreve" unicode="&#x11e;" horiz-adv-x="1546" 
d="M1303 1229l-160 -142q-144 134 -332 134q-138 0 -252.5 -70t-180 -189t-65.5 -260t65.5 -260t180 -188.5t252.5 -69.5q175 0 296 95.5t128 250.5h-395v187h645q0 -186 -48.5 -327.5t-138 -230.5t-212 -134t-275.5 -45q-148 0 -280.5 57t-227.5 153.5t-151 230t-56 281.5
q0 197 94.5 363.5t259 264t361.5 97.5q145 0 271.5 -52t220.5 -146zM512 1835h158q0 -55 28.5 -86t81.5 -31q51 0 81 35.5t30 81.5h160q0 -122 -73.5 -192t-197.5 -70q-133 0 -200.5 75t-67.5 187z" />
    <glyph glyph-name="gbreve" unicode="&#x11f;" horiz-adv-x="1249" 
d="M891 477q0 137 -85.5 216t-209.5 79q-122 0 -206.5 -83.5t-84.5 -211.5q0 -132 84 -213.5t207 -81.5q74 0 140 33.5t110.5 102.5t44.5 159zM307 -121q37 -73 112.5 -116.5t155.5 -43.5q153 0 236.5 91.5t83.5 285.5v49q-38 -78 -129.5 -121.5t-194.5 -43.5
q-97 0 -184.5 35t-154 98t-105.5 157t-39 205q0 147 67 263t177 177.5t239 61.5q102 0 191.5 -43t132.5 -119v141h207v-815q0 -319 -137.5 -468.5t-389.5 -149.5q-141 0 -258 70t-184 198q20 8 87 44t87 44zM295 1380h158q0 -55 28.5 -85.5t81.5 -30.5q51 0 81 35t30 81h160
q0 -122 -73.5 -192t-197.5 -70q-133 0 -200.5 75t-67.5 187z" />
    <glyph glyph-name="Gdotaccent" unicode="&#x120;" horiz-adv-x="1546" 
d="M1303 1229l-160 -142q-144 134 -332 134q-138 0 -252.5 -70t-180 -189t-65.5 -260t65.5 -260t180 -188.5t252.5 -69.5q175 0 296 95.5t128 250.5h-395v187h645q0 -186 -48.5 -327.5t-138 -230.5t-212 -134t-275.5 -45q-148 0 -280.5 57t-227.5 153.5t-151 230t-56 281.5
q0 197 94.5 363.5t259 264t361.5 97.5q145 0 271.5 -52t220.5 -146zM645 1745q0 55 39.5 92t95.5 37q58 0 98 -37t40 -92t-40 -92t-98 -37q-56 0 -95.5 37t-39.5 92z" />
    <glyph glyph-name="gdotaccent" unicode="&#x121;" horiz-adv-x="1249" 
d="M891 477q0 137 -85.5 216t-209.5 79q-122 0 -206.5 -83.5t-84.5 -211.5q0 -132 84 -213.5t207 -81.5q74 0 140 33.5t110.5 102.5t44.5 159zM307 -121q37 -73 112.5 -116.5t155.5 -43.5q153 0 236.5 91.5t83.5 285.5v49q-38 -78 -129.5 -121.5t-194.5 -43.5
q-97 0 -184.5 35t-154 98t-105.5 157t-39 205q0 147 67 263t177 177.5t239 61.5q102 0 191.5 -43t132.5 -119v141h207v-815q0 -319 -137.5 -468.5t-389.5 -149.5q-141 0 -258 70t-184 198q20 8 87 44t87 44zM428 1290q0 55 39.5 92t95.5 37q57 0 97 -37t40 -92t-40 -92
t-97 -37q-56 0 -95.5 37t-39.5 92z" />
    <glyph glyph-name="Gcommaaccent" unicode="&#x122;" horiz-adv-x="1546" 
d="M1303 1229l-160 -142q-144 134 -332 134q-138 0 -252.5 -70t-180 -189t-65.5 -260t65.5 -260t180 -188.5t252.5 -69.5q175 0 296 95.5t128 250.5h-395v187h645q0 -186 -48.5 -327.5t-138 -230.5t-212 -134t-275.5 -45q-148 0 -280.5 57t-227.5 153.5t-151 230t-56 281.5
q0 197 94.5 363.5t259 264t361.5 97.5q145 0 271.5 -52t220.5 -146zM756 -530l-123 47q62 85 84.5 162.5t15.5 203.5h199q-7 -276 -176 -413z" />
    <glyph glyph-name="gcommaaccent" unicode="&#x123;" horiz-adv-x="1249" 
d="M641 1552l123 -47q-62 -82 -84.5 -162t-15.5 -206h-197q0 273 174 415zM891 477q0 137 -85.5 216t-209.5 79q-122 0 -206.5 -83.5t-84.5 -211.5q0 -132 84 -213.5t207 -81.5q74 0 140 33.5t110.5 102.5t44.5 159zM307 -121q37 -73 112.5 -116.5t155.5 -43.5
q153 0 236.5 91.5t83.5 285.5v49q-38 -78 -129.5 -121.5t-194.5 -43.5q-97 0 -184.5 35t-154 98t-105.5 157t-39 205q0 147 67 263t177 177.5t239 61.5q102 0 191.5 -43t132.5 -119v141h207v-815q0 -319 -137.5 -468.5t-389.5 -149.5q-141 0 -258 70t-184 198q20 8 87 44
t87 44z" />
    <glyph glyph-name="Hcircumflex" unicode="&#x124;" horiz-adv-x="1443" 
d="M1038 1411h222v-1411h-222v602h-637v-602h-217v1411h217v-610h637v610zM614 1886h213l226 -323h-179l-155 180l-154 -180h-176z" />
    <glyph glyph-name="hcircumflex" unicode="&#x125;" horiz-adv-x="1183" 
d="M358 514v-514h-211v1477h211v-666q38 81 128 123.5t176 42.5q184 0 285.5 -114t101.5 -318v-545h-211v532q0 110 -60 174t-153 64q-48 0 -93 -14t-85 -43t-64.5 -80.5t-24.5 -118.5zM147 1896h213l226 -323h-178l-156 180l-154 -180h-176z" />
    <glyph glyph-name="Hbar" unicode="&#x126;" horiz-adv-x="1443" 
d="M1038 1411h222v-1411h-222v602h-637v-602h-217v1411h217v-610h637v610zM457 1626v166h528v-166h-528z" />
    <glyph glyph-name="hbar" unicode="&#x127;" horiz-adv-x="1183" 
d="M358 1143v-332q38 81 128 123.5t176 42.5q184 0 285.5 -114t101.5 -318v-545h-211v532q0 110 -60 174t-153 64q-48 0 -93 -14t-85 -43t-64.5 -80.5t-24.5 -118.5v-514h-211v1143h-153v139h153v195h211v-195h308v-139h-308z" />
    <glyph glyph-name="Itilde" unicode="&#x128;" horiz-adv-x="585" 
d="M184 0v1411h217v-1411h-217zM203 1681q-21 0 -38 -22t-18 -68h-133q7 128 62 187t127 59q31 0 60 -13t46.5 -29t37.5 -29t36 -13q21 0 38.5 19.5t18.5 64.5h131q-7 -127 -61.5 -183.5t-126.5 -56.5q-30 0 -59 13t-46.5 29t-38 29t-36.5 13z" />
    <glyph glyph-name="itilde" unicode="&#x129;" horiz-adv-x="503" 
d="M147 956h209v-956h-209v956zM141 1227q-21 0 -37.5 -22t-17.5 -68h-133q7 128 61.5 186.5t126.5 58.5q40 0 74.5 -21t61 -42t45.5 -21q21 0 38.5 19.5t18.5 64.5h131q-7 -127 -61 -183t-127 -56q-39 0 -73.5 21t-61.5 42t-46 21z" />
    <glyph glyph-name="Imacron" unicode="&#x12a;" horiz-adv-x="585" 
d="M184 0v1411h217v-1411h-217zM29 1626v166h528v-166h-528z" />
    <glyph glyph-name="imacron" unicode="&#x12b;" horiz-adv-x="503" 
d="M147 956h209v-956h-209v956zM-33 1171v166h529v-166h-529z" />
    <glyph glyph-name="Ibreve" unicode="&#x12c;" horiz-adv-x="585" 
d="M184 0v1411h217v-1411h-217zM25 1835h157q0 -55 29 -86t82 -31q51 0 80.5 35.5t29.5 81.5h160q0 -122 -73 -192t-197 -70q-133 0 -200.5 75t-67.5 187z" />
    <glyph glyph-name="ibreve" unicode="&#x12d;" horiz-adv-x="503" 
d="M147 956h209v-956h-209v956zM-37 1380h158q0 -55 28.5 -85.5t81.5 -30.5q51 0 81 35t30 81h160q0 -122 -73.5 -192t-197.5 -70q-133 0 -200.5 75t-67.5 187z" />
    <glyph glyph-name="Iogonek" unicode="&#x12e;" horiz-adv-x="585" 
d="M184 0v1411h217v-1411h-94l-61 -170q-11 -30 -1 -59.5t40 -42.5q30 -8 57 4t39 41q6 12 6 30v17l137 8q0 -103 -62.5 -170.5t-144.5 -67.5q-91 0 -151 63t-60 144q0 52 17 90z" />
    <glyph glyph-name="iogonek" unicode="&#x12f;" horiz-adv-x="503" 
d="M270 0l-61 -170q-11 -30 -1 -59.5t40 -42.5q30 -8 57 4t39 41q6 12 6 30v17l137 8q0 -103 -62 -170.5t-144 -67.5q-91 0 -151 63t-60 144q0 55 16 90l61 113v956h209v-956h-86zM111 1343q0 56 41.5 95t99.5 39q60 0 99.5 -38.5t39.5 -95.5t-39.5 -95t-99.5 -38
q-58 0 -99.5 38.5t-41.5 94.5z" />
    <glyph glyph-name="Idotaccent" unicode="&#x130;" horiz-adv-x="585" 
d="M184 0v1411h217v-1411h-217zM158 1745q0 55 39.5 92t95.5 37q57 0 97 -37t40 -92t-40 -92t-97 -37q-56 0 -95.5 37t-39.5 92z" />
    <glyph glyph-name="dotlessi" unicode="&#x131;" horiz-adv-x="503" 
d="M147 956h209v-956h-209v956z" />
    <glyph glyph-name="IJ" unicode="&#x132;" horiz-adv-x="1173" 
d="M184 0v1411h217v-1411h-217zM381 -481l20 202q25 -8 75.5 -13t70.5 -5q59 0 103.5 20t70 56t37.5 80.5t12 97.5v1454h219v-1454q0 -98 -24 -179t-74.5 -146t-138 -101.5t-205.5 -36.5q-68 0 -166 25z" />
    <glyph glyph-name="ij" unicode="&#x133;" horiz-adv-x="1011" 
d="M356 956v-956h-209v956h209zM111 1343q0 56 41.5 95t99.5 39q60 0 99.5 -38.5t39.5 -95.5t-39.5 -95t-99.5 -38q-58 0 -99.5 38.5t-41.5 94.5zM377 -473v197h115q50 0 84 19t49 53t20.5 67t5.5 76v1017h213v-1017q0 -412 -348 -412h-139zM616 1343q0 56 42 95t100 39
q60 0 100.5 -38.5t40.5 -95.5t-40.5 -95t-100.5 -38q-58 0 -100 38.5t-42 94.5z" />
    <glyph glyph-name="Jcircumflex" unicode="&#x134;" horiz-adv-x="587" 
d="M-205 -481l21 202q25 -8 75 -13t70 -5q59 0 103.5 20t70 56t37.5 80.5t12 97.5v1454h219v-1454q0 -98 -24 -179t-74.5 -146t-138 -101.5t-205.5 -36.5q-68 0 -166 25zM178 1886h213l225 -323h-178l-155 180l-154 -180h-176z" />
    <glyph glyph-name="jcircumflex" unicode="&#x135;" horiz-adv-x="507" 
d="M-127 -473v197h115q50 0 84 19t49 53t20.5 67t5.5 76v1017h213v-1017q0 -412 -348 -412h-139zM162 1432h213l225 -324h-178l-156 180l-153 -180h-176z" />
    <glyph glyph-name="Kcommaaccent" unicode="&#x136;" horiz-adv-x="1193" 
d="M551 709l666 -709h-287l-527 571v-571h-219v1411h219v-573l433 573h256zM586 -530l-123 47q62 85 84.5 162.5t15.5 203.5h199q-7 -276 -176 -413z" />
    <glyph glyph-name="kcommaaccent" unicode="&#x137;" horiz-adv-x="1036" 
d="M764 0l-408 444v-444h-209v1477h209v-836l303 315h283l-407 -415l499 -541h-270zM502 -530l-123 47q62 85 84.5 162.5t15.5 203.5h199q-7 -276 -176 -413z" />
    <glyph glyph-name="kgreenlandic" unicode="&#x138;" horiz-adv-x="1007" 
d="M723 0l-367 367v-367h-209v956h209v-368l295 368h264l-393 -473l482 -483h-281z" />
    <glyph glyph-name="Lacute" unicode="&#x139;" horiz-adv-x="1021" 
d="M184 0v1411h217v-1212h566v-199h-783zM414 1884h237l-258 -323h-184z" />
    <glyph glyph-name="lacute" unicode="&#x13a;" horiz-adv-x="505" 
d="M147 0v1477h211v-1477h-211zM367 1901h237l-258 -324h-184z" />
    <glyph glyph-name="Lcommaaccent" unicode="&#x13b;" horiz-adv-x="1021" 
d="M184 0v1411h217v-1212h566v-199h-783zM487 -530l-122 47q62 85 84.5 162.5t15.5 203.5h199q-7 -275 -177 -413z" />
    <glyph glyph-name="lcommaaccent" unicode="&#x13c;" horiz-adv-x="505" 
d="M147 0v1477h211v-1477h-211zM182 -530l-123 47q63 85 85.5 162.5t15.5 203.5h198q-7 -276 -176 -413z" />
    <glyph glyph-name="Lcaron" unicode="&#x13d;" horiz-adv-x="1024" 
d="M184 0v1411h217v-1212h566v-199h-783zM670 981l-131 43q64 85 89.5 172.5t18.5 214.5h199q-8 -292 -176 -430z" />
    <glyph glyph-name="lcaron" unicode="&#x13e;" horiz-adv-x="505" 
d="M147 0v1477h211v-1477h-211zM567 1047l-131 43q64 85 90 173t19 214h198q-8 -292 -176 -430z" />
    <glyph glyph-name="Ldot" unicode="&#x13f;" horiz-adv-x="1021" 
d="M184 0v1411h217v-1212h566v-199h-783zM553 563q0 60 41.5 99.5t101.5 39.5q61 0 104.5 -40t43.5 -99t-43.5 -99t-104.5 -40q-60 0 -101.5 39.5t-41.5 99.5z" />
    <glyph glyph-name="ldot" unicode="&#x140;" horiz-adv-x="792" 
d="M147 0v1477h211v-1477h-211zM483 563q0 60 41.5 99.5t102.5 39.5t104 -40t43 -99t-43 -99t-104 -40t-102.5 39.5t-41.5 99.5z" />
    <glyph glyph-name="Lslash" unicode="&#x141;" horiz-adv-x="1034" 
d="M197 653l-138 -86v150l138 86v608h217v-473l207 131v-151l-207 -130v-581h561v-207h-778v653z" />
    <glyph glyph-name="lslash" unicode="&#x142;" horiz-adv-x="546" 
d="M387 1477v-564l164 105v-146l-164 -104v-768h-209v635l-147 -94v147l147 94v695h209z" />
    <glyph glyph-name="Nacute" unicode="&#x143;" horiz-adv-x="1394" 
d="M1210 1411v-1411h-202l-607 1010v-1010h-217v1411h209l600 -1001v1001h217zM754 1884h237l-258 -323h-184z" />
    <glyph glyph-name="nacute" unicode="&#x144;" horiz-adv-x="1153" 
d="M358 514v-514h-211v956h211v-143q39 77 123.5 120.5t169.5 43.5q174 0 269.5 -108.5t95.5 -311.5v-557h-211v532q0 114 -53.5 176t-147.5 62q-105 0 -175.5 -62.5t-70.5 -193.5zM637 1430h237l-258 -324h-184z" />
    <glyph glyph-name="Ncommaaccent" unicode="&#x145;" horiz-adv-x="1394" 
d="M1210 1411v-1411h-202l-607 1010v-1010h-217v1411h209l600 -1001v1001h217zM633 -530l-123 47q62 85 84.5 162.5t15.5 203.5h199q-7 -276 -176 -413z" />
    <glyph glyph-name="ncommaaccent" unicode="&#x146;" horiz-adv-x="1153" 
d="M514 -530l-82 47q37 49 52 97.5t15 102.5t-5 129q-1 24 -2 37h198q-7 -276 -176 -413zM358 514v-514h-211v956h211v-143q39 77 123.5 120.5t169.5 43.5q174 0 269.5 -108.5t95.5 -311.5v-557h-211v532q0 114 -53.5 176t-147.5 62q-105 0 -175.5 -62.5t-70.5 -193.5z" />
    <glyph glyph-name="Ncaron" unicode="&#x147;" horiz-adv-x="1394" 
d="M1210 1411v-1411h-202l-607 1010v-1010h-217v1411h209l600 -1001v1001h217zM590 1561l-225 321h176l153 -178l156 178h178l-225 -321h-213z" />
    <glyph glyph-name="ncaron" unicode="&#x148;" horiz-adv-x="1153" 
d="M358 514v-514h-211v956h211v-143q39 77 123.5 120.5t169.5 43.5q174 0 269.5 -108.5t95.5 -311.5v-557h-211v532q0 114 -53.5 176t-147.5 62q-105 0 -175.5 -62.5t-70.5 -193.5zM475 1106l-225 321h176l154 -178l155 178h178l-225 -321h-213z" />
    <glyph glyph-name="napostrophe" unicode="&#x149;" horiz-adv-x="1153" 
d="M358 514v-514h-211v956h211v-143q39 77 124 120.5t171 43.5q174 0 268.5 -108.5t94.5 -311.5v-557h-211v532q0 114 -53 176t-146 62q-106 0 -177 -62.5t-71 -193.5zM4 961l-137 40q91 132 98 224q6 32 -8 129h207q0 -264 -160 -393z" />
    <glyph glyph-name="Eng" unicode="&#x14a;" horiz-adv-x="1392" 
d="M971 63l-570 941v-1004h-217v1411h209l596 -1001v1001h219v-1399q0 -85 -12.5 -154.5t-43 -133t-79.5 -107t-126 -69t-177 -25.5q-68 0 -170 26l23 218q152 -50 247 -9q123 41 123 215q0 44 -22 90z" />
    <glyph glyph-name="eng" unicode="&#x14b;" horiz-adv-x="1150" 
d="M1016 557l-2 -520q0 -80 -12.5 -147t-43 -128t-78.5 -103.5t-122 -67.5t-170 -25q-71 0 -144 20l19 205q86 -22 125 -22q110 0 163.5 68.5t53.5 176.5v518q0 114 -53.5 176t-147.5 62q-105 0 -175.5 -62.5t-70.5 -193.5v-514h-211v956h211v-143q39 77 123.5 120.5
t169.5 43.5q175 0 270.5 -109t94.5 -311z" />
    <glyph glyph-name="Omacron" unicode="&#x14c;" horiz-adv-x="1622" 
d="M313 702q0 -214 143.5 -361.5t352.5 -147.5q210 0 354 147.5t144 361.5t-144 363t-354 149q-137 0 -251 -68t-179.5 -185.5t-65.5 -258.5zM96 702q0 197 94 363.5t258 264t361 97.5q198 0 363 -97.5t259.5 -264t94.5 -363.5q0 -198 -94.5 -363.5t-259.5 -262t-363 -96.5
q-197 0 -361 96.5t-258 262t-94 363.5zM547 1626v166h528v-166h-528z" />
    <glyph glyph-name="omacron" unicode="&#x14d;" horiz-adv-x="1171" 
d="M584 184q123 0 206.5 82.5t83.5 214.5q0 128 -83.5 208.5t-206.5 80.5q-121 0 -205 -80.5t-84 -208.5q0 -132 83.5 -214.5t205.5 -82.5zM584 -20q-135 0 -248 61t-181.5 177t-68.5 263t68.5 261.5t181 174.5t248.5 60q137 0 250.5 -60t182 -174.5t68.5 -261.5t-68.5 -263
t-182.5 -177t-250 -61zM322 1171v166h528v-166h-528z" />
    <glyph glyph-name="Obreve" unicode="&#x14e;" horiz-adv-x="1622" 
d="M313 702q0 -214 143.5 -361.5t352.5 -147.5q210 0 354 147.5t144 361.5t-144 363t-354 149q-137 0 -251 -68t-179.5 -185.5t-65.5 -258.5zM96 702q0 197 94 363.5t258 264t361 97.5q198 0 363 -97.5t259.5 -264t94.5 -363.5q0 -198 -94.5 -363.5t-259.5 -262t-363 -96.5
q-197 0 -361 96.5t-258 262t-94 363.5zM541 1835h157q0 -55 29 -86t82 -31q51 0 81 35.5t30 81.5h159q0 -122 -73 -192t-197 -70q-133 0 -200.5 75t-67.5 187z" />
    <glyph glyph-name="obreve" unicode="&#x14f;" horiz-adv-x="1171" 
d="M584 184q123 0 206.5 82.5t83.5 214.5q0 128 -83.5 208.5t-206.5 80.5q-121 0 -205 -80.5t-84 -208.5q0 -132 83.5 -214.5t205.5 -82.5zM584 -20q-135 0 -248 61t-181.5 177t-68.5 263t68.5 261.5t181 174.5t248.5 60q137 0 250.5 -60t182 -174.5t68.5 -261.5t-68.5 -263
t-182.5 -177t-250 -61zM315 1380h158q0 -55 29 -85.5t82 -30.5q51 0 80.5 35t29.5 81h160q0 -122 -73 -192t-197 -70q-133 0 -201 75t-68 187z" />
    <glyph glyph-name="Ohungarumlaut" unicode="&#x150;" horiz-adv-x="1622" 
d="M313 702q0 -214 143.5 -361.5t352.5 -147.5q210 0 354 147.5t144 361.5t-144 363t-354 149q-137 0 -251 -68t-179.5 -185.5t-65.5 -258.5zM96 702q0 197 94 363.5t258 264t361 97.5q198 0 363 -97.5t259.5 -264t94.5 -363.5q0 -198 -94.5 -363.5t-259.5 -262t-363 -96.5
q-197 0 -361 96.5t-258 262t-94 363.5zM1270 1882l-226 -321h-178l201 321h203zM965 1882l-199 -321h-178l178 321h199z" />
    <glyph glyph-name="ohungarumlaut" unicode="&#x151;" horiz-adv-x="1171" 
d="M584 184q123 0 206.5 82.5t83.5 214.5q0 128 -83.5 208.5t-206.5 80.5q-121 0 -205 -80.5t-84 -208.5q0 -132 83.5 -214.5t205.5 -82.5zM584 -20q-135 0 -248 61t-181.5 177t-68.5 263t68.5 261.5t181 174.5t248.5 60q137 0 250.5 -60t182 -174.5t68.5 -261.5t-68.5 -263
t-182.5 -177t-250 -61zM1018 1427l-225 -321h-179l201 321h203zM713 1427l-199 -321h-178l178 321h199z" />
    <glyph glyph-name="OE" unicode="&#x152;" horiz-adv-x="2275" 
d="M1303 1204v207h845v-207h-628v-407h551v-207h-551v-383h651v-207h-868v201q-93 -105 -221.5 -163t-274.5 -58q-147 0 -279 57t-226.5 153.5t-150 230t-55.5 281.5q0 147 55.5 281t150 231.5t226.5 155t279 57.5q146 0 274 -58.5t222 -164.5zM313 702q0 -138 64.5 -254
t178 -183.5t251.5 -67.5q142 0 255.5 70.5t175.5 189.5t62 262q-8 205 -149 348t-344 143q-209 0 -351.5 -148t-142.5 -360z" />
    <glyph glyph-name="oe" unicode="&#x153;" horiz-adv-x="1923" 
d="M1085 557h555q-17 110 -89 173t-181 63q-112 0 -190 -63.5t-95 -172.5zM584 184q123 0 206.5 82.5t83.5 214.5q0 128 -83.5 208.5t-206.5 80.5q-121 0 -205 -80.5t-84 -208.5q0 -132 83.5 -214.5t205.5 -82.5zM979 166q-70 -89 -172.5 -137.5t-222.5 -48.5
q-135 0 -248 61t-181.5 177t-68.5 263t68.5 261t181 173.5t248.5 59.5q121 0 223.5 -47t171.5 -135q68 88 169 136t222 48q208 0 339.5 -132.5t135.5 -348.5q3 -46 0 -93h-758q17 -110 95.5 -174.5t195.5 -64.5q83 0 153.5 36t108.5 101l172 -76q-59 -121 -179.5 -183
t-262.5 -62q-122 0 -223 48t-168 138z" />
    <glyph glyph-name="Racute" unicode="&#x154;" horiz-adv-x="1273" 
d="M727 1210h-324v-493h316q110 0 165.5 72.5t55.5 173.5q0 63 -20.5 117t-70.5 92t-122 38zM801 526l370 -526h-264l-352 518h-152v-518h-219v1411h551q109 0 194 -38t135 -102.5t75.5 -142.5t25.5 -165q0 -80 -21 -151.5t-63 -133t-114 -102t-166 -50.5zM678 1884h237
l-258 -323h-184z" />
    <glyph glyph-name="racute" unicode="&#x155;" horiz-adv-x="817" 
d="M358 344v-344h-211v956h211v-219q68 240 263 240q120 0 170 -37l-35 -195q-67 33 -142 33q-130 0 -193 -117t-63 -317zM375 1430h237l-258 -324h-184z" />
    <glyph glyph-name="Rcommaaccent" unicode="&#x156;" horiz-adv-x="1273" 
d="M727 1210h-324v-493h316q110 0 165.5 72.5t55.5 173.5q0 63 -20.5 117t-70.5 92t-122 38zM801 526l370 -526h-264l-352 518h-152v-518h-219v1411h551q109 0 194 -38t135 -102.5t75.5 -142.5t25.5 -165q0 -80 -21 -151.5t-63 -133t-114 -102t-166 -50.5zM606 -530l-123 47
q63 85 85.5 162.5t15.5 203.5h198q-7 -276 -176 -413z" />
    <glyph glyph-name="rcommaaccent" unicode="&#x157;" horiz-adv-x="817" 
d="M358 344v-344h-211v956h211v-219q68 240 263 240q120 0 170 -37l-35 -195q-67 33 -142 33q-130 0 -193 -117t-63 -317zM182 -530l-123 47q63 85 85.5 162.5t15.5 203.5h198q-7 -276 -176 -413z" />
    <glyph glyph-name="Rcaron" unicode="&#x158;" horiz-adv-x="1273" 
d="M727 1210h-324v-493h316q110 0 165.5 72.5t55.5 173.5q0 63 -20.5 117t-70.5 92t-122 38zM801 526l370 -526h-264l-352 518h-152v-518h-219v1411h551q109 0 194 -38t135 -102.5t75.5 -142.5t25.5 -165q0 -80 -21 -151.5t-63 -133t-114 -102t-166 -50.5zM526 1561
l-225 321h176l154 -178l155 178h179l-226 -321h-213z" />
    <glyph glyph-name="rcaron" unicode="&#x159;" horiz-adv-x="817" 
d="M358 344v-344h-211v956h211v-219q68 240 263 240q120 0 170 -37l-35 -195q-67 33 -142 33q-130 0 -193 -117t-63 -317zM319 1106l-225 321h176l154 -178l156 178h178l-226 -321h-213z" />
    <glyph glyph-name="Sacute" unicode="&#x15a;" horiz-adv-x="1175" 
d="M102 410h217q5 -92 82.5 -162t198.5 -70q118 0 186.5 54.5t79.5 138.5q11 174 -223 229l-178 45q-350 95 -350 379q0 118 64.5 211t170.5 142.5t230 49.5q200 0 329 -113.5t129 -303.5h-217q0 98 -67.5 155.5t-178.5 57.5q-100 0 -171.5 -55t-71.5 -140q0 -136 188 -184
l180 -47q211 -56 305 -168.5t76 -270.5q-17 -167 -149.5 -272.5t-331.5 -105.5q-142 0 -257.5 60t-178 158t-62.5 212zM666 1884h237l-258 -323h-184z" />
    <glyph glyph-name="sacute" unicode="&#x15b;" horiz-adv-x="909" 
d="M500 383l-129 31q-151 41 -213.5 116.5t-51.5 194.5q5 69 54 127.5t126 91.5t163 33q66 0 124.5 -16t108.5 -48.5t80.5 -88.5t34.5 -130h-201q-6 51 -45.5 77t-93.5 26q-42 0 -80 -15t-55 -39q-24 -40 -9 -86q16 -45 117 -73l148 -37q59 -14 104.5 -39t72 -53t43.5 -62.5
t23 -64t6 -60.5q0 -135 -106 -211.5t-275 -76.5q-93 0 -173.5 35t-135 108t-57.5 170h194q8 -63 57 -100t132 -37q74 0 122 30.5t48 83.5q0 83 -133 113zM520 1430h238l-258 -324h-185z" />
    <glyph glyph-name="Scircumflex" unicode="&#x15c;" horiz-adv-x="1175" 
d="M102 410h217q5 -92 82.5 -162t198.5 -70q118 0 186.5 54.5t79.5 138.5q11 174 -223 229l-178 45q-350 95 -350 379q0 118 64.5 211t170.5 142.5t230 49.5q200 0 329 -113.5t129 -303.5h-217q0 98 -67.5 155.5t-178.5 57.5q-100 0 -171.5 -55t-71.5 -140q0 -136 188 -184
l180 -47q211 -56 305 -168.5t76 -270.5q-17 -167 -149.5 -272.5t-331.5 -105.5q-142 0 -257.5 60t-178 158t-62.5 212zM487 1886h213l226 -323h-178l-156 180l-154 -180h-176z" />
    <glyph glyph-name="scircumflex" unicode="&#x15d;" horiz-adv-x="909" 
d="M500 383l-129 31q-151 41 -213.5 116.5t-51.5 194.5q5 69 54 127.5t126 91.5t163 33q66 0 124.5 -16t108.5 -48.5t80.5 -88.5t34.5 -130h-201q-6 51 -45.5 77t-93.5 26q-42 0 -80 -15t-55 -39q-24 -40 -9 -86q16 -45 117 -73l148 -37q59 -14 104.5 -39t72 -53t43.5 -62.5
t23 -64t6 -60.5q0 -135 -106 -211.5t-275 -76.5q-93 0 -173.5 35t-135 108t-57.5 170h194q8 -63 57 -100t132 -37q74 0 122 30.5t48 83.5q0 83 -133 113zM348 1432h213l225 -324h-178l-155 180l-154 -180h-176z" />
    <glyph glyph-name="Scedilla" unicode="&#x15e;" horiz-adv-x="1175" 
d="M492 -227q12 -29 39 -41t57 -4q30 13 40 42.5t-1 59.5l-56 150q-134 5 -242.5 66t-167.5 157.5t-59 206.5h217q5 -92 82.5 -162t198.5 -70q118 0 186.5 54.5t79.5 138.5q11 174 -223 229l-178 45q-350 95 -350 379q0 118 64.5 211t170.5 142.5t230 49.5q200 0 329 -113.5
t129 -303.5h-217q0 98 -67.5 155.5t-178.5 57.5q-100 0 -171.5 -55t-71.5 -140q0 -136 188 -184l180 -47q211 -56 305 -168.5t76 -270.5q-12 -147 -117 -246t-270 -124l56 -101q16 -35 16 -90q0 -81 -60 -144t-151 -63q-82 0 -144.5 67.5t-62.5 170.5l137 -8v-17
q0 -16 7 -30z" />
    <glyph glyph-name="scedilla" unicode="&#x15f;" horiz-adv-x="913" 
d="M492 -170l-56 150q-90 3 -168 39t-130.5 108t-55.5 166h194q8 -63 57 -100t132 -37q74 0 122 30.5t48 83.5q0 83 -133 113l-129 31q-151 40 -213 116t-51 195q5 69 53.5 127.5t125.5 91.5t163 33q66 0 124.5 -16t108.5 -48.5t80.5 -88.5t34.5 -130h-201q-6 51 -45.5 77
t-93.5 26q-42 0 -80 -15t-55 -39q-24 -40 -9 -86q16 -45 117 -73l148 -37q59 -14 104.5 -39t72 -53t43.5 -62.5t23 -64t6 -60.5q0 -112 -72 -183t-198 -95l55 -103q17 -38 17 -90q0 -81 -60 -144t-151 -63q-82 0 -144.5 67.5t-62.5 170.5l137 -8v-17q0 -18 6 -30
q12 -29 39.5 -41t57.5 -4q30 13 40 42.5t-1 59.5z" />
    <glyph glyph-name="Scaron" unicode="&#x160;" horiz-adv-x="1175" 
d="M102 410h217q5 -92 82.5 -162t198.5 -70q118 0 186.5 54.5t79.5 138.5q11 174 -223 229l-178 45q-350 95 -350 379q0 118 64.5 211t170.5 142.5t230 49.5q200 0 329 -113.5t129 -303.5h-217q0 98 -67.5 155.5t-178.5 57.5q-100 0 -171.5 -55t-71.5 -140q0 -136 188 -184
l180 -47q211 -56 305 -168.5t76 -270.5q-17 -167 -149.5 -272.5t-331.5 -105.5q-142 0 -257.5 60t-178 158t-62.5 212zM487 1561l-225 321h176l154 -178l156 178h178l-226 -321h-213z" />
    <glyph glyph-name="scaron" unicode="&#x161;" horiz-adv-x="909" 
d="M500 383l-129 31q-151 41 -213.5 116.5t-51.5 194.5q5 69 54 127.5t126 91.5t163 33q66 0 124.5 -16t108.5 -48.5t80.5 -88.5t34.5 -130h-201q-6 51 -45.5 77t-93.5 26q-42 0 -80 -15t-55 -39q-24 -40 -9 -86q16 -45 117 -73l148 -37q59 -14 104.5 -39t72 -53t43.5 -62.5
t23 -64t6 -60.5q0 -135 -106 -211.5t-275 -76.5q-93 0 -173.5 35t-135 108t-57.5 170h194q8 -63 57 -100t132 -37q74 0 122 30.5t48 83.5q0 83 -133 113zM348 1106l-225 321h176l154 -178l155 178h178l-225 -321h-213z" />
    <glyph glyph-name="Tcommaaccent" unicode="&#x162;" horiz-adv-x="1167" 
d="M57 1208v203h1053v-203h-416v-1208h-221v1208h-416zM496 -530l-123 47q62 85 84.5 162.5t15.5 203.5h199q-7 -276 -176 -413z" />
    <glyph glyph-name="tcommaaccent" unicode="&#x163;" horiz-adv-x="688" 
d="M434 1319v-363h203v-174h-203v-782h-211v782h-172v174h172v363h211zM256 -530l-123 47q62 85 84.5 162.5t15.5 203.5h199q-7 -276 -176 -413z" />
    <glyph glyph-name="Tcaron" unicode="&#x164;" horiz-adv-x="1167" 
d="M57 1208v203h1053v-203h-416v-1208h-221v1208h-416zM477 1561l-225 321h176l154 -178l155 178h178l-225 -321h-213z" />
    <glyph glyph-name="tcaron" unicode="&#x165;" horiz-adv-x="688" 
d="M643 1077l-125 47q62 82 84.5 162.5t15.5 206.5h199q-8 -280 -174 -416zM434 1319v-363h203v-174h-203v-782h-211v782h-172v174h172v363h211z" />
    <glyph glyph-name="Tbar" unicode="&#x166;" horiz-adv-x="1140" 
d="M666 840h272v-135h-272v-705h-191v705h-270v135h270v383h-432v188h1055v-188h-432v-383z" />
    <glyph glyph-name="tbar" unicode="&#x167;" horiz-adv-x="692" 
d="M225 0v440h-133v133h133v209h-174v174h174v363h209v-363h203v-174h-203v-209h154v-133h-154v-440h-209z" />
    <glyph glyph-name="Utilde" unicode="&#x168;" horiz-adv-x="1386" 
d="M694 188q125 0 214 84t89 217v922h220v-922q0 -151 -72.5 -268.5t-191 -179t-259.5 -61.5q-143 0 -261.5 61.5t-190.5 179t-72 268.5v922h221v-922q0 -133 89 -217t214 -84zM602 1681q-21 0 -37.5 -22t-17.5 -68h-133q7 128 61.5 187t126.5 59q31 0 60 -13t46.5 -29
t37.5 -29t36 -13q21 0 39 19.5t19 64.5h131q-7 -127 -61.5 -183.5t-127.5 -56.5q-30 0 -59 13t-46.5 29t-38 29t-36.5 13z" />
    <glyph glyph-name="utilde" unicode="&#x169;" horiz-adv-x="1150" 
d="M793 442v514h211v-956h-211v139q-39 -77 -120.5 -118t-164.5 -41q-178 0 -275 108t-96 311v557h211v-532q0 -115 55 -177.5t144 -62.5q104 0 175 63t71 195zM479 1227q-21 0 -37.5 -22t-17.5 -68h-133q7 128 61.5 186.5t126.5 58.5q31 0 60 -13t46.5 -29t37.5 -29t36 -13
q21 0 39 19.5t19 64.5h131q-7 -127 -61.5 -183t-127.5 -56q-30 0 -59 13t-46.5 29t-38 29t-36.5 13z" />
    <glyph glyph-name="Umacron" unicode="&#x16a;" horiz-adv-x="1386" 
d="M694 188q125 0 214 84t89 217v922h220v-922q0 -151 -72.5 -268.5t-191 -179t-259.5 -61.5q-143 0 -261.5 61.5t-190.5 179t-72 268.5v922h221v-922q0 -133 89 -217t214 -84zM428 1626v166h528v-166h-528z" />
    <glyph glyph-name="umacron" unicode="&#x16b;" horiz-adv-x="1150" 
d="M793 442v514h211v-956h-211v139q-39 -77 -120.5 -118t-164.5 -41q-178 0 -275 108t-96 311v557h211v-532q0 -115 55 -177.5t144 -62.5q104 0 175 63t71 195zM305 1171v166h529v-166h-529z" />
    <glyph glyph-name="Ubreve" unicode="&#x16c;" horiz-adv-x="1386" 
d="M694 188q125 0 214 84t89 217v922h220v-922q0 -151 -72.5 -268.5t-191 -179t-259.5 -61.5q-143 0 -261.5 61.5t-190.5 179t-72 268.5v922h221v-922q0 -133 89 -217t214 -84zM424 1835h158q0 -55 28.5 -86t81.5 -31q51 0 81 35.5t30 81.5h160q0 -122 -73.5 -192
t-197.5 -70q-133 0 -200.5 75t-67.5 187z" />
    <glyph glyph-name="ubreve" unicode="&#x16d;" horiz-adv-x="1150" 
d="M793 442v514h211v-956h-211v139q-39 -77 -120.5 -118t-164.5 -41q-178 0 -275 108t-96 311v557h211v-532q0 -115 55 -177.5t144 -62.5q104 0 175 63t71 195zM299 1380h158q0 -55 28.5 -85.5t81.5 -30.5q51 0 81 35t30 81h160q0 -122 -73.5 -192t-197.5 -70
q-133 0 -200.5 75t-67.5 187z" />
    <glyph glyph-name="Uring" unicode="&#x16e;" horiz-adv-x="1386" 
d="M694 188q125 0 214 84t89 217v922h220v-922q0 -151 -72.5 -268.5t-191 -179t-259.5 -61.5q-143 0 -261.5 61.5t-190.5 179t-72 268.5v922h221v-922q0 -133 89 -217t214 -84zM469 1761q0 96 64 162t157 66q96 0 162 -66t66 -162q0 -92 -66.5 -156.5t-161.5 -64.5
q-92 0 -156.5 64.5t-64.5 156.5zM584 1761q0 -43 31 -74.5t75 -31.5q47 0 80 31.5t33 74.5q0 47 -33 80t-80 33q-44 0 -75 -33t-31 -80z" />
    <glyph glyph-name="uring" unicode="&#x16f;" horiz-adv-x="1150" 
d="M793 442v514h211v-956h-211v139q-39 -77 -120.5 -118t-164.5 -41q-178 0 -275 108t-96 311v557h211v-532q0 -115 55 -177.5t144 -62.5q104 0 175 63t71 195zM344 1307q0 96 64 161.5t157 65.5q96 0 162 -65.5t66 -161.5q0 -92 -66.5 -157t-161.5 -65q-92 0 -156.5 65
t-64.5 157zM459 1307q0 -43 31 -75t75 -32q47 0 80 32t33 75q0 47 -33 79.5t-80 32.5q-44 0 -75 -32.5t-31 -79.5z" />
    <glyph glyph-name="Uhungarumlaut" unicode="&#x170;" horiz-adv-x="1386" 
d="M694 188q125 0 214 84t89 217v922h220v-922q0 -151 -72.5 -268.5t-191 -179t-259.5 -61.5q-143 0 -261.5 61.5t-190.5 179t-72 268.5v922h221v-922q0 -133 89 -217t214 -84zM1098 1882l-226 -321h-178l201 321h203zM793 1882l-199 -321h-178l178 321h199z" />
    <glyph glyph-name="uhungarumlaut" unicode="&#x171;" horiz-adv-x="1150" 
d="M793 442v514h211v-956h-211v139q-39 -77 -120.5 -118t-164.5 -41q-178 0 -275 108t-96 311v557h211v-532q0 -115 55 -177.5t144 -62.5q104 0 175 63t71 195zM973 1427l-225 -321h-179l201 321h203zM668 1427l-199 -321h-178l178 321h199z" />
    <glyph glyph-name="Uogonek" unicode="&#x172;" horiz-adv-x="1390" 
d="M838 -227q6 12 6 30v17l137 8q0 -103 -62.5 -170.5t-144.5 -67.5q-91 0 -151 63t-60 144q0 52 17 90l51 97q-197 21 -328 158.5t-131 346.5v922h221v-922q0 -133 89 -217t214 -84t214 84t89 217v922h220v-922q0 -104 -36.5 -195.5t-99 -156t-146.5 -104.5t-179 -49
l-56 -154q-11 -30 -1 -59.5t40 -42.5q30 -8 57.5 4t39.5 41z" />
    <glyph glyph-name="uogonek" unicode="&#x173;" horiz-adv-x="1150" 
d="M991 -227q6 12 6 30v17l138 8q0 -103 -62.5 -170.5t-144.5 -67.5q-91 0 -151 63t-60 144q0 55 16 90l62 113h-2v139q-39 -77 -120.5 -118t-164.5 -41q-178 0 -275 108t-96 311v557h211v-532q0 -115 55 -177.5t144 -62.5q104 0 175 63t71 195v514h211v-956h-86l-62 -170
q-11 -30 -1 -59.5t40 -42.5q30 -8 57 4t39 41z" />
    <glyph glyph-name="Wcircumflex" unicode="&#x174;" horiz-adv-x="1837" 
d="M1245 360l336 1051h234l-478 -1411h-182l-237 846l-236 -846h-182l-477 1411h233l336 -1051l242 859h170zM811 1886h213l225 -323h-178l-156 180l-153 -180h-176z" />
    <glyph glyph-name="wcircumflex" unicode="&#x175;" horiz-adv-x="1601" 
d="M1565 956l-351 -956h-174l-243 678l-234 -678h-172l-360 956h225l221 -645l221 645h197l221 -645l223 645h226zM690 1432h213l225 -324h-178l-155 180l-154 -180h-176z" />
    <glyph glyph-name="Ycircumflex" unicode="&#x176;" horiz-adv-x="1298" 
d="M760 0h-223v647l-537 764h260l389 -561l393 561h261l-543 -766v-645zM545 1886h213l225 -323h-178l-156 180l-153 -180h-177z" />
    <glyph glyph-name="ycircumflex" unicode="&#x177;" horiz-adv-x="1038" 
d="M1012 956l-592 -1423h-221l207 512l-379 911h225l266 -655l268 655h226zM418 1432h213l225 -324h-178l-156 180l-153 -180h-176z" />
    <glyph glyph-name="Ydieresis" unicode="&#x178;" horiz-adv-x="1298" 
d="M760 0h-223v647l-537 764h260l389 -561l393 561h261l-543 -766v-645zM344 1729q0 53 38.5 88.5t94.5 35.5q55 0 92 -35t37 -89t-37.5 -90.5t-91.5 -36.5q-56 0 -94.5 36.5t-38.5 90.5zM694 1729q0 53 38.5 88.5t94.5 35.5q55 0 93 -35.5t38 -88.5q0 -54 -38.5 -90.5
t-92.5 -36.5q-56 0 -94.5 36.5t-38.5 90.5z" />
    <glyph glyph-name="Zacute" unicode="&#x179;" horiz-adv-x="1181" 
d="M84 180l721 1030h-692v201h970v-182l-725 -1028h725v-201h-999v180zM670 1884h237l-258 -323h-184z" />
    <glyph glyph-name="zacute" unicode="&#x17a;" horiz-adv-x="1032" 
d="M117 956h815v-168l-549 -589h549v-199h-848v168l541 590h-508v198zM569 1430h238l-258 -324h-184z" />
    <glyph glyph-name="Zdotaccent" unicode="&#x17b;" horiz-adv-x="1181" 
d="M84 180l721 1030h-692v201h970v-182l-725 -1028h725v-201h-999v180zM446 1745q0 55 40 92t96 37q57 0 97 -37t40 -92t-40 -92t-97 -37q-56 0 -96 37t-40 92z" />
    <glyph glyph-name="zdotaccent" unicode="&#x17c;" horiz-adv-x="1032" 
d="M117 956h815v-168l-549 -589h549v-199h-848v168l541 590h-508v198zM373 1290q0 55 39.5 92t95.5 37q57 0 97 -37t40 -92t-40 -92t-97 -37q-56 0 -95.5 37t-39.5 92z" />
    <glyph glyph-name="Zcaron" unicode="&#x17d;" horiz-adv-x="1181" 
d="M84 180l721 1030h-692v201h970v-182l-725 -1028h725v-201h-999v180zM477 1561l-225 321h176l154 -178l155 178h178l-225 -321h-213z" />
    <glyph glyph-name="zcaron" unicode="&#x17e;" horiz-adv-x="1032" 
d="M117 956h815v-168l-549 -589h549v-199h-848v168l541 590h-508v198zM401 1106l-225 321h176l154 -178l156 178h178l-226 -321h-213z" />
    <glyph glyph-name="longs" unicode="&#x17f;" horiz-adv-x="634" 
d="M721 1477v-203h-105q-50 0 -85 -18t-52.5 -51.5t-25 -72t-7.5 -88.5v-1044h-213v782h-182v174h182v88q0 203 96 318t287 115h105z" />
    <glyph glyph-name="florin" unicode="&#x192;" horiz-adv-x="1269" 
d="M63 -379l41 193h117q40 0 71.5 13.5t52 33.5t37 52.5t26 60t18.5 65.5l156 731h-176l38 186h177l18 78q43 201 160 307.5t327 106.5h82l-39 -199h-114q-25 0 -47 -5.5t-38.5 -12t-32 -22t-25.5 -26t-20.5 -34t-16 -35t-13 -39.5t-10.5 -39t-9.5 -41.5t-8.5 -38.5h213
l-37 -186h-215q-18 -82 -49 -242.5t-59 -289t-60 -242.5q-105 -389 -457 -381q-42 0 -107 6z" />
    <glyph glyph-name="Aringacute" unicode="&#x1fa;" horiz-adv-x="1325" 
d="M754 2245h239l-219 -273q54 -29 83.5 -80t29.5 -114q0 -92 -66.5 -157t-161.5 -65q-92 0 -156.5 65t-64.5 157q0 75 42 133.5t114 81.5zM553 1776q0 -44 31.5 -75.5t74.5 -31.5q47 0 80 31.5t33 75.5q0 47 -32.5 78.5t-80.5 31.5q-43 0 -74.5 -31.5t-31.5 -78.5zM1083 0
l-135 352h-569l-135 -352h-232l533 1411h235l533 -1411h-230zM664 1139l-211 -592h421z" />
    <glyph glyph-name="aringacute" unicode="&#x1fb;" horiz-adv-x="1249" 
d="M674 1776h239l-219 -273q54 -29 83.5 -80t29.5 -114q0 -92 -66 -157t-161 -65q-92 0 -157 65t-65 157q0 75 42 133.5t114 81.5zM473 1307q0 -44 32 -75.5t75 -31.5q47 0 79.5 31.5t32.5 75.5q0 47 -32.5 78.5t-79.5 31.5q-44 0 -75.5 -31.5t-31.5 -78.5zM893 0v137
q-48 -75 -136.5 -116t-185.5 -41q-96 0 -184 35.5t-154.5 99t-106.5 158.5t-40 206t40 206t106.5 158t154.5 98.5t184 35.5q95 0 185.5 -39.5t136.5 -116.5v135h209v-956h-209zM303 481q0 -129 86 -213t207 -84q123 0 209 80.5t86 216.5q0 89 -44.5 157t-110.5 101t-140 33
q-122 0 -207.5 -81t-85.5 -210z" />
    <glyph glyph-name="AEacute" unicode="&#x1fc;" horiz-adv-x="1906" 
d="M877 1411h903v-207h-629v-407h551v-207h-551v-383h651v-207h-868v346h-471l-221 -346h-256zM934 1112l-344 -557h344v557zM1128 1884h238l-258 -323h-184z" />
    <glyph glyph-name="aeacute" unicode="&#x1fd;" horiz-adv-x="1984" 
d="M1147 557h553q-13 109 -86.5 172.5t-183.5 63.5q-111 0 -188.5 -63.5t-94.5 -172.5zM303 481q0 -129 86 -213t207 -84q123 0 209 80.5t86 216.5q0 89 -44.5 157t-110.5 101t-140 33q-122 0 -207.5 -81t-85.5 -210zM1909 481q0 -32 -4 -78h-758q17 -110 96.5 -174.5
t196.5 -64.5q82 0 153 36.5t107 100.5l172 -76q-59 -121 -179.5 -183t-262.5 -62q-202 0 -334 129v-109h-203v137q-48 -75 -136.5 -116t-185.5 -41q-96 0 -184 35.5t-154.5 99t-106.5 158.5t-40 206t40 206t106.5 158t154.5 98.5t184 35.5q95 0 185.5 -39.5t136.5 -116.5
v135h203v-106q64 61 150.5 94t183.5 33q207 0 343 -136.5t136 -359.5zM1096 1430h237l-258 -324h-184z" />
    <glyph glyph-name="Oslashacute" unicode="&#x1fe;" horiz-adv-x="1617" 
d="M360 135l-163 -168l-97 96l164 168q-170 207 -170 471q0 197 94 363.5t258 264t361 97.5q264 0 459 -165l161 165l97 -94l-164 -168q164 -203 164 -463q0 -198 -94.5 -363.5t-259.5 -262t-363 -96.5q-205 0 -375 106q-41 25 -72 49zM311 702q0 -171 103 -315l700 719
q-130 108 -307 108q-137 0 -251 -68t-179.5 -185.5t-65.5 -258.5zM807 193q210 0 354 147.5t144 361.5q0 174 -99 306l-696 -717q125 -98 297 -98zM920 1884h237l-258 -323h-184z" />
    <glyph glyph-name="oslashacute" unicode="&#x1ff;" horiz-adv-x="1171" 
d="M584 -20q-168 0 -293 88l-117 -119l-96 96l115 117q-107 132 -107 319q0 147 68.5 261.5t181 174.5t248.5 60q170 0 307 -98l104 106l97 -94l-105 -107q98 -128 98 -303q0 -147 -68.5 -263t-182.5 -177t-250 -61zM584 770q-121 0 -205 -80.5t-84 -208.5q0 -104 45 -166
l403 412q-70 43 -159 43zM584 184q123 0 206.5 82.5t83.5 214.5q0 84 -36 148l-398 -408q61 -37 144 -37zM700 1430h238l-258 -324h-184z" />
    <glyph glyph-name="Scommaaccent" unicode="&#x218;" horiz-adv-x="1175" 
d="M102 410h217q5 -92 82.5 -162t198.5 -70q118 0 186.5 54.5t79.5 138.5q11 174 -223 229l-178 45q-350 95 -350 379q0 118 64.5 211t170.5 142.5t230 49.5q200 0 329 -113.5t129 -303.5h-217q0 98 -67.5 155.5t-178.5 57.5q-100 0 -171.5 -55t-71.5 -140q0 -136 188 -184
l180 -47q211 -56 305 -168.5t76 -270.5q-17 -167 -149.5 -272.5t-331.5 -105.5q-142 0 -257.5 60t-178 158t-62.5 212zM520 -530l-123 47q63 85 85.5 162.5t15.5 203.5h198q-7 -276 -176 -413z" />
    <glyph glyph-name="scommaaccent" unicode="&#x219;" horiz-adv-x="909" 
d="M500 383l-129 31q-151 41 -213.5 116.5t-51.5 194.5q5 69 54 127.5t126 91.5t163 33q66 0 124.5 -16t108.5 -48.5t80.5 -88.5t34.5 -130h-201q-6 51 -45.5 77t-93.5 26q-42 0 -80 -15t-55 -39q-24 -40 -9 -86q16 -45 117 -73l148 -37q59 -14 104.5 -39t72 -53t43.5 -62.5
t23 -64t6 -60.5q0 -135 -106 -211.5t-275 -76.5q-93 0 -173.5 35t-135 108t-57.5 170h194q8 -63 57 -100t132 -37q74 0 122 30.5t48 83.5q0 83 -133 113zM395 -530l-123 47q63 85 85.5 162.5t15.5 203.5h198q-7 -276 -176 -413z" />
    <glyph glyph-name="circumflex" unicode="&#x2c6;" horiz-adv-x="1093" 
d="M440 1432h213l226 -324h-179l-155 180l-154 -180h-176z" />
    <glyph glyph-name="caron" unicode="&#x2c7;" horiz-adv-x="1093" 
d="M440 1106l-225 321h176l154 -178l155 178h179l-226 -321h-213z" />
    <glyph glyph-name="breve" unicode="&#x2d8;" horiz-adv-x="989" 
d="M225 1380h158q0 -55 29 -85.5t82 -30.5q51 0 80.5 35t29.5 81h160q0 -122 -73 -192t-197 -70q-133 0 -201 75t-68 187z" />
    <glyph glyph-name="dotaccent" unicode="&#x2d9;" horiz-adv-x="1091" 
d="M410 1290q0 55 39.5 92t95.5 37q57 0 97 -37t40 -92t-40 -92t-97 -37q-56 0 -95.5 37t-39.5 92z" />
    <glyph glyph-name="ring" unicode="&#x2da;" horiz-adv-x="1103" 
d="M328 1307q0 96 64 161.5t157 65.5q96 0 161.5 -65.5t65.5 -161.5q0 -92 -66 -157t-161 -65q-92 0 -156.5 65t-64.5 157zM442 1307q0 -43 31.5 -75t75.5 -32q47 0 80 32t33 75q0 47 -33 79.5t-80 32.5q-44 0 -75.5 -32.5t-31.5 -79.5z" />
    <glyph glyph-name="ogonek" unicode="&#x2db;" horiz-adv-x="1073" 
d="M602 -227q6 12 6 30v17l137 8q0 -103 -62 -170.5t-144 -67.5q-91 0 -151 63t-60 144q0 55 16 90l105 193h108l-90 -250q-11 -30 -1 -59.5t40 -42.5q30 -8 57 4t39 41z" />
    <glyph glyph-name="tilde" unicode="&#x2dc;" horiz-adv-x="884" 
d="M352 1227q-21 0 -37.5 -22t-17.5 -68h-133q7 128 61.5 186.5t126.5 58.5q31 0 60 -13t46.5 -29t37.5 -29t36 -13q21 0 39 19.5t19 64.5h131q-7 -127 -61.5 -183t-127.5 -56q-30 0 -59 13t-46.5 29t-38 29t-36.5 13z" />
    <glyph glyph-name="hungarumlaut" unicode="&#x2dd;" horiz-adv-x="1009" 
d="M846 1427l-225 -321h-179l201 321h203zM541 1427l-199 -321h-178l178 321h199z" />
    <glyph glyph-name="Wgrave" unicode="&#x1e80;" horiz-adv-x="1837" 
d="M1245 360l336 1051h234l-478 -1411h-182l-237 846l-236 -846h-182l-477 1411h233l336 -1051l242 859h170zM524 1884h238l205 -323h-185z" />
    <glyph glyph-name="wgrave" unicode="&#x1e81;" horiz-adv-x="1601" 
d="M1565 956l-351 -956h-174l-243 678l-234 -678h-172l-360 956h225l221 -645l221 645h197l221 -645l223 645h226zM434 1430h238l205 -324h-185z" />
    <glyph glyph-name="Wacute" unicode="&#x1e82;" horiz-adv-x="1837" 
d="M1245 360l336 1051h234l-478 -1411h-182l-237 846l-236 -846h-182l-477 1411h233l336 -1051l242 859h170zM1040 1884h238l-258 -323h-184z" />
    <glyph glyph-name="wacute" unicode="&#x1e83;" horiz-adv-x="1601" 
d="M1565 956l-351 -956h-174l-243 678l-234 -678h-172l-360 956h225l221 -645l221 645h197l221 -645l223 645h226zM911 1430h238l-258 -324h-184z" />
    <glyph glyph-name="Wdieresis" unicode="&#x1e84;" horiz-adv-x="1837" 
d="M1245 360l336 1051h234l-478 -1411h-182l-237 846l-236 -846h-182l-477 1411h233l336 -1051l242 859h170zM610 1729q0 53 38.5 88.5t94.5 35.5q55 0 92 -35t37 -89t-37.5 -90.5t-91.5 -36.5q-56 0 -94.5 36.5t-38.5 90.5zM961 1729q0 53 38.5 88.5t94.5 35.5
q55 0 93 -35.5t38 -88.5q0 -54 -38.5 -90.5t-92.5 -36.5q-56 0 -94.5 36.5t-38.5 90.5z" />
    <glyph glyph-name="wdieresis" unicode="&#x1e85;" horiz-adv-x="1601" 
d="M1565 956l-351 -956h-174l-243 678l-234 -678h-172l-360 956h225l221 -645l221 645h197l221 -645l223 645h226zM489 1274q0 53 39 89t95 36q54 0 91.5 -35.5t37.5 -89.5t-37.5 -90.5t-91.5 -36.5q-56 0 -95 36.5t-39 90.5zM840 1274q0 54 38.5 89.5t94.5 35.5
q55 0 93 -36t38 -89q0 -54 -38.5 -90.5t-92.5 -36.5q-56 0 -94.5 36.5t-38.5 90.5z" />
    <glyph glyph-name="Ygrave" unicode="&#x1ef2;" horiz-adv-x="1298" 
d="M760 0h-223v647l-537 764h260l389 -561l393 561h261l-543 -766v-645zM330 1884h237l205 -323h-184z" />
    <glyph glyph-name="ygrave" unicode="&#x1ef3;" horiz-adv-x="1038" 
d="M1012 956l-592 -1423h-221l207 512l-379 911h225l266 -655l268 655h226zM231 1430h238l205 -324h-185z" />
    <glyph glyph-name="thinspace" unicode="&#x2009;" horiz-adv-x="28" 
 />
    <glyph glyph-name="endash" unicode="&#x2013;" horiz-adv-x="1230" 
d="M135 387v184h961v-184h-961z" />
    <glyph glyph-name="emdash" unicode="&#x2014;" horiz-adv-x="1654" 
d="M135 387v184h1385v-184h-1385z" />
    <glyph glyph-name="quoteleft" unicode="&#x2018;" horiz-adv-x="520" 
d="M338 1456l111 -45q-149 -202 -146 -457h-186q11 163 78.5 299.5t142.5 202.5z" />
    <glyph glyph-name="quoteright" unicode="&#x2019;" horiz-adv-x="509" 
d="M199 909l-109 45q148 213 146 457h186q-11 -164 -79 -302t-144 -200z" />
    <glyph glyph-name="quotesinglbase" unicode="&#x201a;" horiz-adv-x="501" 
d="M145 -164l-108 45q147 211 145 457h187q-11 -164 -79.5 -301.5t-144.5 -200.5z" />
    <glyph glyph-name="quotedblleft" unicode="&#x201c;" horiz-adv-x="835" 
d="M655 1458l109 -45q-145 -209 -143 -457h-187q11 163 78.5 299.5t142.5 202.5zM340 1458l109 -45q-149 -202 -146 -457h-186q11 164 79 302t144 200z" />
    <glyph glyph-name="quotedblright" unicode="&#x201d;" horiz-adv-x="825" 
d="M199 909l-109 45q146 209 146 457h184q-7 -164 -75.5 -301.5t-145.5 -200.5zM516 909l-110 45q147 211 145 457h186q-11 -165 -78.5 -301.5t-142.5 -200.5z" />
    <glyph glyph-name="quotedblbase" unicode="&#x201e;" horiz-adv-x="817" 
d="M145 -164l-108 45q145 208 145 457h185q-7 -163 -76 -301.5t-146 -200.5zM463 -164l-111 45q148 213 146 457h186q-11 -164 -78.5 -301t-142.5 -201z" />
    <glyph glyph-name="dagger" unicode="&#x2020;" horiz-adv-x="849" 
d="M524 1391v-359h240v-158h-240v-1107h-198v1107h-240v158h240v359h198z" />
    <glyph glyph-name="daggerdbl" unicode="&#x2021;" horiz-adv-x="907" 
d="M553 1391v-359h240v-158h-240v-493h240v-156h-240v-458h-199v458h-239v156h239v493h-239v158h239v359h199z" />
    <glyph glyph-name="bullet" unicode="&#x2022;" horiz-adv-x="946" 
d="M162 489q0 126 91 211.5t220 85.5t220 -85.5t91 -211.5q0 -128 -91 -213.5t-220 -85.5t-220 85.5t-91 213.5z" />
    <glyph glyph-name="ellipsis" unicode="&#x2026;" horiz-adv-x="1540" 
d="M129 117q0 60 41.5 99.5t101.5 39.5q61 0 103.5 -40t42.5 -99t-42.5 -98t-103.5 -39t-102 39t-41 98zM627 117q0 60 41.5 99.5t101.5 39.5q61 0 103 -40t42 -99t-42 -98t-103 -39t-102 39t-41 98zM1122 117q0 59 42.5 99t103.5 40t103 -40t42 -99t-42 -98t-103 -39
t-103.5 39t-42.5 98z" />
    <glyph glyph-name="perthousand" unicode="&#x2030;" horiz-adv-x="2039" 
d="M958 1368h138l-672 -1368h-135zM80 1098q0 116 78 195t194 79t195.5 -79.5t79.5 -194.5q0 -116 -79.5 -194.5t-195.5 -78.5q-117 0 -194.5 78t-77.5 195zM229 1098q0 -54 34.5 -88.5t88.5 -34.5q52 0 88.5 35t36.5 88t-36.5 89t-88.5 36q-54 0 -88.5 -35.5t-34.5 -89.5z
M782 252q0 116 78 195t195 79q115 0 194.5 -79t79.5 -195t-79 -194t-195 -78q-117 0 -195 77.5t-78 194.5zM932 252q0 -54 34.5 -88.5t88.5 -34.5t90.5 34.5t36.5 88.5q0 52 -37 88.5t-90 36.5t-88 -36.5t-35 -88.5zM1419 252q0 116 78 195t195 79q116 0 195 -79t79 -195
t-79 -194t-195 -78q-117 0 -195 77.5t-78 194.5zM1569 252q0 -54 34.5 -88.5t88.5 -34.5t90.5 34.5t36.5 88.5q0 52 -36.5 88.5t-90.5 36.5q-53 0 -88 -36.5t-35 -88.5z" />
    <glyph glyph-name="guilsinglleft" unicode="&#x2039;" horiz-adv-x="651" 
d="M92 477l283 424h178l-283 -424l283 -424h-178z" />
    <glyph glyph-name="guilsinglright" unicode="&#x203a;" horiz-adv-x="651" 
d="M276 901l283 -424l-283 -424h-178l283 424l-283 424h178z" />
    <glyph glyph-name="fraction" unicode="&#x2044;" horiz-adv-x="368" 
d="M713 1368l-924 -1388h-145l923 1388h146z" />
    <glyph glyph-name="zerosuperior" unicode="&#x2070;" horiz-adv-x="739" 
d="M78 1280q0 91 13.5 162t45.5 129t90.5 89.5t141.5 31.5q68 0 119.5 -21.5t84 -57.5t53 -89.5t28.5 -112.5t8 -131q0 -71 -8 -129t-28.5 -111.5t-53 -89.5t-84 -57t-119.5 -21q-67 0 -118 21t-83.5 57.5t-53 89.5t-28.5 111t-8 129zM209 1280q0 -279 160 -279q62 0 99 39
t49.5 97t12.5 143q0 62 -7.5 109.5t-24.5 88t-49.5 62t-79.5 21.5q-160 0 -160 -281z" />
    <glyph glyph-name="foursuperior" unicode="&#x2074;" horiz-adv-x="727" 
d="M563 1047v-164h-133v164h-403l426 634h110v-514h111v-120h-111zM240 1167h190v293z" />
    <glyph glyph-name="fivesuperior" unicode="&#x2075;" horiz-adv-x="696" 
d="M162 1112q23 -53 69.5 -83t98.5 -30q77 0 124.5 43t47.5 105q0 65 -45.5 100t-106.5 35q-98 0 -213 -72l-51 47l70 422h424v-125h-316l-33 -178q63 29 134 29q112 0 189 -68t77 -190q0 -125 -82.5 -201t-218.5 -76q-86 0 -162 44.5t-117 121.5q13 9 55.5 38t55.5 38z" />
    <glyph glyph-name="sixsuperior" unicode="&#x2076;" horiz-adv-x="690" 
d="M616 1528l-120 -49q-42 86 -121 86q-78 0 -123.5 -74.5t-40.5 -185.5q23 44 65.5 69t96.5 25q104 0 178 -80.5t70 -194.5q-5 -112 -83 -186t-192 -70q-111 5 -183.5 78.5t-82.5 196.5q0 45 -2 96t5.5 104.5t17.5 104t33.5 95.5t54.5 78t79.5 51.5t108.5 17.5
q79 -5 138 -39.5t101 -122.5zM219 1139q0 -57 38.5 -97.5t94.5 -42.5q55 -1 94 37t41 94q4 59 -33 98.5t-92 41.5q-59 1 -98.5 -36t-44.5 -95z" />
    <glyph glyph-name="sevensuperior" unicode="&#x2077;" horiz-adv-x="665" 
d="M641 1681l-418 -798h-151l350 669h-350v129h569z" />
    <glyph glyph-name="eightsuperior" unicode="&#x2078;" horiz-adv-x="700" 
d="M127 1479q0 91 63.5 152t159.5 61q97 0 161 -61t64 -152q0 -77 -59 -136q55 -33 86 -87t31 -121q0 -110 -82 -186.5t-201 -76.5q-120 0 -201 76t-81 187q0 137 114 208q-55 58 -55 136zM199 1137q0 -58 43 -98t108 -40q63 0 107.5 40.5t44.5 97.5q0 56 -44.5 99.5
t-105.5 43.5h-12q-59 0 -100 -43t-41 -100zM258 1479q0 -38 26.5 -65.5t67.5 -27.5q41 4 66.5 30.5t25.5 62.5t-26.5 61t-67.5 25q-40 0 -66 -25t-26 -61z" />
    <glyph glyph-name="ninesuperior" unicode="&#x2079;" horiz-adv-x="690" 
d="M74 1030l121 51q42 -86 120 -86t121 73.5t43 184.5q-24 -43 -66.5 -68.5t-95.5 -25.5q-104 0 -177.5 80.5t-69.5 196.5q5 112 82.5 185t191.5 69q111 -5 183.5 -77.5t82.5 -197.5q7 -51 3.5 -112t-9.5 -122t-28.5 -118t-54 -100.5t-85.5 -69t-123 -23.5q-174 12 -239 160
zM471 1419q0 60 -38.5 100t-94.5 40q-56 4 -94.5 -34t-40.5 -95q-4 -59 33 -99.5t92 -40.5q59 -1 98.5 35t44.5 94z" />
    <glyph glyph-name="zeroinferior" unicode="&#x2080;" horiz-adv-x="737" 
d="M78 96q0 91 13.5 162t45.5 129t90.5 89.5t141.5 31.5q68 0 119.5 -21.5t84 -57.5t53 -89.5t28.5 -112.5t8 -131q0 -71 -8 -129t-28.5 -111t-53 -89t-84 -57t-119.5 -21q-83 0 -141.5 31t-90.5 89t-45.5 127.5t-13.5 159.5zM209 96q0 -278 160 -278q62 0 99 38.5
t49.5 96.5t12.5 143q0 62 -7.5 109.5t-24.5 88t-49.5 62t-79.5 21.5q-160 0 -160 -281z" />
    <glyph glyph-name="oneinferior" unicode="&#x2081;" horiz-adv-x="428" 
d="M186 -301v608l-137 -67v122l270 144v-807h-133z" />
    <glyph glyph-name="twoinferior" unicode="&#x2082;" horiz-adv-x="659" 
d="M74 -236l321 388q54 68 54 116q0 49 -36.5 81t-90.5 32q-52 0 -90 -34t-48 -93l-118 29q17 103 88 164t170 61q107 0 180.5 -68t73.5 -172q0 -108 -86 -207l-201 -233h284v-129h-501v65z" />
    <glyph glyph-name="threeinferior" unicode="&#x2083;" horiz-adv-x="653" 
d="M186 322q-53 37 -94 69q36 57 98 88t136 27q100 -4 164 -68.5t59 -150.5q0 -48 -26 -91.5t-70 -66.5q63 -26 98.5 -86.5t30.5 -128.5q-7 -102 -94 -167.5t-201 -57.5q-80 6 -144.5 51.5t-97.5 114.5l109 59q19 -42 57 -70t84 -32h-2q62 -5 109 29.5t51 88.5q0 53 -39 93
t-103 40h-90v117h90q52 0 81 38t22 83q-5 36 -33 60t-68 24q-76 8 -127 -63z" />
    <glyph glyph-name="fourinferior" unicode="&#x2084;" horiz-adv-x="727" 
d="M563 -137v-164h-133v164h-403l426 635h110v-514h111v-121h-111zM240 -16h190v292z" />
    <glyph glyph-name="fiveinferior" unicode="&#x2085;" horiz-adv-x="694" 
d="M164 -72q23 -53 69 -82.5t99 -29.5q77 0 124.5 42.5t47.5 104.5q0 65 -45.5 100t-106.5 35q-99 0 -213 -71l-51 47l70 422h424v-125h-316l-33 -178q61 28 134 28q112 0 189 -68t77 -190q0 -125 -82.5 -200.5t-218.5 -75.5q-86 0 -162 44.5t-117 121.5q13 9 55.5 37.5
t55.5 37.5z" />
    <glyph glyph-name="sixinferior" unicode="&#x2086;" horiz-adv-x="690" 
d="M616 344l-120 -49q-42 86 -121 86q-78 0 -123.5 -74.5t-40.5 -185.5q23 44 65.5 69t96.5 25q104 0 178 -80t70 -194q-5 -112 -83 -186t-192 -70q-111 5 -183.5 78t-82.5 196q0 45 -2 96t5.5 104.5t17.5 104t33.5 95.5t54.5 78t79.5 51.5t108.5 17.5q79 -5 138 -39.5
t101 -122.5zM219 -45q0 -57 38.5 -97t94.5 -42q55 -1 94 37t41 94q4 59 -33 98t-92 41q-59 1 -98.5 -36t-44.5 -95z" />
    <glyph glyph-name="seveninferior" unicode="&#x2087;" horiz-adv-x="649" 
d="M639 498l-418 -799h-151l350 670h-350v129h569z" />
    <glyph glyph-name="eightinferior" unicode="&#x2088;" horiz-adv-x="700" 
d="M127 295q0 91 63.5 152t159.5 61q97 0 161 -61t64 -152q0 -76 -59 -135q55 -33 86 -87.5t31 -121.5q0 -110 -82 -186t-201 -76q-120 0 -201 75.5t-81 186.5q0 138 114 209q-55 58 -55 135zM199 -47q0 -58 43 -97.5t108 -39.5q63 0 107.5 40t44.5 97q0 56 -44.5 99.5
t-105.5 43.5h-12q-59 0 -100 -43t-41 -100zM258 295q0 -38 26 -65t68 -27q41 4 66.5 30t25.5 62t-26.5 61t-67.5 25q-40 0 -66 -25t-26 -61z" />
    <glyph glyph-name="nineinferior" unicode="&#x2089;" horiz-adv-x="690" 
d="M74 -154l121 52q42 -86 120 -86t121 73.5t43 184.5q-24 -44 -66.5 -69.5t-95.5 -25.5q-104 0 -177.5 80.5t-69.5 196.5q5 112 82.5 185t191.5 69q111 -5 183.5 -77.5t82.5 -197.5q2 -45 4 -95.5t-5.5 -103.5t-18.5 -103.5t-34.5 -95t-55 -78t-80 -52t-107.5 -16.5
q-79 5 -140 39.5t-99 119.5zM471 236q0 60 -38.5 99.5t-94.5 39.5q-56 4 -94.5 -34t-40.5 -95q-4 -59 33 -99.5t92 -40.5q59 -1 98.5 35.5t44.5 94.5z" />
    <glyph glyph-name="colonmonetary" unicode="&#x20a1;" horiz-adv-x="1437" 
d="M647 -4l-80 -221l-102 37l78 217q-80 30 -148 80l-92 -259l-102 35l104 297q-102 100 -158.5 234.5t-56.5 285.5q0 141 51 270t138.5 224.5t210 156t260.5 70.5l79 226l103 -37l-68 -189q93 -6 166 -32l64 182l102 -35l-68 -188q126 -62 220 -176l-168 -132
q-73 73 -125 103l-338 -948q41 -9 86 -9q116 0 215 49t166 136l168 -133q-93 -123 -235.5 -191.5t-313.5 -68.5q-74 0 -156 16zM791 1219l-322 -900q61 -59 143 -94l346 967q-73 24 -167 27zM307 702q0 -154 82 -286l281 782q-161 -45 -262 -181t-101 -315z" />
    <glyph glyph-name="lira" unicode="&#x20a4;" horiz-adv-x="1323" 
d="M799 463h-293v-262h469q19 0 30 15t11 38v102h209v-104q0 -110 -56 -181t-157 -71h-912v201h197v262h-160v115h160v124h-160v115h160v141q0 216 113.5 342.5t310.5 126.5q177 0 297.5 -119t120.5 -319h-211q0 112 -64.5 170.5t-156.5 50.5q-83 -5 -142 -58.5t-59 -137.5
v-197h293v-115h-293v-124h293v-115z" />
    <glyph glyph-name="uni20A6" unicode="&#x20a6;" horiz-adv-x="1546" 
d="M1272 0h-182l-310 512h-334v-512h-190v512h-141v113h141v151h-141v113h141v522h188l316 -522h321v522h191v-522h168v-113h-168v-151h168v-113h-168v-512zM446 776v-151h265l-90 151h-175zM827 776l93 -151h161v151h-254zM446 1063v-174h105zM987 512l94 -156v156h-94z
" />
    <glyph glyph-name="peseta" unicode="&#x20a7;" horiz-adv-x="1519" 
d="M270 817h-164v113h164v100h-164v113h164v268h564q148 0 244 -74t141 -194h213v-113h-185q6 -44 6 -84v-16h179v-113h-195q-35 -133 -133 -211t-270 -78h-371v-528h-193v817zM1063 930v16q0 32 -10 84h-590v-100h600zM463 707h358q156 0 213 110h-571v-110zM831 1233h-368
v-90h541q-64 90 -173 90z" />
    <glyph glyph-name="rupee" unicode="&#x20a8;" horiz-adv-x="1400" 
d="M768 946h-635v115h623q-46 149 -199 149h-424q0 22 -1 100t-1 101h1174v-115h-439q96 -94 121 -235h318v-115h-310q-2 -63 -16 -122t-42.5 -113.5t-70 -95t-102 -65t-133.5 -24.5l370 -526h-264l-352 518h-252v199h416q106 0 160 65.5t59 163.5z" />
    <glyph glyph-name="uni20A9" unicode="&#x20a9;" horiz-adv-x="2002" 
d="M395 561h-276v113h239l-69 205h-170v112h131l-141 420h204l136 -420h413l66 230h145l66 -230h413l136 420h204l-143 -420h135v-112h-172l-70 -205h242v-113h-278l-191 -561h-166l-159 561h-181l-157 -561h-166zM1169 879l60 -205h221l66 205h-347zM483 879l66 -205h223
l57 205h-346zM1260 561l73 -254l82 254h-155zM586 561l82 -254l71 254h-153zM997 879l-57 -205h119l-60 205h-2z" />
    <glyph glyph-name="afii57636" unicode="&#x20aa;" horiz-adv-x="1644" 
d="M1112 680v-318h-207v304q0 99 -65.5 163t-173.5 64h-263v-893h-210v1102h450q91 0 148 -17q149 -34 235 -143t86 -262zM532 422v317h209v-305q0 -96 66 -160.5t174 -64.5h260v893h211v-1102h-451q-85 0 -145 14q-151 32 -237.5 143t-86.5 265z" />
    <glyph glyph-name="Euro" unicode="&#x20ac;" horiz-adv-x="1679" 
d="M1069 750h-969v116h222q55 245 247 403t447 158q167 0 308 -67t237 -186l-168 -132q-157 177 -377 177q-167 0 -293.5 -98t-177.5 -255h524v-116zM100 629h969v-117h-516q55 -145 179.5 -234.5t283.5 -89.5q116 0 215 49t166 136l168 -133q-93 -123 -235.5 -191.5
t-313.5 -68.5q-248 0 -437 149t-251 383h-228v117z" />
    <glyph glyph-name="uni2113" unicode="&#x2113;" horiz-adv-x="804" 
d="M340 1133v-562h88q80 0 80 136v426q0 147 -80 147q-88 0 -88 -147zM459 195l196 -5v-190h-227q-81 0 -138.5 25t-89 71t-45.5 103t-14 131v815q0 332 287 332q76 0 131.5 -25.5t87.5 -72.5t47 -106t15 -132v-436q0 -116 -32 -186.5t-114 -108t-223 -37.5v-43
q0 -73 25 -104t94 -31z" />
    <glyph glyph-name="afii61352" unicode="&#x2116;" horiz-adv-x="1990" 
d="M1219 1411v-1411h-205l-604 1010v-1010h-220v1411h211l598 -1001v1001h220zM1350 1145q0 110 80 190t190 80t190 -80t80 -190q0 -112 -79.5 -190t-190.5 -78t-190.5 78t-79.5 190zM1493 1145q0 -54 36.5 -90.5t90.5 -36.5t91.5 36.5t37.5 90.5t-37.5 91.5t-91.5 37.5
t-90.5 -37.5t-36.5 -91.5zM1360 682v106h520v-106h-520z" />
    <glyph glyph-name="trademark" unicode="&#x2122;" horiz-adv-x="1728" 
d="M657 637l76 645h-217v-645h-147v645h-240v129h748l245 -530l244 530h127l92 -774h-141l-64 524l-198 -440h-117l-203 440l-61 -524h-144z" />
    <glyph glyph-name="estimated" unicode="&#x212e;" horiz-adv-x="1341" 
d="M1247 571h-878v-395q138 -129 311 -129q82 0 149 20t118 59t87.5 80.5t75.5 100.5l64 -39q-46 -69 -89 -116.5t-101.5 -89t-134 -62t-169.5 -20.5q-122 0 -227 47.5t-176.5 128t-111.5 189t-40 228.5q0 164 66.5 298t196.5 215t300 81q169 0 298 -82.5t195 -217
t66 -296.5zM1001 639v334q-60 55 -143.5 91t-169.5 36q-195 0 -319 -127v-334h632z" />
    <glyph glyph-name="minus" unicode="&#x2212;" horiz-adv-x="1146" 
d="M997 451h-847v178h847v-178z" />
    <glyph glyph-name="notequal" unicode="&#x2260;" horiz-adv-x="1210" 
d="M543 246l-109 -223h-143l108 223h-266v182h354l107 217h-461v182h549l109 220h145l-109 -220h248v-182h-338l-104 -217h442v-182h-532z" />
    <glyph glyph-name="lessequal" unicode="&#x2264;" horiz-adv-x="1339" 
d="M1176 285l-1035 397v190l1035 396v-205l-768 -285l768 -289v-204zM1178 0h-1039v178h1039v-178z" />
    <glyph glyph-name="greaterequal" unicode="&#x2265;" horiz-adv-x="1339" 
d="M1198 682l-1034 -397v204l768 289l-768 285v205l1034 -396v-190zM1200 0h-1038v178h1038v-178z" />
    <glyph glyph-name="commaaccent" unicode="&#xf6c3;" horiz-adv-x="567" 
d="M266 -530l-123 47q63 85 85.5 162.5t15.5 203.5h198q-7 -276 -176 -413z" />
    <glyph glyph-name="rupiah" unicode="&#xf6dd;" horiz-adv-x="2365" 
d="M692 1210h-323v-493h315q110 0 165.5 72.5t55.5 173.5q0 63 -20.5 117t-70.5 92t-122 38zM766 526l371 -526h-265l-352 518h-151v-518h-219v1411h550q109 0 194 -38t135 -102.5t75.5 -142.5t25.5 -165q0 -80 -21 -151.5t-63 -133t-114 -102t-166 -50.5zM1499 956v-141
q43 76 131 119t189 43q129 0 237 -61.5t173 -176.5t65 -262q0 -112 -38 -206t-103 -157.5t-151 -98.5t-183 -35q-103 0 -190 40.5t-130 116.5v-602h-211v1421h211zM1501 473q0 -135 86.5 -213t204.5 -78q121 0 204 81t83 210q0 131 -83 215t-204 84q-122 0 -206.5 -82
t-84.5 -217z" />
    <glyph glyph-name="apple" unicode="&#xf8ff;" horiz-adv-x="1734" 
d="M1571 1407v-1407h-1407v1407h1407zM336 1219v-773h166l-152 154v365l522 -519l525 519v-365l-152 -154h172v773l-545 -539zM367 270h-31v-108h18v76l27 -76h20l23 76v-76h18v108h-28l-19 -73zM508 270q-25 0 -38 -15t-13 -40q0 -22 13 -37.5t38 -15.5q22 0 34.5 15.5
t12.5 37.5q0 24 -12.5 39.5t-34.5 15.5zM508 182q-16 0 -25.5 10.5t-9.5 22.5t9.5 23.5t25.5 11.5q12 0 18 -11t6 -24q0 -33 -24 -33zM582 203h-27q0 -20 12.5 -30.5t32.5 -10.5q25 0 35 8.5t10 26.5q0 22 -31 28l-10 2l-7.5 1.5t-5.5 1.5l-4.5 1.5t-2.5 1.5t-1.5 2t-0.5 3
q0 12 18 12q21 0 21 -12h18q0 32 -39 32q-15 0 -27 -8t-12 -24q0 -11 8 -17t25 -14q27 0 27 -10t-4.5 -12.5t-16.5 -2.5q-18 0 -18 21zM645 250h35v-88h16v88h31v20h-82v-20zM772 270h-18l-45 -108h24l8 26h45l7 -26h22zM766 244l14 -37h-32l12 37h6zM872 270h-57v-108h19
v45h26q19 0 19 -19v-26h26q-6 6 -6 26q0 19 -14 27q10 4 12 8t2 15q0 32 -27 32zM860 221h-26v29h26q19 0 19 -12q0 -17 -19 -17zM954 270h-41v-108h41q24 0 38 16.5t14 42.5q0 49 -52 49zM954 182h-16v68h8q22 0 28.5 -8t6.5 -27q0 -13 -8 -23t-19 -10zM1087 270h-75v-108
h82v20h-58v25h51v18h-51v25h51v20zM1112 203h-18q0 -41 45 -41q20 0 32.5 9t12.5 26q0 22 -31 28q-5 1 -10.5 2t-8.5 1.5t-6 1.5l-4.5 1.5t-3 1.5t-2 2t-0.5 3q0 12 15 12h5.5h5.5t4 -0.5t4 -1t2.5 -2t2 -3.5t0.5 -5h21q0 32 -39 32q-45 0 -45 -32q0 -11 9.5 -17.5
t29.5 -13.5q24 0 24 -10q0 -15 -18 -15q-27 0 -27 21zM1206 270h-14v-108h14v108zM1296 176l9 -14h12v59h-45v-18h24q-9 -21 -24 -21q-16 0 -24.5 10.5t-8.5 22.5t8.5 23.5t24.5 11.5q6 0 12 -6t6 -15h27q-8 41 -45 41q-24 0 -37.5 -15.5t-13.5 -39.5q0 -22 13.5 -37.5
t37.5 -15.5q18 0 24 14zM1346 270h-17v-108h17v67l45 -67h26v108h-26v-67z" />
    <glyph glyph-name="CR" horiz-adv-x="520" 
 />
    <glyph glyph-name="published" horiz-adv-x="1652" 
d="M891 573h-137v-249h-142v723h279q112 0 172.5 -70.5t60.5 -167.5q0 -41 -14 -81t-40.5 -75.5t-73 -57.5t-105.5 -22zM891 907h-137v-194h133q45 0 68.5 28t23.5 68q0 41 -23 69.5t-65 28.5zM111 702q0 197 94.5 363.5t259 264t360.5 97.5q147 0 280 -57.5t228.5 -155
t152 -231.5t56.5 -281q0 -148 -56.5 -281.5t-152 -230t-228.5 -153.5t-280 -57t-279.5 57t-227.5 153.5t-151 230t-56 281.5zM236 702q0 -121 46.5 -231t125 -190t187.5 -127.5t230 -47.5q161 0 297 80t214.5 217t78.5 299q0 163 -78.5 300.5t-214.5 217.5t-297 80
q-121 0 -230 -47.5t-187.5 -127.5t-125 -190.5t-46.5 -232.5z" />
    <glyph glyph-name="frenchfranc" horiz-adv-x="1495" 
d="M780 0v680h-372v-680h-213v1411h821v-205h-608v-323h581v-228q68 240 262 240q48 0 96.5 -11t73.5 -26l-35 -196q-65 32 -141 32q-87 0 -146 -61t-84.5 -160t-25.5 -231v-242h-209z" />
    <glyph glyph-name="parenleft.case" horiz-adv-x="751" 
d="M94 700q0 288 73 505t205 333.5t306 116.5v-193q-112 0 -202 -96t-140.5 -270.5t-50.5 -395.5t50.5 -394t140 -268t202.5 -95v-193q-174 0 -306 115.5t-205 331.5t-73 503z" />
    <glyph glyph-name="parenright.case" horiz-adv-x="751" 
d="M657 700q0 -433 -161.5 -691.5t-421.5 -258.5v193q84 0 156.5 55.5t124.5 154t82 240t30 307.5q0 221 -51 395.5t-140.5 270.5t-201.5 96v193q171 0 303 -116.5t206 -334t74 -504.5z" />
    <glyph glyph-name="hyphen.case" horiz-adv-x="985" 
d="M135 616v191h715v-191h-715z" />
    <glyph glyph-name="at.case" horiz-adv-x="1984" 
d="M1221 451v262q0 109 -75.5 183.5t-182.5 74.5t-182.5 -74.5t-75.5 -183.5q0 -104 76 -180t182 -76q98 0 192 88v-180q-97 -62 -192 -62q-171 0 -291.5 119.5t-120.5 290.5t120.5 291t291.5 120q169 0 284 -112q118 -112 127 -281v-295q0 -131 142 -131q55 0 98 30
t67.5 75t40.5 105.5t21.5 114t5.5 107.5q0 151 -61.5 284.5t-165.5 226.5t-244.5 146.5t-294.5 53.5q-202 0 -370.5 -100t-264.5 -271.5t-96 -374.5q0 -152 56.5 -288.5t154 -235t233 -156t287.5 -57.5h51v-155h-51q-184 0 -348 70t-281.5 189t-186.5 284t-69 349t69 350.5
t186.5 287t282 191.5t347.5 71q123 0 241 -29.5t220 -83.5t187.5 -133t146.5 -173.5t95 -209t34 -236.5q0 -76 -12.5 -153.5t-42.5 -156t-73.5 -139t-111.5 -98.5t-151 -38q-60 0 -110 15t-93 48t-67.5 93t-24.5 143z" />
    <glyph glyph-name="bracketleft.case" horiz-adv-x="671" 
d="M166 -238v1876h426v-180h-227v-1515h227v-181h-426z" />
    <glyph glyph-name="bracketright.case" horiz-adv-x="671" 
d="M506 1638v-1876h-426v181h227v1515h-227v180h426z" />
    <glyph glyph-name="braceleft.case" horiz-adv-x="817" 
d="M74 629v151q49 0 87 36t38 81v356q0 179 117 290.5t288 111.5h141v-158h-147q-86 0 -146.5 -64.5t-60.5 -156.5v-322q0 -87 -33 -154t-104 -95q37 -12 64.5 -38.5t42.5 -61.5t22.5 -72.5t7.5 -77.5v-305q0 -93 61 -160.5t146 -67.5h147v-160h-141q-171 0 -288 112
t-117 292v348q0 43 -38 79t-87 36z" />
    <glyph glyph-name="braceright.case" horiz-adv-x="817" 
d="M743 780v-151q-49 0 -87 -36t-38 -79v-348q0 -180 -117 -292t-288 -112h-141v160h147q85 0 146 67.5t61 160.5v305q0 40 7.5 77.5t22.5 72.5t42.5 61.5t64.5 38.5q-71 28 -104 95t-33 154v322q0 92 -60.5 156.5t-146.5 64.5h-147v158h141q171 0 288 -111.5t117 -290.5
v-356q0 -45 38 -81t87 -36z" />
    <glyph glyph-name="exclamdown.case" horiz-adv-x="546" 
d="M356 1030l29 -1032h-227l30 1032h168zM129 1290q0 59 42 98t103 39t103.5 -39t42.5 -98t-42.5 -99t-103.5 -40t-103 40t-42 99z" />
    <glyph glyph-name="guillemotleft.case" horiz-adv-x="1058" 
d="M473 705l283 423h176l-283 -423l283 -424h-176zM111 705l282 423h178l-282 -423l282 -424h-178z" />
    <glyph glyph-name="periodcentered.case" horiz-adv-x="544" 
d="M127 791q0 60 41.5 99.5t101.5 39.5q61 0 104.5 -40t43.5 -99t-43.5 -99.5t-104.5 -40.5q-60 0 -101.5 40t-41.5 100z" />
    <glyph glyph-name="guillemotright.case" horiz-adv-x="1058" 
d="M303 1128l283 -423l-283 -424h-176l283 424l-283 423h176zM666 1128l282 -423l-282 -424h-179l283 424l-283 423h179z" />
    <glyph glyph-name="questiondown.case" horiz-adv-x="995" 
d="M504 922l4 106h205v-106q0 -68 -13 -117.5t-32.5 -79t-54.5 -55.5t-67.5 -41.5t-84.5 -42.5t-92 -54q-40 -28 -61 -69t-21 -84q0 -84 63 -137.5t152 -53.5q88 0 147.5 60t59.5 160h202q0 -193 -116.5 -310.5t-292.5 -117.5q-116 0 -212 47.5t-154 139.5t-58 212
q0 143 82.5 245.5t208.5 141.5q69 21 102 54.5t33 101.5zM754 1290q0 -59 -42.5 -99t-103.5 -40t-103 40t-42 99t42 98t103 39t103.5 -39t42.5 -98z" />
    <glyph glyph-name="endash.case" horiz-adv-x="1222" 
d="M131 614v185h961v-185h-961z" />
    <glyph glyph-name="emdash.case" horiz-adv-x="1646" 
d="M131 614v185h1385v-185h-1385z" />
    <glyph glyph-name="bullet.case" horiz-adv-x="950" 
d="M164 717q0 126 91 211.5t220 85.5t220 -85.5t91 -211.5q0 -128 -91 -213.5t-220 -85.5t-220 85.5t-91 213.5z" />
    <glyph glyph-name="guilsinglleft.case" horiz-adv-x="698" 
d="M111 705l282 423h178l-282 -423l282 -424h-178z" />
    <glyph glyph-name="guilsinglright.case" horiz-adv-x="698" 
d="M305 1128l283 -423l-283 -424h-178l283 424l-283 423h178z" />
    <glyph glyph-name="cent.case" horiz-adv-x="1091" 
d="M643 1427v-210q103 -6 191.5 -48.5t150.5 -115.5l-164 -131q-80 92 -215 92q-124 0 -212.5 -80.5t-88.5 -210.5t89 -214.5t212 -84.5q63 0 120 25t95 69l166 -129q-129 -151 -344 -166v-225h-133v231q-179 30 -296.5 164t-117.5 330q0 194 117.5 325.5t296.5 161.5v217
h133z" />
    <glyph glyph-name="zero.tnum" 
d="M104 666q0 120 13.5 218.5t48 188.5t89 150.5t141 96.5t198.5 36q113 0 199 -36t140 -96.5t88 -150.5t47 -188t13 -219q0 -119 -13 -216.5t-47 -187t-88 -150t-140 -96.5t-199 -36q-112 0 -198.5 36t-141 96.5t-89 149.5t-48 187t-13.5 217zM313 666q0 -106 13 -188
t43.5 -151t87 -106t137.5 -37q80 0 136 37t86 106t43 151t13 188t-13 188t-43 150.5t-86 105.5t-136 37q-81 0 -137.5 -37t-87 -105.5t-43.5 -150.5t-13 -188z" />
    <glyph glyph-name="one.tnum" 
d="M326 1182l430 170v-1352h-209v1067l-221 -80v195z" />
    <glyph glyph-name="two.tnum" 
d="M1006 0h-838v100l545 656q92 110 92 202q0 85 -63 139t-158 54q-88 0 -152 -56.5t-76 -148.5l-200 43q27 169 146.5 269t285.5 100q180 0 303 -112t123 -288q0 -185 -146 -344q-279 -326 -348 -409h486v-205z" />
    <glyph glyph-name="three.tnum" 
d="M569 614h-149v195h149q73 0 118 47t54 105q17 125 -98 174q-31 14 -92 14q-114 3 -189 -105l-159 117q56 98 161.5 151t231.5 46q163 -7 270 -116.5t107 -254.5q0 -78 -44.5 -149.5t-117.5 -114.5q98 -35 156.5 -136.5t58.5 -213.5q0 -182 -131 -287.5t-336 -105.5
q-151 0 -265.5 74.5t-170.5 195.5l184 98q29 -65 105.5 -114.5t146.5 -49.5h-2q124 0 188 57t64 148q0 87 -64.5 156t-175.5 69z" />
    <glyph glyph-name="four.tnum" 
d="M365 471h350v522zM1110 281h-186v-281h-209v281h-684l712 1056h181v-866h186v-190z" />
    <glyph glyph-name="five.tnum" 
d="M864 440q0 119 -76.5 183.5t-191.5 64.5q-85 0 -159.5 -27t-164.5 -94l-125 92l115 678h731v-198h-561l-63 -338q43 34 114 55t135 21q127 0 228 -48.5t163 -149t62 -239.5q0 -209 -141 -334.5t-373 -125.5q-140 0 -263.5 80.5t-189.5 215.5q77 48 179 103
q41 -91 114 -143t160 -52q148 0 227.5 72.5t79.5 183.5z" />
    <glyph glyph-name="six.tnum" 
d="M840 416q0 100 -63 169.5t-159 73.5q-98 4 -172.5 -65t-74.5 -162q0 -101 68.5 -172.5t162.5 -71.5q99 -5 168.5 62t69.5 166zM639 862q173 0 292.5 -130t119.5 -326q-8 -185 -136.5 -305.5t-320.5 -120.5q-181 0 -302 125t-138 335q-7 82 -7.5 159.5t5.5 161t22 157
t41 142.5t65 123t91.5 94.5t122 61t155.5 17.5q63 -2 114.5 -14.5t103.5 -40t96 -79t77 -124.5l-190 -82q-67 143 -209 143q-139 0 -221.5 -129.5t-65.5 -318.5q83 151 285 151z" />
    <glyph glyph-name="seven.tnum" 
d="M162 1337h946l-698 -1337h-244l596 1135h-600v202z" />
    <glyph glyph-name="eight.tnum" 
d="M428 1006q0 -68 47.5 -112t122.5 -44q71 1 116.5 46.5t45.5 109.5q0 62 -47.5 105.5t-118.5 43.5t-118.5 -43.5t-47.5 -105.5zM330 426q0 -101 77 -172.5t187 -71.5t186 71t76 173q0 98 -74.5 170t-181.5 72h-22q-104 0 -176 -73t-72 -169zM223 1008q0 144 107 247
t264 103t266 -103t109 -247q0 -139 -105 -234q95 -58 149 -149.5t54 -200.5q0 -186 -137.5 -315t-335.5 -129q-199 0 -336 129t-137 315q0 111 53.5 202.5t147.5 147.5q-99 96 -99 234z" />
    <glyph glyph-name="nine.tnum" 
d="M344 920q0 -100 62.5 -170t158.5 -74q98 -4 173 65t75 162q0 101 -68.5 172.5t-162.5 71.5q-99 5 -168.5 -61.5t-69.5 -165.5zM545 473q-173 0 -292.5 130.5t-119.5 326.5q3 121 63.5 218.5t164 152.5t229.5 55q181 0 302 -125.5t138 -335.5q5 -90 7.5 -182.5t-10 -183.5
t-32.5 -173.5t-60.5 -153t-93.5 -121t-131.5 -77.5t-174.5 -24q-63 2 -114.5 14.5t-104 40t-96.5 79t-77 124.5l191 81q67 -143 209 -143q139 0 221 129.5t65 319.5q-37 -72 -111.5 -112t-172.5 -40z" />
    <glyph glyph-name="zero.taboldstyle" 
d="M592 -20q-100 0 -191.5 38.5t-160 106.5t-109.5 168.5t-41 218.5q0 119 41 220t109.5 168t160 104.5t191.5 37.5q137 0 251.5 -63.5t184.5 -186t70 -280.5q0 -156 -70 -279t-185 -188t-251 -65zM592 184q123 0 212 92t89 236t-89 234t-212 90t-211 -89.5t-88 -234.5
q0 -144 88.5 -236t210.5 -92z" />
    <glyph glyph-name="one.taboldstyle" 
d="M803 1057v-1057h-211v729l-293 -145v215z" />
    <glyph glyph-name="two.taboldstyle" 
d="M969 0h-776v104l481 508q71 68 71 125q0 51 -42.5 85t-112.5 34q-67 0 -112.5 -38.5t-51.5 -106.5l-205 32q17 142 121 229t254 87q162 0 266.5 -91t104.5 -227q0 -45 -11.5 -84.5t-38 -78.5t-48.5 -64.5t-64 -69.5l-244 -243h408v-201z" />
    <glyph glyph-name="six.taboldstyle" 
d="M840 416q0 100 -63 169.5t-159 73.5q-98 4 -172.5 -65t-74.5 -162q0 -101 68.5 -172.5t162.5 -71.5q99 -5 168.5 62t69.5 166zM639 862q173 0 292.5 -130t119.5 -326q-8 -185 -136.5 -305.5t-320.5 -120.5q-181 0 -302 125t-138 335q-7 82 -7.5 159.5t5.5 161t22 157
t41 142.5t65 123t91.5 94.5t122 61t155.5 17.5q63 -2 114.5 -14.5t103.5 -40t96 -79t77 -124.5l-190 -82q-67 143 -209 143q-139 0 -221.5 -129.5t-65.5 -318.5q83 151 285 151z" />
    <glyph glyph-name="eight.taboldstyle" 
d="M428 1006q0 -68 47.5 -112t122.5 -44q71 1 116.5 46.5t45.5 109.5q0 62 -47.5 105.5t-118.5 43.5t-118.5 -43.5t-47.5 -105.5zM330 426q0 -101 77 -172.5t187 -71.5t186 71t76 173q0 98 -74.5 170t-181.5 72h-22q-104 0 -176 -73t-72 -169zM223 1008q0 144 107 247
t264 103t266 -103t109 -247q0 -139 -105 -234q95 -58 149 -149.5t54 -200.5q0 -186 -137.5 -315t-335.5 -129q-199 0 -336 129t-137 315q0 111 53.5 202.5t147.5 147.5q-99 96 -99 234z" />
    <glyph glyph-name="three.taboldstyle" 
d="M573 233h-149v195h149q73 0 118 47t54 105q17 125 -98 174q-31 14 -92 14q-114 3 -188 -104l-160 116q56 98 161.5 151t231.5 46q163 -7 270 -116.5t107 -254.5q0 -78 -44.5 -149.5t-117.5 -114.5q98 -35 156.5 -136.5t58.5 -213.5q0 -182 -131 -287.5t-336 -105.5
q-151 0 -265.5 74.5t-170.5 195.5l184 98q29 -65 105.5 -114.5t146.5 -49.5h-2q124 0 188 57t64 148q0 87 -64.5 156t-175.5 69z" />
    <glyph glyph-name="four.taboldstyle" 
d="M369 88h348v522zM1114 -102h-188v-283h-209v283h-682l713 1056h178v-866h188v-190z" />
    <glyph glyph-name="five.taboldstyle" 
d="M866 59q0 119 -76.5 183.5t-191.5 64.5q-85 0 -159.5 -27t-164.5 -94l-124 93l114 677h731v-198h-561l-63 -338q43 34 114.5 55t135.5 21q126 0 227 -48.5t163 -149t62 -239.5q0 -209 -141 -334.5t-373 -125.5q-140 0 -263.5 81t-189.5 216q65 40 179 102
q41 -91 114 -143t160 -52q148 0 227.5 72.5t79.5 183.5z" />
    <glyph glyph-name="seven.taboldstyle" 
d="M162 954h946l-698 -1337h-244l596 1135h-600v202z" />
    <glyph glyph-name="nine.taboldstyle" 
d="M352 541q0 -100 62.5 -170t158.5 -74q98 -4 173 65t75 162q0 101 -68.5 172.5t-162.5 71.5q-99 5 -168.5 -61.5t-69.5 -165.5zM553 94q-173 0 -292.5 130.5t-119.5 326.5q3 121 63.5 218.5t164 152.5t229.5 55q181 0 302 -125.5t138 -335.5q5 -90 7.5 -182.5t-10 -183.5
t-32.5 -173.5t-60.5 -153t-93.5 -121t-131.5 -77.5t-174.5 -24q-63 2 -114.5 14.5t-103.5 40t-96 79t-77 124.5l190 82q68 -144 209 -144q139 0 221.5 130t65.5 319q-37 -72 -112 -112t-173 -40z" />
    <glyph glyph-name="zero.oldstyle" horiz-adv-x="1216" 
d="M606 -20q-100 0 -191.5 38.5t-160 106.5t-109.5 168.5t-41 218.5q0 119 41 220t109.5 168t160 104.5t191.5 37.5q137 0 251.5 -63.5t184.5 -186t70 -280.5q0 -156 -70 -279t-185 -188t-251 -65zM606 184q123 0 212 92t89 236t-89 234t-212 90t-211 -89.5t-88 -234.5
q0 -144 88.5 -236t210.5 -92z" />
    <glyph glyph-name="one.oldstyle" horiz-adv-x="757" 
d="M588 1057v-1057h-209v729l-295 -145v215z" />
    <glyph glyph-name="two.oldstyle" horiz-adv-x="995" 
d="M872 0h-774v104l482 508q71 71 71 125q0 51 -42.5 85t-112.5 34q-67 0 -113 -38.5t-53 -106.5l-205 32q17 142 121 229t256 87q160 0 265 -91t105 -227q0 -59 -24.5 -114.5t-53 -90t-83.5 -92.5l-244 -243h405v-201z" />
    <glyph glyph-name="three.oldstyle" horiz-adv-x="1056" 
d="M508 233h-150v195h150q73 0 118 47t54 105q17 125 -98 174q-31 14 -93 14q-114 3 -188 -104l-160 116q56 98 161.5 151t232.5 46q163 -7 269.5 -116.5t106.5 -254.5q0 -79 -44 -150t-117 -114q98 -35 156.5 -136.5t58.5 -213.5q0 -182 -131 -287.5t-336 -105.5
q-151 0 -266 74.5t-171 195.5l185 98q29 -65 105.5 -114.5t146.5 -49.5h-2q124 0 188 57t64 148q0 87 -64.5 156t-175.5 69z" />
    <glyph glyph-name="four.oldstyle" horiz-adv-x="1185" 
d="M369 88h350v522zM1114 -102h-186v-283h-209v283h-684l713 1056h180v-866h186v-190z" />
    <glyph glyph-name="five.oldstyle" horiz-adv-x="1134" 
d="M840 59q0 119 -77 183.5t-192 64.5q-84 0 -158.5 -27t-164.5 -94l-125 93l115 677h731v-198h-561l-64 -338q43 34 114.5 55t135.5 21q127 0 228 -48.5t163 -149t62 -239.5q0 -209 -141.5 -334.5t-373.5 -125.5q-139 0 -262.5 81t-189.5 216q71 44 178 102
q41 -91 114 -143t160 -52q148 0 228 73t80 183z" />
    <glyph glyph-name="six.oldstyle" horiz-adv-x="1148" 
d="M821 416q0 100 -62.5 169.5t-158.5 73.5q-98 4 -173 -65t-75 -162q0 -101 69 -172.5t163 -71.5q98 -5 167.5 61.5t69.5 166.5zM621 862q173 0 292 -130t119 -326q-8 -185 -136.5 -305.5t-320.5 -120.5q-181 0 -302 125t-138 335q-6 72 -7 141.5t3 143.5t14.5 141
t30 132.5t47 119.5t67 100t88.5 77t113.5 47.5t139.5 13.5q63 -2 114.5 -14.5t103.5 -40t96 -79t77 -124.5l-191 -82q-67 143 -208 143q-139 0 -221.5 -129.5t-65.5 -318.5q83 151 285 151z" />
    <glyph glyph-name="seven.oldstyle" horiz-adv-x="1046" 
d="M92 956h946l-698 -1337h-244l596 1135h-600v202z" />
    <glyph glyph-name="eight.oldstyle" horiz-adv-x="1167" 
d="M418 1006q0 -68 47.5 -112t122.5 -44q71 1 116.5 46.5t45.5 109.5q0 62 -47.5 105.5t-118.5 43.5t-118.5 -43.5t-47.5 -105.5zM319 426q0 -101 77.5 -172.5t187.5 -71.5t186 71t76 173q0 98 -74.5 170t-181.5 72h-23q-104 0 -176 -73t-72 -169zM213 1008q0 144 107 247
t264 103t265.5 -103t108.5 -247q0 -140 -104 -234q95 -58 149 -149.5t54 -200.5q0 -186 -137.5 -315t-335.5 -129q-199 0 -336 129t-137 315q0 111 53 202.5t147 147.5q-98 95 -98 234z" />
    <glyph glyph-name="nine.oldstyle" horiz-adv-x="1105" 
d="M311 541q0 -100 62.5 -170t158.5 -74q98 -4 173 65t75 162q0 101 -68.5 172.5t-162.5 71.5q-99 5 -168.5 -61.5t-69.5 -165.5zM512 94q-173 0 -292.5 130.5t-119.5 326.5q3 121 63.5 218.5t164 152.5t229.5 55q181 0 302 -125.5t138 -335.5q5 -90 7.5 -182.5t-10 -183.5
t-32.5 -173.5t-60.5 -153t-93.5 -121t-131.5 -77.5t-174.5 -24q-63 2 -114.5 14.5t-103.5 40t-96 79t-77 124.5l190 82q68 -144 209 -144q139 0 221.5 130t65.5 319q-37 -72 -112 -112t-173 -40z" />
    <glyph glyph-name="Lslash.sc" horiz-adv-x="886" 
d="M379 799l172 108v-137l-172 -108v-478h469v-184h-664v541l-112 -72v137l112 74v506h195v-387z" />
    <glyph glyph-name="Zcaron.sc" horiz-adv-x="1042" 
d="M516 1452l129 143h162l-197 -278h-184l-197 278h162zM94 160l594 848h-571v178h821v-158l-598 -848h598v-180h-844v160z" />
    <glyph glyph-name="exclam.sc" horiz-adv-x="563" 
d="M166 92q0 49 34.5 82t82.5 33q51 0 84.5 -32.5t33.5 -82.5q0 -49 -33.5 -80.5t-84.5 -31.5q-48 0 -82.5 31.5t-34.5 80.5zM201 311l-27 879h215l-29 -879h-159z" />
    <glyph glyph-name="ampersand.sc" horiz-adv-x="1185" 
d="M733 727v145h178v-147h146v-152h-146v-213q0 -105 34.5 -155.5t139.5 -50.5v-172q-219 0 -294 122q-43 -58 -121.5 -91t-163.5 -33q-171 0 -283 107.5t-112 266.5q0 102 44.5 182t127.5 130q-43 35 -66.5 91t-23.5 122q0 126 92.5 217.5t226.5 91.5q99 0 177.5 -46
t127.5 -124l-155 -98q-60 88 -140 88q-65 0 -104 -38t-39 -96q0 -53 37 -100t104 -47h213zM733 573h-205q-101 0 -163.5 -60t-67.5 -144q0 -87 61.5 -147t155.5 -60q219 0 219 299v112z" />
    <glyph glyph-name="question.sc" horiz-adv-x="874" 
d="M266 834h-180q0 165 98.5 263.5t249.5 98.5q152 0 255.5 -92.5t103.5 -243.5q0 -121 -70.5 -211t-175.5 -119q-32 -10 -51 -21t-31.5 -23t-18 -38t-8 -50t-4.5 -76h-182v86q0 123 56 189.5t169 104.5q61 19 96 61t35 97q0 66 -52 109t-122 43q-69 0 -118.5 -49.5
t-49.5 -128.5zM217 100q0 54 37.5 89.5t89.5 35.5q55 0 91 -35t36 -90q0 -53 -36 -86.5t-91 -33.5q-52 0 -89.5 33.5t-37.5 86.5z" />
    <glyph glyph-name="A.sc" horiz-adv-x="1167" 
d="M416 467h336l-168 467zM930 0l-113 293h-467l-110 -293h-207l448 1186h205l449 -1186h-205z" />
    <glyph glyph-name="B.sc" horiz-adv-x="1130" 
d="M965 870q0 -75 -32.5 -138t-105.5 -97q93 -28 147 -112t54 -173q0 -148 -98 -249t-260 -101h-494v1186h457q154 0 243 -84.5t89 -231.5zM373 707h254q65 0 102 44t37 113q0 68 -41 107t-113 39h-239v-303zM657 537h-284v-359h289q75 0 120 52.5t45 123.5q0 68 -48 125.5
t-122 57.5z" />
    <glyph glyph-name="C.sc" horiz-adv-x="1220" 
d="M1018 322l149 -119q-81 -104 -202.5 -163.5t-262.5 -59.5q-166 0 -304.5 81.5t-218 221t-79.5 305.5q0 167 79.5 306.5t218 220.5t304.5 81q138 0 256 -57.5t205 -159.5l-147 -117q-62 70 -143 110t-171 40q-172 0 -290.5 -123t-118.5 -301q0 -177 118.5 -299.5
t290.5 -122.5q95 0 176.5 41t139.5 115z" />
    <glyph glyph-name="D.sc" horiz-adv-x="1280" 
d="M637 0h-461v1186h461q167 0 290 -79.5t185 -213t62 -303.5q0 -169 -62 -301.5t-185 -210.5t-290 -78zM369 180h268q164 0 253 115t89 295q0 118 -37.5 211t-116 150t-188.5 57h-268v-828z" />
    <glyph glyph-name="E.sc" horiz-adv-x="1021" 
d="M176 1186h721v-176h-526v-336h460v-178h-460v-318h540v-178h-735v1186z" />
    <glyph glyph-name="F.sc" horiz-adv-x="952" 
d="M176 1186h711v-176h-516v-336h407v-178h-407v-496h-195v1186z" />
    <glyph glyph-name="G.sc" horiz-adv-x="1333" 
d="M1114 1026l-137 -127h-2q-54 54 -126.5 84.5t-150.5 30.5q-171 0 -289 -124t-118 -302q0 -176 118 -301t289 -125q143 0 241 75t105 201h-329v166h549q0 -310 -151.5 -467t-414.5 -157q-166 0 -304 81.5t-217 221t-79 305.5q0 167 79 306.5t217 220.5t304 81
q121 0 229 -44.5t187 -125.5z" />
    <glyph glyph-name="H.sc" horiz-adv-x="1259" 
d="M1083 1186v-1186h-196v502h-516v-502h-195v1186h195v-508h516v508h196z" />
    <glyph glyph-name="I.sc" horiz-adv-x="546" 
d="M176 1186h195v-1186h-195v1186z" />
    <glyph glyph-name="J.sc" horiz-adv-x="544" 
d="M-150 -399l17 182q24 -6 69.5 -11t59.5 -5q94 0 137 56t43 146v1217h193v-1217q0 -82 -20.5 -150.5t-63.5 -123.5t-116.5 -86t-172.5 -31q-38 0 -146 23z" />
    <glyph glyph-name="K.sc" horiz-adv-x="1056" 
d="M496 594l561 -594h-256l-430 467v-467h-195v1186h195v-463l352 463h227z" />
    <glyph glyph-name="L.sc" horiz-adv-x="878" 
d="M176 1186h195v-1008h469v-178h-664v1186z" />
    <glyph glyph-name="M.sc" horiz-adv-x="1636" 
d="M815 360l397 826h170l146 -1186h-195l-98 823l-336 -692h-162l-338 692l-100 -823h-190l143 1186h170z" />
    <glyph glyph-name="N.sc" horiz-adv-x="1220" 
d="M1044 0h-180l-493 825v-825h-195v1186h184l492 -815v815h192v-1186z" />
    <glyph glyph-name="O.sc" horiz-adv-x="1398" 
d="M98 588q0 167 78.5 306.5t216 220.5t303.5 81t305 -81t219 -220.5t80 -306.5q0 -166 -80 -305.5t-219 -221t-305 -81.5t-303.5 81.5t-216 221t-78.5 305.5zM291 588q0 -174 117.5 -297t287.5 -123q171 0 290.5 123t119.5 297q0 175 -119.5 297.5t-290.5 122.5
q-170 0 -287.5 -122.5t-117.5 -297.5z" />
    <glyph glyph-name="P.sc" horiz-adv-x="1089" 
d="M176 1186h479q92 0 164.5 -32t115.5 -86.5t65 -120t22 -138.5q0 -75 -22 -141.5t-65 -120.5t-115 -85.5t-165 -31.5h-282v-430h-197v1186zM653 1010h-280v-402h272q89 0 135.5 59.5t46.5 141.5t-44.5 141.5t-129.5 59.5z" />
    <glyph glyph-name="Q.sc" horiz-adv-x="1402" 
d="M1034 80l119 -193l-147 -92l-132 209q-94 -24 -176 -24q-166 0 -304 81.5t-217 221t-79 305.5q0 167 79 306.5t217 220.5t304 81q168 0 307.5 -81t219.5 -220.5t80 -306.5q0 -156 -72.5 -288.5t-198.5 -219.5zM803 451l127 -207q83 56 130.5 146.5t47.5 197.5
q0 178 -119 301t-291 123t-289.5 -122.5t-117.5 -301.5q0 -162 108 -278.5t269 -137.5q54 0 100 4q-16 29 -74 119l-39 63z" />
    <glyph glyph-name="R.sc" horiz-adv-x="1120" 
d="M709 440l309 -440h-236l-293 430h-116v-430h-197v1186h465q92 0 164.5 -32t115.5 -86.5t65 -120t22 -138.5q0 -91 -29.5 -167t-99 -132.5t-170.5 -69.5zM635 1010h-262v-402h254q90 0 135 59.5t45 141.5t-43 141.5t-129 59.5z" />
    <glyph glyph-name="S.sc" horiz-adv-x="1030" 
d="M104 350h195q0 -78 63 -135t162 -57q97 0 152 44t63 109q10 73 -41.5 119.5t-138.5 67.5l-149 39q-293 76 -293 321q0 148 115 243t276 95q170 0 279.5 -97t109.5 -261h-192q0 79 -55.5 128.5t-143.5 49.5q-80 0 -138.5 -44.5t-58.5 -111.5q0 -109 152 -147l149 -39
q173 -46 253.5 -143.5t68.5 -229.5q-17 -140 -130 -230.5t-278 -90.5q-182 0 -301 108.5t-119 261.5z" />
    <glyph glyph-name="T.sc" horiz-adv-x="983" 
d="M47 1186h889v-178h-346v-1008h-197v1008h-346v178z" />
    <glyph glyph-name="U.sc" horiz-adv-x="1212" 
d="M606 166q103 0 176.5 68.5t73.5 175.5v774h193v-774q0 -191 -129.5 -310.5t-313.5 -119.5q-119 0 -219 52t-161.5 151.5t-61.5 226.5v774h196v-774q0 -108 72 -176t174 -68z" />
    <glyph glyph-name="V.sc" horiz-adv-x="1019" 
d="M262 1186l248 -854l248 854h200l-358 -1186h-178l-361 1186h201z" />
    <glyph glyph-name="W.sc" horiz-adv-x="1593" 
d="M1343 1186h209l-403 -1186h-160l-192 686l-191 -686h-162l-401 1186h207l274 -860l199 700h149l197 -700z" />
    <glyph glyph-name="X.sc" horiz-adv-x="1130" 
d="M682 635l414 -635h-234l-297 473l-297 -473h-231l412 637l-369 549h231l254 -391l256 391h230z" />
    <glyph glyph-name="Y.sc" horiz-adv-x="1155" 
d="M676 0h-199v543l-452 643h229l321 -463l324 463h236l-459 -643v-543z" />
    <glyph glyph-name="Z.sc" horiz-adv-x="1042" 
d="M94 160l594 848h-571v178h821v-158l-598 -848h598v-180h-844v160z" />
    <glyph glyph-name="Scaron.sc" horiz-adv-x="1030" 
d="M514 1452l127 143h162l-197 -278h-182l-199 278h162zM104 350h195q0 -78 63 -135t162 -57q97 0 152 44t63 109q10 73 -41.5 119.5t-138.5 67.5l-149 39q-293 76 -293 321q0 148 115 243t276 95q170 0 279.5 -97t109.5 -261h-192q0 79 -55.5 128.5t-143.5 49.5
q-80 0 -138.5 -44.5t-58.5 -111.5q0 -109 152 -147l149 -39q173 -46 253.5 -143.5t68.5 -229.5q-17 -140 -130 -230.5t-278 -90.5q-182 0 -301 108.5t-119 261.5z" />
    <glyph glyph-name="OE.sc" horiz-adv-x="1949" 
d="M1104 1186h719v-185h-525v-327h459v-182h-459v-308h541v-184h-735v154q-78 -81 -183 -127.5t-223 -46.5q-166 0 -303.5 81.5t-216 221t-78.5 305.5q0 167 78.5 306.5t216 220.5t303.5 81q119 0 224 -46.5t182 -127.5v164zM293 588q0 -173 117 -293.5t288 -120.5
q113 0 207 59.5t146.5 157.5t52.5 211q-12 164 -128 283t-278 119q-171 0 -288 -121.5t-117 -294.5z" />
    <glyph glyph-name="Ydieresis.sc" horiz-adv-x="1155" 
d="M315 1462q0 47 34.5 79t82.5 32t81.5 -32t33.5 -79q0 -49 -33.5 -79.5t-81.5 -30.5q-49 0 -83 31t-34 79zM608 1462q0 47 34.5 79t82.5 32t81.5 -32t33.5 -79q0 -49 -33.5 -79.5t-81.5 -30.5q-49 0 -83 31t-34 79zM676 0h-199v543l-452 643h229l321 -463l324 463h236
l-459 -643v-543z" />
    <glyph glyph-name="exclamdown.sc" horiz-adv-x="563" 
d="M166 1098q0 49 34.5 80.5t82.5 31.5q51 0 84.5 -31.5t33.5 -80.5q0 -50 -33.5 -82.5t-84.5 -32.5q-48 0 -82.5 33t-34.5 82zM174 0l27 879h159l29 -879h-215z" />
    <glyph glyph-name="questiondown.sc" horiz-adv-x="870" 
d="M606 342h180q0 -165 -98.5 -263.5t-249.5 -98.5q-152 0 -255 92t-103 243q0 121 69.5 208.5t176.5 121.5q27 9 44 16t30 21t19 24t10.5 36.5t5.5 46.5t3 65h183v-86q0 -123 -56.5 -190t-169.5 -105q-61 -19 -96 -61t-35 -97q0 -65 52 -108t122 -43q69 0 118.5 49.5
t49.5 128.5zM655 1075q0 -54 -37.5 -89.5t-89.5 -35.5q-55 0 -91 35t-36 90q0 53 36 87t91 34q52 0 89.5 -34t37.5 -87z" />
    <glyph glyph-name="Agrave.sc" horiz-adv-x="1167" 
d="M494 1319l-226 278h215l179 -278h-168zM416 467h336l-168 467zM930 0l-113 293h-467l-110 -293h-207l448 1186h205l449 -1186h-205z" />
    <glyph glyph-name="Aacute.sc" horiz-adv-x="1167" 
d="M893 1587l-223 -278h-168l178 278h213zM416 467h336l-168 467zM930 0l-113 293h-467l-110 -293h-207l448 1186h205l449 -1186h-205z" />
    <glyph glyph-name="Acircumflex.sc" horiz-adv-x="1167" 
d="M700 1319l-127 147l-127 -147h-159l196 280h183l198 -280h-164zM416 467h336l-168 467zM930 0l-113 293h-467l-110 -293h-207l448 1186h205l449 -1186h-205z" />
    <glyph glyph-name="Atilde.sc" horiz-adv-x="1167" 
d="M498 1417q-13 0 -25.5 -18.5t-13.5 -55.5h-123q7 109 50 160t103 56q33 0 85 -35t75 -35q14 0 27 16.5t14 53.5h121q-4 -111 -53 -162t-109 -51q-36 0 -85.5 35.5t-65.5 35.5zM416 467h336l-168 467zM930 0l-113 293h-467l-110 -293h-207l448 1186h205l449 -1186h-205z
" />
    <glyph glyph-name="Adieresis.sc" horiz-adv-x="1167" 
d="M307 1462q0 47 34.5 79t82.5 32t81.5 -32t33.5 -79q0 -49 -33.5 -79.5t-81.5 -30.5q-49 0 -83 31t-34 79zM600 1462q0 47 33.5 79t81.5 32q49 0 82.5 -32t33.5 -79q0 -49 -33 -79.5t-83 -30.5q-48 0 -81.5 30.5t-33.5 79.5zM416 467h336l-168 467zM930 0l-113 293h-467
l-110 -293h-207l448 1186h205l449 -1186h-205z" />
    <glyph glyph-name="Aring.sc" horiz-adv-x="1167" 
d="M381 1491q0 84 54.5 138t135.5 54q85 0 140 -54t55 -138q0 -80 -55.5 -135.5t-139.5 -55.5q-79 0 -134.5 55.5t-55.5 135.5zM489 1491q0 -35 24.5 -58.5t57.5 -23.5q37 0 62.5 23.5t25.5 58.5t-25.5 60.5t-62.5 25.5q-33 0 -57.5 -25.5t-24.5 -60.5zM416 467h336
l-168 467zM930 0l-113 293h-467l-110 -293h-207l448 1186h205l449 -1186h-205z" />
    <glyph glyph-name="AE.sc" horiz-adv-x="1656" 
d="M430 289l-184 -289h-232l752 1186h764v-185h-524v-327h456v-182h-456v-308h540v-184h-735v289h-381zM543 475h268v432z" />
    <glyph glyph-name="Ccedilla.sc" horiz-adv-x="1222" 
d="M578 -197q23 -50 73 -34q22 10 29.5 33t-0.5 46l-49 136q-228 25 -379.5 197.5t-151.5 406.5q0 166 79.5 306t218 222t304.5 82q138 0 256 -57.5t205 -159.5l-147 -119q-61 71 -142.5 110.5t-171.5 39.5q-172 0 -290.5 -123t-118.5 -301q0 -177 118.5 -299.5
t290.5 -122.5q93 0 175 42t141 114l149 -117q-163 -202 -419 -223q3 -5 11.5 -20t11.5 -20t10 -18.5t9.5 -20.5t7 -19t6.5 -20.5t3.5 -19.5t1.5 -22q0 -69 -54 -123.5t-130 -54.5q-74 0 -126.5 58.5t-52.5 152.5l127 -9v-16q0 -7 5 -27z" />
    <glyph glyph-name="Egrave.sc" horiz-adv-x="1021" 
d="M176 1186h721v-176h-526v-336h460v-178h-460v-318h540v-178h-735v1186zM487 1319l-225 278h215l178 -278h-168z" />
    <glyph glyph-name="Eacute.sc" horiz-adv-x="1021" 
d="M774 1597l-225 -278h-168l178 278h215zM176 1186h721v-176h-526v-336h460v-178h-460v-318h540v-178h-735v1186z" />
    <glyph glyph-name="Ecircumflex.sc" horiz-adv-x="1021" 
d="M176 1186h721v-176h-526v-336h460v-178h-460v-318h540v-178h-735v1186zM637 1319l-127 147l-127 -147h-162l197 280h184l197 -280h-162z" />
    <glyph glyph-name="Edieresis.sc" horiz-adv-x="1021" 
d="M252 1462q0 47 34.5 79t84.5 32q48 0 81 -32t33 -79q0 -49 -33 -79.5t-81 -30.5q-50 0 -84.5 30.5t-34.5 79.5zM545 1462q0 47 34.5 79t82.5 32t81 -32t33 -79q0 -49 -33 -79.5t-81 -30.5q-49 0 -83 31t-34 79zM176 1186h721v-176h-526v-336h460v-178h-460v-318h540v-178
h-735v1186z" />
    <glyph glyph-name="Igrave.sc" horiz-adv-x="546" 
d="M176 1186h195v-1186h-195v1186zM-29 1599h215l183 -274h-170z" />
    <glyph glyph-name="Iacute.sc" horiz-adv-x="546" 
d="M358 1599h215l-227 -274h-170zM176 1186h195v-1186h-195v1186z" />
    <glyph glyph-name="Icircumflex.sc" horiz-adv-x="546" 
d="M176 1186h195v-1186h-195v1186zM399 1319l-127 147l-127 -147h-161l196 280h185l196 -280h-162z" />
    <glyph glyph-name="Idieresis.sc" horiz-adv-x="546" 
d="M176 1186h195v-1186h-195v1186zM12 1462q0 47 34.5 79t84.5 32q48 0 81.5 -32t33.5 -79q0 -49 -33.5 -79.5t-81.5 -30.5q-50 0 -84.5 30.5t-34.5 79.5zM305 1462q0 47 34.5 79t82.5 32t81.5 -32t33.5 -79q0 -49 -33.5 -79.5t-81.5 -30.5q-49 0 -83 31t-34 79z" />
    <glyph glyph-name="Eth.sc" horiz-adv-x="1282" 
d="M645 0h-457v522h-159v133h159v531h457q166 0 287.5 -79.5t182.5 -213t61 -303.5t-61 -302t-182.5 -210t-287.5 -78zM381 655h264v-133h-264v-336h264q162 0 250 112.5t88 291.5t-88.5 294t-249.5 115h-264v-344z" />
    <glyph glyph-name="Ntilde.sc" horiz-adv-x="1220" 
d="M535 1417q-13 0 -25.5 -18.5t-13.5 -55.5h-123q7 109 50 160t103 56q33 0 85 -35t75 -35q14 0 27 16.5t14 53.5h121q-4 -111 -53 -162t-109 -51q-36 0 -85.5 35.5t-65.5 35.5zM1044 0h-180l-493 825v-825h-195v1186h184l492 -815v815h192v-1186z" />
    <glyph glyph-name="Ograve.sc" horiz-adv-x="1398" 
d="M614 1319l-225 278h213l180 -278h-168zM98 588q0 167 78.5 306.5t216 220.5t303.5 81t305 -81t219 -220.5t80 -306.5q0 -166 -80 -305.5t-219 -221t-305 -81.5t-303.5 81.5t-216 221t-78.5 305.5zM291 588q0 -174 117.5 -297t287.5 -123q171 0 290.5 123t119.5 297
q0 175 -119.5 297.5t-290.5 122.5q-170 0 -287.5 -122.5t-117.5 -297.5z" />
    <glyph glyph-name="Oacute.sc" horiz-adv-x="1398" 
d="M1001 1597l-223 -278h-168l178 278h213zM98 588q0 167 78.5 306.5t216 220.5t303.5 81t305 -81t219 -220.5t80 -306.5q0 -166 -80 -305.5t-219 -221t-305 -81.5t-303.5 81.5t-216 221t-78.5 305.5zM291 588q0 -174 117.5 -297t287.5 -123q171 0 290.5 123t119.5 297
q0 175 -119.5 297.5t-290.5 122.5q-170 0 -287.5 -122.5t-117.5 -297.5z" />
    <glyph glyph-name="Ocircumflex.sc" horiz-adv-x="1398" 
d="M825 1319l-129 147l-125 -147h-161l196 280h182l197 -280h-160zM98 588q0 167 78.5 306.5t216 220.5t303.5 81t305 -81t219 -220.5t80 -306.5q0 -166 -80 -305.5t-219 -221t-305 -81.5t-303.5 81.5t-216 221t-78.5 305.5zM291 588q0 -174 117.5 -297t287.5 -123
q171 0 290.5 123t119.5 297q0 175 -119.5 297.5t-290.5 122.5q-170 0 -287.5 -122.5t-117.5 -297.5z" />
    <glyph glyph-name="Otilde.sc" horiz-adv-x="1398" 
d="M98 588q0 167 78.5 306.5t216 220.5t303.5 81t305 -81t219 -220.5t80 -306.5q0 -166 -80 -305.5t-219 -221t-305 -81.5t-303.5 81.5t-216 221t-78.5 305.5zM291 588q0 -174 117.5 -297t287.5 -123q171 0 290.5 123t119.5 297q0 175 -119.5 297.5t-290.5 122.5
q-170 0 -287.5 -122.5t-117.5 -297.5zM618 1417q-13 0 -25 -18.5t-13 -55.5h-123q7 109 50 160t103 56q33 0 85 -35t75 -35q14 0 27 16.5t14 53.5h121q-4 -111 -53 -162t-109 -51q-36 0 -86 35.5t-66 35.5z" />
    <glyph glyph-name="Odieresis.sc" horiz-adv-x="1398" 
d="M436 1462q0 47 33.5 79t83.5 32q47 0 80 -32t33 -79q0 -49 -32.5 -79.5t-80.5 -30.5q-50 0 -83.5 30.5t-33.5 79.5zM729 1462q0 47 33 79t82 32t81.5 -32t32.5 -79q0 -49 -32 -79.5t-82 -30.5t-82.5 30.5t-32.5 79.5zM98 588q0 167 78.5 306.5t216 220.5t303.5 81
t305 -81t219 -220.5t80 -306.5q0 -166 -80 -305.5t-219 -221t-305 -81.5t-303.5 81.5t-216 221t-78.5 305.5zM291 588q0 -174 117.5 -297t287.5 -123q171 0 290.5 123t119.5 297q0 175 -119.5 297.5t-290.5 122.5q-170 0 -287.5 -122.5t-117.5 -297.5z" />
    <glyph glyph-name="Oslash.sc" horiz-adv-x="1398" 
d="M326 106l-138 -139l-88 88l138 142q-140 169 -140 391q0 167 78.5 306.5t216 220.5t303.5 81q214 0 381 -135l137 137l89 -86l-138 -137q135 -175 135 -387q0 -166 -80 -305.5t-219 -221t-305 -81.5q-206 0 -370 126zM291 588q0 -143 80 -256l573 592q-109 84 -248 84
q-170 0 -287.5 -122.5t-117.5 -297.5zM696 168q171 0 290.5 123t119.5 297q0 138 -76 248l-573 -590q108 -78 239 -78z" />
    <glyph glyph-name="Ugrave.sc" horiz-adv-x="1212" 
d="M565 1319l-225 278h215l178 -278h-168zM606 166q103 0 176.5 68.5t73.5 175.5v776h193v-776q0 -191 -129.5 -310.5t-313.5 -119.5q-119 0 -219 52t-161.5 151.5t-61.5 226.5v776h196v-776q0 -108 72 -176t174 -68z" />
    <glyph glyph-name="Uacute.sc" horiz-adv-x="1212" 
d="M862 1597l-225 -278h-168l180 278h213zM606 166q103 0 176.5 68.5t73.5 175.5v776h193v-776q0 -191 -129.5 -310.5t-313.5 -119.5q-119 0 -219 52t-161.5 151.5t-61.5 226.5v776h196v-776q0 -108 72 -176t174 -68z" />
    <glyph glyph-name="Ucircumflex.sc" horiz-adv-x="1212" 
d="M731 1319l-125 147l-127 -147h-162l197 280h182l197 -280h-162zM606 166q103 0 176.5 68.5t73.5 175.5v776h193v-776q0 -191 -129.5 -310.5t-313.5 -119.5q-119 0 -219 52t-161.5 151.5t-61.5 226.5v776h196v-776q0 -108 72 -176t174 -68z" />
    <glyph glyph-name="Udieresis.sc" horiz-adv-x="1212" 
d="M344 1462q0 47 34.5 79t82.5 32q47 0 79.5 -32t32.5 -79q0 -49 -32 -79.5t-80 -30.5q-49 0 -83 31t-34 79zM635 1462q0 47 34.5 79t82.5 32q49 0 82.5 -32t33.5 -79q0 -49 -33 -79.5t-83 -30.5q-49 0 -83 31t-34 79zM606 166q103 0 176.5 68.5t73.5 175.5v776h193v-776
q0 -191 -129.5 -310.5t-313.5 -119.5q-119 0 -219 52t-161.5 151.5t-61.5 226.5v776h196v-776q0 -108 72 -176t174 -68z" />
    <glyph glyph-name="Yacute.sc" horiz-adv-x="1155" 
d="M848 1597l-225 -278h-168l178 278h215zM676 0h-199v543l-452 643h229l321 -463l324 463h236l-459 -643v-543z" />
    <glyph glyph-name="Thorn.sc" horiz-adv-x="1026" 
d="M582 231h-213v-231h-193v1186h193v-205h213q160 0 266 -102.5t106 -270.5q0 -169 -106 -273t-266 -104zM369 410h211q75 0 128.5 55t53.5 141q0 90 -55 142t-138 57h-200v-395z" />
    <glyph glyph-name="Amacron.sc" horiz-adv-x="1167" 
d="M348 1522h453v-152h-453v152zM416 467h336l-168 467zM930 0l-113 293h-467l-110 -293h-207l448 1186h205l449 -1186h-205z" />
    <glyph glyph-name="Abreve.sc" horiz-adv-x="1167" 
d="M346 1556h141q0 -44 22.5 -70t63.5 -26q40 0 63 29t23 67h146q0 -105 -63.5 -167t-168.5 -62q-115 0 -171 66t-56 163zM416 467h336l-168 467zM930 0l-113 293h-467l-110 -293h-207l448 1186h205l449 -1186h-205z" />
    <glyph glyph-name="Cacute.sc" horiz-adv-x="1220" 
d="M969 1597l-226 -278h-168l181 278h213zM1018 322l149 -119q-81 -104 -202.5 -163.5t-262.5 -59.5q-166 0 -304.5 81.5t-218 221t-79.5 305.5q0 167 79.5 306.5t218 220.5t304.5 81q138 0 256 -57.5t205 -159.5l-147 -117q-62 70 -143 110t-171 40q-172 0 -290.5 -123
t-118.5 -301q0 -177 118.5 -299.5t290.5 -122.5q95 0 176.5 41t139.5 115z" />
    <glyph glyph-name="Ccircumflex.sc" horiz-adv-x="1220" 
d="M825 1319l-129 147l-127 -147h-159l196 280h182l199 -280h-162zM1018 322l149 -119q-81 -104 -202.5 -163.5t-262.5 -59.5q-166 0 -304.5 81.5t-218 221t-79.5 305.5q0 167 79.5 306.5t218 220.5t304.5 81q138 0 256 -57.5t205 -159.5l-147 -117q-62 70 -143 110t-171 40
q-172 0 -290.5 -123t-118.5 -301q0 -177 118.5 -299.5t290.5 -122.5q95 0 176.5 41t139.5 115z" />
    <glyph glyph-name="Cdotaccent.sc" horiz-adv-x="1220" 
d="M559 1477q0 49 34.5 80.5t84.5 31.5t84.5 -31.5t34.5 -80.5t-34.5 -81t-84.5 -32t-84.5 32t-34.5 81zM1018 322l149 -119q-81 -104 -202.5 -163.5t-262.5 -59.5q-166 0 -304.5 81.5t-218 221t-79.5 305.5q0 167 79.5 306.5t218 220.5t304.5 81q138 0 256 -57.5
t205 -159.5l-147 -117q-62 70 -143 110t-171 40q-172 0 -290.5 -123t-118.5 -301q0 -177 118.5 -299.5t290.5 -122.5q95 0 176.5 41t139.5 115z" />
    <glyph glyph-name="Ccaron.sc" horiz-adv-x="1220" 
d="M1018 322l149 -119q-81 -104 -202.5 -163.5t-262.5 -59.5q-166 0 -304.5 81.5t-218 221t-79.5 305.5q0 167 79.5 306.5t218 220.5t304.5 81q138 0 256 -57.5t205 -159.5l-147 -117q-62 70 -143 110t-171 40q-172 0 -290.5 -123t-118.5 -301q0 -177 118.5 -299.5
t290.5 -122.5q95 0 176.5 41t139.5 115zM670 1452l127 143h161l-196 -278h-182l-199 278h162z" />
    <glyph glyph-name="Dcaron.sc" horiz-adv-x="1280" 
d="M651 1452l127 143h162l-197 -278h-182l-199 278h162zM637 0h-461v1186h461q167 0 290 -79.5t185 -213t62 -303.5q0 -169 -62 -301.5t-185 -210.5t-290 -78zM369 180h268q164 0 253 115t89 295q0 118 -37.5 211t-116 150t-188.5 57h-268v-828z" />
    <glyph glyph-name="Aogonek.sc" horiz-adv-x="1167" 
d="M1034 0l-51 -150q-8 -24 -0.5 -46.5t29.5 -32.5q34 -11 58.5 16t19.5 61l124 9q0 -95 -51.5 -153t-126.5 -58q-77 0 -129.5 54t-52.5 124q0 23 8.5 50.5t14.5 41.5t26 50t23 42l-109 285h-467l-110 -293h-207l448 1186h205l449 -1186h-101zM584 934l-168 -467h338z" />
    <glyph glyph-name="Emacron.sc" horiz-adv-x="1021" 
d="M176 1186h721v-176h-526v-336h460v-178h-460v-318h540v-178h-735v1186zM307 1522h453v-152h-453v152z" />
    <glyph glyph-name="Ebreve.sc" horiz-adv-x="1021" 
d="M279 1556h143q0 -44 23 -70t65 -26q39 0 61.5 29t22.5 67h145q0 -105 -62 -167t-167 -62q-113 0 -172 66.5t-59 162.5zM176 1186h721v-176h-526v-336h460v-178h-460v-318h540v-178h-735v1186z" />
    <glyph glyph-name="Edotaccent.sc" horiz-adv-x="1021" 
d="M424 1477q0 49 34.5 80.5t84.5 31.5q52 0 86.5 -31.5t34.5 -80.5t-35 -81t-86 -32q-50 0 -84.5 32t-34.5 81zM176 1186h721v-176h-526v-336h460v-178h-460v-318h540v-178h-735v1186z" />
    <glyph glyph-name="Ecaron.sc" horiz-adv-x="1021" 
d="M176 1186h721v-176h-526v-336h460v-178h-460v-318h540v-178h-735v1186zM532 1452l127 143h162l-196 -278h-183l-198 278h162z" />
    <glyph glyph-name="Gcircumflex.sc" horiz-adv-x="1333" 
d="M1114 1026l-137 -127h-2q-54 54 -126.5 84.5t-150.5 30.5q-171 0 -289 -124t-118 -302q0 -176 118 -301t289 -125q143 0 241 75t105 201h-329v166h549q0 -310 -151.5 -467t-414.5 -157q-166 0 -304 81.5t-217 221t-79 305.5q0 167 79 306.5t217 220.5t304 81
q121 0 229 -44.5t187 -125.5zM819 1319l-127 147l-127 -147h-159l196 280h182l199 -280h-164z" />
    <glyph glyph-name="Gbreve.sc" horiz-adv-x="1333" 
d="M1114 1026l-137 -127h-2q-54 54 -126.5 84.5t-150.5 30.5q-171 0 -289 -124t-118 -302q0 -176 118 -301t289 -125q143 0 241 75t105 201h-329v166h549q0 -310 -151.5 -467t-414.5 -157q-166 0 -304 81.5t-217 221t-79 305.5q0 167 79 306.5t217 220.5t304 81
q121 0 229 -44.5t187 -125.5zM465 1556h141q0 -44 22.5 -70t63.5 -26q40 0 63 29t23 67h146q0 -105 -63.5 -167t-168.5 -62q-115 0 -171 66t-56 163z" />
    <glyph glyph-name="Eogonek.sc" horiz-adv-x="1021" 
d="M795 0h-619v1186h721v-176h-526v-336h460v-178h-460v-318h540v-176l-55 -139q-11 -23 -2.5 -45.5t31.5 -32.5q35 -12 60 17t16 61l126 6q0 -91 -51 -150t-127 -59q-77 0 -128.5 54t-51.5 124q0 55 12 76z" />
    <glyph glyph-name="Dcroat.sc" horiz-adv-x="1282" 
d="M645 0h-457v518h-159v144h159v524h457q166 0 287.5 -79.5t182.5 -213t61 -303.5t-61 -302t-182.5 -210t-287.5 -78zM381 662h264v-144h-264v-332h264q162 0 250 112.5t88 291.5t-88.5 294t-249.5 115h-264v-337z" />
    <glyph glyph-name="Gdotaccent.sc" horiz-adv-x="1333" 
d="M1114 1026l-137 -127h-2q-54 54 -126.5 84.5t-150.5 30.5q-171 0 -289 -124t-118 -302q0 -176 118 -301t289 -125q143 0 241 75t105 201h-329v166h549q0 -310 -151.5 -467t-414.5 -157q-166 0 -304 81.5t-217 221t-79 305.5q0 167 79 306.5t217 220.5t304 81
q121 0 229 -44.5t187 -125.5zM559 1477q0 49 35.5 80.5t85.5 31.5q51 0 85 -31.5t34 -80.5t-34 -81t-85 -32q-50 0 -85.5 32t-35.5 81z" />
    <glyph glyph-name="Hcircumflex.sc" horiz-adv-x="1259" 
d="M1083 1186v-1186h-196v502h-516v-502h-195v1186h195v-508h516v508h196zM756 1319l-127 147l-127 -147h-160l197 280h182l197 -280h-162z" />
    <glyph glyph-name="Hbar.sc" horiz-adv-x="1273" 
d="M1090 985h120v-115h-120v-870h-193v500h-518v-500h-195v870h-116v115h116v201h195v-201h518v201h193v-201zM379 680h518v190h-518v-190z" />
    <glyph glyph-name="Itilde.sc" horiz-adv-x="546" 
d="M176 1186h195v-1186h-195v1186zM197 1417q-13 0 -25.5 -18.5t-13.5 -55.5h-123q7 109 50 160t103 56q33 0 85 -35t75 -35q14 0 27 16.5t14 53.5h121q-4 -111 -53 -162t-109 -51q-36 0 -85.5 35.5t-65.5 35.5z" />
    <glyph glyph-name="Imacron.sc" horiz-adv-x="546" 
d="M176 1186h195v-1186h-195v1186zM47 1522h453v-152h-453v152z" />
    <glyph glyph-name="Iogonek.sc" horiz-adv-x="546" 
d="M176 10v1176h195v-1186h-86l-52 -150q-18 -59 27 -79q34 -12 58.5 15t19.5 62l125 9q0 -92 -52 -151.5t-126 -59.5q-77 0 -130 54t-53 124q0 49 15 76z" />
    <glyph glyph-name="IJ.sc" horiz-adv-x="1091" 
d="M176 1186h195v-1186h-195v1186zM397 -399l17 182q24 -6 69.5 -11t59.5 -5q94 0 137 56t43 146v1217h192v-1217q0 -82 -20.5 -150.5t-63 -123.5t-116 -86t-172.5 -31q-38 0 -146 23z" />
    <glyph glyph-name="Jcircumflex.sc" horiz-adv-x="538" 
d="M387 1319l-129 147l-125 -147h-162l197 280h184l195 -280h-160zM-150 -397l19 176q21 -6 66.5 -11.5t58.5 -5.5q93 0 137.5 58t44.5 149v1215h186v-1215q0 -82 -20 -149.5t-62 -122t-115 -85t-171 -30.5q-45 0 -144 21z" />
    <glyph glyph-name="Lacute.sc" horiz-adv-x="878" 
d="M571 1583l-223 -280h-168l176 280h215zM176 1186h195v-1008h469v-178h-664v1186z" />
    <glyph glyph-name="Lcaron.sc" horiz-adv-x="882" 
d="M604 827l-123 33q80 116 88 240q3 37 0 80h179q-8 -245 -144 -353zM176 1186h195v-1008h469v-178h-664v1186z" />
    <glyph glyph-name="Ldot.sc" horiz-adv-x="878" 
d="M176 1186h195v-1008h469v-178h-664v1186zM502 471q0 44 32 75.5t76 31.5q47 0 80 -31.5t33 -75.5q0 -47 -32.5 -76.5t-80.5 -29.5q-45 0 -76.5 30t-31.5 76z" />
    <glyph glyph-name="Nacute.sc" horiz-adv-x="1220" 
d="M872 1597l-225 -278h-168l178 278h215zM1044 0h-180l-493 825v-825h-195v1186h184l492 -815v815h192v-1186z" />
    <glyph glyph-name="Ncaron.sc" horiz-adv-x="1220" 
d="M606 1452l127 143h160l-195 -278h-184l-197 278h162zM1044 0h-180l-493 825v-825h-195v1186h184l492 -815v815h192v-1186z" />
    <glyph glyph-name="Omacron.sc" horiz-adv-x="1398" 
d="M471 1522h453v-152h-453v152zM98 588q0 167 78.5 306.5t216 220.5t303.5 81t305 -81t219 -220.5t80 -306.5q0 -166 -80 -305.5t-219 -221t-305 -81.5t-303.5 81.5t-216 221t-78.5 305.5zM291 588q0 -174 117.5 -297t287.5 -123q171 0 290.5 123t119.5 297
q0 175 -119.5 297.5t-290.5 122.5q-170 0 -287.5 -122.5t-117.5 -297.5z" />
    <glyph glyph-name="Obreve.sc" horiz-adv-x="1398" 
d="M467 1556h141q0 -43 23.5 -69.5t64.5 -26.5q40 0 63 29t23 67h146q0 -105 -63.5 -167t-168.5 -62q-113 0 -171 66.5t-58 162.5zM98 588q0 167 78.5 306.5t216 220.5t303.5 81t305 -81t219 -220.5t80 -306.5q0 -166 -80 -305.5t-219 -221t-305 -81.5t-303.5 81.5t-216 221
t-78.5 305.5zM291 588q0 -174 117.5 -297t287.5 -123q171 0 290.5 123t119.5 297q0 175 -119.5 297.5t-290.5 122.5q-170 0 -287.5 -122.5t-117.5 -297.5z" />
    <glyph glyph-name="Ohungarumlaut.sc" horiz-adv-x="1398" 
d="M823 1595l-174 -278h-164l156 278h182zM1075 1595l-194 -278h-164l176 278h182zM98 588q0 167 78.5 306.5t216 220.5t303.5 81t305 -81t219 -220.5t80 -306.5q0 -166 -80 -305.5t-219 -221t-305 -81.5t-303.5 81.5t-216 221t-78.5 305.5zM291 588q0 -174 117.5 -297
t287.5 -123q171 0 290.5 123t119.5 297q0 175 -119.5 297.5t-290.5 122.5q-170 0 -287.5 -122.5t-117.5 -297.5z" />
    <glyph glyph-name="Racute.sc" horiz-adv-x="1120" 
d="M768 1597l-223 -278h-168l180 278h211zM709 440l309 -440h-236l-293 430h-116v-430h-197v1186h465q92 0 164.5 -32t115.5 -86.5t65 -120t22 -138.5q0 -91 -29.5 -167t-99 -132.5t-170.5 -69.5zM635 1010h-262v-402h254q90 0 135 59.5t45 141.5t-43 141.5t-129 59.5z" />
    <glyph glyph-name="Rcaron.sc" horiz-adv-x="1120" 
d="M557 1452l127 143h162l-197 -278h-184l-199 278h164zM709 440l309 -440h-236l-293 430h-116v-430h-197v1186h465q92 0 164.5 -32t115.5 -86.5t65 -120t22 -138.5q0 -91 -29.5 -167t-99 -132.5t-170.5 -69.5zM635 1010h-262v-402h254q90 0 135 59.5t45 141.5t-43 141.5
t-129 59.5z" />
    <glyph glyph-name="Sacute.sc" horiz-adv-x="1030" 
d="M772 1597l-225 -278h-168l178 278h215zM104 350h195q0 -78 63 -135t162 -57q97 0 152 44t63 109q10 73 -41.5 119.5t-138.5 67.5l-149 39q-293 76 -293 321q0 148 115 243t276 95q170 0 279.5 -97t109.5 -261h-192q0 79 -55.5 128.5t-143.5 49.5q-80 0 -138.5 -44.5
t-58.5 -111.5q0 -109 152 -147l149 -39q173 -46 253.5 -143.5t68.5 -229.5q-17 -140 -130 -230.5t-278 -90.5q-182 0 -301 108.5t-119 261.5z" />
    <glyph glyph-name="Scircumflex.sc" horiz-adv-x="1030" 
d="M633 1319l-127 147l-127 -147h-162l197 280h184l195 -280h-160zM104 350h195q0 -78 63 -135t162 -57q97 0 152 44t63 109q10 73 -41.5 119.5t-138.5 67.5l-149 39q-293 76 -293 321q0 148 115 243t276 95q170 0 279.5 -97t109.5 -261h-192q0 79 -55.5 128.5t-143.5 49.5
q-80 0 -138.5 -44.5t-58.5 -111.5q0 -109 152 -147l149 -39q173 -46 253.5 -143.5t68.5 -229.5q-17 -140 -130 -230.5t-278 -90.5q-182 0 -301 108.5t-119 261.5z" />
    <glyph glyph-name="Scedilla.sc" horiz-adv-x="1028" 
d="M625 -8q21 -38 31.5 -57.5t21 -52.5t10.5 -60q0 -70 -52.5 -124t-129.5 -54q-74 0 -126 59.5t-52 151.5l127 -9q-8 -33 18 -60t59 -17q22 10 29.5 33t-0.5 46l-55 132q-175 4 -288.5 112.5t-113.5 257.5h195q0 -75 63.5 -133.5t161.5 -58.5q97 0 150.5 42.5t64.5 110.5
q20 132 -180 187l-149 39q-293 76 -293 321q0 147 115 242.5t276 95.5q168 0 277.5 -97.5t109.5 -260.5h-193q0 79 -54 127.5t-142 48.5q-82 0 -140.5 -42.5t-58.5 -113.5q0 -107 154 -145l149 -39q153 -43 232.5 -124.5t87.5 -189.5q8 -136 -77.5 -239.5t-227.5 -128.5z
" />
    <glyph glyph-name="Utilde.sc" horiz-adv-x="1212" 
d="M606 166q103 0 176.5 68.5t73.5 175.5v774h193v-774q0 -191 -129.5 -310.5t-313.5 -119.5q-119 0 -219 52t-161.5 151.5t-61.5 226.5v774h196v-774q0 -108 72 -176t174 -68zM526 1417q-13 0 -25.5 -18.5t-13.5 -55.5h-122q7 109 50 160t103 56q33 0 85 -35t75 -35
q14 0 27 16.5t14 53.5h121q-4 -111 -53 -162t-109 -51q-36 0 -86 35.5t-66 35.5z" />
    <glyph glyph-name="Umacron.sc" horiz-adv-x="1212" 
d="M381 1522h453v-152h-453v152zM606 166q103 0 176.5 68.5t73.5 175.5v774h193v-774q0 -191 -129.5 -310.5t-313.5 -119.5q-119 0 -219 52t-161.5 151.5t-61.5 226.5v774h196v-774q0 -108 72 -176t174 -68z" />
    <glyph glyph-name="Ubreve.sc" horiz-adv-x="1212" 
d="M377 1556h143q0 -44 22.5 -70t63.5 -26q39 0 61.5 29t22.5 67h148q0 -105 -63.5 -167t-168.5 -62q-114 0 -171.5 66.5t-57.5 162.5zM606 166q103 0 176.5 68.5t73.5 175.5v774h193v-774q0 -191 -129.5 -310.5t-313.5 -119.5q-119 0 -219 52t-161.5 151.5t-61.5 226.5v774
h196v-774q0 -108 72 -176t174 -68z" />
    <glyph glyph-name="Uring.sc" horiz-adv-x="1212" 
d="M414 1491q0 84 54.5 138t135.5 54q85 0 140 -54t55 -138q0 -80 -55.5 -135.5t-139.5 -55.5q-79 0 -134.5 55.5t-55.5 135.5zM522 1491q0 -35 24.5 -58.5t57.5 -23.5q36 0 62 23.5t26 58.5t-26.5 60.5t-61.5 25.5q-33 0 -57.5 -25.5t-24.5 -60.5zM606 166
q103 0 176.5 68.5t73.5 175.5v774h193v-774q0 -191 -129.5 -310.5t-313.5 -119.5q-119 0 -219 52t-161.5 151.5t-61.5 226.5v774h196v-774q0 -108 72 -176t174 -68z" />
    <glyph glyph-name="Uhungarumlaut.sc" horiz-adv-x="1212" 
d="M606 166q103 0 176.5 68.5t73.5 175.5v774h193v-774q0 -191 -129.5 -310.5t-313.5 -119.5q-119 0 -219 52t-161.5 151.5t-61.5 226.5v774h196v-774q0 -108 72 -176t174 -68z" />
    <glyph glyph-name="Uogonek.sc" horiz-adv-x="1212" 
d="M492 -160q4 37 16 68l41 76q-166 18 -275.5 134t-109.5 290v774h196v-774q0 -107 72 -175.5t174 -68.5q103 0 176.5 69t73.5 175v774h193v-774q0 -173 -109.5 -290.5t-273.5 -135.5q-8 -26 -26 -71.5t-24 -64.5q-8 -24 -0.5 -46.5t29.5 -32.5q34 -12 58.5 15t19.5 62
l127 9q0 -96 -52.5 -153.5t-125.5 -57.5q-76 0 -130.5 54.5t-54.5 123.5z" />
    <glyph glyph-name="Wcircumflex.sc" horiz-adv-x="1593" 
d="M924 1319l-127 147l-127 -147h-162l197 280h182l198 -280h-161zM1343 1186h209l-403 -1186h-160l-192 686l-191 -686h-162l-401 1186h207l274 -860l199 700h149l197 -700z" />
    <glyph glyph-name="Ycircumflex.sc" horiz-adv-x="1155" 
d="M705 1319l-130 147l-124 -147h-160l194 280h185l196 -280h-161zM676 0h-199v543l-452 643h229l321 -463l324 463h236l-459 -643v-543z" />
    <glyph glyph-name="Tcaron.sc" horiz-adv-x="985" 
d="M494 1452l127 143h161l-198 -278h-183l-196 278h162zM578 1026v-1026h-172v1026h-363v170h899v-170h-364z" />
    <glyph glyph-name="Tbar.sc" horiz-adv-x="962" 
d="M567 717h230v-117h-230v-600h-172v600h-225v117h225v309h-362v170h899v-170h-365v-309z" />
    <glyph glyph-name="Zacute.sc" horiz-adv-x="1042" 
d="M94 160l594 848h-571v178h821v-158l-598 -848h598v-180h-844v160zM786 1597l-227 -278h-168l180 278h215z" />
    <glyph glyph-name="Zdotaccent.sc" horiz-adv-x="1042" 
d="M94 160l594 848h-571v178h821v-158l-598 -848h598v-180h-844v160zM401 1477q0 49 35.5 80.5t85.5 31.5q51 0 85 -31.5t34 -80.5t-34 -81t-85 -32q-50 0 -85.5 32t-35.5 81z" />
    <glyph glyph-name="Wgrave.sc" horiz-adv-x="1593" 
d="M668 1319l-228 278h215l181 -278h-168zM1343 1186h209l-403 -1186h-160l-192 686l-191 -686h-162l-401 1186h207l274 -860l199 700h149l197 -700z" />
    <glyph glyph-name="Wacute.sc" horiz-adv-x="1593" 
d="M1153 1597l-227 -278h-168l180 278h215zM1343 1186h209l-403 -1186h-160l-192 686l-191 -686h-162l-401 1186h207l274 -860l199 700h149l197 -700z" />
    <glyph glyph-name="Wdieresis.sc" horiz-adv-x="1593" 
d="M535 1462q0 47 34 79t82 32t81.5 -32t33.5 -79q0 -49 -33.5 -79.5t-81.5 -30.5t-82 31t-34 79zM825 1462q0 47 34.5 79t84.5 32q48 0 81.5 -32t33.5 -79q0 -49 -33.5 -79.5t-81.5 -30.5q-50 0 -84.5 30.5t-34.5 79.5zM1343 1186h209l-403 -1186h-160l-192 686l-191 -686
h-162l-401 1186h207l274 -860l199 700h149l197 -700z" />
    <glyph glyph-name="Aringacute.sc" horiz-adv-x="1167" 
d="M862 1880l-184 -229q41 -25 65.5 -69t24.5 -95q0 -79 -57.5 -135t-139.5 -56q-79 0 -133.5 55.5t-54.5 135.5q0 65 36.5 115t94.5 69q54 94 133 209h215zM492 1487q0 -35 23 -58.5t56 -23.5q38 0 64.5 23.5t26.5 58.5t-26.5 60.5t-64.5 25.5q-32 0 -55.5 -25.5
t-23.5 -60.5zM416 467h336l-168 467zM930 0l-113 293h-467l-110 -293h-207l448 1186h205l449 -1186h-205z" />
    <glyph glyph-name="AEacute.sc" horiz-adv-x="1656" 
d="M1196 1597l-225 -278h-168l180 278h213zM430 289l-184 -289h-232l752 1186h764v-185h-524v-327h456v-182h-456v-308h540v-184h-735v289h-381zM543 475h268v432z" />
    <glyph glyph-name="Oslashacute.sc" horiz-adv-x="1398" 
d="M995 1597l-227 -278h-166l178 278h215zM326 106l-138 -139l-88 88l138 142q-140 169 -140 391q0 167 78.5 306.5t216 220.5t303.5 81q214 0 381 -135l137 137l89 -86l-138 -137q135 -175 135 -387q0 -166 -80 -305.5t-219 -221t-305 -81.5q-206 0 -370 126zM291 588
q0 -143 80 -256l573 592q-109 84 -248 84q-170 0 -287.5 -122.5t-117.5 -297.5zM696 168q171 0 290.5 123t119.5 297q0 138 -76 248l-573 -590q108 -78 239 -78z" />
    <glyph glyph-name="Ibreve.sc" horiz-adv-x="546" 
d="M176 1186h195v-1186h-195v1186zM43 1556h143q0 -44 22.5 -70t63.5 -26q39 0 61.5 29t22.5 67h148q0 -105 -63.5 -167t-168.5 -62q-114 0 -171.5 66.5t-57.5 162.5z" />
    <glyph glyph-name="Eng.sc" horiz-adv-x="1216" 
d="M367 819v-819h-191v1186h182l488 -819v819h194v-1170q0 -428 -372 -428q-69 0 -146 23l17 190q14 -2 48.5 -7.5t51.5 -8.5q62 -3 96 12q57 18 84 68t27 117q0 40 -19 71z" />
    <glyph glyph-name="Ygrave.sc" horiz-adv-x="1155" 
d="M516 1319l-225 278h213l180 -278h-168zM676 0h-199v543l-452 643h229l321 -463l324 463h236l-459 -643v-543z" />
    <glyph glyph-name="Gcommaaccent.sc" horiz-adv-x="1333" 
d="M1114 1026l-137 -127h-2q-54 54 -126.5 84.5t-150.5 30.5q-171 0 -289 -124t-118 -302q0 -176 118 -301t289 -125q143 0 241 75t105 201h-329v166h549q0 -310 -151.5 -467t-414.5 -157q-166 0 -304 81.5t-217 221t-79 305.5q0 167 79 306.5t217 220.5t304 81
q121 0 229 -44.5t187 -125.5zM629 -451l-109 41q54 76 73.5 146t6.5 166h170q0 -234 -141 -353z" />
    <glyph glyph-name="Kcommaaccent.sc" horiz-adv-x="1056" 
d="M496 594l561 -594h-256l-430 467v-467h-195v1186h195v-463l352 463h227zM500 -451l-109 41q54 76 73.5 146t6.5 166h170q0 -234 -141 -353z" />
    <glyph glyph-name="Lcommaaccent.sc" horiz-adv-x="878" 
d="M176 1186h195v-1008h469v-178h-664v1186zM442 -451l-108 41q54 76 73.5 146t6.5 166h170q0 -233 -142 -353z" />
    <glyph glyph-name="Ncommaaccent.sc" horiz-adv-x="1220" 
d="M1044 0h-180l-493 823v-823h-195v1186h184l492 -813v813h192v-1186zM547 -451l-109 41q54 76 73.5 146t6.5 166h170q0 -234 -141 -353z" />
    <glyph glyph-name="Rcommaaccent.sc" horiz-adv-x="1120" 
d="M709 440l309 -440h-236l-293 430h-116v-430h-197v1186h465q92 0 164.5 -32t115.5 -86.5t65 -120t22 -138.5q0 -91 -29.5 -167t-99 -132.5t-170.5 -69.5zM635 1010h-262v-402h254q90 0 135 59.5t45 141.5t-43 141.5t-129 59.5zM496 -451l-109 41q54 76 73.5 146t6.5 166
h170q0 -234 -141 -353z" />
    <glyph glyph-name="Tcommaaccent.sc" horiz-adv-x="983" 
d="M47 1186h889v-178h-346v-1008h-197v1008h-346v178zM436 -451l-108 41q54 76 73.5 146t6.5 166h170q0 -233 -142 -353z" />
    <glyph glyph-name="Scommaaccent.sc" horiz-adv-x="1030" 
d="M104 350h195q0 -78 63 -135t162 -57q97 0 152 44t63 109q10 73 -41.5 119.5t-138.5 67.5l-149 39q-293 76 -293 321q0 148 115 243t276 95q170 0 279.5 -97t109.5 -261h-192q0 79 -55.5 128.5t-143.5 49.5q-80 0 -138.5 -44.5t-58.5 -111.5q0 -109 152 -147l149 -39
q173 -46 253.5 -143.5t68.5 -229.5q-17 -140 -130 -230.5t-278 -90.5q-182 0 -301 108.5t-119 261.5zM469 -451l-109 41q54 76 73.5 146t6.5 166h170q0 -234 -141 -353z" />
    <glyph glyph-name="Idotaccent.sc" horiz-adv-x="546" 
d="M176 1186h195v-1186h-195v1186zM156 1477q0 49 35 80.5t85 31.5q51 0 85 -31.5t34 -80.5t-34 -81t-85 -32q-50 0 -85 32t-35 81z" />
    <glyph glyph-name="zero.numr" horiz-adv-x="739" 
d="M78 936q0 92 13.5 163t45.5 129.5t90.5 90t141.5 31.5q68 0 119.5 -21.5t84 -57.5t53 -90t28.5 -113t8 -132q0 -70 -8 -127.5t-28.5 -111t-52.5 -90t-84 -58t-120 -21.5q-291 0 -291 408zM209 936q0 -279 160 -279q47 0 79.5 21.5t49.5 61.5t24.5 87.5t7.5 108.5
q0 85 -12.5 144t-49.5 99t-99 40q-160 0 -160 -283z" />
    <glyph glyph-name="one.numr" horiz-adv-x="428" 
d="M186 541v608l-137 -68v123l270 144v-807h-133z" />
    <glyph glyph-name="two.numr" horiz-adv-x="651" 
d="M70 604l321 389q53 67 53 117q0 49 -36.5 81t-90.5 32q-52 0 -89.5 -34t-47.5 -93l-119 28q17 103 88 164.5t170 61.5q107 0 180.5 -68t73.5 -172q0 -111 -86 -207l-200 -233h284v-129h-501v63z" />
    <glyph glyph-name="three.numr" horiz-adv-x="653" 
d="M186 1155q-12 9 -50 38t-50 38q36 58 100 90.5t138 28.5q100 -4 163.5 -70t63.5 -154q0 -93 -88 -155q56 -26 88 -77.5t31 -123.5q-4 -113 -85.5 -176.5t-199.5 -63.5q-77 2 -149.5 47t-104.5 115l113 62q18 -38 62 -64t87 -28q57 -1 95.5 30t43.5 82q2 50 -29.5 89.5
t-92.5 39.5h-107v123h94q40 0 65 26t32 58q5 45 -24 78t-83 33q-65 0 -113 -66z" />
    <glyph glyph-name="four.numr" horiz-adv-x="731" 
d="M567 705v-164h-133v164h-403l426 632h110v-512h111v-120h-111zM244 825h190v291z" />
    <glyph glyph-name="five.numr" horiz-adv-x="692" 
d="M162 770q23 -53 69.5 -83t98.5 -30q77 0 124.5 42t47.5 104q0 67 -45 102t-107 35q-98 0 -213 -72l-51 47l70 422h424v-125h-316l-33 -180q55 31 134 31q112 0 189 -68.5t77 -191.5q0 -125 -82.5 -200t-218.5 -75q-86 0 -162 44.5t-117 121.5q13 9 55.5 38t55.5 38z" />
    <glyph glyph-name="six.numr" horiz-adv-x="692" 
d="M616 1186l-120 -49q-42 86 -121 86q-78 0 -123.5 -74.5t-40.5 -185.5q24 43 66.5 68.5t95.5 25.5q104 0 178 -81t70 -196q-5 -110 -83 -184t-192 -70q-112 5 -184 77t-82 198q-5 52 -1.5 113t9.5 122.5t27.5 118t52.5 99.5t85 68t124 24q80 -5 138.5 -39t100.5 -121z
M219 797q0 -59 38.5 -98.5t94.5 -41.5t95 36t40 95q4 56 -33 97t-92 43q-59 1 -98.5 -36t-44.5 -95z" />
    <glyph glyph-name="seven.numr" horiz-adv-x="649" 
d="M635 1337l-418 -796h-151l350 669h-350v127h569z" />
    <glyph glyph-name="eight.numr" horiz-adv-x="700" 
d="M127 1137q0 91 63.5 152t159.5 61q97 0 161 -61t64 -152q0 -80 -59 -136q54 -33 85.5 -88t31.5 -120q0 -110 -82.5 -187.5t-200.5 -77.5q-119 0 -200.5 77t-81.5 188q0 137 114 208q-55 58 -55 136zM199 795q0 -58 43 -98t108 -40q63 0 107.5 40.5t44.5 97.5
q0 56 -44.5 99.5t-105.5 43.5h-12q-58 0 -99.5 -43.5t-41.5 -99.5zM258 1137q0 -38 26.5 -65.5t67.5 -27.5q41 4 66.5 30.5t25.5 62.5t-26.5 61t-67.5 25q-40 0 -66 -25t-26 -61z" />
    <glyph glyph-name="nine.numr" horiz-adv-x="692" 
d="M74 688l121 51q43 -88 120 -88q79 0 121.5 73t42.5 187q-24 -43 -66.5 -68.5t-95.5 -25.5q-104 0 -177.5 80.5t-69.5 196.5q5 110 82.5 184t191.5 70q111 -5 183.5 -77.5t82.5 -197.5q7 -51 3.5 -111.5t-9.5 -122t-28.5 -119t-54 -101t-85.5 -68.5t-123 -23
q-38 3 -68.5 10.5t-63.5 24t-60 48t-47 77.5zM471 1077q0 59 -38.5 98.5t-94.5 41.5q-56 4 -94.5 -35t-40.5 -97q-4 -56 33 -96.5t92 -42.5q59 0 98.5 36.5t44.5 94.5z" />
    <glyph glyph-name="zero.dnom" horiz-adv-x="739" 
d="M78 397q0 91 13.5 162t45.5 129t90.5 89.5t141.5 31.5q68 0 119.5 -21.5t84 -57.5t53 -89.5t28.5 -112.5t8 -131q0 -71 -8 -129t-28.5 -111t-53 -89t-84 -57t-119.5 -21q-83 0 -141.5 31t-90.5 89t-45.5 127.5t-13.5 159.5zM209 397q0 -278 160 -278q62 0 99 38.5
t49.5 96.5t12.5 143q0 62 -7.5 109.5t-24.5 88t-49.5 62t-79.5 21.5q-160 0 -160 -281z" />
    <glyph glyph-name="one.dnom" horiz-adv-x="428" 
d="M186 0v608l-137 -67v123l270 143v-807h-133z" />
    <glyph glyph-name="two.dnom" horiz-adv-x="653" 
d="M72 66l321 387q53 67 53 116t-36.5 81t-90.5 32q-52 0 -89.5 -34t-47.5 -93l-119 29q17 103 88.5 164t170.5 61q107 0 180 -68t73 -172q0 -108 -86 -207l-200 -233h284v-129h-501v66z" />
    <glyph glyph-name="three.dnom" horiz-adv-x="653" 
d="M186 614q-11 9 -49.5 38t-50.5 38q36 58 100 90.5t138 28.5q100 -4 163.5 -69.5t63.5 -153.5q0 -94 -88 -156q56 -26 88 -77t31 -122q-4 -114 -86.5 -179t-198.5 -60q-76 2 -149 47t-105 113l55 30t58 33q18 -40 61.5 -66t87.5 -28q57 0 95.5 31t43.5 81q2 52 -29 90.5
t-93 38.5h-107v123h94q40 0 65 26t32 58q5 45 -24 78t-83 33q-65 0 -113 -66z" />
    <glyph glyph-name="four.dnom" horiz-adv-x="731" 
d="M567 164v-164h-133v164h-403l426 635h110v-514h111v-121h-111zM244 285h190v293z" />
    <glyph glyph-name="five.dnom" horiz-adv-x="692" 
d="M162 229q23 -53 69 -82.5t99 -29.5q77 0 124.5 42.5t47.5 104.5q0 65 -45.5 100t-106.5 35q-99 0 -213 -71l-51 47l70 422h424v-125h-316l-33 -178q61 28 134 28q112 0 189 -68t77 -190q0 -125 -82.5 -200.5t-218.5 -75.5q-86 0 -162 44.5t-117 121.5q13 9 56 37.5
t55 37.5z" />
    <glyph glyph-name="six.dnom" horiz-adv-x="692" 
d="M616 645l-120 -49q-42 86 -121 86q-78 0 -123.5 -74.5t-40.5 -185.5q23 44 65.5 69t96.5 25q104 0 178 -80t70 -194q-5 -112 -83 -186t-192 -70q-111 5 -183.5 78t-82.5 196q0 45 -2 96t5.5 104.5t17.5 104t33.5 95.5t54.5 78t79.5 51.5t108.5 17.5q79 -5 138 -39.5
t101 -122.5zM219 256q0 -57 38.5 -97t94.5 -42q55 -1 94 37t41 94q4 59 -33 98t-92 41q-59 1 -98.5 -36t-44.5 -95z" />
    <glyph glyph-name="seven.dnom" horiz-adv-x="647" 
d="M635 799l-418 -799h-151l350 670h-350v129h569z" />
    <glyph glyph-name="eight.dnom" horiz-adv-x="700" 
d="M127 596q0 91 63.5 152t159.5 61q97 0 161 -61t64 -152q0 -76 -59 -135q55 -33 86 -87.5t31 -121.5q0 -110 -82 -186t-201 -76q-120 0 -201 75.5t-81 186.5q0 138 114 209q-55 58 -55 135zM199 254q0 -58 43 -97.5t108 -39.5q63 0 107.5 40t44.5 97q0 56 -44.5 99.5
t-105.5 43.5h-12q-59 0 -100 -43t-41 -100zM258 596q0 -38 26 -65t68 -27q41 4 66.5 30t25.5 62t-26.5 61t-67.5 25q-40 0 -66 -25t-26 -61z" />
    <glyph glyph-name="nine.dnom" horiz-adv-x="690" 
d="M74 147l121 52q42 -86 120 -86t121 73.5t43 184.5q-24 -44 -66.5 -69.5t-95.5 -25.5q-104 0 -177.5 80.5t-69.5 196.5q5 112 82.5 185t191.5 69q111 -5 183.5 -77.5t82.5 -197.5q2 -45 4 -95.5t-5.5 -103.5t-18.5 -103.5t-34.5 -95t-55 -78t-80 -52t-107.5 -16.5
q-79 5 -140 39.5t-99 119.5zM471 537q0 60 -38.5 99.5t-94.5 39.5q-56 4 -94.5 -34t-40.5 -95q-4 -59 33 -99t92 -40q59 -1 98.5 35t44.5 94z" />
    <glyph glyph-name="l.alt1" horiz-adv-x="589" 
d="M588 197v-197h-103q-348 0 -348 412v1065h213v-1065q0 -34 3 -60.5t12.5 -57t26 -50.5t47 -33.5t71.5 -13.5h78z" />
    <glyph glyph-name="a.alt1" horiz-adv-x="1099" 
d="M453 172q49 0 101 9.5t111 39.5t87 76v72q-134 55 -256 55q-62 0 -105.5 -14t-64.5 -36.5t-30 -44.5t-9 -46q0 -50 41.5 -80.5t124.5 -30.5zM242 655l-121 129q137 193 405 193q207 0 322 -104t115 -302v-571h-209v104q-98 -124 -310 -124q-167 0 -265.5 81t-98.5 222
q0 65 22.5 118.5t69.5 97t128.5 67.5t191.5 24q129 0 262 -62v43q0 96 -64 155.5t-178 59.5q-75 0 -149.5 -35.5t-120.5 -95.5z" />
    <glyph glyph-name="y.alt1" horiz-adv-x="1038" 
d="M348 -90l60 133l-379 913h225l266 -659l266 659h228l-473 -1126q-76 -171 -158 -239t-231 -68q-51 0 -123 16v182q47 -8 121 -8q39 0 68 12.5t52 41t39.5 60t38.5 83.5z" />
    <glyph glyph-name="lslash.alt1" horiz-adv-x="616" 
d="M610 197v-197h-102q-348 0 -348 412v213l-131 -84v147l131 82v707h213v-572l176 113v-146l-176 -112v-348q0 -34 2.5 -60.5t12.5 -57t26.5 -50.5t46.5 -33.5t71 -13.5h78z" />
    <glyph glyph-name="lacute.alt1" horiz-adv-x="589" 
d="M356 1901h238l-258 -324h-184zM588 197v-197h-103q-348 0 -348 412v1065h213v-1065q0 -34 3 -60.5t12.5 -57t26 -50.5t47 -33.5t71.5 -13.5h78z" />
    <glyph glyph-name="lcommaaccent.alt1" horiz-adv-x="589" 
d="M350 -530l-123 47q63 85 85.5 162.5t15.5 203.5h198q-7 -276 -176 -413zM588 197v-197h-103q-348 0 -348 412v1065h213v-1065q0 -34 3 -60.5t12.5 -57t26 -50.5t47 -33.5t71.5 -13.5h78z" />
    <glyph glyph-name="lcaron.alt1" horiz-adv-x="589" 
d="M559 1047l-131 43q64 85 90 173t19 214h198q-8 -292 -176 -430zM588 197v-197h-103q-348 0 -348 412v1065h213v-1065q0 -34 3 -60.5t12.5 -57t26 -50.5t47 -33.5t71.5 -13.5h78z" />
    <glyph glyph-name="aacute.alt1" horiz-adv-x="1099" 
d="M629 1430h237l-258 -324h-184zM453 172q49 0 101 9.5t111 39.5t87 76v72q-134 55 -256 55q-62 0 -105.5 -14t-64.5 -36.5t-30 -44.5t-9 -46q0 -50 41.5 -80.5t124.5 -30.5zM242 655l-121 129q137 193 405 193q207 0 322 -104t115 -302v-571h-209v104q-98 -124 -310 -124
q-167 0 -265.5 81t-98.5 222q0 65 22.5 118.5t69.5 97t128.5 67.5t191.5 24q129 0 262 -62v43q0 96 -64 155.5t-178 59.5q-75 0 -149.5 -35.5t-120.5 -95.5z" />
    <glyph glyph-name="agrave.alt1" horiz-adv-x="1099" 
d="M190 1430h238l205 -324h-184zM453 172q49 0 101 9.5t111 39.5t87 76v72q-134 55 -256 55q-62 0 -105.5 -14t-64.5 -36.5t-30 -44.5t-9 -46q0 -50 41.5 -80.5t124.5 -30.5zM242 655l-121 129q137 193 405 193q207 0 322 -104t115 -302v-571h-209v104q-98 -124 -310 -124
q-167 0 -265.5 81t-98.5 222q0 65 22.5 118.5t69.5 97t128.5 67.5t191.5 24q129 0 262 -62v43q0 96 -64 155.5t-178 59.5q-75 0 -149.5 -35.5t-120.5 -95.5z" />
    <glyph glyph-name="acircumflex.alt1" horiz-adv-x="1099" 
d="M426 1432h213l225 -324h-178l-156 180l-153 -180h-176zM453 172q49 0 101 9.5t111 39.5t87 76v72q-134 55 -256 55q-62 0 -105.5 -14t-64.5 -36.5t-30 -44.5t-9 -46q0 -50 41.5 -80.5t124.5 -30.5zM242 655l-121 129q137 193 405 193q207 0 322 -104t115 -302v-571h-209
v104q-98 -124 -310 -124q-167 0 -265.5 81t-98.5 222q0 65 22.5 118.5t69.5 97t128.5 67.5t191.5 24q129 0 262 -62v43q0 96 -64 155.5t-178 59.5q-75 0 -149.5 -35.5t-120.5 -95.5z" />
    <glyph glyph-name="adieresis.alt1" horiz-adv-x="1099" 
d="M221 1274q0 54 38.5 89.5t94.5 35.5q54 0 91.5 -35.5t37.5 -89.5t-37.5 -90.5t-91.5 -36.5q-56 0 -94.5 36.5t-38.5 90.5zM571 1274q0 53 39 89t95 36q55 0 93 -36t38 -89q0 -54 -38.5 -90.5t-92.5 -36.5q-56 0 -95 36.5t-39 90.5zM453 172q49 0 101 9.5t111 39.5t87 76
v72q-134 55 -256 55q-62 0 -105.5 -14t-64.5 -36.5t-30 -44.5t-9 -46q0 -50 41.5 -80.5t124.5 -30.5zM242 655l-121 129q137 193 405 193q207 0 322 -104t115 -302v-571h-209v104q-98 -124 -310 -124q-167 0 -265.5 81t-98.5 222q0 65 22.5 118.5t69.5 97t128.5 67.5
t191.5 24q129 0 262 -62v43q0 96 -64 155.5t-178 59.5q-75 0 -149.5 -35.5t-120.5 -95.5z" />
    <glyph glyph-name="atilde.alt1" horiz-adv-x="1099" 
d="M442 1227q-21 0 -37.5 -22t-17.5 -68h-133q7 128 61.5 186.5t126.5 58.5q40 0 74.5 -21t61 -42t45.5 -21q21 0 38.5 19.5t18.5 64.5h131q-7 -127 -61 -183t-127 -56q-39 0 -73.5 21t-61.5 42t-46 21zM453 172q49 0 101 9.5t111 39.5t87 76v72q-134 55 -256 55
q-62 0 -105.5 -14t-64.5 -36.5t-30 -44.5t-9 -46q0 -50 41.5 -80.5t124.5 -30.5zM242 655l-121 129q137 193 405 193q207 0 322 -104t115 -302v-571h-209v104q-98 -124 -310 -124q-167 0 -265.5 81t-98.5 222q0 65 22.5 118.5t69.5 97t128.5 67.5t191.5 24q129 0 262 -62v43
q0 96 -64 155.5t-178 59.5q-75 0 -149.5 -35.5t-120.5 -95.5z" />
    <glyph glyph-name="aring.alt1" horiz-adv-x="1099" 
d="M315 1307q0 96 64.5 161.5t157.5 65.5q96 0 161.5 -65.5t65.5 -161.5q0 -92 -66 -157t-161 -65q-92 0 -157 65t-65 157zM430 1307q0 -43 31.5 -75t75.5 -32q47 0 79.5 32t32.5 75q0 47 -32.5 79.5t-79.5 32.5q-44 0 -75.5 -32.5t-31.5 -79.5zM453 172q49 0 101 9.5
t111 39.5t87 76v72q-134 55 -256 55q-62 0 -105.5 -14t-64.5 -36.5t-30 -44.5t-9 -46q0 -50 41.5 -80.5t124.5 -30.5zM242 655l-121 129q137 193 405 193q207 0 322 -104t115 -302v-571h-209v104q-98 -124 -310 -124q-167 0 -265.5 81t-98.5 222q0 65 22.5 118.5t69.5 97
t128.5 67.5t191.5 24q129 0 262 -62v43q0 96 -64 155.5t-178 59.5q-75 0 -149.5 -35.5t-120.5 -95.5z" />
    <glyph glyph-name="amacron.alt1" horiz-adv-x="1099" 
d="M264 1171v166h529v-166h-529zM453 172q49 0 101 9.5t111 39.5t87 76v72q-134 55 -256 55q-62 0 -105.5 -14t-64.5 -36.5t-30 -44.5t-9 -46q0 -50 41.5 -80.5t124.5 -30.5zM242 655l-121 129q137 193 405 193q207 0 322 -104t115 -302v-571h-209v104q-98 -124 -310 -124
q-167 0 -265.5 81t-98.5 222q0 65 22.5 118.5t69.5 97t128.5 67.5t191.5 24q129 0 262 -62v43q0 96 -64 155.5t-178 59.5q-75 0 -149.5 -35.5t-120.5 -95.5z" />
    <glyph glyph-name="abreve.alt1" horiz-adv-x="1099" 
d="M262 1380h158q0 -55 28.5 -85.5t81.5 -30.5q51 0 81 35t30 81h160q0 -122 -73.5 -192t-197.5 -70q-133 0 -200.5 75t-67.5 187zM453 172q49 0 101 9.5t111 39.5t87 76v72q-134 55 -256 55q-62 0 -105.5 -14t-64.5 -36.5t-30 -44.5t-9 -46q0 -50 41.5 -80.5t124.5 -30.5z
M242 655l-121 129q137 193 405 193q207 0 322 -104t115 -302v-571h-209v104q-98 -124 -310 -124q-167 0 -265.5 81t-98.5 222q0 65 22.5 118.5t69.5 97t128.5 67.5t191.5 24q129 0 262 -62v43q0 96 -64 155.5t-178 59.5q-75 0 -149.5 -35.5t-120.5 -95.5z" />
    <glyph glyph-name="aogonek.alt1" horiz-adv-x="1099" 
d="M242 655l-121 129q137 193 405 193q207 0 322 -104t115 -302v-571h-84l-62 -170q-11 -30 -1 -59.5t40 -42.5q30 -8 57 4t39 41q6 12 6 30v17l138 8q0 -103 -62.5 -170.5t-144.5 -67.5q-91 0 -151 63t-60 144q0 55 16 90l62 113h-2v104q-98 -124 -310 -124
q-167 0 -265.5 81t-98.5 222q0 65 22.5 118.5t69.5 97t128.5 67.5t191.5 24q129 0 262 -62v43q0 96 -64 155.5t-178 59.5q-75 0 -149.5 -35.5t-120.5 -95.5zM453 172q49 0 101 9.5t111 39.5t87 76v72q-134 55 -256 55q-62 0 -105.5 -14t-64.5 -36.5t-30 -44.5t-9 -46
q0 -50 41.5 -80.5t124.5 -30.5z" />
    <glyph glyph-name="yacute.alt1" horiz-adv-x="1038" 
d="M616 1430h238l-258 -324h-184zM348 -90l60 133l-379 913h225l266 -659l266 659h228l-473 -1126q-76 -171 -158 -239t-231 -68q-51 0 -123 16v182q47 -8 121 -8q39 0 68 12.5t52 41t39.5 60t38.5 83.5z" />
    <glyph glyph-name="ydieresis.alt1" horiz-adv-x="1038" 
d="M215 1294q0 54 38.5 89.5t94.5 35.5q54 0 91.5 -35.5t37.5 -89.5t-37.5 -90.5t-91.5 -36.5q-56 0 -94.5 36.5t-38.5 90.5zM565 1294q0 54 38.5 89.5t94.5 35.5q55 0 93 -36t38 -89q0 -54 -38.5 -90.5t-92.5 -36.5q-56 0 -94.5 36.5t-38.5 90.5zM348 -90l60 133l-379 913
h225l266 -659l266 659h228l-473 -1126q-76 -171 -158 -239t-231 -68q-51 0 -123 16v182q47 -8 121 -8q39 0 68 12.5t52 41t39.5 60t38.5 83.5z" />
    <glyph glyph-name="ae.alt1" horiz-adv-x="1800" 
d="M963 63v-63h-209v104q-98 -124 -310 -124q-167 0 -265.5 81t-98.5 222q0 65 22.5 118.5t69.5 97t128.5 67.5t191.5 24q129 0 262 -62v43q0 96 -64 155.5t-178 59.5q-72 0 -148 -35.5t-122 -95.5l-121 129q137 193 405 193q246 0 359 -146q143 146 360 146
q207 0 343 -136.5t136 -359.5q0 -55 -2 -78h-759q17 -110 96 -174.5t196 -64.5q82 0 153.5 36.5t107.5 100.5l172 -76q-59 -121 -179.5 -183t-263.5 -62q-161 0 -282 83zM963 557h555q-17 112 -90 174t-183 62q-111 0 -188 -63.5t-94 -172.5zM453 172q49 0 101 9.5t111 39.5
t87 76v72q-115 37 -256 37q-118 0 -163.5 -36t-45.5 -87q0 -50 41.5 -80.5t124.5 -30.5z" />
    <glyph glyph-name="aeacute.alt1" horiz-adv-x="1800" 
d="M999 1430h238l-258 -324h-184zM963 63v-63h-209v104q-98 -124 -310 -124q-167 0 -265.5 81t-98.5 222q0 65 22.5 118.5t69.5 97t128.5 67.5t191.5 24q129 0 262 -62v43q0 96 -64 155.5t-178 59.5q-72 0 -148 -35.5t-122 -95.5l-121 129q137 193 405 193q246 0 359 -146
q143 146 360 146q207 0 343 -136.5t136 -359.5q0 -55 -2 -78h-759q17 -110 96 -174.5t196 -64.5q82 0 153.5 36.5t107.5 100.5l172 -76q-59 -121 -179.5 -183t-263.5 -62q-161 0 -282 83zM963 557h555q-17 112 -90 174t-183 62q-111 0 -188 -63.5t-94 -172.5zM453 172
q49 0 101 9.5t111 39.5t87 76v72q-115 37 -256 37q-118 0 -163.5 -36t-45.5 -87q0 -50 41.5 -80.5t124.5 -30.5z" />
    <glyph glyph-name="ycircumflex.alt1" horiz-adv-x="1038" 
d="M410 1432h213l225 -324h-178l-156 180l-154 -180h-176zM348 -90l60 133l-379 913h225l266 -659l266 659h228l-473 -1126q-76 -171 -158 -239t-231 -68q-51 0 -123 16v182q47 -8 121 -8q39 0 68 12.5t52 41t39.5 60t38.5 83.5z" />
    <glyph glyph-name="ldot.alt1" horiz-adv-x="753" 
d="M473 563q0 60 41.5 99.5t101.5 39.5q61 0 104.5 -40t43.5 -99t-43.5 -99t-104.5 -40q-60 0 -101.5 39.5t-41.5 99.5zM588 197v-197h-103q-348 0 -348 412v1065h213v-1065q0 -34 3 -60.5t12.5 -57t26 -50.5t47 -33.5t71.5 -13.5h78z" />
    <glyph glyph-name="t.alt1" horiz-adv-x="739" 
d="M664 197v-197h-93q-189 0 -268.5 93t-79.5 284v405h-172v174h172v230l213 74v-304h201v-174h-201v-405q0 -42 5 -70.5t21 -55.5t49 -40.5t85 -13.5h68z" />
    <glyph glyph-name="tcaron.alt1" horiz-adv-x="739" 
d="M643 1077l-125 47q62 82 84.5 162.5t15.5 206.5h199q-8 -280 -174 -416zM664 197v-197h-93q-189 0 -268.5 93t-79.5 284v405h-172v174h172v230l213 74v-304h201v-174h-201v-405q0 -42 5 -70.5t21 -55.5t49 -40.5t85 -13.5h68z" />
    <glyph glyph-name="tbar.alt1" horiz-adv-x="743" 
d="M668 197v-197h-93q-189 0 -268.5 93t-79.5 284v63h-137v133h137v209h-172v174h172v230l213 74v-304h201v-174h-201v-209h146v-133h-146v-63q0 -42 5 -70.5t21 -55.5t49 -40.5t85 -13.5h68z" />
    <glyph glyph-name="tcommaaccent.alt1" horiz-adv-x="739" 
d="M457 -530l-123 47q62 85 84.5 162.5t15.5 203.5h199q-7 -276 -176 -413zM664 197v-197h-93q-189 0 -268.5 93t-79.5 284v405h-172v174h172v230l213 74v-304h201v-174h-201v-405q0 -42 5 -70.5t21 -55.5t49 -40.5t85 -13.5h68z" />
    <glyph glyph-name="T.sc.alt1" horiz-adv-x="983" 
d="M47 1186h889v-178h-346v-1008h-197v1008h-346v178z" />
    <glyph glyph-name="Tcaron.sc.alt1" horiz-adv-x="985" 
d="M494 1452l127 143h161l-198 -278h-183l-196 278h162zM578 1026v-1026h-172v1026h-363v170h899v-170h-364z" />
    <glyph glyph-name="Tbar.sc.alt1" horiz-adv-x="962" 
d="M567 717h230v-117h-230v-600h-172v600h-225v117h225v309h-362v170h899v-170h-365v-309z" />
    <glyph glyph-name="Tcommaaccent.sc.alt1" horiz-adv-x="983" 
d="M47 1186h889v-178h-346v-1008h-197v1008h-346v178zM436 -451l-108 41q54 76 73.5 146t6.5 166h170q0 -233 -142 -353z" />
    <glyph glyph-name="aringacute.alt1" horiz-adv-x="1099" 
d="M647 1776h240l-219 -273q54 -29 83 -80t29 -114q0 -92 -66 -157t-161 -65q-92 0 -156.5 65t-64.5 157q0 75 41.5 133.5t113.5 81.5zM446 1307q0 -44 32 -75.5t75 -31.5q47 0 80 31.5t33 75.5q0 47 -32.5 78.5t-80.5 31.5q-43 0 -75 -31.5t-32 -78.5zM453 172
q49 0 101 9.5t111 39.5t87 76v72q-134 55 -256 55q-62 0 -105.5 -14t-64.5 -36.5t-30 -44.5t-9 -46q0 -50 41.5 -80.5t124.5 -30.5zM242 655l-121 129q137 193 405 193q207 0 322 -104t115 -302v-571h-209v104q-98 -124 -310 -124q-167 0 -265.5 81t-98.5 222
q0 65 22.5 118.5t69.5 97t128.5 67.5t191.5 24q129 0 262 -62v43q0 96 -64 155.5t-178 59.5q-75 0 -149.5 -35.5t-120.5 -95.5z" />
    </font>
</defs>
</svg>
