<svg width="210" height="61" viewBox="0 0 210 61" fill="none" xmlns="http://www.w3.org/2000/svg">
<rect y="0.899414" width="210" height="60" rx="8" fill="white"/>
<rect x="59" y="15.8994" width="1" height="30" fill="#ECEDF2"/>
<path d="M84.693 23.8994C85.941 23.8994 86.929 23.4834 87.644 22.6514C88.359 21.8064 88.723 20.7404 88.723 19.4404C88.723 18.1274 88.359 17.0614 87.631 16.2164C86.916 15.3714 85.928 14.9424 84.693 14.9424H81.222V23.8994H84.693ZM82.431 16.0734H84.693C85.59 16.0734 86.292 16.3854 86.773 17.0224C87.267 17.6464 87.514 18.4524 87.514 19.4404C87.514 20.4154 87.267 21.2214 86.773 21.8454C86.292 22.4564 85.59 22.7684 84.693 22.7684H82.431V16.0734ZM89.9922 20.8444C89.9922 21.7934 90.3042 22.5604 90.9152 23.1454C91.5262 23.7304 92.2802 24.0294 93.1642 24.0294C94.0482 24.0294 94.8022 23.7304 95.4132 23.1454C96.0372 22.5474 96.3492 21.7804 96.3492 20.8444C96.3492 19.9084 96.0372 19.1544 95.4262 18.5694C94.8152 17.9844 94.0612 17.6984 93.1642 17.6984C92.2672 17.6984 91.5132 17.9844 90.9022 18.5694C90.2912 19.1544 89.9922 19.9084 89.9922 20.8444ZM95.1662 20.8444C95.1662 21.4554 94.9712 21.9494 94.5812 22.3264C94.2042 22.7034 93.7232 22.8854 93.1642 22.8854C92.6052 22.8854 92.1242 22.7034 91.7342 22.3264C91.3572 21.9494 91.1622 21.4554 91.1622 20.8444C91.1622 20.2464 91.3572 19.7654 91.7342 19.4014C92.1242 19.0374 92.6052 18.8554 93.1642 18.8554C93.7232 18.8554 94.2042 19.0374 94.5812 19.4014C94.9712 19.7654 95.1662 20.2464 95.1662 20.8444ZM106.818 17.8284H105.557L104.036 22.0794L102.515 17.8284H101.371L99.8503 22.0794L98.3293 17.8284H97.0683L99.3823 23.8994H100.344L101.943 19.4404L103.594 23.8994H104.569L106.818 17.8284ZM109.263 20.6234C109.263 19.4274 110.03 18.8554 110.979 18.8554C111.811 18.8554 112.318 19.4664 112.318 20.4674V23.8994H113.501V20.3894C113.501 18.6734 112.669 17.6984 111.161 17.6984C110.42 17.6984 109.614 18.0624 109.263 18.7384V17.8284H108.08V23.8994H109.263V20.6234ZM115.405 23.8994H116.588V14.5264H115.405V23.8994ZM118.163 20.8444C118.163 21.7934 118.475 22.5604 119.086 23.1454C119.697 23.7304 120.451 24.0294 121.335 24.0294C122.219 24.0294 122.973 23.7304 123.584 23.1454C124.208 22.5474 124.52 21.7804 124.52 20.8444C124.52 19.9084 124.208 19.1544 123.597 18.5694C122.986 17.9844 122.232 17.6984 121.335 17.6984C120.438 17.6984 119.684 17.9844 119.073 18.5694C118.462 19.1544 118.163 19.9084 118.163 20.8444ZM123.337 20.8444C123.337 21.4554 123.142 21.9494 122.752 22.3264C122.375 22.7034 121.894 22.8854 121.335 22.8854C120.776 22.8854 120.295 22.7034 119.905 22.3264C119.528 21.9494 119.333 21.4554 119.333 20.8444C119.333 20.2464 119.528 19.7654 119.905 19.4014C120.295 19.0374 120.776 18.8554 121.335 18.8554C121.894 18.8554 122.375 19.0374 122.752 19.4014C123.142 19.7654 123.337 20.2464 123.337 20.8444ZM132.074 23.8994V17.8284H130.904V18.7384C130.527 18.0754 129.656 17.6984 128.772 17.6984C127.914 17.6984 127.186 17.9844 126.588 18.5694C125.99 19.1544 125.691 19.9084 125.691 20.8574C125.691 21.7934 125.99 22.5604 126.588 23.1454C127.186 23.7304 127.914 24.0294 128.772 24.0294C129.656 24.0294 130.501 23.6394 130.904 22.9634V23.8994H132.074ZM130.891 20.8444C130.891 21.4684 130.696 21.9624 130.306 22.3264C129.916 22.6904 129.435 22.8724 128.876 22.8724C128.317 22.8724 127.849 22.6774 127.472 22.3004C127.095 21.9234 126.9 21.4294 126.9 20.8444C126.9 20.2594 127.082 19.7784 127.459 19.4144C127.836 19.0374 128.317 18.8554 128.876 18.8554C129.409 18.8554 129.877 19.0374 130.28 19.3884C130.683 19.7394 130.891 20.2334 130.891 20.8444ZM140.034 23.8994V14.5264H138.851V18.7384C138.448 18.0624 137.629 17.6984 136.706 17.6984C135.848 17.6984 135.12 17.9844 134.535 18.5694C133.95 19.1544 133.651 19.9084 133.651 20.8574C133.651 21.7934 133.95 22.5604 134.535 23.1454C135.133 23.7304 135.861 24.0294 136.719 24.0294C137.603 24.0294 138.448 23.6394 138.851 22.9634V23.8994H140.034ZM136.823 18.8554C137.356 18.8554 137.824 19.0374 138.227 19.3884C138.63 19.7394 138.838 20.2334 138.838 20.8444C138.838 21.4554 138.643 21.9494 138.24 22.3264C137.85 22.6904 137.382 22.8724 136.823 22.8724C136.264 22.8724 135.796 22.6774 135.419 22.3004C135.042 21.9234 134.86 21.4294 134.86 20.8444C134.86 20.2594 135.042 19.7784 135.419 19.4144C135.796 19.0374 136.264 18.8554 136.823 18.8554ZM144.988 20.8444C144.988 21.7934 145.3 22.5604 145.911 23.1454C146.522 23.7304 147.276 24.0294 148.16 24.0294C149.044 24.0294 149.798 23.7304 150.409 23.1454C151.033 22.5474 151.345 21.7804 151.345 20.8444C151.345 19.9084 151.033 19.1544 150.422 18.5694C149.811 17.9844 149.057 17.6984 148.16 17.6984C147.263 17.6984 146.509 17.9844 145.898 18.5694C145.287 19.1544 144.988 19.9084 144.988 20.8444ZM150.162 20.8444C150.162 21.4554 149.967 21.9494 149.577 22.3264C149.2 22.7034 148.719 22.8854 148.16 22.8854C147.601 22.8854 147.12 22.7034 146.73 22.3264C146.353 21.9494 146.158 21.4554 146.158 20.8444C146.158 20.2464 146.353 19.7654 146.73 19.4014C147.12 19.0374 147.601 18.8554 148.16 18.8554C148.719 18.8554 149.2 19.0374 149.577 19.4014C149.967 19.7654 150.162 20.2464 150.162 20.8444ZM154.103 20.6234C154.103 19.4274 154.87 18.8554 155.819 18.8554C156.651 18.8554 157.158 19.4664 157.158 20.4674V23.8994H158.341V20.3894C158.341 18.6734 157.509 17.6984 156.001 17.6984C155.26 17.6984 154.454 18.0624 154.103 18.7384V17.8284H152.92V23.8994H154.103V20.6234ZM165.107 15.5404H163.924V17.8284H162.832V18.8294H163.924V23.8994H165.107V18.8294H166.394V17.8284H165.107V15.5404ZM168.918 20.6234C168.918 20.0254 169.1 19.5834 169.477 19.2974C169.854 18.9984 170.283 18.8554 170.764 18.8554C171.609 18.8554 172.194 19.4794 172.194 20.4674V23.8994H173.377V20.3894C173.39 18.6864 172.441 17.6984 170.92 17.6984C170.543 17.6984 170.153 17.7894 169.75 17.9714C169.36 18.1404 169.087 18.4004 168.918 18.7384V14.5264H167.735V23.8994H168.918V20.6234ZM176.056 20.3894C176.199 19.3884 176.953 18.7644 177.98 18.7644C178.968 18.7644 179.683 19.3884 179.826 20.3894H176.056ZM180.996 20.8444C180.996 19.8954 180.71 19.1414 180.138 18.5694C179.579 17.9844 178.851 17.6984 177.98 17.6984C177.096 17.6984 176.355 17.9844 175.757 18.5694C175.172 19.1414 174.873 19.8954 174.873 20.8444C174.873 21.7934 175.172 22.5604 175.757 23.1454C176.355 23.7304 177.096 24.0294 177.98 24.0294C179.189 24.0294 180.268 23.4574 180.775 22.4174L180.281 22.2354C180.047 22.1444 179.878 22.0664 179.761 22.0274C179.436 22.6124 178.76 22.9634 178.019 22.9634C176.979 22.9634 176.199 22.3134 176.056 21.3124H180.983C180.996 21.2214 180.996 21.0654 180.996 20.8444Z" fill="#131A51"/>
<path d="M35.3809 31.1592C35.3483 29.3688 36.1621 27.9854 37.8223 27.0088C36.9108 25.7067 35.5273 24.9743 33.6719 24.8115C33.1836 24.779 32.6302 24.8441 32.0117 25.0068C31.6536 25.1045 31.1654 25.2673 30.5469 25.4951C29.9284 25.723 29.5215 25.8369 29.3262 25.8369C29.1309 25.8369 28.6914 25.7067 28.0078 25.4463C26.9336 25.0557 26.1361 24.8604 25.6152 24.8604C24.6712 24.8929 23.7598 25.1533 22.8809 25.6416C22.0345 26.1299 21.3509 26.846 20.8301 27.79C20.2767 28.7992 20 30.0036 20 31.4033C20 32.6729 20.2279 33.9912 20.6836 35.3584C20.944 36.0745 21.3184 36.8721 21.8066 37.751C22.4251 38.8252 23.0436 39.6715 23.6621 40.29C24.4759 41.1038 25.2409 41.4945 25.957 41.4619C26.3151 41.4619 26.8359 41.3317 27.5195 41.0713C28.3659 40.7458 29.0658 40.583 29.6191 40.583C30.1725 40.583 30.8398 40.7295 31.6211 41.0225C32.3372 41.3154 32.9232 41.4619 33.3789 41.4619C34.4206 41.4294 35.4785 40.6807 36.5527 39.2158C37.3665 38.0765 37.9688 36.8883 38.3594 35.6514C37.0573 35.0329 36.1784 34.1214 35.7227 32.917C35.4622 32.3311 35.3483 31.7451 35.3809 31.1592ZM32.5977 23.1025C33.4766 22.0609 33.8672 20.889 33.7695 19.5869C33.1836 19.6195 32.5814 19.7985 31.9629 20.124C31.3444 20.4495 30.8398 20.8402 30.4492 21.2959C29.5052 22.3376 29.0983 23.5094 29.2285 24.8115C30.4329 24.9092 31.556 24.3558 32.5977 23.1514V23.1025Z" fill="#131A51"/>
<path d="M89.81 44.8994L85.94 34.5644H83.87L80 44.8994H82.04L82.985 42.3944H86.84L87.785 44.8994H89.81ZM86.21 40.7144H83.63L84.905 36.7694L86.21 40.7144ZM90.8495 37.8944V48.3044H92.6795V43.9694C93.0395 44.6444 93.9245 45.0494 94.8695 45.0494C95.8145 45.0494 96.6245 44.7194 97.2845 44.0444C97.9595 43.3694 98.2895 42.4844 98.2895 41.3894C98.2895 40.3244 97.9595 39.4394 97.2845 38.7644C96.6095 38.0894 95.8145 37.7444 94.8695 37.7444C93.9245 37.7444 93.0395 38.1644 92.6795 38.8394V37.8944H90.8495ZM92.7095 41.4194C92.7095 40.2794 93.5345 39.4994 94.5695 39.4994C95.0795 39.4994 95.5145 39.6794 95.8745 40.0394C96.2345 40.3994 96.4145 40.8644 96.4145 41.4194C96.4145 42.5444 95.6045 43.3094 94.5695 43.3094C93.5495 43.3094 92.7095 42.5744 92.7095 41.4194ZM99.9315 37.8944V48.3044H101.761V43.9694C102.121 44.6444 103.006 45.0494 103.951 45.0494C104.896 45.0494 105.706 44.7194 106.366 44.0444C107.041 43.3694 107.371 42.4844 107.371 41.3894C107.371 40.3244 107.041 39.4394 106.366 38.7644C105.691 38.0894 104.896 37.7444 103.951 37.7444C103.006 37.7444 102.121 38.1644 101.761 38.8394V37.8944H99.9315ZM101.791 41.4194C101.791 40.2794 102.616 39.4994 103.651 39.4994C104.161 39.4994 104.596 39.6794 104.956 40.0394C105.316 40.3994 105.496 40.8644 105.496 41.4194C105.496 42.5444 104.686 43.3094 103.651 43.3094C102.631 43.3094 101.791 42.5744 101.791 41.4194ZM110.844 44.8994V34.0844H109.014V44.8994H110.844ZM119.66 41.3744C119.66 40.2944 119.315 39.4244 118.64 38.7494C117.965 38.0744 117.125 37.7444 116.105 37.7444C115.085 37.7444 114.23 38.0744 113.525 38.7494C112.82 39.4244 112.475 40.2944 112.475 41.3744C112.475 42.4544 112.82 43.3394 113.525 44.0294C114.23 44.7044 115.085 45.0494 116.105 45.0494C117.5 45.0494 118.775 44.4944 119.375 43.3544L117.98 42.6044C117.665 43.1894 116.96 43.5044 116.225 43.5044C115.19 43.5044 114.41 42.9194 114.29 42.0044H119.63C119.645 41.7794 119.66 41.5694 119.66 41.3744ZM114.275 40.7594C114.41 39.8444 115.145 39.2744 116.12 39.2744C117.035 39.2744 117.74 39.8144 117.875 40.7594H114.275ZM124.577 41.8844C124.577 42.7844 124.922 43.5344 125.612 44.1494C126.302 44.7644 127.187 45.0644 128.282 45.0644C129.272 45.0644 130.112 44.8094 130.802 44.2844C131.507 43.7594 131.867 43.0394 131.912 42.1394C132.017 40.7594 131.237 39.5744 129.092 38.9894L127.817 38.6144C126.992 38.3894 126.587 37.9994 126.587 37.4294C126.587 36.7094 127.247 36.2144 128.132 36.2144C129.092 36.2144 129.677 36.7394 129.677 37.5644H131.597C131.597 36.6194 131.267 35.8544 130.622 35.2994C129.977 34.7294 129.167 34.4444 128.162 34.4444C127.187 34.4444 126.362 34.7294 125.687 35.2994C125.012 35.8544 124.682 36.5894 124.682 37.4744C124.682 38.8844 125.552 39.8444 127.292 40.3544L128.567 40.6844C129.572 40.9694 130.037 41.4194 129.992 42.0944C129.947 42.8144 129.287 43.3394 128.282 43.3394C127.217 43.3394 126.542 42.6794 126.497 41.8844H124.577ZM134.091 35.2244V37.8944H132.816V39.3644H134.091V44.8994H135.906V39.3644H137.391V37.8944H135.906V35.2244H134.091ZM143.717 41.3744C143.717 42.4994 142.922 43.2494 141.887 43.2494C140.852 43.2494 140.057 42.4994 140.057 41.3744C140.057 40.2944 140.852 39.5444 141.887 39.5444C142.922 39.5444 143.717 40.2944 143.717 41.3744ZM144.467 44.0144C145.172 43.3394 145.532 42.4544 145.532 41.3744C145.532 40.2944 145.172 39.4244 144.467 38.7494C143.762 38.0744 142.907 37.7444 141.887 37.7444C140.867 37.7444 139.997 38.0744 139.292 38.7494C138.587 39.4244 138.242 40.2944 138.242 41.3744C138.242 42.4544 138.587 43.3394 139.292 44.0144C139.997 44.6894 140.867 45.0344 141.887 45.0344C142.907 45.0344 143.762 44.6894 144.467 44.0144ZM149.003 42.4244C149.003 40.4444 149.588 39.4544 150.758 39.4544C151.178 39.4544 151.538 39.5144 151.823 39.6494L152.138 37.9994C151.823 37.8344 151.433 37.7444 150.983 37.7444C150.128 37.7444 149.348 38.3444 149.003 39.5444V37.8944H147.173V44.8994H149.003V42.4244ZM159.943 41.3744C159.943 40.2944 159.598 39.4244 158.923 38.7494C158.248 38.0744 157.408 37.7444 156.388 37.7444C155.368 37.7444 154.513 38.0744 153.808 38.7494C153.103 39.4244 152.758 40.2944 152.758 41.3744C152.758 42.4544 153.103 43.3394 153.808 44.0294C154.513 44.7044 155.368 45.0494 156.388 45.0494C157.783 45.0494 159.058 44.4944 159.658 43.3544L158.263 42.6044C157.948 43.1894 157.243 43.5044 156.508 43.5044C155.473 43.5044 154.693 42.9194 154.573 42.0044H159.913C159.928 41.7794 159.943 41.5694 159.943 41.3744ZM154.558 40.7594C154.693 39.8444 155.428 39.2744 156.403 39.2744C157.318 39.2744 158.023 39.8144 158.158 40.7594H154.558Z" fill="#131A51"/>
</svg>
