<svg width="210" height="61" viewBox="0 0 210 61" fill="none" xmlns="http://www.w3.org/2000/svg">
<rect y="0.899414" width="210" height="60" rx="8" fill="white"/>
<rect x="64" y="15.8994" width="1" height="30" fill="#ECEDF2"/>
<path d="M94.19 16.0214C93.345 15.2284 92.331 14.8384 91.161 14.8384C89.9 14.8384 88.821 15.2804 87.95 16.1774C87.079 17.0744 86.637 18.1534 86.637 19.4404C86.637 20.7144 87.079 21.7934 87.95 22.6904C88.821 23.5874 89.9 24.0294 91.161 24.0294C93.8 24.0294 95.399 22.4694 95.399 19.4014H91.473V20.4544H94.021C93.982 21.1954 93.709 21.7804 93.176 22.2224C92.643 22.6514 91.98 22.8724 91.161 22.8724C90.238 22.8724 89.445 22.5344 88.808 21.8714C88.171 21.2084 87.846 20.3894 87.846 19.4404C87.846 18.4914 88.171 17.6724 88.808 17.0094C89.445 16.3334 90.238 15.9954 91.161 15.9954C91.98 15.9954 92.695 16.2684 93.319 16.8274L94.19 16.0214ZM97.5942 20.3894C97.7372 19.3884 98.4912 18.7644 99.5182 18.7644C100.506 18.7644 101.221 19.3884 101.364 20.3894H97.5942ZM102.534 20.8444C102.534 19.8954 102.248 19.1414 101.676 18.5694C101.117 17.9844 100.389 17.6984 99.5182 17.6984C98.6342 17.6984 97.8932 17.9844 97.2952 18.5694C96.7102 19.1414 96.4112 19.8954 96.4112 20.8444C96.4112 21.7934 96.7102 22.5604 97.2952 23.1454C97.8932 23.7304 98.6342 24.0294 99.5182 24.0294C100.727 24.0294 101.806 23.4574 102.313 22.4174L101.819 22.2354C101.585 22.1444 101.416 22.0664 101.299 22.0274C100.974 22.6124 100.298 22.9634 99.5572 22.9634C98.5172 22.9634 97.7372 22.3134 97.5942 21.3124H102.521C102.534 21.2214 102.534 21.0654 102.534 20.8444ZM105.676 15.5404H104.493V17.8284H103.401V18.8294H104.493V23.8994H105.676V18.8294H106.963V17.8284H105.676V15.5404ZM112.609 23.8994V17.8284H111.439V23.8994H112.609ZM111.439 16.1384C111.764 16.4374 112.284 16.4374 112.596 16.1384C112.921 15.8394 112.921 15.3454 112.596 15.0464C112.284 14.7474 111.764 14.7474 111.439 15.0464C111.127 15.3454 111.127 15.8394 111.439 16.1384ZM115.771 20.6234C115.771 19.4274 116.538 18.8554 117.487 18.8554C118.319 18.8554 118.826 19.4664 118.826 20.4674V23.8994H120.009V20.3894C120.009 18.6734 119.177 17.6984 117.669 17.6984C116.928 17.6984 116.122 18.0624 115.771 18.7384V17.8284H114.588V23.8994H115.771V20.6234ZM124.887 20.8444C124.887 21.7934 125.199 22.5604 125.81 23.1454C126.421 23.7304 127.175 24.0294 128.059 24.0294C128.943 24.0294 129.697 23.7304 130.308 23.1454C130.932 22.5474 131.244 21.7804 131.244 20.8444C131.244 19.9084 130.932 19.1544 130.321 18.5694C129.71 17.9844 128.956 17.6984 128.059 17.6984C127.162 17.6984 126.408 17.9844 125.797 18.5694C125.186 19.1544 124.887 19.9084 124.887 20.8444ZM130.061 20.8444C130.061 21.4554 129.866 21.9494 129.476 22.3264C129.099 22.7034 128.618 22.8854 128.059 22.8854C127.5 22.8854 127.019 22.7034 126.629 22.3264C126.252 21.9494 126.057 21.4554 126.057 20.8444C126.057 20.2464 126.252 19.7654 126.629 19.4014C127.019 19.0374 127.5 18.8554 128.059 18.8554C128.618 18.8554 129.099 19.0374 129.476 19.4014C129.866 19.7654 130.061 20.2464 130.061 20.8444ZM134.001 20.6234C134.001 19.4274 134.768 18.8554 135.717 18.8554C136.549 18.8554 137.056 19.4664 137.056 20.4674V23.8994H138.239V20.3894C138.239 18.6734 137.407 17.6984 135.899 17.6984C135.158 17.6984 134.352 18.0624 134.001 18.7384V17.8284H132.818V23.8994H134.001V20.6234Z" fill="#131A51"/>
<path d="M34.8691 30.4502L24.127 19.6592L37.7988 27.5205L34.8691 30.4502ZM21.2949 19.0244C20.5788 19.3825 20.2207 19.9521 20.2207 20.7334V42.3154C20.2207 43.0967 20.5788 43.6663 21.2949 44.0244L33.8438 31.5244L21.2949 19.0244ZM42.0469 30.0596L39.166 28.3506L35.9922 31.5244L39.166 34.6494L42.0957 32.9893C42.5514 32.6637 42.763 32.1755 42.7305 31.5244C42.7305 30.8734 42.5026 30.3851 42.0469 30.0596ZM24.127 43.3896L37.7988 35.5283L34.8691 32.5986L24.127 43.3896Z" fill="#131A51"/>
<path d="M95.675 36.0194C94.7 34.9694 93.44 34.4444 91.925 34.4444C90.455 34.4444 89.21 34.9694 88.19 36.0044C87.17 37.0394 86.66 38.2844 86.66 39.7544C86.66 41.2094 87.17 42.4694 88.19 43.5044C89.21 44.5394 90.455 45.0494 91.925 45.0494C95 45.0494 96.92 43.2194 96.92 39.5594H91.88V41.1344H94.715C94.7 41.7644 94.4 42.2744 93.845 42.6794C93.29 43.0844 92.66 43.2794 91.925 43.2794C90.98 43.2794 90.185 42.9344 89.54 42.2444C88.895 41.5544 88.58 40.7294 88.58 39.7544C88.58 38.7794 88.895 37.9544 89.54 37.2794C90.185 36.5894 90.98 36.2444 91.925 36.2444C92.84 36.2444 93.62 36.5744 94.265 37.2494L95.675 36.0194ZM103.413 41.3744C103.413 42.4994 102.618 43.2494 101.583 43.2494C100.548 43.2494 99.7529 42.4994 99.7529 41.3744C99.7529 40.2944 100.548 39.5444 101.583 39.5444C102.618 39.5444 103.413 40.2944 103.413 41.3744ZM104.163 44.0144C104.868 43.3394 105.228 42.4544 105.228 41.3744C105.228 40.2944 104.868 39.4244 104.163 38.7494C103.458 38.0744 102.603 37.7444 101.583 37.7444C100.563 37.7444 99.6929 38.0744 98.9879 38.7494C98.2829 39.4244 97.9379 40.2944 97.9379 41.3744C97.9379 42.4544 98.2829 43.3394 98.9879 44.0144C99.6929 44.6894 100.563 45.0344 101.583 45.0344C102.603 45.0344 103.458 44.6894 104.163 44.0144ZM111.909 41.3744C111.909 42.4994 111.114 43.2494 110.079 43.2494C109.044 43.2494 108.249 42.4994 108.249 41.3744C108.249 40.2944 109.044 39.5444 110.079 39.5444C111.114 39.5444 111.909 40.2944 111.909 41.3744ZM112.659 44.0144C113.364 43.3394 113.724 42.4544 113.724 41.3744C113.724 40.2944 113.364 39.4244 112.659 38.7494C111.954 38.0744 111.099 37.7444 110.079 37.7444C109.059 37.7444 108.189 38.0744 107.484 38.7494C106.779 39.4244 106.434 40.2944 106.434 41.3744C106.434 42.4544 106.779 43.3394 107.484 44.0144C108.189 44.6894 109.059 45.0344 110.079 45.0344C111.099 45.0344 111.954 44.6894 112.659 44.0144ZM120.63 41.3894C120.63 41.9594 120.435 42.4244 120.045 42.7844C119.67 43.1294 119.22 43.3094 118.725 43.3094C117.66 43.3094 116.835 42.5294 116.835 41.3894C116.835 40.2944 117.69 39.4994 118.725 39.4994C119.79 39.4994 120.63 40.2344 120.63 41.3894ZM115.2 46.3244C115.815 47.5994 117.09 48.3944 118.545 48.3944C121.05 48.3944 122.46 46.9394 122.46 43.8944V37.8944H120.675V38.8394C120.3 38.1644 119.385 37.7444 118.44 37.7444C117.495 37.7444 116.67 38.0894 115.965 38.7644C115.275 39.4394 114.93 40.3244 114.93 41.4194C114.93 42.4844 115.275 43.3694 115.965 44.0444C116.67 44.7194 117.495 45.0494 118.44 45.0494C119.4 45.0494 120.33 44.6144 120.675 43.9394C120.795 45.5744 120.18 46.7294 118.545 46.7294C117.78 46.7294 116.985 46.2494 116.685 45.5744L115.2 46.3244ZM126.365 44.8994V34.0844H124.535V44.8994H126.365ZM135.181 41.3744C135.181 40.2944 134.836 39.4244 134.161 38.7494C133.486 38.0744 132.646 37.7444 131.626 37.7444C130.606 37.7444 129.751 38.0744 129.046 38.7494C128.341 39.4244 127.996 40.2944 127.996 41.3744C127.996 42.4544 128.341 43.3394 129.046 44.0294C129.751 44.7044 130.606 45.0494 131.626 45.0494C133.021 45.0494 134.296 44.4944 134.896 43.3544L133.501 42.6044C133.186 43.1894 132.481 43.5044 131.746 43.5044C130.711 43.5044 129.931 42.9194 129.811 42.0044H135.151C135.166 41.7794 135.181 41.5694 135.181 41.3744ZM129.796 40.7594C129.931 39.8444 130.666 39.2744 131.641 39.2744C132.556 39.2744 133.261 39.8144 133.396 40.7594H129.796ZM144.868 36.2744C145.768 36.2744 146.263 37.0694 146.263 37.9094C146.263 38.7494 145.723 39.5144 144.808 39.5144H142.618V36.2744H144.868ZM142.618 44.8994V41.2244H144.898C145.978 41.2244 146.788 40.9094 147.343 40.2644C147.898 39.6194 148.183 38.8244 148.183 37.9094C148.183 36.9944 147.898 36.1994 147.343 35.5544C146.788 34.8944 145.978 34.5644 144.898 34.5644H140.698V44.8994H142.618ZM151.458 44.8994V34.0844H149.628V44.8994H151.458ZM160.664 44.8994V37.8944H158.834V38.7644C158.369 38.0594 157.439 37.7444 156.659 37.7444C155.684 37.7444 154.844 38.0894 154.139 38.7644C153.434 39.4394 153.089 40.3094 153.089 41.3894C153.089 42.4694 153.449 43.3544 154.154 44.0294C154.859 44.7044 155.699 45.0344 156.659 45.0344C157.439 45.0344 158.414 44.6594 158.834 43.9994V44.8994H160.664ZM158.834 41.3894C158.909 43.1294 156.659 43.8644 155.549 42.7544C155.174 42.3944 154.979 41.9444 154.979 41.3894C154.979 40.8344 155.174 40.3844 155.549 40.0394C155.939 39.6794 156.389 39.4994 156.914 39.4994C157.424 39.4994 157.874 39.6644 158.249 40.0094C158.639 40.3544 158.834 40.8044 158.834 41.3894ZM167.283 37.8944L165.528 42.2594L163.788 37.8944H161.838L164.568 44.3594L162.963 48.3194H164.898L169.233 37.8944H167.283Z" fill="#131A51"/>
</svg>
